<svg xmlns="http://www.w3.org/2000/svg" xmlns:xlink="http://www.w3.org/1999/xlink" width="719" zoomAndPan="magnify" viewBox="0 0 539.25 323.249999" height="431" preserveAspectRatio="xMidYMid meet" version="1.0"><defs><clipPath id="bf32c4295c"><path d="M 0.25 18 L 538.25 18 L 538.25 20 L 0.25 20 Z M 0.25 18 " clip-rule="nonzero"/></clipPath><clipPath id="a3de004bcd"><path d="M 0.25 19 L 538.25 19 L 538.25 21 L 0.25 21 Z M 0.25 19 " clip-rule="nonzero"/></clipPath><clipPath id="b400b1e6c0"><path d="M 0.25 18 L 538.25 18 L 538.25 20 L 0.25 20 Z M 0.25 18 " clip-rule="nonzero"/></clipPath><clipPath id="032de8df09"><path d="M 0.25 46 L 538.25 46 L 538.25 49 L 0.25 49 Z M 0.25 46 " clip-rule="nonzero"/></clipPath><clipPath id="1c514456cb"><path d="M 0.25 47 L 538.25 47 L 538.25 49 L 0.25 49 Z M 0.25 47 " clip-rule="nonzero"/></clipPath><clipPath id="ed07774233"><path d="M 0.25 74 L 538.25 74 L 538.25 77 L 0.25 77 Z M 0.25 74 " clip-rule="nonzero"/></clipPath><clipPath id="9ee4bd8d7d"><path d="M 0.25 75 L 538.25 75 L 538.25 77 L 0.25 77 Z M 0.25 75 " clip-rule="nonzero"/></clipPath><clipPath id="27020e1ddf"><path d="M 0.25 103 L 538.25 103 L 538.25 105 L 0.25 105 Z M 0.25 103 " clip-rule="nonzero"/></clipPath><clipPath id="982beca90d"><path d="M 0.25 104 L 538.25 104 L 538.25 106 L 0.25 106 Z M 0.25 104 " clip-rule="nonzero"/></clipPath><clipPath id="0b3f72e4e5"><path d="M 0.25 103 L 538.25 103 L 538.25 105 L 0.25 105 Z M 0.25 103 " clip-rule="nonzero"/></clipPath><clipPath id="629efc4cc8"><path d="M 0.25 131 L 538.25 131 L 538.25 134 L 0.25 134 Z M 0.25 131 " clip-rule="nonzero"/></clipPath><clipPath id="0dcbe3b23d"><path d="M 0.25 132 L 538.25 132 L 538.25 134 L 0.25 134 Z M 0.25 132 " clip-rule="nonzero"/></clipPath><clipPath id="621151b24d"><path d="M 0.25 159 L 538.25 159 L 538.25 162 L 0.25 162 Z M 0.25 159 " clip-rule="nonzero"/></clipPath><clipPath id="9601efde15"><path d="M 0.25 160 L 538.25 160 L 538.25 162 L 0.25 162 Z M 0.25 160 " clip-rule="nonzero"/></clipPath><clipPath id="401b323a12"><path d="M 0.25 188 L 538.25 188 L 538.25 191 L 0.25 191 Z M 0.25 188 " clip-rule="nonzero"/></clipPath><clipPath id="9450ce09ea"><path d="M 0.25 189 L 538.25 189 L 538.25 191 L 0.25 191 Z M 0.25 189 " clip-rule="nonzero"/></clipPath><clipPath id="c78290b5b4"><path d="M 0.25 216 L 538.25 216 L 538.25 219 L 0.25 219 Z M 0.25 216 " clip-rule="nonzero"/></clipPath><clipPath id="cd81f8a5fa"><path d="M 0.25 217 L 538.25 217 L 538.25 220 L 0.25 220 Z M 0.25 217 " clip-rule="nonzero"/></clipPath><clipPath id="7da9f76c45"><path d="M 0.25 217 L 538.25 217 L 538.25 219 L 0.25 219 Z M 0.25 217 " clip-rule="nonzero"/></clipPath><clipPath id="7a8baa7e18"><path d="M 0.25 245 L 538.25 245 L 538.25 248 L 0.25 248 Z M 0.25 245 " clip-rule="nonzero"/></clipPath><clipPath id="e3d0762bf1"><path d="M 0.25 246 L 538.25 246 L 538.25 248 L 0.25 248 Z M 0.25 246 " clip-rule="nonzero"/></clipPath><clipPath id="8d59795d0b"><path d="M 0.25 245 L 538.25 245 L 538.25 248 L 0.25 248 Z M 0.25 245 " clip-rule="nonzero"/></clipPath><clipPath id="d828853854"><path d="M 0.25 273 L 538.25 273 L 538.25 276 L 0.25 276 Z M 0.25 273 " clip-rule="nonzero"/></clipPath><clipPath id="4c949c1107"><path d="M 0.25 274 L 538.25 274 L 538.25 276 L 0.25 276 Z M 0.25 274 " clip-rule="nonzero"/></clipPath><clipPath id="6b8d12d1ae"><path d="M 0.25 301 L 538.25 301 L 538.25 304 L 0.25 304 Z M 0.25 301 " clip-rule="nonzero"/></clipPath><clipPath id="9db8c8554b"><path d="M 0.25 303 L 538.25 303 L 538.25 305 L 0.25 305 Z M 0.25 303 " clip-rule="nonzero"/></clipPath><clipPath id="4358263c95"><path d="M 0.25 302 L 538.25 302 L 538.25 304 L 0.25 304 Z M 0.25 302 " clip-rule="nonzero"/></clipPath><clipPath id="2a72a58cbf"><path d="M 51.707031 0 L 55.84375 0 L 55.84375 322.5 L 51.707031 322.5 Z M 51.707031 0 " clip-rule="nonzero"/></clipPath><clipPath id="fa1aa35e22"><path d="M 51 0 L 55 0 L 55 322.5 L 51 322.5 Z M 51 0 " clip-rule="nonzero"/></clipPath><clipPath id="4bc090dfbf"><path d="M 51.707031 0 L 55 0 L 55 322.5 L 51.707031 322.5 Z M 51.707031 0 " clip-rule="nonzero"/></clipPath></defs><g clip-path="url(#bf32c4295c)"><path fill="#e7e4f4" d="M 538.078125 19.851562 L 0.421875 19.851562 L 0.421875 18 L 538.078125 18 L 538.078125 19.851562 " fill-opacity="1" fill-rule="evenodd"/></g><g clip-path="url(#a3de004bcd)"><path fill="#a29bd3" d="M 538.078125 20.199219 L 0.421875 20.199219 L 0.421875 19.0625 L 538.078125 19.0625 L 538.078125 20.199219 " fill-opacity="1" fill-rule="evenodd"/></g><g clip-path="url(#b400b1e6c0)"><path fill="#c8bfe5" d="M 538.078125 19.84375 L 0.421875 19.84375 L 0.421875 18.707031 L 538.078125 18.707031 L 538.078125 19.84375 " fill-opacity="1" fill-rule="evenodd"/></g><g clip-path="url(#032de8df09)"><path fill="#e7e4f4" d="M 538.078125 48.203125 L 0.421875 48.203125 L 0.421875 46.347656 L 538.078125 46.347656 L 538.078125 48.203125 " fill-opacity="1" fill-rule="evenodd"/></g><g clip-path="url(#1c514456cb)"><path fill="#a29bd3" d="M 538.078125 48.546875 L 0.421875 48.546875 L 0.421875 47.410156 L 538.078125 47.410156 L 538.078125 48.546875 " fill-opacity="1" fill-rule="evenodd"/><path fill="#c8bfe5" d="M 538.078125 48.191406 L 0.421875 48.191406 L 0.421875 47.058594 L 538.078125 47.058594 L 538.078125 48.191406 " fill-opacity="1" fill-rule="evenodd"/></g><g clip-path="url(#ed07774233)"><path fill="#e7e4f4" d="M 538.078125 76.550781 L 0.421875 76.550781 L 0.421875 74.695312 L 538.078125 74.695312 L 538.078125 76.550781 " fill-opacity="1" fill-rule="evenodd"/></g><g clip-path="url(#9ee4bd8d7d)"><path fill="#a29bd3" d="M 538.078125 76.898438 L 0.421875 76.898438 L 0.421875 75.761719 L 538.078125 75.761719 L 538.078125 76.898438 " fill-opacity="1" fill-rule="evenodd"/><path fill="#c8bfe5" d="M 538.078125 76.542969 L 0.421875 76.542969 L 0.421875 75.40625 L 538.078125 75.40625 L 538.078125 76.542969 " fill-opacity="1" fill-rule="evenodd"/></g><g clip-path="url(#27020e1ddf)"><path fill="#e7e4f4" d="M 538.078125 104.898438 L 0.421875 104.898438 L 0.421875 103.046875 L 538.078125 103.046875 L 538.078125 104.898438 " fill-opacity="1" fill-rule="evenodd"/></g><g clip-path="url(#982beca90d)"><path fill="#a29bd3" d="M 538.078125 105.246094 L 0.421875 105.246094 L 0.421875 104.109375 L 538.078125 104.109375 L 538.078125 105.246094 " fill-opacity="1" fill-rule="evenodd"/></g><g clip-path="url(#0b3f72e4e5)"><path fill="#c8bfe5" d="M 538.078125 104.890625 L 0.421875 104.890625 L 0.421875 103.753906 L 538.078125 103.753906 L 538.078125 104.890625 " fill-opacity="1" fill-rule="evenodd"/></g><g clip-path="url(#629efc4cc8)"><path fill="#e7e4f4" d="M 538.078125 133.25 L 0.421875 133.25 L 0.421875 131.394531 L 538.078125 131.394531 L 538.078125 133.25 " fill-opacity="1" fill-rule="evenodd"/></g><g clip-path="url(#0dcbe3b23d)"><path fill="#a29bd3" d="M 538.078125 133.59375 L 0.421875 133.59375 L 0.421875 132.457031 L 538.078125 132.457031 L 538.078125 133.59375 " fill-opacity="1" fill-rule="evenodd"/><path fill="#c8bfe5" d="M 538.078125 133.242188 L 0.421875 133.242188 L 0.421875 132.105469 L 538.078125 132.105469 L 538.078125 133.242188 " fill-opacity="1" fill-rule="evenodd"/></g><g clip-path="url(#621151b24d)"><path fill="#e7e4f4" d="M 538.078125 161.597656 L 0.421875 161.597656 L 0.421875 159.746094 L 538.078125 159.746094 L 538.078125 161.597656 " fill-opacity="1" fill-rule="evenodd"/></g><g clip-path="url(#9601efde15)"><path fill="#a29bd3" d="M 538.078125 161.945312 L 0.421875 161.945312 L 0.421875 160.808594 L 538.078125 160.808594 L 538.078125 161.945312 " fill-opacity="1" fill-rule="evenodd"/><path fill="#c8bfe5" d="M 538.078125 161.589844 L 0.421875 161.589844 L 0.421875 160.453125 L 538.078125 160.453125 L 538.078125 161.589844 " fill-opacity="1" fill-rule="evenodd"/></g><g clip-path="url(#401b323a12)"><path fill="#e7e4f4" d="M 538.078125 190.433594 L 0.421875 190.433594 L 0.421875 188.582031 L 538.078125 188.582031 L 538.078125 190.433594 " fill-opacity="1" fill-rule="evenodd"/></g><g clip-path="url(#9450ce09ea)"><path fill="#a29bd3" d="M 538.078125 190.78125 L 0.421875 190.78125 L 0.421875 189.644531 L 538.078125 189.644531 L 538.078125 190.78125 " fill-opacity="1" fill-rule="evenodd"/><path fill="#c8bfe5" d="M 538.078125 190.425781 L 0.421875 190.425781 L 0.421875 189.289062 L 538.078125 189.289062 L 538.078125 190.425781 " fill-opacity="1" fill-rule="evenodd"/></g><g clip-path="url(#c78290b5b4)"><path fill="#e7e4f4" d="M 538.078125 218.78125 L 0.421875 218.78125 L 0.421875 216.929688 L 538.078125 216.929688 L 538.078125 218.78125 " fill-opacity="1" fill-rule="evenodd"/></g><g clip-path="url(#cd81f8a5fa)"><path fill="#a29bd3" d="M 538.078125 219.128906 L 0.421875 219.128906 L 0.421875 217.992188 L 538.078125 217.992188 L 538.078125 219.128906 " fill-opacity="1" fill-rule="evenodd"/></g><g clip-path="url(#7da9f76c45)"><path fill="#c8bfe5" d="M 538.078125 218.773438 L 0.421875 218.773438 L 0.421875 217.640625 L 538.078125 217.640625 L 538.078125 218.773438 " fill-opacity="1" fill-rule="evenodd"/></g><g clip-path="url(#7a8baa7e18)"><path fill="#e7e4f4" d="M 538.078125 247.132812 L 0.421875 247.132812 L 0.421875 245.277344 L 538.078125 245.277344 L 538.078125 247.132812 " fill-opacity="1" fill-rule="evenodd"/></g><g clip-path="url(#e3d0762bf1)"><path fill="#a29bd3" d="M 538.078125 247.476562 L 0.421875 247.476562 L 0.421875 246.339844 L 538.078125 246.339844 L 538.078125 247.476562 " fill-opacity="1" fill-rule="evenodd"/></g><g clip-path="url(#8d59795d0b)"><path fill="#c8bfe5" d="M 538.078125 247.125 L 0.421875 247.125 L 0.421875 245.988281 L 538.078125 245.988281 L 538.078125 247.125 " fill-opacity="1" fill-rule="evenodd"/></g><g clip-path="url(#d828853854)"><path fill="#e7e4f4" d="M 538.078125 275.480469 L 0.421875 275.480469 L 0.421875 273.628906 L 538.078125 273.628906 L 538.078125 275.480469 " fill-opacity="1" fill-rule="evenodd"/></g><g clip-path="url(#4c949c1107)"><path fill="#a29bd3" d="M 538.078125 275.828125 L 0.421875 275.828125 L 0.421875 274.691406 L 538.078125 274.691406 L 538.078125 275.828125 " fill-opacity="1" fill-rule="evenodd"/><path fill="#c8bfe5" d="M 538.078125 275.472656 L 0.421875 275.472656 L 0.421875 274.335938 L 538.078125 274.335938 L 538.078125 275.472656 " fill-opacity="1" fill-rule="evenodd"/></g><g clip-path="url(#6b8d12d1ae)"><path fill="#e7e4f4" d="M 538.078125 303.828125 L 0.421875 303.828125 L 0.421875 301.976562 L 538.078125 301.976562 L 538.078125 303.828125 " fill-opacity="1" fill-rule="evenodd"/></g><g clip-path="url(#9db8c8554b)"><path fill="#a29bd3" d="M 538.078125 304.175781 L 0.421875 304.175781 L 0.421875 303.039062 L 538.078125 303.039062 L 538.078125 304.175781 " fill-opacity="1" fill-rule="evenodd"/></g><g clip-path="url(#4358263c95)"><path fill="#c8bfe5" d="M 538.078125 303.820312 L 0.421875 303.820312 L 0.421875 302.683594 L 538.078125 302.683594 L 538.078125 303.820312 " fill-opacity="1" fill-rule="evenodd"/></g><g clip-path="url(#2a72a58cbf)"><path fill="#fcdbef" d="M 55.488281 409.15625 L 51.941406 409.15625 L 51.941406 -86.9375 L 55.488281 -86.9375 L 55.488281 409.15625 " fill-opacity="1" fill-rule="evenodd"/></g><g clip-path="url(#fa1aa35e22)"><path fill="#fabce1" d="M 54.78125 409.15625 L 51.234375 409.15625 L 51.234375 -86.9375 L 54.78125 -86.9375 L 54.78125 409.15625 " fill-opacity="1" fill-rule="evenodd"/></g><g clip-path="url(#4bc090dfbf)"><path fill="#f89dd3" d="M 54.78125 409.15625 L 51.941406 409.15625 L 51.941406 -86.9375 L 54.78125 -86.9375 L 54.78125 409.15625 " fill-opacity="1" fill-rule="nonzero"/></g><path fill="#cc6ebe" d="M 54.078125 305.191406 L 51.242188 305.191406 L 51.242188 304.050781 L 54.078125 304.050781 L 54.078125 305.191406 " fill-opacity="1" fill-rule="nonzero"/><path fill="#f79fd4" d="M 54.078125 304.136719 L 51.242188 304.136719 L 51.242188 302.984375 L 54.078125 302.984375 L 54.078125 304.136719 " fill-opacity="1" fill-rule="nonzero"/><path fill="#da7ec5" d="M 54.078125 304.835938 L 51.242188 304.835938 L 51.242188 303.695312 L 54.078125 303.695312 L 54.078125 304.835938 " fill-opacity="1" fill-rule="nonzero"/><path fill="#d78dcc" d="M 55.484375 305.191406 L 52.648438 305.191406 L 52.648438 304.050781 L 55.484375 304.050781 L 55.484375 305.191406 " fill-opacity="1" fill-rule="nonzero"/><path fill="#fabde1" d="M 55.484375 304.136719 L 52.648438 304.136719 L 52.648438 302.984375 L 55.484375 302.984375 L 55.484375 304.136719 " fill-opacity="1" fill-rule="nonzero"/><path fill="#e793cf" d="M 55.484375 304.835938 L 52.648438 304.835938 L 52.648438 303.695312 L 55.484375 303.695312 L 55.484375 304.835938 " fill-opacity="1" fill-rule="nonzero"/><path fill="#b15aa7" d="M 54.78125 305.191406 L 51.941406 305.191406 L 51.941406 304.050781 L 54.78125 304.050781 L 54.78125 305.191406 " fill-opacity="1" fill-rule="nonzero"/><path fill="#f18fcd" d="M 54.78125 304.136719 L 51.941406 304.136719 L 51.941406 302.984375 L 54.78125 302.984375 L 54.78125 304.136719 " fill-opacity="1" fill-rule="nonzero"/><path fill="#cc66ba" d="M 54.78125 304.835938 L 51.941406 304.835938 L 51.941406 303.695312 L 54.78125 303.695312 L 54.78125 304.835938 " fill-opacity="1" fill-rule="nonzero"/><path fill="#cc6ebe" d="M 54.078125 276.839844 L 51.242188 276.839844 L 51.242188 275.703125 L 54.078125 275.703125 L 54.078125 276.839844 " fill-opacity="1" fill-rule="nonzero"/><path fill="#f79fd4" d="M 54.078125 275.789062 L 51.242188 275.789062 L 51.242188 274.632812 L 54.078125 274.632812 L 54.078125 275.789062 " fill-opacity="1" fill-rule="nonzero"/><path fill="#da7ec5" d="M 54.078125 276.488281 L 51.242188 276.488281 L 51.242188 275.347656 L 54.078125 275.347656 L 54.078125 276.488281 " fill-opacity="1" fill-rule="nonzero"/><path fill="#d78dcc" d="M 55.484375 276.839844 L 52.648438 276.839844 L 52.648438 275.703125 L 55.484375 275.703125 L 55.484375 276.839844 " fill-opacity="1" fill-rule="nonzero"/><path fill="#fabde1" d="M 55.484375 275.789062 L 52.648438 275.789062 L 52.648438 274.632812 L 55.484375 274.632812 L 55.484375 275.789062 " fill-opacity="1" fill-rule="nonzero"/><path fill="#e793cf" d="M 55.484375 276.488281 L 52.648438 276.488281 L 52.648438 275.347656 L 55.484375 275.347656 L 55.484375 276.488281 " fill-opacity="1" fill-rule="nonzero"/><path fill="#b15aa7" d="M 54.78125 276.839844 L 51.941406 276.839844 L 51.941406 275.703125 L 54.78125 275.703125 L 54.78125 276.839844 " fill-opacity="1" fill-rule="nonzero"/><path fill="#f18fcd" d="M 54.78125 275.789062 L 51.941406 275.789062 L 51.941406 274.632812 L 54.78125 274.632812 L 54.78125 275.789062 " fill-opacity="1" fill-rule="nonzero"/><path fill="#cc66ba" d="M 54.78125 276.488281 L 51.941406 276.488281 L 51.941406 275.347656 L 54.78125 275.347656 L 54.78125 276.488281 " fill-opacity="1" fill-rule="nonzero"/><path fill="#cc6ebe" d="M 54.078125 248.492188 L 51.242188 248.492188 L 51.242188 247.351562 L 54.078125 247.351562 L 54.078125 248.492188 " fill-opacity="1" fill-rule="nonzero"/><path fill="#f79fd4" d="M 54.078125 247.441406 L 51.242188 247.441406 L 51.242188 246.285156 L 54.078125 246.285156 L 54.078125 247.441406 " fill-opacity="1" fill-rule="nonzero"/><path fill="#da7ec5" d="M 54.078125 248.136719 L 51.242188 248.136719 L 51.242188 247 L 54.078125 247 L 54.078125 248.136719 " fill-opacity="1" fill-rule="nonzero"/><path fill="#d78dcc" d="M 55.484375 248.492188 L 52.648438 248.492188 L 52.648438 247.351562 L 55.484375 247.351562 L 55.484375 248.492188 " fill-opacity="1" fill-rule="nonzero"/><path fill="#fabde1" d="M 55.484375 247.441406 L 52.648438 247.441406 L 52.648438 246.285156 L 55.484375 246.285156 L 55.484375 247.441406 " fill-opacity="1" fill-rule="nonzero"/><path fill="#e793cf" d="M 55.484375 248.136719 L 52.648438 248.136719 L 52.648438 247 L 55.484375 247 L 55.484375 248.136719 " fill-opacity="1" fill-rule="nonzero"/><path fill="#b15aa7" d="M 54.78125 248.492188 L 51.941406 248.492188 L 51.941406 247.351562 L 54.78125 247.351562 L 54.78125 248.492188 " fill-opacity="1" fill-rule="nonzero"/><path fill="#f18fcd" d="M 54.78125 247.441406 L 51.941406 247.441406 L 51.941406 246.285156 L 54.78125 246.285156 L 54.78125 247.441406 " fill-opacity="1" fill-rule="nonzero"/><path fill="#cc66ba" d="M 54.78125 248.136719 L 51.941406 248.136719 L 51.941406 247 L 54.78125 247 L 54.78125 248.136719 " fill-opacity="1" fill-rule="nonzero"/><path fill="#cc6ebe" d="M 54.078125 220.144531 L 51.242188 220.144531 L 51.242188 219.003906 L 54.078125 219.003906 L 54.078125 220.144531 " fill-opacity="1" fill-rule="nonzero"/><path fill="#f79fd4" d="M 54.078125 219.089844 L 51.242188 219.089844 L 51.242188 217.9375 L 54.078125 217.9375 L 54.078125 219.089844 " fill-opacity="1" fill-rule="nonzero"/><path fill="#da7ec5" d="M 54.078125 219.789062 L 51.242188 219.789062 L 51.242188 218.648438 L 54.078125 218.648438 L 54.078125 219.789062 " fill-opacity="1" fill-rule="nonzero"/><path fill="#d78dcc" d="M 55.484375 220.144531 L 52.648438 220.144531 L 52.648438 219.003906 L 55.484375 219.003906 L 55.484375 220.144531 " fill-opacity="1" fill-rule="nonzero"/><path fill="#fabde1" d="M 55.484375 219.089844 L 52.648438 219.089844 L 52.648438 217.9375 L 55.484375 217.9375 L 55.484375 219.089844 " fill-opacity="1" fill-rule="nonzero"/><path fill="#e793cf" d="M 55.484375 219.789062 L 52.648438 219.789062 L 52.648438 218.648438 L 55.484375 218.648438 L 55.484375 219.789062 " fill-opacity="1" fill-rule="nonzero"/><path fill="#b15aa7" d="M 54.78125 220.144531 L 51.941406 220.144531 L 51.941406 219.003906 L 54.78125 219.003906 L 54.78125 220.144531 " fill-opacity="1" fill-rule="nonzero"/><path fill="#f18fcd" d="M 54.78125 219.089844 L 51.941406 219.089844 L 51.941406 217.9375 L 54.78125 217.9375 L 54.78125 219.089844 " fill-opacity="1" fill-rule="nonzero"/><path fill="#cc66ba" d="M 54.78125 219.789062 L 51.941406 219.789062 L 51.941406 218.648438 L 54.78125 218.648438 L 54.78125 219.789062 " fill-opacity="1" fill-rule="nonzero"/><path fill="#cc6ebe" d="M 54.078125 191.796875 L 51.242188 191.796875 L 51.242188 190.65625 L 54.078125 190.65625 L 54.078125 191.796875 " fill-opacity="1" fill-rule="nonzero"/><path fill="#f79fd4" d="M 54.078125 190.742188 L 51.242188 190.742188 L 51.242188 189.585938 L 54.078125 189.585938 L 54.078125 190.742188 " fill-opacity="1" fill-rule="nonzero"/><path fill="#da7ec5" d="M 54.078125 191.441406 L 51.242188 191.441406 L 51.242188 190.300781 L 54.078125 190.300781 L 54.078125 191.441406 " fill-opacity="1" fill-rule="nonzero"/><path fill="#d78dcc" d="M 55.484375 191.796875 L 52.648438 191.796875 L 52.648438 190.65625 L 55.484375 190.65625 L 55.484375 191.796875 " fill-opacity="1" fill-rule="nonzero"/><path fill="#fabde1" d="M 55.484375 190.742188 L 52.648438 190.742188 L 52.648438 189.585938 L 55.484375 189.585938 L 55.484375 190.742188 " fill-opacity="1" fill-rule="nonzero"/><path fill="#e793cf" d="M 55.484375 191.441406 L 52.648438 191.441406 L 52.648438 190.300781 L 55.484375 190.300781 L 55.484375 191.441406 " fill-opacity="1" fill-rule="nonzero"/><path fill="#b15aa7" d="M 54.78125 191.796875 L 51.941406 191.796875 L 51.941406 190.65625 L 54.78125 190.65625 L 54.78125 191.796875 " fill-opacity="1" fill-rule="nonzero"/><path fill="#f18fcd" d="M 54.78125 190.742188 L 51.941406 190.742188 L 51.941406 189.585938 L 54.78125 189.585938 L 54.78125 190.742188 " fill-opacity="1" fill-rule="nonzero"/><path fill="#cc66ba" d="M 54.78125 191.441406 L 51.941406 191.441406 L 51.941406 190.300781 L 54.78125 190.300781 L 54.78125 191.441406 " fill-opacity="1" fill-rule="nonzero"/><path fill="#cc6ebe" d="M 54.078125 162.957031 L 51.242188 162.957031 L 51.242188 161.820312 L 54.078125 161.820312 L 54.078125 162.957031 " fill-opacity="1" fill-rule="nonzero"/><path fill="#f79fd4" d="M 54.078125 161.90625 L 51.242188 161.90625 L 51.242188 160.753906 L 54.078125 160.753906 L 54.078125 161.90625 " fill-opacity="1" fill-rule="nonzero"/><path fill="#da7ec5" d="M 54.078125 162.605469 L 51.242188 162.605469 L 51.242188 161.464844 L 54.078125 161.464844 L 54.078125 162.605469 " fill-opacity="1" fill-rule="nonzero"/><path fill="#d78dcc" d="M 55.484375 162.957031 L 52.648438 162.957031 L 52.648438 161.820312 L 55.484375 161.820312 L 55.484375 162.957031 " fill-opacity="1" fill-rule="nonzero"/><path fill="#fabde1" d="M 55.484375 161.90625 L 52.648438 161.90625 L 52.648438 160.753906 L 55.484375 160.753906 L 55.484375 161.90625 " fill-opacity="1" fill-rule="nonzero"/><path fill="#e793cf" d="M 55.484375 162.605469 L 52.648438 162.605469 L 52.648438 161.464844 L 55.484375 161.464844 L 55.484375 162.605469 " fill-opacity="1" fill-rule="nonzero"/><path fill="#b15aa7" d="M 54.78125 162.957031 L 51.941406 162.957031 L 51.941406 161.820312 L 54.78125 161.820312 L 54.78125 162.957031 " fill-opacity="1" fill-rule="nonzero"/><path fill="#f18fcd" d="M 54.78125 161.90625 L 51.941406 161.90625 L 51.941406 160.753906 L 54.78125 160.753906 L 54.78125 161.90625 " fill-opacity="1" fill-rule="nonzero"/><path fill="#cc66ba" d="M 54.78125 162.605469 L 51.941406 162.605469 L 51.941406 161.464844 L 54.78125 161.464844 L 54.78125 162.605469 " fill-opacity="1" fill-rule="nonzero"/><path fill="#cc6ebe" d="M 54.078125 134.609375 L 51.242188 134.609375 L 51.242188 133.46875 L 54.078125 133.46875 L 54.078125 134.609375 " fill-opacity="1" fill-rule="nonzero"/><path fill="#f79fd4" d="M 54.078125 133.558594 L 51.242188 133.558594 L 51.242188 132.402344 L 54.078125 132.402344 L 54.078125 133.558594 " fill-opacity="1" fill-rule="nonzero"/><path fill="#da7ec5" d="M 54.078125 134.253906 L 51.242188 134.253906 L 51.242188 133.117188 L 54.078125 133.117188 L 54.078125 134.253906 " fill-opacity="1" fill-rule="nonzero"/><path fill="#d78dcc" d="M 55.484375 134.609375 L 52.648438 134.609375 L 52.648438 133.46875 L 55.484375 133.46875 L 55.484375 134.609375 " fill-opacity="1" fill-rule="nonzero"/><path fill="#fabde1" d="M 55.484375 133.558594 L 52.648438 133.558594 L 52.648438 132.402344 L 55.484375 132.402344 L 55.484375 133.558594 " fill-opacity="1" fill-rule="nonzero"/><path fill="#e793cf" d="M 55.484375 134.253906 L 52.648438 134.253906 L 52.648438 133.117188 L 55.484375 133.117188 L 55.484375 134.253906 " fill-opacity="1" fill-rule="nonzero"/><path fill="#b15aa7" d="M 54.78125 134.609375 L 51.941406 134.609375 L 51.941406 133.46875 L 54.78125 133.46875 L 54.78125 134.609375 " fill-opacity="1" fill-rule="nonzero"/><path fill="#f18fcd" d="M 54.78125 133.558594 L 51.941406 133.558594 L 51.941406 132.402344 L 54.78125 132.402344 L 54.78125 133.558594 " fill-opacity="1" fill-rule="nonzero"/><path fill="#cc66ba" d="M 54.78125 134.253906 L 51.941406 134.253906 L 51.941406 133.117188 L 54.78125 133.117188 L 54.78125 134.253906 " fill-opacity="1" fill-rule="nonzero"/><path fill="#cc6ebe" d="M 54.078125 106.261719 L 51.242188 106.261719 L 51.242188 105.121094 L 54.078125 105.121094 L 54.078125 106.261719 " fill-opacity="1" fill-rule="nonzero"/><path fill="#f79fd4" d="M 54.078125 105.207031 L 51.242188 105.207031 L 51.242188 104.054688 L 54.078125 104.054688 L 54.078125 105.207031 " fill-opacity="1" fill-rule="nonzero"/><path fill="#da7ec5" d="M 54.078125 105.90625 L 51.242188 105.90625 L 51.242188 104.769531 L 54.078125 104.769531 L 54.078125 105.90625 " fill-opacity="1" fill-rule="nonzero"/><path fill="#d78dcc" d="M 55.484375 106.261719 L 52.648438 106.261719 L 52.648438 105.121094 L 55.484375 105.121094 L 55.484375 106.261719 " fill-opacity="1" fill-rule="nonzero"/><path fill="#fabde1" d="M 55.484375 105.207031 L 52.648438 105.207031 L 52.648438 104.054688 L 55.484375 104.054688 L 55.484375 105.207031 " fill-opacity="1" fill-rule="nonzero"/><path fill="#e793cf" d="M 55.484375 105.90625 L 52.648438 105.90625 L 52.648438 104.769531 L 55.484375 104.769531 L 55.484375 105.90625 " fill-opacity="1" fill-rule="nonzero"/><path fill="#b15aa7" d="M 54.78125 106.261719 L 51.941406 106.261719 L 51.941406 105.121094 L 54.78125 105.121094 L 54.78125 106.261719 " fill-opacity="1" fill-rule="nonzero"/><path fill="#f18fcd" d="M 54.78125 105.207031 L 51.941406 105.207031 L 51.941406 104.054688 L 54.78125 104.054688 L 54.78125 105.207031 " fill-opacity="1" fill-rule="nonzero"/><path fill="#cc66ba" d="M 54.78125 105.90625 L 51.941406 105.90625 L 51.941406 104.769531 L 54.78125 104.769531 L 54.78125 105.90625 " fill-opacity="1" fill-rule="nonzero"/><path fill="#cc6ebe" d="M 54.078125 77.914062 L 51.242188 77.914062 L 51.242188 76.773438 L 54.078125 76.773438 L 54.078125 77.914062 " fill-opacity="1" fill-rule="nonzero"/><path fill="#f79fd4" d="M 54.078125 76.859375 L 51.242188 76.859375 L 51.242188 75.703125 L 54.078125 75.703125 L 54.078125 76.859375 " fill-opacity="1" fill-rule="nonzero"/><path fill="#da7ec5" d="M 54.078125 77.558594 L 51.242188 77.558594 L 51.242188 76.417969 L 54.078125 76.417969 L 54.078125 77.558594 " fill-opacity="1" fill-rule="nonzero"/><path fill="#d78dcc" d="M 55.484375 77.914062 L 52.648438 77.914062 L 52.648438 76.773438 L 55.484375 76.773438 L 55.484375 77.914062 " fill-opacity="1" fill-rule="nonzero"/><path fill="#fabde1" d="M 55.484375 76.859375 L 52.648438 76.859375 L 52.648438 75.703125 L 55.484375 75.703125 L 55.484375 76.859375 " fill-opacity="1" fill-rule="nonzero"/><path fill="#e793cf" d="M 55.484375 77.558594 L 52.648438 77.558594 L 52.648438 76.417969 L 55.484375 76.417969 L 55.484375 77.558594 " fill-opacity="1" fill-rule="nonzero"/><path fill="#b15aa7" d="M 54.78125 77.914062 L 51.941406 77.914062 L 51.941406 76.773438 L 54.78125 76.773438 L 54.78125 77.914062 " fill-opacity="1" fill-rule="nonzero"/><path fill="#f18fcd" d="M 54.78125 76.859375 L 51.941406 76.859375 L 51.941406 75.703125 L 54.78125 75.703125 L 54.78125 76.859375 " fill-opacity="1" fill-rule="nonzero"/><path fill="#cc66ba" d="M 54.78125 77.558594 L 51.941406 77.558594 L 51.941406 76.417969 L 54.78125 76.417969 L 54.78125 77.558594 " fill-opacity="1" fill-rule="nonzero"/><path fill="#cc6ebe" d="M 54.078125 49.5625 L 51.242188 49.5625 L 51.242188 48.425781 L 54.078125 48.425781 L 54.078125 49.5625 " fill-opacity="1" fill-rule="nonzero"/><path fill="#f79fd4" d="M 54.078125 48.507812 L 51.242188 48.507812 L 51.242188 47.355469 L 54.078125 47.355469 L 54.078125 48.507812 " fill-opacity="1" fill-rule="nonzero"/><path fill="#da7ec5" d="M 54.078125 49.210938 L 51.242188 49.210938 L 51.242188 48.070312 L 54.078125 48.070312 L 54.078125 49.210938 " fill-opacity="1" fill-rule="nonzero"/><path fill="#d78dcc" d="M 55.484375 49.5625 L 52.648438 49.5625 L 52.648438 48.425781 L 55.484375 48.425781 L 55.484375 49.5625 " fill-opacity="1" fill-rule="nonzero"/><path fill="#fabde1" d="M 55.484375 48.507812 L 52.648438 48.507812 L 52.648438 47.355469 L 55.484375 47.355469 L 55.484375 48.507812 " fill-opacity="1" fill-rule="nonzero"/><path fill="#e793cf" d="M 55.484375 49.210938 L 52.648438 49.210938 L 52.648438 48.070312 L 55.484375 48.070312 L 55.484375 49.210938 " fill-opacity="1" fill-rule="nonzero"/><path fill="#b15aa7" d="M 54.78125 49.5625 L 51.941406 49.5625 L 51.941406 48.425781 L 54.78125 48.425781 L 54.78125 49.5625 " fill-opacity="1" fill-rule="nonzero"/><path fill="#f18fcd" d="M 54.78125 48.507812 L 51.941406 48.507812 L 51.941406 47.355469 L 54.78125 47.355469 L 54.78125 48.507812 " fill-opacity="1" fill-rule="nonzero"/><path fill="#cc66ba" d="M 54.78125 49.210938 L 51.941406 49.210938 L 51.941406 48.070312 L 54.78125 48.070312 L 54.78125 49.210938 " fill-opacity="1" fill-rule="nonzero"/><path fill="#cc6ebe" d="M 54.078125 21.214844 L 51.242188 21.214844 L 51.242188 20.074219 L 54.078125 20.074219 L 54.078125 21.214844 " fill-opacity="1" fill-rule="nonzero"/><path fill="#f79fd4" d="M 54.078125 20.160156 L 51.242188 20.160156 L 51.242188 19.007812 L 54.078125 19.007812 L 54.078125 20.160156 " fill-opacity="1" fill-rule="nonzero"/><path fill="#da7ec5" d="M 54.078125 20.859375 L 51.242188 20.859375 L 51.242188 19.722656 L 54.078125 19.722656 L 54.078125 20.859375 " fill-opacity="1" fill-rule="nonzero"/><path fill="#d78dcc" d="M 55.484375 21.214844 L 52.648438 21.214844 L 52.648438 20.074219 L 55.484375 20.074219 L 55.484375 21.214844 " fill-opacity="1" fill-rule="nonzero"/><path fill="#fabde1" d="M 55.484375 20.160156 L 52.648438 20.160156 L 52.648438 19.007812 L 55.484375 19.007812 L 55.484375 20.160156 " fill-opacity="1" fill-rule="nonzero"/><path fill="#e793cf" d="M 55.484375 20.859375 L 52.648438 20.859375 L 52.648438 19.722656 L 55.484375 19.722656 L 55.484375 20.859375 " fill-opacity="1" fill-rule="nonzero"/><path fill="#b15aa7" d="M 54.78125 21.214844 L 51.941406 21.214844 L 51.941406 20.074219 L 54.78125 20.074219 L 54.78125 21.214844 " fill-opacity="1" fill-rule="nonzero"/><path fill="#f18fcd" d="M 54.78125 20.160156 L 51.941406 20.160156 L 51.941406 19.007812 L 54.78125 19.007812 L 54.78125 20.160156 " fill-opacity="1" fill-rule="nonzero"/><path fill="#cc66ba" d="M 54.78125 20.859375 L 51.941406 20.859375 L 51.941406 19.722656 L 54.78125 19.722656 L 54.78125 20.859375 " fill-opacity="1" fill-rule="nonzero"/></svg>