<svg xmlns="http://www.w3.org/2000/svg" xmlns:xlink="http://www.w3.org/1999/xlink" width="500" zoomAndPan="magnify" viewBox="0 0 375 374.999991" height="500" preserveAspectRatio="xMidYMid meet" version="1.0"><path fill="#f05b2a" d="M 140.804688 188.351562 C 140.804688 188.351562 10.972656 159.351562 47.289062 99.625 C 80.632812 44.882812 161.789062 149.1875 161.789062 149.1875 C 161.789062 149.1875 137.113281 171.765625 140.804688 188.351562 Z M 140.804688 188.351562 " fill-opacity="1" fill-rule="nonzero"/><path fill="#000000" d="M 141.570312 185.523438 C 128.828125 182.695312 116.273438 178.523438 104.105469 173.875 C 84.847656 166.445312 62.234375 156.332031 50.066406 138.691406 C 44.507812 130.6875 42.257812 121.242188 44.988281 111.703125 C 47.863281 101.636719 54.953125 91.042969 65.347656 87.785156 C 74.882812 84.859375 85.136719 88.023438 93.757812 92.289062 C 104.441406 97.5625 114.023438 104.800781 122.980469 112.613281 C 136.300781 124.214844 148.804688 137.253906 159.679688 151.25 C 159.679688 149.859375 159.679688 148.519531 159.679688 147.128906 C 148.804688 157.097656 134.960938 173.25 137.976562 189.070312 C 138.648438 192.761719 144.253906 191.226562 143.582031 187.488281 C 141.90625 178.714844 147.988281 169.703125 153.066406 163.042969 C 156.277344 158.824219 159.871094 154.796875 163.800781 151.152344 C 165.09375 150.003906 164.710938 148.277344 163.800781 147.03125 C 153.835938 134.234375 142.480469 122.25 130.503906 111.417969 C 114.550781 96.988281 91.699219 77.816406 68.511719 81.074219 C 46.761719 84.140625 32.914062 111.558594 40.003906 131.550781 C 47.574219 152.925781 71.050781 165.679688 90.5 174.355469 C 106.359375 181.449219 123.125 187.25 140.085938 191.035156 C 143.726562 191.945312 145.257812 186.335938 141.570312 185.523438 Z M 141.570312 185.523438 " fill-opacity="1" fill-rule="nonzero"/><path fill="#f05b2a" d="M 166.960938 149.714844 C 166.960938 149.714844 102.910156 68.753906 139.175781 29.832031 C 175.441406 -9.089844 206.726562 79.636719 191.632812 146.550781 C 187.128906 143.484375 174.195312 146.3125 166.960938 149.714844 Z M 166.960938 149.714844 " fill-opacity="1" fill-rule="nonzero"/><path fill="#000000" d="M 168.972656 147.65625 C 168.78125 147.367188 168.636719 147.175781 168.972656 147.65625 C 168.589844 147.128906 168.160156 146.601562 167.777344 146.074219 C 166.433594 144.347656 165.1875 142.574219 163.894531 140.753906 C 159.679688 134.761719 155.703125 128.527344 151.964844 122.152344 C 142.191406 105.472656 133.28125 86.875 131.222656 67.414062 C 130.3125 58.402344 130.933594 48.910156 135.054688 40.664062 C 138.648438 33.378906 145.449219 25.375 153.738281 23.503906 C 171.082031 19.671875 181 45.652344 184.925781 57.96875 C 193.839844 85.867188 195.035156 117.167969 188.757812 145.738281 C 190.195312 145.164062 191.585938 144.585938 193.023438 144.011719 C 185.070312 139.554688 172.996094 143.820312 165.429688 147.222656 C 162.027344 148.710938 164.949219 153.742188 168.351562 152.257812 C 173.910156 149.765625 184.304688 145.785156 190.054688 149.046875 C 191.632812 149.90625 193.933594 149.140625 194.316406 147.320312 C 200.449219 119.613281 199.632812 89.65625 192.160156 62.285156 C 187.992188 46.320312 178.9375 20.246094 159.582031 17.5625 C 140.613281 14.972656 127.484375 37.40625 125.570312 53.417969 C 123.03125 74.554688 131.703125 96.078125 141.234375 114.53125 C 147.988281 127.523438 155.847656 140.226562 164.949219 151.777344 C 167.199219 154.703125 171.320312 150.53125 168.972656 147.65625 Z M 168.972656 147.65625 " fill-opacity="1" fill-rule="nonzero"/><path fill="#f05b2a" d="M 196.855469 146.503906 C 196.855469 146.503906 209.214844 25.855469 262.488281 30.695312 C 315.761719 35.535156 255.0625 151.394531 223.828125 165.535156 C 215.011719 155.277344 211.324219 149.667969 196.855469 146.503906 Z M 196.855469 146.503906 " fill-opacity="1" fill-rule="nonzero"/><path fill="#000000" d="M 199.828125 146.503906 C 201.167969 133.707031 203.660156 120.90625 206.628906 108.445312 C 211.707031 87.355469 218.558594 64.203125 233.027344 47.472656 C 239.109375 40.425781 247.015625 34.578125 256.5 33.621094 C 264.933594 32.804688 273.988281 35.25 278.011719 43.207031 C 282.226562 51.546875 280.933594 62.09375 279.160156 70.863281 C 276.671875 82.945312 272.167969 94.59375 266.945312 105.617188 C 260.8125 118.367188 253.53125 130.6875 244.957031 141.949219 C 238.871094 149.859375 231.683594 158.679688 222.4375 162.992188 C 223.589844 163.183594 224.785156 163.28125 225.9375 163.472656 C 222.105469 159.015625 218.414062 154.269531 213.71875 150.675781 C 208.976562 147.03125 203.46875 145.066406 197.671875 143.675781 C 194.03125 142.8125 192.496094 148.421875 196.089844 149.285156 C 201.550781 150.578125 206.820312 152.398438 211.226562 156.089844 C 215.203125 159.445312 218.460938 163.664062 221.769531 167.59375 C 222.628906 168.648438 224.210938 168.554688 225.265625 168.074219 C 234.082031 163.90625 241.21875 155.851562 247.207031 148.375 C 255.449219 138.019531 262.585938 126.753906 268.671875 115.058594 C 274.851562 103.171875 280.167969 90.710938 283.519531 77.671875 C 286.15625 67.414062 288.074219 55.71875 285.007812 45.316406 C 279.019531 24.945312 253.53125 23.792969 238.34375 34.578125 C 219.277344 48.144531 210.269531 73.5 204.089844 95.117188 C 199.300781 111.847656 195.707031 129.199219 193.933594 146.503906 C 193.597656 150.195312 199.394531 150.195312 199.828125 146.503906 Z M 199.828125 146.503906 " fill-opacity="1" fill-rule="nonzero"/><path fill="#f05b2a" d="M 227.996094 170.28125 C 227.996094 170.28125 298.613281 79.15625 342.257812 109.882812 C 379.625 136.199219 350.402344 170.949219 313.320312 182.695312 C 276.238281 194.488281 231.683594 193.433594 231.683594 193.433594 C 231.683594 193.433594 233.890625 181.351562 227.996094 170.28125 Z M 227.996094 170.28125 " fill-opacity="1" fill-rule="nonzero"/><path fill="#000000" d="M 230.054688 172.339844 C 236.570312 163.90625 243.902344 155.996094 251.421875 148.375 C 265.414062 134.28125 280.980469 120.570312 299.089844 112.183594 C 307.1875 108.445312 316.097656 105.808594 325.105469 106.574219 C 336.363281 107.535156 347.09375 115.203125 352.941406 124.695312 C 369.371094 151.679688 331.140625 174.304688 310.207031 180.585938 C 285.148438 188.160156 257.84375 191.035156 231.683594 190.507812 C 232.59375 191.707031 233.554688 192.953125 234.511719 194.199219 C 235.996094 185.570312 234.414062 176.605469 230.535156 168.792969 C 228.859375 165.4375 223.828125 168.410156 225.503906 171.71875 C 228.617188 177.949219 230.105469 185.617188 228.90625 192.617188 C 228.570312 194.488281 229.671875 196.261719 231.734375 196.308594 C 256.308594 196.835938 281.699219 194.101562 305.511719 187.917969 C 320.890625 183.941406 335.691406 177.519531 347.527344 166.589844 C 356.484375 158.25 363.910156 146.601562 362.28125 133.851562 C 360.652344 120.90625 349.921875 109.644531 338.519531 104.226562 C 329.992188 100.199219 320.554688 99.769531 311.453125 101.734375 C 290.515625 106.238281 272.121094 120.957031 256.742188 135.097656 C 245.722656 145.257812 235.230469 156.234375 226.03125 168.074219 C 223.636719 171.140625 227.757812 175.3125 230.054688 172.339844 Z M 230.054688 172.339844 " fill-opacity="1" fill-rule="nonzero"/><path fill="#f05b2a" d="M 142.289062 192.234375 C 142.289062 192.234375 51.40625 172.003906 23.238281 203.164062 C -4.933594 234.320312 17.921875 264.421875 57.875 261.019531 C 90.597656 258.238281 148.039062 222.097656 149.1875 219.890625 C 140.421875 214.476562 141.617188 200.910156 142.289062 192.234375 Z M 142.289062 192.234375 " fill-opacity="1" fill-rule="nonzero"/><path fill="#000000" d="M 143.007812 189.40625 C 129.113281 186.335938 114.789062 184.515625 100.5625 183.507812 C 78.234375 181.878906 52.222656 181.542969 32.003906 192.714844 C 11.644531 203.929688 -2.058594 234.320312 17.535156 252.488281 C 38.28125 271.707031 69.707031 263.65625 92.800781 254.070312 C 106.40625 248.414062 119.582031 241.652344 132.277344 234.320312 C 136.828125 231.683594 141.378906 228.949219 145.785156 226.074219 C 147.75 224.78125 150.289062 223.488281 151.632812 221.472656 C 152.542969 220.082031 151.824219 218.359375 150.578125 217.496094 C 142.910156 212.222656 144.492188 200.335938 145.117188 192.328125 C 145.402344 188.589844 139.558594 188.636719 139.269531 192.328125 C 138.503906 202.972656 137.785156 215.769531 147.65625 222.527344 C 147.320312 221.1875 146.984375 219.890625 146.601562 218.550781 C 147.175781 217.6875 146.265625 218.742188 146.027344 218.835938 C 144.925781 219.507812 143.871094 220.324219 142.863281 221.042969 C 139.511719 223.246094 136.109375 225.308594 132.707031 227.320312 C 122.742188 233.265625 112.441406 238.777344 101.902344 243.714844 C 80.152344 253.925781 51.933594 265.621094 28.605469 253.253906 C 18.542969 247.933594 12.027344 237.867188 13.992188 226.363281 C 15.957031 214.761719 24.386719 203.738281 34.542969 197.984375 C 52.84375 187.726562 76.605469 187.917969 96.96875 189.164062 C 111.867188 190.027344 126.863281 191.898438 141.472656 195.109375 C 145.117188 195.828125 146.648438 190.21875 143.007812 189.40625 Z M 143.007812 189.40625 " fill-opacity="1" fill-rule="nonzero"/><path fill="#f05b2a" d="M 234.511719 195.589844 C 234.511719 195.589844 378.570312 210.59375 336.792969 284.554688 C 305.222656 340.351562 217.359375 230.628906 217.359375 230.628906 C 217.359375 230.628906 238.152344 212.175781 234.511719 195.589844 Z M 234.511719 195.589844 " fill-opacity="1" fill-rule="nonzero"/><path fill="#000000" d="M 234.511719 198.511719 C 247.253906 199.855469 261.246094 202.730469 274.132812 206.183594 C 294.921875 211.789062 318.828125 219.890625 333.058594 236.957031 C 339.765625 245.058594 342.832031 255.21875 340.914062 265.621094 C 338.949219 276.550781 332.914062 289.875 322.421875 295.101562 C 313.082031 299.703125 301.964844 296.777344 292.960938 292.75 C 281.222656 287.429688 270.683594 279.570312 260.910156 271.277344 C 245.867188 258.476562 231.78125 244.003906 219.324219 228.617188 C 219.324219 230.003906 219.324219 231.347656 219.324219 232.738281 C 229.527344 223.628906 239.878906 209.296875 237.242188 194.917969 C 236.570312 191.226562 230.964844 192.761719 231.636719 196.5 C 233.890625 208.578125 223.683594 221.089844 215.253906 228.664062 C 213.960938 229.8125 214.34375 231.585938 215.253906 232.785156 C 226.703125 247.070312 239.6875 260.445312 253.386719 272.523438 C 263.734375 281.582031 274.800781 290.308594 287.113281 296.488281 C 297.03125 301.476562 308.722656 305.308594 319.789062 302.386719 C 332.003906 299.175781 339.238281 288.054688 343.644531 276.933594 C 347.957031 265.957031 348.628906 253.828125 343.550781 242.996094 C 333.585938 221.617188 307.761719 210.878906 286.683594 204.074219 C 269.820312 198.65625 252.09375 194.726562 234.464844 192.855469 C 230.773438 192.28125 230.824219 198.128906 234.511719 198.511719 Z M 234.511719 198.511719 " fill-opacity="1" fill-rule="nonzero"/><path fill="#f05b2a" d="M 217.359375 230.582031 C 217.359375 230.582031 282.660156 320.503906 239.78125 346.964844 C 194.460938 374.910156 167.632812 300.46875 182.914062 233.648438 C 187.417969 236.714844 210.078125 233.9375 217.359375 230.582031 Z M 217.359375 230.582031 " fill-opacity="1" fill-rule="nonzero"/><path fill="#000000" d="M 214.820312 232.019531 C 220.28125 239.59375 225.265625 247.691406 229.863281 255.792969 C 238.679688 271.371094 246.824219 288.148438 250.175781 305.933594 C 253.339844 322.664062 250.226562 338.960938 233.792969 346.867188 C 225.648438 350.75 216.546875 351.328125 208.546875 346.582031 C 200.304688 341.691406 194.84375 332.871094 191.058594 324.339844 C 178.84375 296.777344 179.179688 263.273438 185.644531 234.367188 C 184.207031 234.941406 182.820312 235.519531 181.382812 236.09375 C 186.269531 238.921875 193.695312 237.867188 199.058594 237.386719 C 205.71875 236.714844 212.617188 235.710938 218.796875 233.074219 C 222.199219 231.585938 219.277344 226.554688 215.875 228.039062 C 210.75 230.292969 204.617188 231.058594 199.058594 231.539062 C 194.941406 231.921875 188.089844 233.265625 184.351562 231.058594 C 182.769531 230.148438 180.472656 230.964844 180.089844 232.785156 C 173.8125 260.921875 173.332031 291.984375 182.960938 319.402344 C 189.238281 337.332031 202.699219 358.085938 224.449219 355.546875 C 243.566406 353.292969 256.644531 338.242188 257.21875 319.402344 C 257.792969 300.039062 249.410156 280.71875 240.835938 263.847656 C 234.703125 251.769531 227.804688 239.929688 219.804688 229 C 217.648438 226.121094 212.617188 229 214.820312 232.019531 Z M 214.820312 232.019531 " fill-opacity="1" fill-rule="nonzero"/><path fill="#f05b2a" d="M 180.136719 239.207031 C 180.136719 239.207031 165.285156 356.648438 112.011719 351.613281 C 58.738281 346.582031 117.953125 233.886719 149.1875 219.941406 C 157.953125 230.199219 165.714844 235.949219 180.136719 239.207031 Z M 180.136719 239.207031 " fill-opacity="1" fill-rule="nonzero"/><path fill="#000000" d="M 177.214844 239.207031 C 177.117188 239.976562 177.308594 238.539062 177.214844 239.257812 C 177.117188 240.070312 176.972656 240.886719 176.878906 241.703125 C 176.496094 244.433594 176.015625 247.070312 175.535156 249.800781 C 173.910156 258.621094 171.945312 267.488281 169.644531 276.117188 C 164.085938 296.730469 156.660156 319.210938 142.050781 335.316406 C 135.679688 342.316406 127.582031 347.972656 117.902344 348.785156 C 109.519531 349.457031 100.464844 347.011719 96.394531 339.105469 C 92.226562 331.148438 93.28125 320.886719 94.957031 312.40625 C 97.253906 300.660156 101.617188 289.300781 106.742188 278.5625 C 112.730469 266.050781 119.917969 253.925781 128.445312 242.949219 C 134.433594 235.230469 141.617188 226.648438 150.722656 222.433594 C 149.570312 222.242188 148.375 222.144531 147.175781 221.953125 C 156.085938 232.210938 166.097656 238.875 179.371094 241.988281 C 183.011719 242.851562 184.542969 237.242188 180.949219 236.378906 C 168.589844 233.503906 159.535156 227.371094 151.296875 217.832031 C 150.386719 216.777344 148.851562 216.871094 147.796875 217.351562 C 139.03125 221.378906 131.988281 229.285156 126.046875 236.621094 C 117.902344 246.6875 110.910156 257.664062 104.96875 269.121094 C 98.980469 280.671875 93.757812 292.847656 90.597656 305.5 C 88.058594 315.566406 86.332031 326.976562 89.496094 337.089844 C 95.867188 357.367188 121.351562 358.230469 136.636719 347.78125 C 155.609375 334.789062 165.1875 310.390625 171.894531 289.347656 C 177.070312 273.050781 181 256.082031 183.15625 239.113281 C 183.488281 235.46875 177.644531 235.566406 177.214844 239.207031 Z M 177.214844 239.207031 " fill-opacity="1" fill-rule="nonzero"/><path fill="#ffc000" d="M 234.03125 191.324219 C 234.03125 192.902344 233.957031 194.476562 233.800781 196.050781 C 233.644531 197.621094 233.414062 199.179688 233.105469 200.730469 C 232.796875 202.28125 232.414062 203.808594 231.957031 205.320312 C 231.5 206.832031 230.96875 208.316406 230.363281 209.777344 C 229.761719 211.234375 229.085938 212.660156 228.339844 214.054688 C 227.597656 215.445312 226.785156 216.800781 225.910156 218.113281 C 225.035156 219.425781 224.09375 220.695312 223.09375 221.914062 C 222.089844 223.136719 221.03125 224.304688 219.917969 225.421875 C 218.800781 226.539062 217.632812 227.597656 216.410156 228.597656 C 215.191406 229.601562 213.925781 230.539062 212.613281 231.417969 C 211.300781 232.296875 209.949219 233.105469 208.554688 233.851562 C 207.164062 234.59375 205.738281 235.269531 204.28125 235.875 C 202.824219 236.476562 201.339844 237.007812 199.828125 237.46875 C 198.316406 237.925781 196.789062 238.308594 195.238281 238.617188 C 193.691406 238.925781 192.132812 239.15625 190.5625 239.3125 C 188.992188 239.46875 187.414062 239.542969 185.835938 239.542969 C 184.257812 239.542969 182.683594 239.46875 181.113281 239.3125 C 179.542969 239.15625 177.984375 238.925781 176.433594 238.617188 C 174.886719 238.308594 173.355469 237.925781 171.847656 237.46875 C 170.335938 237.007812 168.851562 236.476562 167.394531 235.875 C 165.933594 235.269531 164.511719 234.59375 163.117188 233.851562 C 161.726562 233.105469 160.375 232.296875 159.0625 231.417969 C 157.75 230.539062 156.484375 229.601562 155.261719 228.597656 C 154.042969 227.597656 152.875 226.539062 151.757812 225.421875 C 150.640625 224.304688 149.582031 223.136719 148.582031 221.914062 C 147.582031 220.695312 146.640625 219.425781 145.765625 218.113281 C 144.886719 216.800781 144.078125 215.445312 143.332031 214.054688 C 142.589844 212.660156 141.914062 211.234375 141.3125 209.777344 C 140.707031 208.316406 140.175781 206.832031 139.71875 205.320312 C 139.257812 203.808594 138.875 202.28125 138.566406 200.730469 C 138.261719 199.179688 138.027344 197.621094 137.875 196.050781 C 137.71875 194.476562 137.640625 192.902344 137.640625 191.324219 C 137.640625 189.742188 137.71875 188.167969 137.875 186.597656 C 138.027344 185.023438 138.261719 183.464844 138.566406 181.914062 C 138.875 180.367188 139.257812 178.835938 139.71875 177.324219 C 140.175781 175.8125 140.707031 174.328125 141.3125 172.871094 C 141.914062 171.410156 142.589844 169.984375 143.332031 168.589844 C 144.078125 167.199219 144.886719 165.84375 145.765625 164.53125 C 146.640625 163.21875 147.582031 161.953125 148.582031 160.730469 C 149.582031 159.511719 150.640625 158.339844 151.757812 157.226562 C 152.875 156.109375 154.042969 155.050781 155.261719 154.046875 C 156.484375 153.046875 157.75 152.105469 159.0625 151.226562 C 160.375 150.351562 161.726562 149.539062 163.117188 148.796875 C 164.511719 148.050781 165.933594 147.375 167.394531 146.773438 C 168.851562 146.167969 170.335938 145.636719 171.847656 145.175781 C 173.355469 144.71875 174.886719 144.335938 176.433594 144.027344 C 177.984375 143.71875 179.542969 143.488281 181.113281 143.332031 C 182.683594 143.179688 184.257812 143.101562 185.835938 143.101562 C 187.414062 143.101562 188.992188 143.179688 190.5625 143.332031 C 192.132812 143.488281 193.691406 143.71875 195.238281 144.027344 C 196.789062 144.335938 198.316406 144.71875 199.828125 145.175781 C 201.339844 145.636719 202.824219 146.167969 204.28125 146.773438 C 205.738281 147.375 207.164062 148.050781 208.554688 148.796875 C 209.949219 149.539062 211.300781 150.351562 212.613281 151.226562 C 213.925781 152.105469 215.191406 153.046875 216.410156 154.046875 C 217.632812 155.050781 218.800781 156.109375 219.917969 157.226562 C 221.03125 158.339844 222.089844 159.511719 223.09375 160.730469 C 224.09375 161.953125 225.035156 163.21875 225.910156 164.53125 C 226.785156 165.84375 227.597656 167.199219 228.339844 168.589844 C 229.085938 169.984375 229.761719 171.410156 230.363281 172.871094 C 230.96875 174.328125 231.5 175.8125 231.957031 177.324219 C 232.414062 178.835938 232.796875 180.367188 233.105469 181.914062 C 233.414062 183.464844 233.644531 185.023438 233.800781 186.597656 C 233.957031 188.167969 234.03125 189.742188 234.03125 191.324219 Z M 234.03125 191.324219 " fill-opacity="1" fill-rule="nonzero"/><path fill="#000000" d="M 231.15625 191.324219 C 230.917969 210.257812 219.132812 227.609375 201.214844 233.984375 C 183.296875 240.359375 162.984375 234.75 150.960938 220.132812 C 138.886719 205.558594 137.355469 184.324219 147.03125 168.074219 C 156.660156 151.96875 175.871094 143.246094 194.363281 146.742188 C 215.636719 150.867188 230.871094 169.753906 231.15625 191.324219 C 231.207031 195.0625 237.050781 195.0625 237.003906 191.324219 C 236.714844 170.183594 223.78125 151.058594 203.945312 143.484375 C 183.730469 135.765625 160.015625 142.140625 146.410156 158.917969 C 132.945312 175.457031 131.03125 199.183594 141.953125 217.542969 C 152.875 235.855469 174.339844 245.390625 195.226562 241.605469 C 219.371094 237.292969 236.621094 215.578125 236.953125 191.371094 C 237.003906 187.535156 231.207031 187.535156 231.15625 191.324219 Z M 231.15625 191.324219 " fill-opacity="1" fill-rule="nonzero"/></svg>