<svg xmlns="http://www.w3.org/2000/svg" xmlns:xlink="http://www.w3.org/1999/xlink" width="500" zoomAndPan="magnify" viewBox="0 0 375 374.999991" height="500" preserveAspectRatio="xMidYMid meet" version="1.0"><defs><clipPath id="b8057a6ea6"><path d="M 36 36 L 347.230469 36 L 347.230469 347.230469 L 36 347.230469 Z M 36 36 " clip-rule="nonzero"/></clipPath><clipPath id="c8c21700de"><path d="M 27.730469 27.730469 L 339 27.730469 L 339 339 L 27.730469 339 Z M 27.730469 27.730469 " clip-rule="nonzero"/></clipPath></defs><g clip-path="url(#b8057a6ea6)"><path fill="#110804" d="M 191.84375 347.261719 C 188.78125 347.261719 186.148438 345.085938 185.574219 342.078125 C 175.488281 289.53125 166.25 257.277344 146.332031 237.359375 C 126.414062 217.441406 94.160156 208.203125 41.613281 198.117188 C 38.605469 197.542969 36.429688 194.910156 36.429688 191.847656 C 36.429688 188.78125 38.605469 186.152344 41.613281 185.574219 C 94.160156 175.488281 126.414062 166.25 146.332031 146.332031 C 166.25 126.414062 175.488281 94.160156 185.574219 41.613281 C 186.148438 38.605469 188.78125 36.429688 191.84375 36.429688 C 194.90625 36.429688 197.539062 38.605469 198.117188 41.613281 C 208.199219 94.160156 217.441406 126.414062 237.359375 146.332031 C 257.277344 166.25 289.527344 175.488281 342.074219 185.574219 C 345.085938 186.152344 347.257812 188.78125 347.257812 191.847656 C 347.257812 194.910156 345.085938 197.542969 342.074219 198.117188 C 289.527344 208.203125 257.277344 217.441406 237.359375 237.359375 C 217.441406 257.277344 208.199219 289.53125 198.117188 342.078125 C 197.539062 345.085938 194.90625 347.261719 191.84375 347.261719 Z M 191.84375 347.261719 " fill-opacity="1" fill-rule="nonzero"/></g><g clip-path="url(#c8c21700de)"><path fill="#110804" d="M 183.148438 338.5625 C 180.082031 338.5625 177.453125 336.386719 176.875 333.378906 C 166.792969 280.832031 157.550781 248.578125 137.632812 228.660156 C 117.714844 208.742188 85.464844 199.503906 32.914062 189.421875 C 29.90625 188.84375 27.734375 186.210938 27.734375 183.148438 C 27.734375 180.085938 29.90625 177.453125 32.914062 176.875 C 85.464844 166.792969 117.714844 157.550781 137.632812 137.632812 C 157.550781 117.714844 166.792969 85.464844 176.875 32.917969 C 177.453125 29.90625 180.082031 27.734375 183.148438 27.734375 C 186.210938 27.734375 188.84375 29.90625 189.417969 32.917969 C 199.503906 85.464844 208.742188 117.714844 228.660156 137.632812 C 248.578125 157.550781 280.832031 166.792969 333.378906 176.875 C 336.386719 177.453125 338.5625 180.085938 338.5625 183.148438 C 338.5625 186.210938 336.386719 188.84375 333.378906 189.421875 C 280.832031 199.503906 248.578125 208.746094 228.660156 228.660156 C 208.742188 248.578125 199.503906 280.832031 189.417969 333.378906 C 188.84375 336.386719 186.210938 338.5625 183.148438 338.5625 Z M 183.148438 338.5625 " fill-opacity="1" fill-rule="nonzero"/></g><path fill="#ffbd19" d="M 332.175781 183.148438 C 221.574219 204.371094 204.371094 221.574219 183.148438 332.175781 C 161.921875 221.574219 144.71875 204.371094 34.117188 183.148438 C 144.71875 161.921875 161.921875 144.71875 183.148438 34.117188 C 204.371094 144.71875 221.574219 161.921875 332.175781 183.148438 Z M 332.175781 183.148438 " fill-opacity="1" fill-rule="nonzero"/></svg>