<svg xmlns="http://www.w3.org/2000/svg" xmlns:xlink="http://www.w3.org/1999/xlink" width="500" zoomAndPan="magnify" viewBox="0 0 375 374.999991" height="500" preserveAspectRatio="xMidYMid meet" version="1.0"><defs><clipPath id="d4f916576f"><path d="M 35.3125 35.3125 L 339.8125 35.3125 L 339.8125 339.8125 L 35.3125 339.8125 Z M 35.3125 35.3125 " clip-rule="nonzero"/></clipPath></defs><g clip-path="url(#d4f916576f)"><path fill="#000000" d="M 338.3125 190.847656 L 324.359375 185.410156 L 327.617188 184.140625 C 328.027344 183.980469 328.355469 183.71875 328.605469 183.355469 C 328.851562 182.988281 328.976562 182.585938 328.976562 182.148438 C 328.976562 181.707031 328.851562 181.304688 328.605469 180.941406 C 328.355469 180.574219 328.027344 180.3125 327.617188 180.152344 L 268.308594 157.027344 L 297.117188 91.390625 C 297.292969 90.988281 297.339844 90.570312 297.261719 90.136719 C 297.179688 89.703125 296.980469 89.332031 296.671875 89.019531 C 296.359375 88.707031 295.984375 88.507812 295.550781 88.429688 C 295.117188 88.347656 294.699219 88.394531 294.296875 88.570312 L 280.253906 94.734375 L 286.417969 80.695312 C 286.59375 80.289062 286.644531 79.871094 286.5625 79.4375 C 286.480469 79.003906 286.285156 78.632812 285.972656 78.320312 C 285.660156 78.007812 285.289062 77.8125 284.855469 77.730469 C 284.421875 77.648438 284.003906 77.695312 283.597656 77.875 L 217.964844 106.679688 L 194.835938 47.371094 C 194.675781 46.960938 194.414062 46.632812 194.050781 46.382812 C 193.6875 46.132812 193.285156 46.007812 192.84375 46.007812 C 192.402344 46.007812 192 46.132812 191.636719 46.382812 C 191.273438 46.632812 191.011719 46.960938 190.851562 47.371094 L 189.582031 50.628906 L 184.136719 36.671875 C 183.976562 36.261719 183.714844 35.933594 183.351562 35.683594 C 182.988281 35.433594 182.585938 35.3125 182.144531 35.3125 C 181.703125 35.3125 181.300781 35.433594 180.9375 35.683594 C 180.574219 35.933594 180.3125 36.261719 180.152344 36.671875 L 151.898438 109.121094 L 80.691406 77.871094 C 80.285156 77.691406 79.867188 77.644531 79.433594 77.726562 C 79 77.808594 78.628906 78.003906 78.316406 78.316406 C 78.003906 78.628906 77.808594 79 77.726562 79.433594 C 77.644531 79.867188 77.695312 80.285156 77.871094 80.691406 L 109.125 151.898438 L 36.671875 180.152344 C 36.261719 180.3125 35.933594 180.574219 35.683594 180.9375 C 35.433594 181.300781 35.3125 181.703125 35.3125 182.144531 C 35.3125 182.585938 35.433594 182.988281 35.683594 183.351562 C 35.933594 183.714844 36.261719 183.976562 36.671875 184.136719 L 50.628906 189.582031 L 47.371094 190.851562 C 46.960938 191.011719 46.632812 191.273438 46.382812 191.636719 C 46.132812 192.003906 46.007812 192.40625 46.007812 192.84375 C 46.007812 193.285156 46.132812 193.6875 46.382812 194.050781 C 46.632812 194.417969 46.960938 194.679688 47.371094 194.839844 L 106.679688 217.964844 L 77.871094 283.601562 C 77.695312 284.003906 77.644531 284.421875 77.726562 284.855469 C 77.808594 285.289062 78.007812 285.664062 78.316406 285.972656 C 78.628906 286.285156 79 286.480469 79.433594 286.5625 C 79.867188 286.644531 80.285156 286.597656 80.691406 286.421875 L 94.734375 280.257812 L 88.570312 294.300781 C 88.394531 294.703125 88.34375 295.121094 88.425781 295.554688 C 88.507812 295.988281 88.703125 296.359375 89.015625 296.671875 C 89.328125 296.984375 89.699219 297.179688 90.132812 297.261719 C 90.566406 297.34375 90.984375 297.296875 91.390625 297.117188 L 157.023438 268.3125 L 180.152344 327.617188 C 180.3125 328.027344 180.574219 328.359375 180.9375 328.605469 C 181.300781 328.855469 181.703125 328.980469 182.144531 328.980469 C 182.585938 328.980469 182.988281 328.855469 183.351562 328.605469 C 183.714844 328.359375 183.976562 328.027344 184.136719 327.617188 L 185.40625 324.363281 L 190.851562 338.316406 C 191.011719 338.726562 191.273438 339.054688 191.636719 339.304688 C 192 339.554688 192.402344 339.679688 192.84375 339.679688 C 193.285156 339.679688 193.6875 339.554688 194.050781 339.304688 C 194.414062 339.054688 194.675781 338.726562 194.835938 338.316406 L 223.089844 265.867188 L 294.296875 297.117188 C 294.699219 297.296875 295.117188 297.34375 295.550781 297.261719 C 295.984375 297.179688 296.359375 296.984375 296.667969 296.671875 C 296.980469 296.359375 297.175781 295.988281 297.257812 295.554688 C 297.339844 295.121094 297.292969 294.703125 297.117188 294.300781 L 265.863281 223.089844 L 338.3125 194.835938 C 338.722656 194.675781 339.050781 194.414062 339.300781 194.050781 C 339.550781 193.683594 339.671875 193.28125 339.671875 192.84375 C 339.671875 192.402344 339.550781 192 339.300781 191.636719 C 339.050781 191.269531 338.722656 191.007812 338.3125 190.847656 Z M 155.074219 251.53125 C 154.96875 251.261719 154.8125 251.019531 154.609375 250.8125 C 154.40625 250.605469 154.167969 250.445312 153.898438 250.335938 C 153.628906 250.222656 153.347656 250.171875 153.058594 250.175781 C 152.765625 250.175781 152.488281 250.238281 152.222656 250.355469 L 83.996094 280.292969 L 113.9375 212.066406 C 114.054688 211.800781 114.117188 211.523438 114.117188 211.230469 C 114.121094 210.9375 114.070312 210.660156 113.957031 210.390625 C 113.847656 210.121094 113.6875 209.882812 113.480469 209.679688 C 113.273438 209.476562 113.03125 209.320312 112.761719 209.214844 L 43.34375 182.148438 L 112.761719 155.078125 C 113.03125 154.972656 113.273438 154.816406 113.480469 154.613281 C 113.6875 154.410156 113.847656 154.171875 113.957031 153.902344 C 114.070312 153.632812 114.121094 153.355469 114.117188 153.0625 C 114.117188 152.773438 114.054688 152.492188 113.9375 152.226562 L 83.996094 83.992188 L 152.222656 113.9375 C 152.488281 114.054688 152.765625 114.113281 153.058594 114.117188 C 153.351562 114.121094 153.628906 114.066406 153.898438 113.957031 C 154.167969 113.84375 154.40625 113.683594 154.609375 113.476562 C 154.8125 113.265625 154.96875 113.027344 155.074219 112.753906 L 182.140625 43.339844 L 209.207031 112.753906 C 209.316406 113.027344 209.46875 113.265625 209.671875 113.476562 C 209.878906 113.683594 210.113281 113.84375 210.382812 113.957031 C 210.652344 114.066406 210.933594 114.121094 211.222656 114.117188 C 211.515625 114.113281 211.796875 114.054688 212.0625 113.9375 L 280.289062 83.992188 L 250.347656 152.21875 C 250.230469 152.488281 250.171875 152.765625 250.167969 153.058594 C 250.164062 153.347656 250.21875 153.628906 250.332031 153.898438 C 250.441406 154.167969 250.601562 154.402344 250.808594 154.609375 C 251.015625 154.8125 251.253906 154.96875 251.527344 155.074219 L 320.945312 182.140625 L 251.527344 209.207031 C 251.253906 209.3125 251.015625 209.46875 250.808594 209.671875 C 250.601562 209.878906 250.441406 210.113281 250.332031 210.382812 C 250.21875 210.652344 250.164062 210.933594 250.167969 211.222656 C 250.171875 211.515625 250.230469 211.792969 250.347656 212.0625 L 280.292969 280.285156 L 212.066406 250.347656 C 211.800781 250.230469 211.523438 250.171875 211.230469 250.167969 C 210.9375 250.164062 210.660156 250.21875 210.390625 250.332031 C 210.121094 250.441406 209.882812 250.601562 209.679688 250.808594 C 209.476562 251.015625 209.320312 251.253906 209.214844 251.527344 L 182.148438 320.941406 Z M 155.074219 251.53125 " fill-opacity="1" fill-rule="nonzero"/></g><path fill="#ffbd19" d="M 155.074219 251.53125 C 154.96875 251.261719 154.8125 251.019531 154.609375 250.8125 C 154.40625 250.605469 154.167969 250.445312 153.898438 250.335938 C 153.628906 250.222656 153.347656 250.171875 153.058594 250.175781 C 152.765625 250.175781 152.488281 250.238281 152.222656 250.355469 L 83.996094 280.292969 L 113.9375 212.066406 C 114.054688 211.800781 114.117188 211.523438 114.117188 211.230469 C 114.121094 210.9375 114.070312 210.660156 113.957031 210.390625 C 113.847656 210.121094 113.6875 209.882812 113.480469 209.679688 C 113.273438 209.476562 113.03125 209.320312 112.761719 209.214844 L 43.34375 182.148438 L 112.761719 155.078125 C 113.03125 154.972656 113.273438 154.816406 113.480469 154.613281 C 113.6875 154.410156 113.847656 154.171875 113.957031 153.902344 C 114.070312 153.632812 114.121094 153.355469 114.117188 153.0625 C 114.117188 152.773438 114.054688 152.492188 113.9375 152.226562 L 83.996094 83.992188 L 152.222656 113.9375 C 152.488281 114.054688 152.765625 114.113281 153.058594 114.117188 C 153.351562 114.121094 153.628906 114.066406 153.898438 113.957031 C 154.167969 113.84375 154.40625 113.683594 154.609375 113.476562 C 154.8125 113.265625 154.96875 113.027344 155.074219 112.753906 L 182.140625 43.339844 L 209.207031 112.753906 C 209.316406 113.027344 209.46875 113.265625 209.671875 113.476562 C 209.878906 113.683594 210.113281 113.84375 210.382812 113.957031 C 210.652344 114.066406 210.933594 114.121094 211.222656 114.117188 C 211.515625 114.113281 211.796875 114.054688 212.0625 113.9375 L 280.289062 83.992188 L 250.347656 152.21875 C 250.230469 152.488281 250.171875 152.765625 250.167969 153.058594 C 250.164062 153.347656 250.21875 153.628906 250.332031 153.898438 C 250.441406 154.167969 250.601562 154.402344 250.808594 154.609375 C 251.015625 154.8125 251.253906 154.96875 251.527344 155.074219 L 320.945312 182.140625 L 251.527344 209.207031 C 251.253906 209.3125 251.015625 209.46875 250.808594 209.671875 C 250.601562 209.878906 250.441406 210.113281 250.332031 210.382812 C 250.21875 210.652344 250.164062 210.933594 250.167969 211.222656 C 250.171875 211.515625 250.230469 211.792969 250.347656 212.0625 L 280.292969 280.285156 L 212.066406 250.347656 C 211.800781 250.230469 211.523438 250.171875 211.230469 250.167969 C 210.9375 250.164062 210.660156 250.21875 210.390625 250.332031 C 210.121094 250.441406 209.882812 250.601562 209.679688 250.808594 C 209.476562 251.015625 209.320312 251.253906 209.214844 251.527344 L 182.148438 320.941406 Z M 155.074219 251.53125 " fill-opacity="1" fill-rule="nonzero"/></svg>