<svg xmlns="http://www.w3.org/2000/svg" xmlns:xlink="http://www.w3.org/1999/xlink" width="500" zoomAndPan="magnify" viewBox="0 0 375 374.999991" height="500" preserveAspectRatio="xMidYMid meet" version="1.0"><defs><g/><clipPath id="338165b55e"><path d="M 27 85 L 363 85 L 363 295.527344 L 27 295.527344 Z M 27 85 " clip-rule="nonzero"/></clipPath></defs><path fill="#00afa2" d="M 321.925781 294.929688 L 67.328125 294.929688 C 45.394531 294.929688 27.640625 277.195312 27.640625 255.285156 L 27.640625 125.691406 C 27.640625 103.777344 45.394531 86.042969 67.328125 86.042969 L 321.925781 86.042969 C 343.859375 86.042969 361.613281 103.777344 361.613281 125.691406 L 361.613281 255.285156 C 361.613281 277.195312 343.859375 294.929688 321.925781 294.929688 Z M 321.925781 294.929688 " fill-opacity="1" fill-rule="nonzero"/><g clip-path="url(#338165b55e)"><path fill="#202020" d="M 321.925781 295.527344 L 67.328125 295.527344 C 45.136719 295.527344 27.042969 277.453125 27.042969 255.285156 L 27.042969 125.691406 C 27.042969 103.523438 45.136719 85.449219 67.328125 85.449219 L 321.925781 85.449219 C 344.113281 85.449219 362.207031 103.523438 362.207031 125.691406 L 362.207031 255.285156 C 362.207031 277.453125 344.113281 295.527344 321.925781 295.527344 Z M 67.328125 86.554688 C 45.734375 86.554688 28.152344 104.121094 28.152344 125.691406 L 28.152344 255.285156 C 28.152344 276.855469 45.734375 294.417969 67.328125 294.417969 L 321.925781 294.417969 C 343.515625 294.417969 361.097656 276.855469 361.097656 255.285156 L 361.097656 125.691406 C 361.097656 104.121094 343.515625 86.554688 321.925781 86.554688 Z M 67.328125 86.554688 " fill-opacity="1" fill-rule="nonzero"/></g><path fill="#ffdda6" d="M 315.097656 288.621094 L 62.207031 288.621094 C 40.445312 288.621094 22.777344 270.972656 22.777344 249.230469 L 22.777344 120.488281 C 22.777344 98.746094 40.445312 81.097656 62.207031 81.097656 L 315.097656 81.097656 C 336.859375 81.097656 354.527344 98.746094 354.527344 120.488281 L 354.527344 249.230469 C 354.527344 270.972656 336.859375 288.621094 315.097656 288.621094 Z M 315.097656 288.621094 " fill-opacity="1" fill-rule="nonzero"/><path fill="#202020" d="M 315.097656 289.21875 L 62.207031 289.21875 C 40.101562 289.21875 22.179688 271.3125 22.179688 249.230469 L 22.179688 120.488281 C 22.179688 98.40625 40.101562 80.503906 62.207031 80.503906 L 315.097656 80.503906 C 337.203125 80.503906 355.125 98.40625 355.125 120.488281 L 355.125 249.230469 C 355.125 271.3125 337.117188 289.21875 315.097656 289.21875 Z M 62.207031 81.695312 C 40.785156 81.695312 23.375 99.089844 23.375 120.488281 L 23.375 249.230469 C 23.375 270.632812 40.785156 288.023438 62.207031 288.023438 L 315.097656 288.023438 C 336.519531 288.023438 353.929688 270.632812 353.929688 249.230469 L 353.929688 120.488281 C 353.929688 99.089844 336.519531 81.695312 315.097656 81.695312 Z M 62.207031 81.695312 " fill-opacity="1" fill-rule="nonzero"/><path fill="#ffd215" d="M 43.347656 222.800781 L 36.519531 222.800781 L 42.664062 219.21875 C 43.347656 218.878906 43.515625 218.027344 43.175781 217.34375 L 40.871094 213.421875 C 40.53125 212.738281 39.675781 212.570312 38.992188 212.910156 L 33.019531 216.320312 L 36.519531 210.183594 C 36.859375 209.5 36.6875 208.734375 36.007812 208.304688 L 32.078125 206.003906 C 31.398438 205.664062 30.542969 205.835938 30.203125 206.515625 L 26.789062 212.484375 L 26.789062 205.40625 C 26.789062 204.640625 26.191406 204.042969 25.421875 204.042969 L 20.898438 204.042969 C 20.132812 204.042969 19.535156 204.640625 19.535156 205.40625 L 19.535156 212.230469 L 16.035156 206.089844 C 15.691406 205.40625 14.839844 205.238281 14.15625 205.578125 L 10.230469 207.878906 C 9.546875 208.222656 9.378906 209.074219 9.71875 209.757812 L 13.132812 215.722656 L 6.988281 212.144531 C 6.304688 211.800781 5.535156 211.972656 5.109375 212.65625 L 2.804688 216.578125 C 2.464844 217.257812 2.632812 218.027344 3.316406 218.453125 L 9.292969 221.863281 L 2.207031 221.863281 C 1.441406 221.863281 0.84375 222.460938 0.84375 223.226562 L 0.84375 227.746094 C 0.84375 228.511719 1.441406 229.109375 2.207031 229.109375 L 8.949219 229.109375 C 8.949219 229.109375 8.949219 229.109375 8.949219 229.195312 L 2.890625 232.691406 C 2.207031 233.03125 2.039062 233.882812 2.378906 234.566406 L 4.683594 238.488281 C 5.023438 239.171875 5.878906 239.339844 6.5625 239 L 12.363281 235.675781 C 12.363281 235.675781 12.363281 235.675781 12.449219 235.761719 L 8.949219 241.8125 C 8.609375 242.496094 8.78125 243.261719 9.460938 243.6875 L 13.386719 245.992188 C 14.070312 246.332031 14.925781 246.160156 15.265625 245.480469 L 18.679688 239.511719 L 18.679688 246.589844 C 18.679688 247.355469 19.277344 247.953125 20.046875 247.953125 L 24.570312 247.953125 C 25.335938 247.953125 25.933594 247.355469 25.933594 246.589844 L 25.933594 239.765625 L 29.519531 245.90625 C 29.859375 246.589844 30.714844 246.757812 31.398438 246.417969 L 35.324219 244.117188 C 36.007812 243.773438 36.175781 242.921875 35.835938 242.238281 L 32.421875 236.273438 L 38.566406 239.851562 C 39.25 240.195312 40.101562 240.023438 40.445312 239.339844 L 42.75 235.417969 C 43.089844 234.738281 42.917969 233.882812 42.238281 233.542969 L 36.261719 230.132812 L 43.347656 230.132812 C 44.113281 230.132812 44.710938 229.535156 44.710938 228.769531 L 44.710938 224.25 C 44.710938 223.398438 44.027344 222.800781 43.347656 222.800781 Z M 43.347656 222.800781 " fill-opacity="1" fill-rule="nonzero"/><path fill="#202020" d="M 24.570312 248.550781 L 20.046875 248.550781 C 18.9375 248.550781 18.082031 247.695312 18.082031 246.589844 L 18.082031 241.644531 L 15.691406 245.734375 C 15.4375 246.160156 15.011719 246.503906 14.5 246.589844 C 13.984375 246.757812 13.472656 246.671875 13.046875 246.417969 L 9.121094 244.117188 C 8.695312 243.859375 8.351562 243.433594 8.183594 242.921875 C 8.011719 242.410156 8.097656 241.898438 8.351562 241.472656 L 10.828125 237.210938 L 6.730469 239.597656 C 5.792969 240.109375 4.597656 239.851562 4.085938 238.914062 L 1.78125 234.992188 C 1.269531 234.054688 1.523438 232.863281 2.464844 232.351562 L 6.730469 229.878906 L 2.039062 229.878906 C 0.925781 229.878906 0.0742188 229.023438 0.0742188 227.917969 L 0.0742188 223.398438 C 0.0742188 222.289062 0.925781 221.4375 2.039062 221.4375 L 6.988281 221.4375 L 2.890625 219.050781 C 1.953125 218.539062 1.609375 217.34375 2.207031 216.40625 L 4.511719 212.484375 C 5.023438 211.546875 6.21875 211.207031 7.15625 211.800781 L 11.425781 214.273438 L 9.035156 210.183594 C 8.78125 209.757812 8.695312 209.246094 8.863281 208.734375 C 9.035156 208.222656 9.292969 207.796875 9.804688 207.539062 L 13.730469 205.238281 C 14.667969 204.726562 15.863281 204.980469 16.375 205.917969 L 18.851562 210.183594 L 18.851562 205.492188 C 18.851562 204.382812 19.703125 203.53125 20.8125 203.53125 L 25.421875 203.53125 C 26.53125 203.53125 27.386719 204.382812 27.386719 205.492188 L 27.386719 210.4375 L 29.777344 206.34375 C 30.03125 205.917969 30.457031 205.578125 30.96875 205.40625 C 31.484375 205.238281 31.996094 205.324219 32.421875 205.578125 L 36.347656 207.878906 C 36.773438 208.136719 37.117188 208.5625 37.285156 209.074219 C 37.457031 209.585938 37.371094 210.097656 37.117188 210.523438 L 34.640625 214.785156 L 38.738281 212.398438 C 39.675781 211.886719 40.871094 212.230469 41.382812 213.082031 L 43.6875 217.003906 C 44.199219 217.941406 43.945312 219.132812 43.003906 219.644531 L 38.738281 222.117188 L 43.347656 222.117188 C 44.457031 222.117188 45.308594 222.972656 45.308594 224.078125 L 45.308594 228.597656 C 45.308594 229.707031 44.457031 230.558594 43.347656 230.558594 L 38.394531 230.558594 L 42.492188 232.945312 C 42.917969 233.203125 43.261719 233.628906 43.429688 234.140625 C 43.601562 234.652344 43.515625 235.164062 43.261719 235.589844 L 40.957031 239.511719 C 40.699219 239.9375 40.273438 240.277344 39.761719 240.449219 C 39.25 240.621094 38.738281 240.535156 38.308594 240.277344 L 34.042969 237.804688 L 36.433594 241.898438 C 36.945312 242.835938 36.6875 244.03125 35.75 244.542969 L 31.824219 246.84375 C 31.398438 247.101562 30.886719 247.183594 30.371094 247.015625 C 29.859375 246.84375 29.433594 246.589844 29.179688 246.078125 L 26.703125 241.8125 L 26.703125 246.503906 C 26.53125 247.613281 25.59375 248.550781 24.570312 248.550781 Z M 18.59375 238.914062 C 18.679688 238.914062 18.679688 238.914062 18.765625 238.914062 C 19.023438 239 19.191406 239.171875 19.191406 239.511719 L 19.191406 246.589844 C 19.191406 247.015625 19.535156 247.355469 19.960938 247.355469 L 24.570312 247.355469 C 24.996094 247.355469 25.335938 247.015625 25.335938 246.589844 L 25.335938 239.765625 C 25.335938 239.511719 25.507812 239.257812 25.765625 239.171875 C 26.019531 239.085938 26.277344 239.257812 26.445312 239.425781 L 30.03125 245.566406 C 30.117188 245.734375 30.289062 245.90625 30.542969 245.90625 C 30.714844 245.992188 30.96875 245.90625 31.140625 245.820312 L 35.066406 243.519531 C 35.410156 243.261719 35.578125 242.835938 35.324219 242.410156 L 31.910156 236.441406 C 31.738281 236.1875 31.824219 235.929688 31.996094 235.761719 C 32.164062 235.589844 32.507812 235.503906 32.675781 235.675781 L 38.824219 239.257812 C 38.992188 239.339844 39.25 239.425781 39.421875 239.339844 C 39.589844 239.257812 39.761719 239.171875 39.933594 239 L 42.238281 235.078125 C 42.320312 234.90625 42.40625 234.652344 42.320312 234.480469 C 42.238281 234.3125 42.152344 234.140625 41.980469 234.054688 L 36.007812 230.644531 C 35.75 230.472656 35.664062 230.21875 35.75 229.960938 C 35.835938 229.707031 36.007812 229.535156 36.347656 229.535156 L 43.347656 229.535156 C 43.773438 229.535156 44.113281 229.195312 44.113281 228.769531 L 44.113281 224.25 C 44.113281 223.824219 43.773438 223.484375 43.347656 223.484375 L 36.519531 223.484375 C 36.261719 223.484375 36.007812 223.3125 35.921875 223.054688 C 35.835938 222.800781 36.007812 222.546875 36.175781 222.375 L 42.320312 218.792969 C 42.664062 218.539062 42.832031 218.113281 42.578125 217.683594 L 40.273438 213.761719 C 40.015625 213.421875 39.589844 213.25 39.164062 213.507812 L 33.191406 216.917969 C 32.933594 217.089844 32.675781 217.003906 32.507812 216.832031 C 32.335938 216.660156 32.25 216.320312 32.421875 216.152344 L 35.921875 210.011719 C 36.007812 209.839844 36.089844 209.585938 36.007812 209.414062 C 35.921875 209.246094 35.835938 209.074219 35.664062 208.902344 L 31.738281 206.601562 C 31.566406 206.515625 31.3125 206.429688 31.140625 206.515625 C 30.96875 206.601562 30.800781 206.6875 30.714844 206.855469 L 27.300781 212.824219 C 27.128906 213.082031 26.875 213.167969 26.617188 213.082031 C 26.363281 212.996094 26.191406 212.824219 26.191406 212.484375 L 26.191406 205.40625 C 26.191406 204.980469 25.847656 204.640625 25.421875 204.640625 L 20.898438 204.640625 C 20.472656 204.640625 20.132812 204.980469 20.132812 205.40625 L 20.132812 212.230469 C 20.132812 212.484375 19.960938 212.738281 19.703125 212.824219 C 19.449219 212.910156 19.191406 212.738281 19.023438 212.570312 L 15.523438 206.429688 C 15.265625 206.089844 14.839844 205.917969 14.414062 206.175781 L 10.488281 208.476562 C 10.316406 208.5625 10.144531 208.734375 10.144531 208.988281 C 10.144531 209.246094 10.144531 209.414062 10.230469 209.585938 L 13.644531 215.554688 C 13.816406 215.808594 13.730469 216.066406 13.558594 216.234375 C 13.386719 216.40625 13.046875 216.492188 12.875 216.320312 L 6.730469 212.738281 C 6.390625 212.570312 5.878906 212.65625 5.621094 212.996094 L 3.316406 216.917969 C 3.148438 217.257812 3.230469 217.769531 3.574219 218.027344 L 9.546875 221.4375 C 9.804688 221.605469 9.890625 221.863281 9.804688 222.117188 C 9.71875 222.375 9.546875 222.546875 9.207031 222.546875 L 2.121094 222.546875 C 1.695312 222.546875 1.355469 222.886719 1.355469 223.3125 L 1.355469 227.832031 C 1.355469 228.257812 1.695312 228.597656 2.121094 228.597656 L 8.863281 228.597656 C 9.207031 228.597656 9.460938 228.855469 9.460938 229.195312 C 9.460938 229.367188 9.378906 229.621094 9.207031 229.707031 L 3.148438 233.203125 C 2.804688 233.457031 2.632812 233.882812 2.890625 234.3125 L 5.195312 238.234375 C 5.453125 238.574219 5.878906 238.746094 6.304688 238.488281 L 12.109375 235.164062 C 12.277344 235.078125 12.449219 235.078125 12.535156 235.078125 C 12.707031 235.164062 12.792969 235.25 12.875 235.332031 C 13.046875 235.503906 13.046875 235.675781 12.875 235.929688 L 9.378906 241.984375 C 9.292969 242.15625 9.207031 242.410156 9.292969 242.582031 C 9.378906 242.75 9.460938 242.921875 9.632812 243.09375 L 13.558594 245.394531 C 13.730469 245.480469 13.984375 245.566406 14.15625 245.480469 C 14.328125 245.394531 14.5 245.308594 14.667969 245.140625 L 18.082031 239.171875 C 18.253906 239 18.425781 238.914062 18.59375 238.914062 Z M 18.59375 238.914062 " fill-opacity="1" fill-rule="nonzero"/><path fill="#ffd215" d="M 373.132812 136.175781 L 366.902344 136.175781 L 372.449219 132.9375 C 373.046875 132.597656 373.21875 131.828125 372.878906 131.230469 L 370.828125 127.652344 C 370.488281 127.054688 369.71875 126.882812 369.121094 127.226562 L 363.746094 130.378906 L 366.988281 124.835938 C 367.328125 124.242188 367.160156 123.472656 366.5625 123.132812 L 362.976562 121.085938 C 362.378906 120.746094 361.613281 120.914062 361.269531 121.511719 L 358.199219 126.882812 L 358.199219 120.488281 C 358.199219 119.808594 357.601562 119.210938 356.917969 119.210938 L 352.820312 119.210938 C 352.136719 119.210938 351.539062 119.722656 351.539062 120.488281 L 351.539062 126.714844 L 348.296875 121.171875 C 347.957031 120.574219 347.1875 120.402344 346.589844 120.746094 L 343.003906 122.792969 C 342.40625 123.132812 342.238281 123.898438 342.578125 124.496094 L 345.652344 129.867188 L 340.101562 126.628906 C 339.507812 126.285156 338.738281 126.457031 338.398438 127.054688 L 336.347656 130.636719 C 336.007812 131.230469 336.175781 132 336.773438 132.339844 L 342.152344 135.410156 L 335.75 135.410156 C 335.066406 135.410156 334.46875 136.007812 334.46875 136.6875 L 334.46875 140.78125 C 334.46875 141.464844 334.984375 142.058594 335.75 142.058594 L 341.894531 142.058594 C 341.894531 142.058594 341.894531 142.058594 341.894531 142.144531 L 336.433594 145.300781 C 335.835938 145.640625 335.664062 146.40625 336.007812 147.003906 L 338.054688 150.585938 C 338.398438 151.183594 339.164062 151.351562 339.761719 151.011719 L 345.054688 147.941406 C 345.054688 147.941406 345.054688 147.941406 345.054688 148.027344 L 341.894531 153.484375 C 341.554688 154.082031 341.726562 154.847656 342.324219 155.191406 L 345.90625 157.234375 C 346.503906 157.578125 347.273438 157.40625 347.613281 156.808594 L 350.773438 151.4375 L 350.773438 157.832031 C 350.773438 158.515625 351.285156 159.113281 351.96875 159.113281 L 356.0625 159.113281 C 356.746094 159.113281 357.34375 158.515625 357.34375 157.832031 L 357.34375 151.523438 L 360.585938 157.066406 C 360.929688 157.664062 361.695312 157.832031 362.292969 157.492188 L 365.878906 155.445312 C 366.476562 155.105469 366.648438 154.335938 366.304688 153.742188 L 363.234375 148.367188 L 368.78125 151.609375 C 369.378906 151.949219 370.144531 151.78125 370.488281 151.183594 L 372.535156 147.601562 C 372.878906 147.003906 372.707031 146.238281 372.109375 145.898438 L 366.730469 142.742188 L 373.132812 142.742188 C 373.816406 142.742188 374.414062 142.230469 374.414062 141.464844 L 374.414062 137.371094 C 374.414062 136.6875 373.816406 136.175781 373.132812 136.175781 Z M 373.132812 136.175781 " fill-opacity="1" fill-rule="nonzero"/><path fill="#202020" d="M 356.148438 159.539062 L 352.050781 159.539062 C 351.027344 159.539062 350.261719 158.683594 350.261719 157.746094 L 350.261719 153.484375 L 348.210938 156.980469 C 347.957031 157.40625 347.613281 157.664062 347.101562 157.832031 C 346.589844 157.917969 346.164062 157.917969 345.738281 157.664062 L 342.152344 155.617188 C 341.726562 155.359375 341.46875 155.019531 341.296875 154.507812 C 341.214844 154.082031 341.214844 153.570312 341.46875 153.144531 L 343.601562 149.476562 L 340.101562 151.523438 C 339.675781 151.78125 339.164062 151.863281 338.738281 151.695312 C 338.3125 151.609375 337.882812 151.269531 337.628906 150.839844 L 335.578125 147.261719 C 335.324219 146.835938 335.238281 146.324219 335.410156 145.898438 C 335.578125 145.46875 335.835938 145.042969 336.261719 144.789062 L 339.933594 142.65625 L 335.921875 142.65625 C 334.898438 142.65625 334.128906 141.804688 334.128906 140.867188 L 334.128906 136.773438 C 334.128906 135.75 334.984375 134.984375 335.921875 134.984375 L 340.1875 134.984375 L 336.691406 132.9375 C 335.835938 132.425781 335.496094 131.316406 336.007812 130.464844 L 338.054688 126.882812 C 338.566406 126.03125 339.675781 125.691406 340.53125 126.203125 L 344.199219 128.332031 L 342.152344 124.835938 C 341.640625 123.984375 341.980469 122.875 342.835938 122.363281 L 346.417969 120.320312 C 347.273438 119.808594 348.382812 120.148438 348.894531 121 L 351.027344 124.667969 L 351.027344 120.574219 C 351.027344 119.550781 351.882812 118.785156 352.820312 118.785156 L 356.917969 118.785156 C 357.941406 118.785156 358.710938 119.636719 358.710938 120.574219 L 358.710938 124.835938 L 360.757812 121.339844 C 361.015625 120.914062 361.355469 120.660156 361.867188 120.488281 C 362.378906 120.320312 362.804688 120.402344 363.234375 120.660156 L 366.816406 122.707031 C 367.246094 122.960938 367.5 123.300781 367.671875 123.8125 C 367.757812 124.324219 367.757812 124.753906 367.5 125.179688 L 365.367188 128.84375 L 368.867188 126.796875 C 369.71875 126.285156 370.828125 126.628906 371.339844 127.480469 L 373.390625 131.0625 C 373.644531 131.488281 373.730469 132 373.558594 132.425781 C 373.476562 132.851562 373.132812 133.277344 372.707031 133.535156 L 369.035156 135.664062 L 373.132812 135.664062 C 374.15625 135.664062 374.925781 136.519531 374.925781 137.457031 L 374.925781 141.546875 C 374.925781 142.570312 374.070312 143.339844 373.132812 143.339844 L 368.867188 143.339844 L 372.367188 145.386719 C 372.792969 145.640625 373.046875 145.980469 373.21875 146.492188 C 373.390625 147.003906 373.304688 147.429688 373.046875 147.859375 L 371 151.4375 C 370.742188 151.863281 370.402344 152.121094 369.890625 152.292969 C 369.378906 152.460938 368.953125 152.375 368.523438 152.121094 L 364.855469 149.988281 L 366.902344 153.484375 C 367.414062 154.335938 367.074219 155.445312 366.21875 155.957031 L 362.636719 158.003906 C 362.207031 158.257812 361.695312 158.34375 361.269531 158.175781 C 360.84375 158.089844 360.417969 157.746094 360.160156 157.320312 L 358.027344 153.65625 L 358.027344 157.746094 C 358.027344 158.683594 357.171875 159.539062 356.148438 159.539062 Z M 350.773438 150.671875 C 350.859375 150.671875 350.859375 150.671875 350.941406 150.671875 C 351.199219 150.757812 351.371094 150.925781 351.371094 151.269531 L 351.371094 157.664062 C 351.371094 158.003906 351.710938 158.34375 352.050781 158.34375 L 356.148438 158.34375 C 356.492188 158.34375 356.832031 158.003906 356.832031 157.664062 L 356.832031 151.523438 C 356.832031 151.269531 357.003906 151.011719 357.257812 150.925781 C 357.515625 150.839844 357.769531 151.011719 357.941406 151.183594 L 361.183594 156.722656 C 361.269531 156.894531 361.441406 156.980469 361.613281 157.066406 C 361.78125 157.152344 361.953125 157.066406 362.125 156.980469 L 365.707031 154.933594 C 366.050781 154.761719 366.136719 154.335938 365.964844 153.996094 L 362.890625 148.625 C 362.722656 148.367188 362.804688 148.113281 362.976562 147.941406 C 363.148438 147.773438 363.488281 147.6875 363.660156 147.859375 L 369.207031 151.097656 C 369.378906 151.183594 369.546875 151.183594 369.71875 151.183594 C 369.890625 151.097656 370.0625 151.011719 370.144531 150.839844 L 372.195312 147.261719 C 372.28125 147.089844 372.28125 146.917969 372.28125 146.75 C 372.195312 146.578125 372.109375 146.40625 371.9375 146.324219 L 366.5625 143.167969 C 366.304688 142.996094 366.21875 142.742188 366.304688 142.484375 C 366.390625 142.230469 366.5625 142.058594 366.902344 142.058594 L 373.304688 142.058594 C 373.644531 142.058594 373.988281 141.804688 373.988281 141.378906 L 373.988281 137.285156 C 373.988281 136.945312 373.730469 136.601562 373.304688 136.601562 L 367.074219 136.601562 C 366.816406 136.601562 366.5625 136.433594 366.476562 136.175781 C 366.390625 135.921875 366.5625 135.664062 366.730469 135.496094 L 372.28125 132.253906 C 372.449219 132.167969 372.535156 132 372.621094 131.828125 C 372.707031 131.65625 372.621094 131.488281 372.535156 131.316406 L 370.488281 127.734375 C 370.316406 127.394531 369.890625 127.308594 369.546875 127.480469 L 364.171875 130.550781 C 363.914062 130.71875 363.660156 130.636719 363.488281 130.464844 C 363.316406 130.292969 363.234375 129.953125 363.402344 129.78125 L 366.648438 124.242188 C 366.730469 124.070312 366.730469 123.898438 366.730469 123.730469 C 366.648438 123.558594 366.5625 123.386719 366.390625 123.300781 L 362.804688 121.257812 C 362.636719 121.171875 362.464844 121.171875 362.292969 121.171875 C 362.125 121.257812 361.953125 121.339844 361.867188 121.511719 L 358.792969 126.882812 C 358.625 127.140625 358.367188 127.226562 358.113281 127.140625 C 357.855469 127.054688 357.683594 126.882812 357.683594 126.542969 L 357.683594 120.148438 C 357.683594 119.808594 357.429688 119.464844 357.003906 119.464844 L 352.90625 119.464844 C 352.5625 119.464844 352.222656 119.722656 352.222656 120.148438 L 352.222656 126.371094 C 352.222656 126.628906 352.050781 126.882812 351.796875 126.96875 C 351.539062 127.054688 351.285156 126.96875 351.113281 126.714844 L 347.871094 121.171875 C 347.699219 120.832031 347.273438 120.746094 346.929688 120.914062 L 343.347656 122.960938 C 343.003906 123.132812 342.921875 123.558594 343.089844 123.898438 L 346.164062 129.269531 C 346.335938 129.527344 346.25 129.78125 346.078125 129.953125 C 345.90625 130.125 345.566406 130.207031 345.394531 130.039062 L 339.847656 126.796875 C 339.507812 126.628906 339.164062 126.714844 338.910156 127.054688 L 336.859375 130.636719 C 336.691406 130.976562 336.773438 131.316406 337.117188 131.574219 L 342.492188 134.640625 C 342.75 134.8125 342.835938 135.070312 342.75 135.324219 C 342.664062 135.582031 342.492188 135.75 342.152344 135.75 L 335.75 135.75 C 335.410156 135.75 335.066406 136.007812 335.066406 136.433594 L 335.066406 140.523438 C 335.066406 140.867188 335.324219 141.207031 335.75 141.207031 L 341.894531 141.207031 C 342.152344 141.207031 342.40625 141.464844 342.492188 141.71875 C 342.492188 141.71875 342.492188 141.804688 342.492188 141.804688 C 342.492188 141.972656 342.40625 142.230469 342.238281 142.316406 L 336.773438 145.46875 C 336.605469 145.554688 336.519531 145.726562 336.433594 145.898438 C 336.347656 146.066406 336.433594 146.238281 336.519531 146.40625 L 338.566406 149.988281 C 338.652344 150.160156 338.824219 150.246094 338.992188 150.328125 C 339.164062 150.414062 339.335938 150.328125 339.507812 150.246094 L 344.796875 147.175781 C 344.96875 147.089844 345.140625 147.089844 345.222656 147.089844 C 345.308594 147.089844 345.480469 147.175781 345.566406 147.261719 C 345.738281 147.429688 345.738281 147.6875 345.652344 147.941406 L 342.492188 153.398438 C 342.40625 153.570312 342.40625 153.742188 342.40625 153.910156 C 342.492188 154.082031 342.578125 154.253906 342.75 154.335938 L 346.335938 156.382812 C 346.503906 156.46875 346.675781 156.46875 346.847656 156.46875 C 347.015625 156.382812 347.1875 156.296875 347.273438 156.214844 L 350.429688 150.839844 C 350.429688 150.839844 350.601562 150.671875 350.773438 150.671875 Z M 350.773438 150.671875 " fill-opacity="1" fill-rule="nonzero"/><g fill="#000000" fill-opacity="1"><g transform="translate(43.782449, 181.61623)"><g><path d="M 20.484375 -49.984375 C 22.984375 -49.984375 25.269531 -49.453125 27.34375 -48.390625 C 29.414062 -47.328125 31.0625 -45.890625 32.28125 -44.078125 C 33.507812 -42.273438 34.125 -40.285156 34.125 -38.109375 C 34.125 -35.929688 33.507812 -33.9375 32.28125 -32.125 C 31.0625 -30.320312 29.414062 -28.890625 27.34375 -27.828125 C 25.269531 -26.765625 22.984375 -26.234375 20.484375 -26.234375 L 14.90625 -26.234375 C 14.90625 -24.367188 14.972656 -22.398438 15.109375 -20.328125 C 15.242188 -18.253906 15.492188 -16.40625 15.859375 -14.78125 C 16.234375 -13.164062 16.820312 -12.039062 17.625 -11.40625 C 18.039062 -11.082031 18.222656 -10.664062 18.171875 -10.15625 C 18.117188 -9.65625 17.671875 -9.40625 16.828125 -9.40625 L 0.796875 -9.40625 C 0.421875 -9.40625 0.179688 -9.601562 0.078125 -10 C -0.0234375 -10.40625 0.109375 -10.765625 0.484375 -11.078125 C 1.859375 -12.140625 2.742188 -13.160156 3.140625 -14.140625 C 3.546875 -15.128906 3.75 -16.367188 3.75 -17.859375 L 3.75 -41.609375 C 3.75 -43.046875 3.546875 -44.28125 3.140625 -45.3125 C 2.742188 -46.351562 1.859375 -47.378906 0.484375 -48.390625 C 0.109375 -48.710938 -0.0234375 -49.054688 0.078125 -49.421875 C 0.179688 -49.796875 0.421875 -49.984375 0.796875 -49.984375 Z M 14.90625 -28.625 C 17.082031 -28.9375 18.925781 -29.992188 20.4375 -31.796875 C 21.957031 -33.609375 22.71875 -35.710938 22.71875 -38.109375 C 22.71875 -40.179688 22.160156 -42.023438 21.046875 -43.640625 C 19.929688 -45.265625 18.523438 -46.421875 16.828125 -47.109375 C 16.128906 -45.992188 15.644531 -44.375 15.375 -42.25 C 15.113281 -40.125 14.96875 -37.929688 14.9375 -35.671875 C 14.914062 -33.410156 14.90625 -31.429688 14.90625 -29.734375 Z M 14.90625 -28.625 "/></g></g></g><g fill="#000000" fill-opacity="1"><g transform="translate(77.259268, 181.61623)"><g><path d="M 15.9375 -38.90625 C 18.863281 -38.90625 21.519531 -38.238281 23.90625 -36.90625 C 26.300781 -35.582031 28.21875 -33.800781 29.65625 -31.5625 C 31.09375 -29.332031 31.8125 -26.863281 31.8125 -24.15625 C 31.8125 -21.445312 31.09375 -18.972656 29.65625 -16.734375 C 28.21875 -14.503906 26.300781 -12.722656 23.90625 -11.390625 C 21.519531 -10.066406 18.863281 -9.40625 15.9375 -9.40625 C 13.019531 -9.40625 10.351562 -10.066406 7.9375 -11.390625 C 5.519531 -12.722656 3.59375 -14.503906 2.15625 -16.734375 C 0.71875 -18.972656 0 -21.445312 0 -24.15625 C 0 -26.863281 0.71875 -29.332031 2.15625 -31.5625 C 3.59375 -33.800781 5.519531 -35.582031 7.9375 -36.90625 C 10.351562 -38.238281 13.019531 -38.90625 15.9375 -38.90625 Z M 15.9375 -11.640625 C 16.789062 -11.640625 17.550781 -12.207031 18.21875 -13.34375 C 18.882812 -14.488281 19.425781 -16.003906 19.84375 -17.890625 C 20.269531 -19.785156 20.484375 -21.875 20.484375 -24.15625 C 20.484375 -26.488281 20.269531 -28.597656 19.84375 -30.484375 C 19.425781 -32.378906 18.882812 -33.882812 18.21875 -35 C 17.550781 -36.113281 16.789062 -36.671875 15.9375 -36.671875 C 15.09375 -36.671875 14.320312 -36.113281 13.625 -35 C 12.9375 -33.882812 12.378906 -32.378906 11.953125 -30.484375 C 11.523438 -28.597656 11.3125 -26.488281 11.3125 -24.15625 C 11.3125 -21.875 11.523438 -19.785156 11.953125 -17.890625 C 12.378906 -16.003906 12.9375 -14.488281 13.625 -13.34375 C 14.320312 -12.207031 15.09375 -11.640625 15.9375 -11.640625 Z M 15.9375 -11.640625 "/></g></g></g><g fill="#000000" fill-opacity="1"><g transform="translate(111.13464, 181.61623)"><g><path d="M 24.234375 -38.90625 C 25.773438 -38.90625 27.351562 -38.492188 28.96875 -37.671875 C 30.59375 -36.847656 31.566406 -35.582031 31.890625 -33.875 C 32.203125 -32.332031 32 -31.03125 31.28125 -29.96875 C 30.570312 -28.90625 29.617188 -28.082031 28.421875 -27.5 C 27.222656 -26.914062 26.007812 -26.597656 24.78125 -26.546875 C 23.5625 -26.492188 22.566406 -26.757812 21.796875 -27.34375 C 21.023438 -27.925781 20.722656 -28.828125 20.890625 -30.046875 C 21.046875 -30.953125 21.203125 -31.738281 21.359375 -32.40625 C 21.523438 -33.070312 21.234375 -33.40625 20.484375 -33.40625 C 19.523438 -33.40625 18.445312 -32.789062 17.25 -31.5625 C 16.0625 -30.34375 15.09375 -29.015625 14.34375 -27.578125 C 14.082031 -23.171875 14.203125 -19.582031 14.703125 -16.8125 C 15.210938 -14.050781 16.023438 -12.25 17.140625 -11.40625 C 17.566406 -11.082031 17.753906 -10.664062 17.703125 -10.15625 C 17.648438 -9.65625 17.195312 -9.40625 16.34375 -9.40625 L 0.796875 -9.40625 C 0.421875 -9.40625 0.179688 -9.601562 0.078125 -10 C -0.0234375 -10.40625 0.109375 -10.765625 0.484375 -11.078125 C 1.859375 -12.140625 2.742188 -13.160156 3.140625 -14.140625 C 3.546875 -15.128906 3.75 -16.367188 3.75 -17.859375 L 3.75 -24.546875 C 3.75 -26.035156 3.546875 -27.285156 3.140625 -28.296875 C 2.742188 -29.304688 1.859375 -30.34375 0.484375 -31.40625 C 0.109375 -31.726562 -0.0234375 -32.070312 0.078125 -32.4375 C 0.179688 -32.8125 0.421875 -33 0.796875 -33 C 2.710938 -33 4.375 -33.265625 5.78125 -33.796875 C 7.1875 -34.328125 8.421875 -34.953125 9.484375 -35.671875 C 10.546875 -36.390625 11.488281 -37.050781 12.3125 -37.65625 C 13.132812 -38.269531 13.921875 -38.660156 14.671875 -38.828125 C 15.515625 -38.984375 15.867188 -38.820312 15.734375 -38.34375 C 15.609375 -37.863281 15.492188 -37.359375 15.390625 -36.828125 L 14.75 -31.640625 C 15.382812 -32.546875 16.179688 -33.570312 17.140625 -34.71875 C 18.097656 -35.863281 19.1875 -36.847656 20.40625 -37.671875 C 21.625 -38.492188 22.898438 -38.90625 24.234375 -38.90625 Z M 24.234375 -38.90625 "/></g></g></g><g fill="#000000" fill-opacity="1"><g transform="translate(144.531757, 181.61623)"><g><path d="M 19.609375 -35.390625 C 20.140625 -35.390625 20.5 -35.203125 20.6875 -34.828125 C 20.875 -34.460938 20.96875 -34.015625 20.96875 -33.484375 C 20.96875 -32.953125 20.875 -32.5 20.6875 -32.125 C 20.5 -31.75 20.140625 -31.5625 19.609375 -31.5625 L 15.703125 -31.5625 C 15.546875 -28.164062 15.585938 -25.03125 15.828125 -22.15625 C 16.066406 -19.289062 16.453125 -16.925781 16.984375 -15.0625 C 17.515625 -13.207031 18.125 -11.988281 18.8125 -11.40625 C 19.238281 -11.082031 19.425781 -10.664062 19.375 -10.15625 C 19.320312 -9.65625 18.84375 -9.40625 17.9375 -9.40625 L 1.828125 -9.40625 C 1.296875 -9.40625 1.03125 -9.644531 1.03125 -10.125 C 1.03125 -10.601562 1.21875 -11.03125 1.59375 -11.40625 C 2.5 -12.25 3.125 -13.390625 3.46875 -14.828125 C 3.8125 -16.265625 4.007812 -17.753906 4.0625 -19.296875 C 4.113281 -20.835938 4.140625 -22.164062 4.140625 -23.28125 C 4.140625 -24.34375 4.113281 -25.65625 4.0625 -27.21875 C 4.007812 -28.789062 3.691406 -30.238281 3.109375 -31.5625 L 1.359375 -31.5625 C 0.828125 -31.5625 0.46875 -31.75 0.28125 -32.125 C 0.09375 -32.5 0 -32.953125 0 -33.484375 C 0 -34.015625 0.09375 -34.460938 0.28125 -34.828125 C 0.46875 -35.203125 0.828125 -35.390625 1.359375 -35.390625 L 1.828125 -35.390625 C 3.742188 -35.390625 5.335938 -35.828125 6.609375 -36.703125 C 7.890625 -37.585938 8.96875 -38.625 9.84375 -39.8125 C 10.71875 -41.007812 11.539062 -42.125 12.3125 -43.15625 C 13.082031 -44.195312 13.945312 -44.878906 14.90625 -45.203125 C 15.707031 -45.515625 16.289062 -45.445312 16.65625 -45 C 17.03125 -44.550781 17.164062 -44.0625 17.0625 -43.53125 C 16.84375 -42.144531 16.628906 -40.773438 16.421875 -39.421875 C 16.210938 -38.066406 16.050781 -36.722656 15.9375 -35.390625 Z M 19.609375 -35.390625 "/></g></g></g><g fill="#000000" fill-opacity="1"><g transform="translate(166.929353, 181.61623)"><g><path d="M 15.9375 -38.90625 C 18.863281 -38.90625 21.519531 -38.238281 23.90625 -36.90625 C 26.300781 -35.582031 28.21875 -33.800781 29.65625 -31.5625 C 31.09375 -29.332031 31.8125 -26.863281 31.8125 -24.15625 C 31.8125 -21.445312 31.09375 -18.972656 29.65625 -16.734375 C 28.21875 -14.503906 26.300781 -12.722656 23.90625 -11.390625 C 21.519531 -10.066406 18.863281 -9.40625 15.9375 -9.40625 C 13.019531 -9.40625 10.351562 -10.066406 7.9375 -11.390625 C 5.519531 -12.722656 3.59375 -14.503906 2.15625 -16.734375 C 0.71875 -18.972656 0 -21.445312 0 -24.15625 C 0 -26.863281 0.71875 -29.332031 2.15625 -31.5625 C 3.59375 -33.800781 5.519531 -35.582031 7.9375 -36.90625 C 10.351562 -38.238281 13.019531 -38.90625 15.9375 -38.90625 Z M 15.9375 -11.640625 C 16.789062 -11.640625 17.550781 -12.207031 18.21875 -13.34375 C 18.882812 -14.488281 19.425781 -16.003906 19.84375 -17.890625 C 20.269531 -19.785156 20.484375 -21.875 20.484375 -24.15625 C 20.484375 -26.488281 20.269531 -28.597656 19.84375 -30.484375 C 19.425781 -32.378906 18.882812 -33.882812 18.21875 -35 C 17.550781 -36.113281 16.789062 -36.671875 15.9375 -36.671875 C 15.09375 -36.671875 14.320312 -36.113281 13.625 -35 C 12.9375 -33.882812 12.378906 -32.378906 11.953125 -30.484375 C 11.523438 -28.597656 11.3125 -26.488281 11.3125 -24.15625 C 11.3125 -21.875 11.523438 -19.785156 11.953125 -17.890625 C 12.378906 -16.003906 12.9375 -14.488281 13.625 -13.34375 C 14.320312 -12.207031 15.09375 -11.640625 15.9375 -11.640625 Z M 15.9375 -11.640625 "/></g></g></g><g fill="#000000" fill-opacity="1"><g transform="translate(200.804724, 181.61623)"><g><path d="M 20.40625 -35.390625 C 20.9375 -35.390625 21.296875 -35.203125 21.484375 -34.828125 C 21.671875 -34.460938 21.765625 -34.015625 21.765625 -33.484375 C 21.765625 -32.953125 21.671875 -32.5 21.484375 -32.125 C 21.296875 -31.75 20.9375 -31.5625 20.40625 -31.5625 L 14.75 -31.5625 L 14.75 -29.734375 C 14.75 -27.128906 14.84375 -24.5 15.03125 -21.84375 C 15.21875 -19.1875 15.519531 -16.898438 15.9375 -14.984375 C 16.363281 -13.078125 16.867188 -11.882812 17.453125 -11.40625 C 17.878906 -11.082031 18.066406 -10.664062 18.015625 -10.15625 C 17.960938 -9.65625 17.484375 -9.40625 16.578125 -9.40625 L 0.796875 -9.40625 C 0.421875 -9.40625 0.179688 -9.601562 0.078125 -10 C -0.0234375 -10.40625 0.109375 -10.765625 0.484375 -11.078125 C 1.859375 -12.140625 2.742188 -13.160156 3.140625 -14.140625 C 3.546875 -15.128906 3.75 -16.367188 3.75 -17.859375 L 3.75 -31.5625 L 2.46875 -31.5625 C 1.9375 -31.5625 1.5625 -31.75 1.34375 -32.125 C 1.132812 -32.5 1.03125 -32.953125 1.03125 -33.484375 C 1.03125 -34.015625 1.132812 -34.460938 1.34375 -34.828125 C 1.5625 -35.203125 1.9375 -35.390625 2.46875 -35.390625 L 3.75 -35.390625 L 3.75 -35.546875 C 3.75 -38.421875 4.398438 -40.945312 5.703125 -43.125 C 7.003906 -45.300781 8.796875 -46.988281 11.078125 -48.1875 C 13.367188 -49.382812 15.921875 -49.984375 18.734375 -49.984375 C 22.398438 -49.984375 25.226562 -49.238281 27.21875 -47.75 C 29.21875 -46.257812 30.191406 -44.664062 30.140625 -42.96875 C 30.078125 -41.800781 29.617188 -40.910156 28.765625 -40.296875 C 27.921875 -39.679688 26.914062 -39.304688 25.75 -39.171875 C 24.582031 -39.046875 23.453125 -39.15625 22.359375 -39.5 C 21.273438 -39.84375 20.460938 -40.375 19.921875 -41.09375 C 19.390625 -41.8125 19.335938 -42.703125 19.765625 -43.765625 C 20.242188 -44.828125 20.46875 -45.753906 20.4375 -46.546875 C 20.414062 -47.347656 20.113281 -47.75 19.53125 -47.75 C 18.789062 -47.75 18.113281 -47.175781 17.5 -46.03125 C 16.882812 -44.894531 16.363281 -43.378906 15.9375 -41.484375 C 15.519531 -39.597656 15.203125 -37.566406 14.984375 -35.390625 Z M 20.40625 -35.390625 "/></g></g></g><g fill="#000000" fill-opacity="1"><g transform="translate(224.397909, 181.61623)"><g><path d="M 15.9375 -38.90625 C 18.863281 -38.90625 21.519531 -38.238281 23.90625 -36.90625 C 26.300781 -35.582031 28.21875 -33.800781 29.65625 -31.5625 C 31.09375 -29.332031 31.8125 -26.863281 31.8125 -24.15625 C 31.8125 -21.445312 31.09375 -18.972656 29.65625 -16.734375 C 28.21875 -14.503906 26.300781 -12.722656 23.90625 -11.390625 C 21.519531 -10.066406 18.863281 -9.40625 15.9375 -9.40625 C 13.019531 -9.40625 10.351562 -10.066406 7.9375 -11.390625 C 5.519531 -12.722656 3.59375 -14.503906 2.15625 -16.734375 C 0.71875 -18.972656 0 -21.445312 0 -24.15625 C 0 -26.863281 0.71875 -29.332031 2.15625 -31.5625 C 3.59375 -33.800781 5.519531 -35.582031 7.9375 -36.90625 C 10.351562 -38.238281 13.019531 -38.90625 15.9375 -38.90625 Z M 15.9375 -11.640625 C 16.789062 -11.640625 17.550781 -12.207031 18.21875 -13.34375 C 18.882812 -14.488281 19.425781 -16.003906 19.84375 -17.890625 C 20.269531 -19.785156 20.484375 -21.875 20.484375 -24.15625 C 20.484375 -26.488281 20.269531 -28.597656 19.84375 -30.484375 C 19.425781 -32.378906 18.882812 -33.882812 18.21875 -35 C 17.550781 -36.113281 16.789062 -36.671875 15.9375 -36.671875 C 15.09375 -36.671875 14.320312 -36.113281 13.625 -35 C 12.9375 -33.882812 12.378906 -32.378906 11.953125 -30.484375 C 11.523438 -28.597656 11.3125 -26.488281 11.3125 -24.15625 C 11.3125 -21.875 11.523438 -19.785156 11.953125 -17.890625 C 12.378906 -16.003906 12.9375 -14.488281 13.625 -13.34375 C 14.320312 -12.207031 15.09375 -11.640625 15.9375 -11.640625 Z M 15.9375 -11.640625 "/></g></g></g><g fill="#000000" fill-opacity="1"><g transform="translate(258.27328, 181.61623)"><g><path d="M 17.453125 -11.40625 C 17.878906 -11.082031 18.066406 -10.664062 18.015625 -10.15625 C 17.960938 -9.65625 17.484375 -9.40625 16.578125 -9.40625 L 0.796875 -9.40625 C 0.421875 -9.40625 0.179688 -9.601562 0.078125 -10 C -0.0234375 -10.40625 0.109375 -10.765625 0.484375 -11.078125 C 1.859375 -12.140625 2.742188 -13.160156 3.140625 -14.140625 C 3.546875 -15.128906 3.75 -16.367188 3.75 -17.859375 L 3.75 -35.796875 C 3.75 -37.285156 3.546875 -38.535156 3.140625 -39.546875 C 2.742188 -40.554688 1.859375 -41.5625 0.484375 -42.5625 C 0.109375 -42.882812 -0.0234375 -43.234375 0.078125 -43.609375 C 0.179688 -43.984375 0.421875 -44.171875 0.796875 -44.171875 C 2.710938 -44.171875 4.382812 -44.4375 5.8125 -44.96875 C 7.25 -45.5 8.507812 -46.132812 9.59375 -46.875 C 10.6875 -47.613281 11.660156 -48.273438 12.515625 -48.859375 C 13.367188 -49.453125 14.164062 -49.828125 14.90625 -49.984375 C 15.757812 -50.191406 16.128906 -50.039062 16.015625 -49.53125 C 15.910156 -49.03125 15.804688 -48.515625 15.703125 -47.984375 C 15.015625 -44.160156 14.578125 -40.226562 14.390625 -36.1875 C 14.203125 -32.15625 14.210938 -28.359375 14.421875 -24.796875 C 14.640625 -21.234375 15.015625 -18.253906 15.546875 -15.859375 C 16.078125 -13.472656 16.710938 -11.988281 17.453125 -11.40625 Z M 17.453125 -11.40625 "/></g></g></g><g fill="#000000" fill-opacity="1"><g transform="translate(277.642018, 181.61623)"><g><path d="M 16.34375 -9.40625 L 0.796875 -9.40625 C 0.421875 -9.40625 0.179688 -9.601562 0.078125 -10 C -0.0234375 -10.40625 0.109375 -10.765625 0.484375 -11.078125 C 1.859375 -12.140625 2.742188 -13.160156 3.140625 -14.140625 C 3.546875 -15.128906 3.75 -16.367188 3.75 -17.859375 L 3.75 -24.546875 C 3.75 -26.035156 3.546875 -27.285156 3.140625 -28.296875 C 2.742188 -29.304688 1.859375 -30.34375 0.484375 -31.40625 C 0.109375 -31.726562 -0.0234375 -32.070312 0.078125 -32.4375 C 0.179688 -32.8125 0.421875 -33 0.796875 -33 C 2.710938 -33 4.375 -33.265625 5.78125 -33.796875 C 7.1875 -34.328125 8.421875 -34.953125 9.484375 -35.671875 C 10.546875 -36.390625 11.488281 -37.050781 12.3125 -37.65625 C 13.132812 -38.269531 13.921875 -38.660156 14.671875 -38.828125 C 15.515625 -38.984375 15.867188 -38.820312 15.734375 -38.34375 C 15.609375 -37.863281 15.492188 -37.359375 15.390625 -36.828125 C 14.328125 -29.765625 13.976562 -24.039062 14.34375 -19.65625 C 14.71875 -15.269531 15.648438 -12.519531 17.140625 -11.40625 C 17.566406 -11.082031 17.753906 -10.664062 17.703125 -10.15625 C 17.648438 -9.65625 17.195312 -9.40625 16.34375 -9.40625 Z M 5.984375 -38.34375 C 4.390625 -38.34375 3.140625 -38.910156 2.234375 -40.046875 C 1.328125 -41.191406 1.0625 -42.566406 1.4375 -44.171875 C 1.8125 -45.816406 2.6875 -47.195312 4.0625 -48.3125 C 5.445312 -49.425781 6.960938 -49.984375 8.609375 -49.984375 C 10.203125 -49.984375 11.453125 -49.425781 12.359375 -48.3125 C 13.265625 -47.195312 13.53125 -45.816406 13.15625 -44.171875 C 12.78125 -42.566406 11.898438 -41.191406 10.515625 -40.046875 C 9.140625 -38.910156 7.628906 -38.34375 5.984375 -38.34375 Z M 5.984375 -38.34375 "/></g></g></g><g fill="#000000" fill-opacity="1"><g transform="translate(297.329584, 181.61623)"><g><path d="M 15.9375 -38.90625 C 18.863281 -38.90625 21.519531 -38.238281 23.90625 -36.90625 C 26.300781 -35.582031 28.21875 -33.800781 29.65625 -31.5625 C 31.09375 -29.332031 31.8125 -26.863281 31.8125 -24.15625 C 31.8125 -21.445312 31.09375 -18.972656 29.65625 -16.734375 C 28.21875 -14.503906 26.300781 -12.722656 23.90625 -11.390625 C 21.519531 -10.066406 18.863281 -9.40625 15.9375 -9.40625 C 13.019531 -9.40625 10.351562 -10.066406 7.9375 -11.390625 C 5.519531 -12.722656 3.59375 -14.503906 2.15625 -16.734375 C 0.71875 -18.972656 0 -21.445312 0 -24.15625 C 0 -26.863281 0.71875 -29.332031 2.15625 -31.5625 C 3.59375 -33.800781 5.519531 -35.582031 7.9375 -36.90625 C 10.351562 -38.238281 13.019531 -38.90625 15.9375 -38.90625 Z M 15.9375 -11.640625 C 16.789062 -11.640625 17.550781 -12.207031 18.21875 -13.34375 C 18.882812 -14.488281 19.425781 -16.003906 19.84375 -17.890625 C 20.269531 -19.785156 20.484375 -21.875 20.484375 -24.15625 C 20.484375 -26.488281 20.269531 -28.597656 19.84375 -30.484375 C 19.425781 -32.378906 18.882812 -33.882812 18.21875 -35 C 17.550781 -36.113281 16.789062 -36.671875 15.9375 -36.671875 C 15.09375 -36.671875 14.320312 -36.113281 13.625 -35 C 12.9375 -33.882812 12.378906 -32.378906 11.953125 -30.484375 C 11.523438 -28.597656 11.3125 -26.488281 11.3125 -24.15625 C 11.3125 -21.875 11.523438 -19.785156 11.953125 -17.890625 C 12.378906 -16.003906 12.9375 -14.488281 13.625 -13.34375 C 14.320312 -12.207031 15.09375 -11.640625 15.9375 -11.640625 Z M 15.9375 -11.640625 "/></g></g></g><g fill="#000000" fill-opacity="1"><g transform="translate(119.811775, 238.982976)"><g><path d="M 30.296875 -36.984375 C 30.078125 -34.753906 29.367188 -32.867188 28.171875 -31.328125 C 26.984375 -29.785156 25.472656 -28.457031 23.640625 -27.34375 C 21.804688 -26.226562 19.863281 -25.191406 17.8125 -24.234375 C 15.769531 -23.273438 13.816406 -22.25 11.953125 -21.15625 C 10.097656 -20.070312 8.503906 -18.757812 7.171875 -17.21875 L 16.578125 -17.21875 C 18.171875 -17.21875 19.773438 -17.5625 21.390625 -18.25 C 23.015625 -18.945312 24.503906 -19.800781 25.859375 -20.8125 C 27.222656 -21.820312 28.222656 -22.773438 28.859375 -23.671875 C 29.117188 -24.097656 29.4375 -24.257812 29.8125 -24.15625 C 30.1875 -24.050781 30.375 -23.785156 30.375 -23.359375 C 30.375 -23.203125 30.316406 -22.617188 30.203125 -21.609375 C 30.097656 -20.597656 29.96875 -19.425781 29.8125 -18.09375 C 29.65625 -16.769531 29.492188 -15.492188 29.328125 -14.265625 C 29.171875 -13.046875 29.066406 -12.171875 29.015625 -11.640625 C 28.960938 -10.148438 28.300781 -9.40625 27.03125 -9.40625 L 0 -9.40625 C 0 -12.8125 0.488281 -15.65625 1.46875 -17.9375 C 2.457031 -20.21875 3.734375 -22.171875 5.296875 -23.796875 C 6.867188 -25.421875 8.503906 -26.910156 10.203125 -28.265625 C 11.898438 -29.617188 13.492188 -31.023438 14.984375 -32.484375 C 16.472656 -33.941406 17.640625 -35.664062 18.484375 -37.65625 C 19.335938 -39.65625 19.660156 -42.117188 19.453125 -45.046875 C 19.398438 -45.992188 19.039062 -46.707031 18.375 -47.1875 C 17.707031 -47.664062 16.972656 -47.863281 16.171875 -47.78125 C 15.378906 -47.707031 14.703125 -47.296875 14.140625 -46.546875 C 13.585938 -45.804688 13.363281 -44.691406 13.46875 -43.203125 C 13.570312 -41.296875 13.144531 -39.78125 12.1875 -38.65625 C 11.238281 -37.539062 10.03125 -36.796875 8.5625 -36.421875 C 7.101562 -36.054688 5.707031 -36.070312 4.375 -36.46875 C 3.050781 -36.863281 2.054688 -37.578125 1.390625 -38.609375 C 0.734375 -39.648438 0.75 -41.023438 1.4375 -42.734375 C 2.125 -44.484375 3.289062 -45.898438 4.9375 -46.984375 C 6.582031 -48.078125 8.457031 -48.863281 10.5625 -49.34375 C 12.664062 -49.820312 14.695312 -50.035156 16.65625 -49.984375 L 16.828125 -49.984375 C 21.078125 -49.878906 24.472656 -48.707031 27.015625 -46.46875 C 29.566406 -44.238281 30.660156 -41.078125 30.296875 -36.984375 Z M 30.296875 -36.984375 "/></g></g></g><g fill="#000000" fill-opacity="1"><g transform="translate(151.774175, 238.982976)"><g><path d="M 17.453125 -49.984375 C 20.703125 -49.984375 23.628906 -49.066406 26.234375 -47.234375 C 28.835938 -45.398438 30.921875 -42.953125 32.484375 -39.890625 C 34.054688 -36.835938 34.84375 -33.453125 34.84375 -29.734375 C 34.84375 -26.015625 34.054688 -22.613281 32.484375 -19.53125 C 30.921875 -16.445312 28.835938 -13.988281 26.234375 -12.15625 C 23.628906 -10.320312 20.703125 -9.40625 17.453125 -9.40625 C 14.265625 -9.40625 11.34375 -10.320312 8.6875 -12.15625 C 6.03125 -13.988281 3.914062 -16.445312 2.34375 -19.53125 C 0.78125 -22.613281 0 -26.015625 0 -29.734375 C 0 -33.453125 0.78125 -36.835938 2.34375 -39.890625 C 3.914062 -42.953125 6.03125 -45.398438 8.6875 -47.234375 C 11.34375 -49.066406 14.265625 -49.984375 17.453125 -49.984375 Z M 17.453125 -12.671875 C 18.359375 -12.671875 19.179688 -13.425781 19.921875 -14.9375 C 20.671875 -16.457031 21.257812 -18.519531 21.6875 -21.125 C 22.113281 -23.726562 22.328125 -26.597656 22.328125 -29.734375 C 22.328125 -32.867188 22.113281 -35.722656 21.6875 -38.296875 C 21.257812 -40.878906 20.671875 -42.941406 19.921875 -44.484375 C 19.179688 -46.023438 18.359375 -46.796875 17.453125 -46.796875 C 16.554688 -46.796875 15.734375 -46.023438 14.984375 -44.484375 C 14.242188 -42.941406 13.644531 -40.878906 13.1875 -38.296875 C 12.738281 -35.722656 12.515625 -32.867188 12.515625 -29.734375 C 12.515625 -26.597656 12.738281 -23.726562 13.1875 -21.125 C 13.644531 -18.519531 14.242188 -16.457031 14.984375 -14.9375 C 15.734375 -13.425781 16.554688 -12.671875 17.453125 -12.671875 Z M 17.453125 -12.671875 "/></g></g></g><g fill="#000000" fill-opacity="1"><g transform="translate(188.279851, 238.982976)"><g><path d="M 30.296875 -36.984375 C 30.078125 -34.753906 29.367188 -32.867188 28.171875 -31.328125 C 26.984375 -29.785156 25.472656 -28.457031 23.640625 -27.34375 C 21.804688 -26.226562 19.863281 -25.191406 17.8125 -24.234375 C 15.769531 -23.273438 13.816406 -22.25 11.953125 -21.15625 C 10.097656 -20.070312 8.503906 -18.757812 7.171875 -17.21875 L 16.578125 -17.21875 C 18.171875 -17.21875 19.773438 -17.5625 21.390625 -18.25 C 23.015625 -18.945312 24.503906 -19.800781 25.859375 -20.8125 C 27.222656 -21.820312 28.222656 -22.773438 28.859375 -23.671875 C 29.117188 -24.097656 29.4375 -24.257812 29.8125 -24.15625 C 30.1875 -24.050781 30.375 -23.785156 30.375 -23.359375 C 30.375 -23.203125 30.316406 -22.617188 30.203125 -21.609375 C 30.097656 -20.597656 29.96875 -19.425781 29.8125 -18.09375 C 29.65625 -16.769531 29.492188 -15.492188 29.328125 -14.265625 C 29.171875 -13.046875 29.066406 -12.171875 29.015625 -11.640625 C 28.960938 -10.148438 28.300781 -9.40625 27.03125 -9.40625 L 0 -9.40625 C 0 -12.8125 0.488281 -15.65625 1.46875 -17.9375 C 2.457031 -20.21875 3.734375 -22.171875 5.296875 -23.796875 C 6.867188 -25.421875 8.503906 -26.910156 10.203125 -28.265625 C 11.898438 -29.617188 13.492188 -31.023438 14.984375 -32.484375 C 16.472656 -33.941406 17.640625 -35.664062 18.484375 -37.65625 C 19.335938 -39.65625 19.660156 -42.117188 19.453125 -45.046875 C 19.398438 -45.992188 19.039062 -46.707031 18.375 -47.1875 C 17.707031 -47.664062 16.972656 -47.863281 16.171875 -47.78125 C 15.378906 -47.707031 14.703125 -47.296875 14.140625 -46.546875 C 13.585938 -45.804688 13.363281 -44.691406 13.46875 -43.203125 C 13.570312 -41.296875 13.144531 -39.78125 12.1875 -38.65625 C 11.238281 -37.539062 10.03125 -36.796875 8.5625 -36.421875 C 7.101562 -36.054688 5.707031 -36.070312 4.375 -36.46875 C 3.050781 -36.863281 2.054688 -37.578125 1.390625 -38.609375 C 0.734375 -39.648438 0.75 -41.023438 1.4375 -42.734375 C 2.125 -44.484375 3.289062 -45.898438 4.9375 -46.984375 C 6.582031 -48.078125 8.457031 -48.863281 10.5625 -49.34375 C 12.664062 -49.820312 14.695312 -50.035156 16.65625 -49.984375 L 16.828125 -49.984375 C 21.078125 -49.878906 24.472656 -48.707031 27.015625 -46.46875 C 29.566406 -44.238281 30.660156 -41.078125 30.296875 -36.984375 Z M 30.296875 -36.984375 "/></g></g></g><g fill="#000000" fill-opacity="1"><g transform="translate(220.242252, 238.982976)"><g><path d="M 32.921875 -37.703125 C 32.066406 -37.066406 31.347656 -35.578125 30.765625 -33.234375 C 30.179688 -30.898438 29.835938 -28.003906 29.734375 -24.546875 C 29.835938 -21.148438 30.179688 -18.269531 30.765625 -15.90625 C 31.347656 -13.539062 32.066406 -12.039062 32.921875 -11.40625 C 33.347656 -11.082031 33.535156 -10.664062 33.484375 -10.15625 C 33.429688 -9.65625 32.953125 -9.40625 32.046875 -9.40625 L 16.265625 -9.40625 C 15.835938 -9.40625 15.570312 -9.601562 15.46875 -10 C 15.363281 -10.40625 15.519531 -10.765625 15.9375 -11.078125 C 17.320312 -12.140625 18.210938 -13.160156 18.609375 -14.140625 C 19.015625 -15.128906 19.21875 -16.367188 19.21875 -17.859375 L 19.21875 -22.328125 L 3.59375 -22.328125 C 2.101562 -22.328125 1.050781 -22.671875 0.4375 -23.359375 C -0.175781 -24.046875 -0.160156 -25.210938 0.484375 -26.859375 L 8.296875 -44.640625 C 9.191406 -46.554688 10.453125 -47.925781 12.078125 -48.75 C 13.703125 -49.570312 15.3125 -49.984375 16.90625 -49.984375 C 18.5 -49.984375 19.757812 -49.691406 20.6875 -49.109375 C 21.613281 -48.523438 21.863281 -47.78125 21.4375 -46.875 C 21.4375 -46.875 21.222656 -46.378906 20.796875 -45.390625 C 20.378906 -44.410156 19.835938 -43.160156 19.171875 -41.640625 C 18.503906 -40.128906 17.8125 -38.535156 17.09375 -36.859375 C 16.382812 -35.191406 15.707031 -33.640625 15.0625 -32.203125 C 14.425781 -30.765625 13.945312 -29.675781 13.625 -28.9375 C 13.039062 -27.71875 12.707031 -26.785156 12.625 -26.140625 C 12.550781 -25.503906 12.898438 -25.078125 13.671875 -24.859375 C 14.441406 -24.648438 15.8125 -24.546875 17.78125 -24.546875 L 19.21875 -24.546875 L 19.21875 -31.25 C 19.21875 -32.257812 19.375 -33.414062 19.6875 -34.71875 C 20.007812 -36.019531 20.539062 -37.175781 21.28125 -38.1875 C 22.03125 -39.195312 23.066406 -39.703125 24.390625 -39.703125 L 32.046875 -39.703125 C 32.953125 -39.703125 33.429688 -39.445312 33.484375 -38.9375 C 33.535156 -38.4375 33.347656 -38.023438 32.921875 -37.703125 Z M 32.921875 -37.703125 "/></g></g></g></svg>