<svg xmlns="http://www.w3.org/2000/svg" xmlns:xlink="http://www.w3.org/1999/xlink" width="500" zoomAndPan="magnify" viewBox="0 0 375 374.999991" height="500" preserveAspectRatio="xMidYMid meet" version="1.0"><defs><g/><clipPath id="9cf84f43f7"><path d="M 32 72 L 365 72 L 365 313.152344 L 32 313.152344 Z M 32 72 " clip-rule="nonzero"/></clipPath></defs><path fill="#f4451c" d="M 279.039062 312.519531 L 43.8125 312.519531 C 38.144531 312.519531 33.503906 307.878906 33.503906 302.207031 L 33.503906 83.421875 C 33.503906 77.75 38.144531 73.109375 43.8125 73.109375 L 353.351562 73.109375 C 359.019531 73.109375 363.660156 77.75 363.660156 83.421875 L 363.660156 227.875 C 363.660156 274.621094 325.773438 312.519531 279.039062 312.519531 Z M 279.039062 312.519531 " fill-opacity="1" fill-rule="nonzero"/><g clip-path="url(#9cf84f43f7)"><path fill="#202020" d="M 279.039062 313.121094 L 43.8125 313.121094 C 37.800781 313.121094 32.816406 308.222656 32.816406 302.121094 L 32.816406 83.421875 C 32.816406 77.40625 37.714844 72.421875 43.8125 72.421875 L 353.351562 72.421875 C 359.363281 72.421875 364.347656 77.320312 364.347656 83.421875 L 364.347656 227.875 C 364.347656 274.878906 326.03125 313.121094 279.039062 313.121094 Z M 43.8125 73.710938 C 38.488281 73.710938 34.105469 78.09375 34.105469 83.421875 L 34.105469 302.207031 C 34.105469 307.535156 38.488281 311.917969 43.8125 311.917969 L 279.039062 311.917969 C 325.34375 311.917969 363.058594 274.191406 363.058594 227.875 L 363.058594 83.421875 C 363.058594 78.09375 358.675781 73.710938 353.351562 73.710938 Z M 43.8125 73.710938 " fill-opacity="1" fill-rule="nonzero"/></g><path fill="#ffdda6" d="M 271.648438 305.128906 L 36.425781 305.128906 C 30.757812 305.128906 26.117188 300.488281 26.117188 294.816406 L 26.117188 76.03125 C 26.117188 70.359375 30.757812 65.71875 36.425781 65.71875 L 345.960938 65.71875 C 351.632812 65.71875 356.269531 70.359375 356.269531 76.03125 L 356.269531 220.484375 C 356.355469 267.230469 318.386719 305.128906 271.648438 305.128906 Z M 271.648438 305.128906 " fill-opacity="1" fill-rule="nonzero"/><path fill="#202020" d="M 271.648438 305.730469 L 36.425781 305.730469 C 30.414062 305.730469 25.429688 300.832031 25.429688 294.730469 L 25.429688 76.03125 C 25.429688 70.015625 30.328125 65.03125 36.425781 65.03125 L 345.960938 65.03125 C 351.976562 65.03125 356.957031 69.929688 356.957031 76.03125 L 356.957031 220.484375 C 356.957031 267.488281 318.644531 305.730469 271.648438 305.730469 Z M 36.425781 66.320312 C 31.101562 66.320312 26.71875 70.703125 26.71875 76.03125 L 26.71875 294.816406 C 26.71875 300.144531 31.101562 304.527344 36.425781 304.527344 L 271.648438 304.527344 C 317.957031 304.527344 355.671875 266.800781 355.671875 220.484375 L 355.671875 76.03125 C 355.671875 70.703125 351.289062 66.320312 345.960938 66.320312 Z M 36.425781 66.320312 " fill-opacity="1" fill-rule="nonzero"/><path fill="#ffd215" d="M 50.171875 266.886719 L 33.675781 261.128906 L 27.921875 244.632812 C 27.320312 242.828125 24.742188 242.828125 24.140625 244.632812 L 18.386719 261.128906 L 1.890625 266.886719 C 0.0859375 267.488281 0.0859375 270.066406 1.890625 270.667969 L 18.386719 276.425781 L 24.140625 292.925781 C 24.742188 294.730469 27.320312 294.730469 27.921875 292.925781 L 33.675781 276.425781 L 50.171875 270.667969 C 51.976562 270.066406 51.976562 267.574219 50.171875 266.886719 Z M 50.171875 266.886719 " fill-opacity="1" fill-rule="nonzero"/><path fill="#202020" d="M 26.117188 294.902344 C 25 294.902344 23.96875 294.214844 23.625 293.097656 L 17.957031 276.941406 L 1.804688 271.269531 C 0.6875 270.925781 0 269.894531 0 268.777344 C 0 267.660156 0.6875 266.628906 1.804688 266.285156 L 17.957031 260.613281 L 23.625 244.460938 C 23.96875 243.34375 25 242.65625 26.117188 242.65625 C 27.234375 242.65625 28.265625 243.34375 28.609375 244.460938 L 34.277344 260.613281 L 50.429688 266.285156 C 51.546875 266.628906 52.234375 267.660156 52.234375 268.777344 C 52.234375 269.894531 51.546875 270.925781 50.429688 271.269531 L 34.277344 276.941406 L 28.609375 293.097656 C 28.179688 294.214844 27.234375 294.902344 26.117188 294.902344 Z M 26.117188 243.945312 C 25.601562 243.945312 25 244.203125 24.828125 244.890625 L 19.070312 261.386719 C 18.984375 261.558594 18.898438 261.730469 18.730469 261.730469 L 2.234375 267.488281 C 1.546875 267.746094 1.289062 268.347656 1.289062 268.777344 C 1.289062 269.292969 1.546875 269.894531 2.234375 270.066406 L 18.730469 275.824219 C 18.898438 275.910156 19.070312 275.996094 19.070312 276.167969 L 24.828125 292.667969 C 25.085938 293.355469 25.6875 293.613281 26.117188 293.613281 C 26.632812 293.613281 27.234375 293.355469 27.40625 292.667969 L 33.160156 276.167969 C 33.246094 275.996094 33.332031 275.824219 33.503906 275.824219 L 50 270.066406 C 50.6875 269.808594 50.945312 269.207031 50.945312 268.777344 C 50.945312 268.347656 50.6875 267.660156 50 267.488281 L 33.503906 261.730469 C 33.332031 261.644531 33.160156 261.558594 33.160156 261.386719 L 27.40625 244.890625 C 27.148438 244.203125 26.546875 243.945312 26.117188 243.945312 Z M 26.117188 243.945312 " fill-opacity="1" fill-rule="nonzero"/><path fill="#ffd215" d="M 373.367188 92.960938 L 361.769531 88.921875 L 357.730469 77.320312 C 357.300781 76.03125 355.5 76.03125 355.070312 77.320312 L 351.03125 88.921875 L 339.433594 92.960938 C 338.144531 93.390625 338.144531 95.195312 339.433594 95.625 L 351.03125 99.664062 L 355.070312 111.261719 C 355.5 112.550781 357.300781 112.550781 357.730469 111.261719 L 361.769531 99.664062 L 373.367188 95.625 C 374.65625 95.195312 374.65625 93.390625 373.367188 92.960938 Z M 373.367188 92.960938 " fill-opacity="1" fill-rule="nonzero"/><path fill="#202020" d="M 356.355469 112.894531 C 355.5 112.894531 354.726562 112.378906 354.382812 111.519531 L 350.429688 100.179688 L 339.089844 96.226562 C 338.230469 95.96875 337.714844 95.195312 337.714844 94.25 C 337.714844 93.390625 338.230469 92.617188 339.089844 92.273438 L 350.429688 88.320312 L 354.382812 76.976562 C 354.640625 76.117188 355.414062 75.601562 356.355469 75.601562 C 357.214844 75.601562 357.988281 76.117188 358.332031 76.976562 L 362.285156 88.320312 L 373.625 92.273438 C 374.484375 92.53125 375 93.304688 375 94.25 C 375 95.109375 374.484375 95.882812 373.625 96.226562 L 362.285156 100.179688 L 358.332031 111.519531 C 357.988281 112.378906 357.214844 112.894531 356.355469 112.894531 Z M 356.355469 76.890625 C 356.183594 76.890625 355.757812 76.890625 355.585938 77.40625 L 351.546875 89.007812 C 351.460938 89.179688 351.375 89.351562 351.203125 89.351562 L 339.605469 93.390625 C 339.089844 93.5625 339.089844 93.992188 339.089844 94.164062 C 339.089844 94.335938 339.089844 94.765625 339.605469 94.9375 L 351.203125 98.976562 C 351.375 99.0625 351.546875 99.148438 351.546875 99.320312 L 355.585938 110.917969 C 355.757812 111.433594 356.1875 111.433594 356.355469 111.433594 C 356.527344 111.433594 356.957031 111.433594 357.128906 110.917969 L 361.167969 99.320312 C 361.253906 99.148438 361.339844 98.976562 361.511719 98.976562 L 373.109375 94.9375 C 373.625 94.765625 373.625 94.335938 373.625 94.164062 C 373.625 93.992188 373.625 93.5625 373.109375 93.390625 L 361.511719 89.351562 C 361.339844 89.265625 361.167969 89.179688 361.167969 89.007812 L 357.128906 77.40625 C 356.871094 76.976562 356.441406 76.890625 356.355469 76.890625 Z M 356.355469 76.890625 " fill-opacity="1" fill-rule="nonzero"/><path fill="#f4451c" d="M 45.960938 69.070312 L 29.554688 84.796875 L 33.761719 89.265625 L 45.960938 77.578125 L 60.222656 91.242188 L 74.484375 77.492188 L 88.832031 91.242188 L 103.09375 77.492188 L 115.292969 89.265625 L 119.5 84.796875 L 103.09375 69.070312 L 88.832031 82.820312 L 74.484375 69.070312 L 60.222656 82.820312 Z M 45.960938 69.070312 " fill-opacity="1" fill-rule="nonzero"/><path fill="#202020" d="M 60.222656 91.84375 C 60.050781 91.84375 59.878906 91.757812 59.792969 91.671875 L 45.960938 78.351562 L 34.191406 89.609375 C 34.105469 89.695312 33.933594 89.78125 33.761719 89.78125 C 33.589844 89.78125 33.417969 89.695312 33.332031 89.609375 L 29.125 85.226562 C 28.867188 84.96875 28.867188 84.625 29.125 84.367188 L 45.53125 68.640625 C 45.789062 68.382812 46.132812 68.382812 46.390625 68.640625 L 60.222656 81.960938 L 74.054688 68.640625 C 74.3125 68.382812 74.65625 68.382812 74.914062 68.640625 L 88.746094 81.960938 L 102.578125 68.640625 C 102.835938 68.382812 103.179688 68.382812 103.4375 68.640625 L 119.84375 84.367188 C 119.929688 84.453125 120.015625 84.625 120.015625 84.796875 C 120.015625 84.96875 119.929688 85.140625 119.84375 85.226562 L 115.636719 89.609375 C 115.378906 89.867188 115.035156 89.867188 114.777344 89.609375 L 103.007812 78.351562 L 89.175781 91.671875 C 88.917969 91.929688 88.574219 91.929688 88.316406 91.671875 L 74.484375 78.351562 L 60.652344 91.671875 C 60.566406 91.84375 60.394531 91.84375 60.222656 91.84375 Z M 45.960938 76.890625 C 46.132812 76.890625 46.304688 76.976562 46.390625 77.0625 L 60.222656 90.382812 L 74.054688 77.0625 C 74.3125 76.804688 74.65625 76.804688 74.914062 77.0625 L 88.746094 90.382812 L 102.578125 77.0625 C 102.835938 76.804688 103.179688 76.804688 103.4375 77.0625 L 115.207031 88.320312 L 118.558594 84.796875 L 103.007812 69.929688 L 89.175781 83.25 C 88.917969 83.507812 88.574219 83.507812 88.316406 83.25 L 74.484375 69.929688 L 60.652344 83.25 C 60.394531 83.507812 60.050781 83.507812 59.792969 83.25 L 45.960938 69.929688 L 30.414062 84.796875 L 33.761719 88.320312 L 45.53125 77.0625 C 45.617188 76.976562 45.789062 76.890625 45.960938 76.890625 Z M 45.960938 76.890625 " fill-opacity="1" fill-rule="nonzero"/><g fill="#000000" fill-opacity="1"><g transform="translate(43.782449, 181.61623)"><g><path d="M 20.484375 -49.984375 C 22.984375 -49.984375 25.269531 -49.453125 27.34375 -48.390625 C 29.414062 -47.328125 31.0625 -45.890625 32.28125 -44.078125 C 33.507812 -42.273438 34.125 -40.285156 34.125 -38.109375 C 34.125 -35.929688 33.507812 -33.9375 32.28125 -32.125 C 31.0625 -30.320312 29.414062 -28.890625 27.34375 -27.828125 C 25.269531 -26.765625 22.984375 -26.234375 20.484375 -26.234375 L 14.90625 -26.234375 C 14.90625 -24.367188 14.972656 -22.398438 15.109375 -20.328125 C 15.242188 -18.253906 15.492188 -16.40625 15.859375 -14.78125 C 16.234375 -13.164062 16.820312 -12.039062 17.625 -11.40625 C 18.039062 -11.082031 18.222656 -10.664062 18.171875 -10.15625 C 18.117188 -9.65625 17.671875 -9.40625 16.828125 -9.40625 L 0.796875 -9.40625 C 0.421875 -9.40625 0.179688 -9.601562 0.078125 -10 C -0.0234375 -10.40625 0.109375 -10.765625 0.484375 -11.078125 C 1.859375 -12.140625 2.742188 -13.160156 3.140625 -14.140625 C 3.546875 -15.128906 3.75 -16.367188 3.75 -17.859375 L 3.75 -41.609375 C 3.75 -43.046875 3.546875 -44.28125 3.140625 -45.3125 C 2.742188 -46.351562 1.859375 -47.378906 0.484375 -48.390625 C 0.109375 -48.710938 -0.0234375 -49.054688 0.078125 -49.421875 C 0.179688 -49.796875 0.421875 -49.984375 0.796875 -49.984375 Z M 14.90625 -28.625 C 17.082031 -28.9375 18.925781 -29.992188 20.4375 -31.796875 C 21.957031 -33.609375 22.71875 -35.710938 22.71875 -38.109375 C 22.71875 -40.179688 22.160156 -42.023438 21.046875 -43.640625 C 19.929688 -45.265625 18.523438 -46.421875 16.828125 -47.109375 C 16.128906 -45.992188 15.644531 -44.375 15.375 -42.25 C 15.113281 -40.125 14.96875 -37.929688 14.9375 -35.671875 C 14.914062 -33.410156 14.90625 -31.429688 14.90625 -29.734375 Z M 14.90625 -28.625 "/></g></g></g><g fill="#000000" fill-opacity="1"><g transform="translate(77.259268, 181.61623)"><g><path d="M 15.9375 -38.90625 C 18.863281 -38.90625 21.519531 -38.238281 23.90625 -36.90625 C 26.300781 -35.582031 28.21875 -33.800781 29.65625 -31.5625 C 31.09375 -29.332031 31.8125 -26.863281 31.8125 -24.15625 C 31.8125 -21.445312 31.09375 -18.972656 29.65625 -16.734375 C 28.21875 -14.503906 26.300781 -12.722656 23.90625 -11.390625 C 21.519531 -10.066406 18.863281 -9.40625 15.9375 -9.40625 C 13.019531 -9.40625 10.351562 -10.066406 7.9375 -11.390625 C 5.519531 -12.722656 3.59375 -14.503906 2.15625 -16.734375 C 0.71875 -18.972656 0 -21.445312 0 -24.15625 C 0 -26.863281 0.71875 -29.332031 2.15625 -31.5625 C 3.59375 -33.800781 5.519531 -35.582031 7.9375 -36.90625 C 10.351562 -38.238281 13.019531 -38.90625 15.9375 -38.90625 Z M 15.9375 -11.640625 C 16.789062 -11.640625 17.550781 -12.207031 18.21875 -13.34375 C 18.882812 -14.488281 19.425781 -16.003906 19.84375 -17.890625 C 20.269531 -19.785156 20.484375 -21.875 20.484375 -24.15625 C 20.484375 -26.488281 20.269531 -28.597656 19.84375 -30.484375 C 19.425781 -32.378906 18.882812 -33.882812 18.21875 -35 C 17.550781 -36.113281 16.789062 -36.671875 15.9375 -36.671875 C 15.09375 -36.671875 14.320312 -36.113281 13.625 -35 C 12.9375 -33.882812 12.378906 -32.378906 11.953125 -30.484375 C 11.523438 -28.597656 11.3125 -26.488281 11.3125 -24.15625 C 11.3125 -21.875 11.523438 -19.785156 11.953125 -17.890625 C 12.378906 -16.003906 12.9375 -14.488281 13.625 -13.34375 C 14.320312 -12.207031 15.09375 -11.640625 15.9375 -11.640625 Z M 15.9375 -11.640625 "/></g></g></g><g fill="#000000" fill-opacity="1"><g transform="translate(111.13464, 181.61623)"><g><path d="M 24.234375 -38.90625 C 25.773438 -38.90625 27.351562 -38.492188 28.96875 -37.671875 C 30.59375 -36.847656 31.566406 -35.582031 31.890625 -33.875 C 32.203125 -32.332031 32 -31.03125 31.28125 -29.96875 C 30.570312 -28.90625 29.617188 -28.082031 28.421875 -27.5 C 27.222656 -26.914062 26.007812 -26.597656 24.78125 -26.546875 C 23.5625 -26.492188 22.566406 -26.757812 21.796875 -27.34375 C 21.023438 -27.925781 20.722656 -28.828125 20.890625 -30.046875 C 21.046875 -30.953125 21.203125 -31.738281 21.359375 -32.40625 C 21.523438 -33.070312 21.234375 -33.40625 20.484375 -33.40625 C 19.523438 -33.40625 18.445312 -32.789062 17.25 -31.5625 C 16.0625 -30.34375 15.09375 -29.015625 14.34375 -27.578125 C 14.082031 -23.171875 14.203125 -19.582031 14.703125 -16.8125 C 15.210938 -14.050781 16.023438 -12.25 17.140625 -11.40625 C 17.566406 -11.082031 17.753906 -10.664062 17.703125 -10.15625 C 17.648438 -9.65625 17.195312 -9.40625 16.34375 -9.40625 L 0.796875 -9.40625 C 0.421875 -9.40625 0.179688 -9.601562 0.078125 -10 C -0.0234375 -10.40625 0.109375 -10.765625 0.484375 -11.078125 C 1.859375 -12.140625 2.742188 -13.160156 3.140625 -14.140625 C 3.546875 -15.128906 3.75 -16.367188 3.75 -17.859375 L 3.75 -24.546875 C 3.75 -26.035156 3.546875 -27.285156 3.140625 -28.296875 C 2.742188 -29.304688 1.859375 -30.34375 0.484375 -31.40625 C 0.109375 -31.726562 -0.0234375 -32.070312 0.078125 -32.4375 C 0.179688 -32.8125 0.421875 -33 0.796875 -33 C 2.710938 -33 4.375 -33.265625 5.78125 -33.796875 C 7.1875 -34.328125 8.421875 -34.953125 9.484375 -35.671875 C 10.546875 -36.390625 11.488281 -37.050781 12.3125 -37.65625 C 13.132812 -38.269531 13.921875 -38.660156 14.671875 -38.828125 C 15.515625 -38.984375 15.867188 -38.820312 15.734375 -38.34375 C 15.609375 -37.863281 15.492188 -37.359375 15.390625 -36.828125 L 14.75 -31.640625 C 15.382812 -32.546875 16.179688 -33.570312 17.140625 -34.71875 C 18.097656 -35.863281 19.1875 -36.847656 20.40625 -37.671875 C 21.625 -38.492188 22.898438 -38.90625 24.234375 -38.90625 Z M 24.234375 -38.90625 "/></g></g></g><g fill="#000000" fill-opacity="1"><g transform="translate(144.531757, 181.61623)"><g><path d="M 19.609375 -35.390625 C 20.140625 -35.390625 20.5 -35.203125 20.6875 -34.828125 C 20.875 -34.460938 20.96875 -34.015625 20.96875 -33.484375 C 20.96875 -32.953125 20.875 -32.5 20.6875 -32.125 C 20.5 -31.75 20.140625 -31.5625 19.609375 -31.5625 L 15.703125 -31.5625 C 15.546875 -28.164062 15.585938 -25.03125 15.828125 -22.15625 C 16.066406 -19.289062 16.453125 -16.925781 16.984375 -15.0625 C 17.515625 -13.207031 18.125 -11.988281 18.8125 -11.40625 C 19.238281 -11.082031 19.425781 -10.664062 19.375 -10.15625 C 19.320312 -9.65625 18.84375 -9.40625 17.9375 -9.40625 L 1.828125 -9.40625 C 1.296875 -9.40625 1.03125 -9.644531 1.03125 -10.125 C 1.03125 -10.601562 1.21875 -11.03125 1.59375 -11.40625 C 2.5 -12.25 3.125 -13.390625 3.46875 -14.828125 C 3.8125 -16.265625 4.007812 -17.753906 4.0625 -19.296875 C 4.113281 -20.835938 4.140625 -22.164062 4.140625 -23.28125 C 4.140625 -24.34375 4.113281 -25.65625 4.0625 -27.21875 C 4.007812 -28.789062 3.691406 -30.238281 3.109375 -31.5625 L 1.359375 -31.5625 C 0.828125 -31.5625 0.46875 -31.75 0.28125 -32.125 C 0.09375 -32.5 0 -32.953125 0 -33.484375 C 0 -34.015625 0.09375 -34.460938 0.28125 -34.828125 C 0.46875 -35.203125 0.828125 -35.390625 1.359375 -35.390625 L 1.828125 -35.390625 C 3.742188 -35.390625 5.335938 -35.828125 6.609375 -36.703125 C 7.890625 -37.585938 8.96875 -38.625 9.84375 -39.8125 C 10.71875 -41.007812 11.539062 -42.125 12.3125 -43.15625 C 13.082031 -44.195312 13.945312 -44.878906 14.90625 -45.203125 C 15.707031 -45.515625 16.289062 -45.445312 16.65625 -45 C 17.03125 -44.550781 17.164062 -44.0625 17.0625 -43.53125 C 16.84375 -42.144531 16.628906 -40.773438 16.421875 -39.421875 C 16.210938 -38.066406 16.050781 -36.722656 15.9375 -35.390625 Z M 19.609375 -35.390625 "/></g></g></g><g fill="#000000" fill-opacity="1"><g transform="translate(166.929353, 181.61623)"><g><path d="M 15.9375 -38.90625 C 18.863281 -38.90625 21.519531 -38.238281 23.90625 -36.90625 C 26.300781 -35.582031 28.21875 -33.800781 29.65625 -31.5625 C 31.09375 -29.332031 31.8125 -26.863281 31.8125 -24.15625 C 31.8125 -21.445312 31.09375 -18.972656 29.65625 -16.734375 C 28.21875 -14.503906 26.300781 -12.722656 23.90625 -11.390625 C 21.519531 -10.066406 18.863281 -9.40625 15.9375 -9.40625 C 13.019531 -9.40625 10.351562 -10.066406 7.9375 -11.390625 C 5.519531 -12.722656 3.59375 -14.503906 2.15625 -16.734375 C 0.71875 -18.972656 0 -21.445312 0 -24.15625 C 0 -26.863281 0.71875 -29.332031 2.15625 -31.5625 C 3.59375 -33.800781 5.519531 -35.582031 7.9375 -36.90625 C 10.351562 -38.238281 13.019531 -38.90625 15.9375 -38.90625 Z M 15.9375 -11.640625 C 16.789062 -11.640625 17.550781 -12.207031 18.21875 -13.34375 C 18.882812 -14.488281 19.425781 -16.003906 19.84375 -17.890625 C 20.269531 -19.785156 20.484375 -21.875 20.484375 -24.15625 C 20.484375 -26.488281 20.269531 -28.597656 19.84375 -30.484375 C 19.425781 -32.378906 18.882812 -33.882812 18.21875 -35 C 17.550781 -36.113281 16.789062 -36.671875 15.9375 -36.671875 C 15.09375 -36.671875 14.320312 -36.113281 13.625 -35 C 12.9375 -33.882812 12.378906 -32.378906 11.953125 -30.484375 C 11.523438 -28.597656 11.3125 -26.488281 11.3125 -24.15625 C 11.3125 -21.875 11.523438 -19.785156 11.953125 -17.890625 C 12.378906 -16.003906 12.9375 -14.488281 13.625 -13.34375 C 14.320312 -12.207031 15.09375 -11.640625 15.9375 -11.640625 Z M 15.9375 -11.640625 "/></g></g></g><g fill="#000000" fill-opacity="1"><g transform="translate(200.804724, 181.61623)"><g><path d="M 20.40625 -35.390625 C 20.9375 -35.390625 21.296875 -35.203125 21.484375 -34.828125 C 21.671875 -34.460938 21.765625 -34.015625 21.765625 -33.484375 C 21.765625 -32.953125 21.671875 -32.5 21.484375 -32.125 C 21.296875 -31.75 20.9375 -31.5625 20.40625 -31.5625 L 14.75 -31.5625 L 14.75 -29.734375 C 14.75 -27.128906 14.84375 -24.5 15.03125 -21.84375 C 15.21875 -19.1875 15.519531 -16.898438 15.9375 -14.984375 C 16.363281 -13.078125 16.867188 -11.882812 17.453125 -11.40625 C 17.878906 -11.082031 18.066406 -10.664062 18.015625 -10.15625 C 17.960938 -9.65625 17.484375 -9.40625 16.578125 -9.40625 L 0.796875 -9.40625 C 0.421875 -9.40625 0.179688 -9.601562 0.078125 -10 C -0.0234375 -10.40625 0.109375 -10.765625 0.484375 -11.078125 C 1.859375 -12.140625 2.742188 -13.160156 3.140625 -14.140625 C 3.546875 -15.128906 3.75 -16.367188 3.75 -17.859375 L 3.75 -31.5625 L 2.46875 -31.5625 C 1.9375 -31.5625 1.5625 -31.75 1.34375 -32.125 C 1.132812 -32.5 1.03125 -32.953125 1.03125 -33.484375 C 1.03125 -34.015625 1.132812 -34.460938 1.34375 -34.828125 C 1.5625 -35.203125 1.9375 -35.390625 2.46875 -35.390625 L 3.75 -35.390625 L 3.75 -35.546875 C 3.75 -38.421875 4.398438 -40.945312 5.703125 -43.125 C 7.003906 -45.300781 8.796875 -46.988281 11.078125 -48.1875 C 13.367188 -49.382812 15.921875 -49.984375 18.734375 -49.984375 C 22.398438 -49.984375 25.226562 -49.238281 27.21875 -47.75 C 29.21875 -46.257812 30.191406 -44.664062 30.140625 -42.96875 C 30.078125 -41.800781 29.617188 -40.910156 28.765625 -40.296875 C 27.921875 -39.679688 26.914062 -39.304688 25.75 -39.171875 C 24.582031 -39.046875 23.453125 -39.15625 22.359375 -39.5 C 21.273438 -39.84375 20.460938 -40.375 19.921875 -41.09375 C 19.390625 -41.8125 19.335938 -42.703125 19.765625 -43.765625 C 20.242188 -44.828125 20.46875 -45.753906 20.4375 -46.546875 C 20.414062 -47.347656 20.113281 -47.75 19.53125 -47.75 C 18.789062 -47.75 18.113281 -47.175781 17.5 -46.03125 C 16.882812 -44.894531 16.363281 -43.378906 15.9375 -41.484375 C 15.519531 -39.597656 15.203125 -37.566406 14.984375 -35.390625 Z M 20.40625 -35.390625 "/></g></g></g><g fill="#000000" fill-opacity="1"><g transform="translate(224.397909, 181.61623)"><g><path d="M 15.9375 -38.90625 C 18.863281 -38.90625 21.519531 -38.238281 23.90625 -36.90625 C 26.300781 -35.582031 28.21875 -33.800781 29.65625 -31.5625 C 31.09375 -29.332031 31.8125 -26.863281 31.8125 -24.15625 C 31.8125 -21.445312 31.09375 -18.972656 29.65625 -16.734375 C 28.21875 -14.503906 26.300781 -12.722656 23.90625 -11.390625 C 21.519531 -10.066406 18.863281 -9.40625 15.9375 -9.40625 C 13.019531 -9.40625 10.351562 -10.066406 7.9375 -11.390625 C 5.519531 -12.722656 3.59375 -14.503906 2.15625 -16.734375 C 0.71875 -18.972656 0 -21.445312 0 -24.15625 C 0 -26.863281 0.71875 -29.332031 2.15625 -31.5625 C 3.59375 -33.800781 5.519531 -35.582031 7.9375 -36.90625 C 10.351562 -38.238281 13.019531 -38.90625 15.9375 -38.90625 Z M 15.9375 -11.640625 C 16.789062 -11.640625 17.550781 -12.207031 18.21875 -13.34375 C 18.882812 -14.488281 19.425781 -16.003906 19.84375 -17.890625 C 20.269531 -19.785156 20.484375 -21.875 20.484375 -24.15625 C 20.484375 -26.488281 20.269531 -28.597656 19.84375 -30.484375 C 19.425781 -32.378906 18.882812 -33.882812 18.21875 -35 C 17.550781 -36.113281 16.789062 -36.671875 15.9375 -36.671875 C 15.09375 -36.671875 14.320312 -36.113281 13.625 -35 C 12.9375 -33.882812 12.378906 -32.378906 11.953125 -30.484375 C 11.523438 -28.597656 11.3125 -26.488281 11.3125 -24.15625 C 11.3125 -21.875 11.523438 -19.785156 11.953125 -17.890625 C 12.378906 -16.003906 12.9375 -14.488281 13.625 -13.34375 C 14.320312 -12.207031 15.09375 -11.640625 15.9375 -11.640625 Z M 15.9375 -11.640625 "/></g></g></g><g fill="#000000" fill-opacity="1"><g transform="translate(258.27328, 181.61623)"><g><path d="M 17.453125 -11.40625 C 17.878906 -11.082031 18.066406 -10.664062 18.015625 -10.15625 C 17.960938 -9.65625 17.484375 -9.40625 16.578125 -9.40625 L 0.796875 -9.40625 C 0.421875 -9.40625 0.179688 -9.601562 0.078125 -10 C -0.0234375 -10.40625 0.109375 -10.765625 0.484375 -11.078125 C 1.859375 -12.140625 2.742188 -13.160156 3.140625 -14.140625 C 3.546875 -15.128906 3.75 -16.367188 3.75 -17.859375 L 3.75 -35.796875 C 3.75 -37.285156 3.546875 -38.535156 3.140625 -39.546875 C 2.742188 -40.554688 1.859375 -41.5625 0.484375 -42.5625 C 0.109375 -42.882812 -0.0234375 -43.234375 0.078125 -43.609375 C 0.179688 -43.984375 0.421875 -44.171875 0.796875 -44.171875 C 2.710938 -44.171875 4.382812 -44.4375 5.8125 -44.96875 C 7.25 -45.5 8.507812 -46.132812 9.59375 -46.875 C 10.6875 -47.613281 11.660156 -48.273438 12.515625 -48.859375 C 13.367188 -49.453125 14.164062 -49.828125 14.90625 -49.984375 C 15.757812 -50.191406 16.128906 -50.039062 16.015625 -49.53125 C 15.910156 -49.03125 15.804688 -48.515625 15.703125 -47.984375 C 15.015625 -44.160156 14.578125 -40.226562 14.390625 -36.1875 C 14.203125 -32.15625 14.210938 -28.359375 14.421875 -24.796875 C 14.640625 -21.234375 15.015625 -18.253906 15.546875 -15.859375 C 16.078125 -13.472656 16.710938 -11.988281 17.453125 -11.40625 Z M 17.453125 -11.40625 "/></g></g></g><g fill="#000000" fill-opacity="1"><g transform="translate(277.642018, 181.61623)"><g><path d="M 16.34375 -9.40625 L 0.796875 -9.40625 C 0.421875 -9.40625 0.179688 -9.601562 0.078125 -10 C -0.0234375 -10.40625 0.109375 -10.765625 0.484375 -11.078125 C 1.859375 -12.140625 2.742188 -13.160156 3.140625 -14.140625 C 3.546875 -15.128906 3.75 -16.367188 3.75 -17.859375 L 3.75 -24.546875 C 3.75 -26.035156 3.546875 -27.285156 3.140625 -28.296875 C 2.742188 -29.304688 1.859375 -30.34375 0.484375 -31.40625 C 0.109375 -31.726562 -0.0234375 -32.070312 0.078125 -32.4375 C 0.179688 -32.8125 0.421875 -33 0.796875 -33 C 2.710938 -33 4.375 -33.265625 5.78125 -33.796875 C 7.1875 -34.328125 8.421875 -34.953125 9.484375 -35.671875 C 10.546875 -36.390625 11.488281 -37.050781 12.3125 -37.65625 C 13.132812 -38.269531 13.921875 -38.660156 14.671875 -38.828125 C 15.515625 -38.984375 15.867188 -38.820312 15.734375 -38.34375 C 15.609375 -37.863281 15.492188 -37.359375 15.390625 -36.828125 C 14.328125 -29.765625 13.976562 -24.039062 14.34375 -19.65625 C 14.71875 -15.269531 15.648438 -12.519531 17.140625 -11.40625 C 17.566406 -11.082031 17.753906 -10.664062 17.703125 -10.15625 C 17.648438 -9.65625 17.195312 -9.40625 16.34375 -9.40625 Z M 5.984375 -38.34375 C 4.390625 -38.34375 3.140625 -38.910156 2.234375 -40.046875 C 1.328125 -41.191406 1.0625 -42.566406 1.4375 -44.171875 C 1.8125 -45.816406 2.6875 -47.195312 4.0625 -48.3125 C 5.445312 -49.425781 6.960938 -49.984375 8.609375 -49.984375 C 10.203125 -49.984375 11.453125 -49.425781 12.359375 -48.3125 C 13.265625 -47.195312 13.53125 -45.816406 13.15625 -44.171875 C 12.78125 -42.566406 11.898438 -41.191406 10.515625 -40.046875 C 9.140625 -38.910156 7.628906 -38.34375 5.984375 -38.34375 Z M 5.984375 -38.34375 "/></g></g></g><g fill="#000000" fill-opacity="1"><g transform="translate(297.329584, 181.61623)"><g><path d="M 15.9375 -38.90625 C 18.863281 -38.90625 21.519531 -38.238281 23.90625 -36.90625 C 26.300781 -35.582031 28.21875 -33.800781 29.65625 -31.5625 C 31.09375 -29.332031 31.8125 -26.863281 31.8125 -24.15625 C 31.8125 -21.445312 31.09375 -18.972656 29.65625 -16.734375 C 28.21875 -14.503906 26.300781 -12.722656 23.90625 -11.390625 C 21.519531 -10.066406 18.863281 -9.40625 15.9375 -9.40625 C 13.019531 -9.40625 10.351562 -10.066406 7.9375 -11.390625 C 5.519531 -12.722656 3.59375 -14.503906 2.15625 -16.734375 C 0.71875 -18.972656 0 -21.445312 0 -24.15625 C 0 -26.863281 0.71875 -29.332031 2.15625 -31.5625 C 3.59375 -33.800781 5.519531 -35.582031 7.9375 -36.90625 C 10.351562 -38.238281 13.019531 -38.90625 15.9375 -38.90625 Z M 15.9375 -11.640625 C 16.789062 -11.640625 17.550781 -12.207031 18.21875 -13.34375 C 18.882812 -14.488281 19.425781 -16.003906 19.84375 -17.890625 C 20.269531 -19.785156 20.484375 -21.875 20.484375 -24.15625 C 20.484375 -26.488281 20.269531 -28.597656 19.84375 -30.484375 C 19.425781 -32.378906 18.882812 -33.882812 18.21875 -35 C 17.550781 -36.113281 16.789062 -36.671875 15.9375 -36.671875 C 15.09375 -36.671875 14.320312 -36.113281 13.625 -35 C 12.9375 -33.882812 12.378906 -32.378906 11.953125 -30.484375 C 11.523438 -28.597656 11.3125 -26.488281 11.3125 -24.15625 C 11.3125 -21.875 11.523438 -19.785156 11.953125 -17.890625 C 12.378906 -16.003906 12.9375 -14.488281 13.625 -13.34375 C 14.320312 -12.207031 15.09375 -11.640625 15.9375 -11.640625 Z M 15.9375 -11.640625 "/></g></g></g><g fill="#000000" fill-opacity="1"><g transform="translate(120.340395, 238.982976)"><g><path d="M 30.296875 -36.984375 C 30.078125 -34.753906 29.367188 -32.867188 28.171875 -31.328125 C 26.984375 -29.785156 25.472656 -28.457031 23.640625 -27.34375 C 21.804688 -26.226562 19.863281 -25.191406 17.8125 -24.234375 C 15.769531 -23.273438 13.816406 -22.25 11.953125 -21.15625 C 10.097656 -20.070312 8.503906 -18.757812 7.171875 -17.21875 L 16.578125 -17.21875 C 18.171875 -17.21875 19.773438 -17.5625 21.390625 -18.25 C 23.015625 -18.945312 24.503906 -19.800781 25.859375 -20.8125 C 27.222656 -21.820312 28.222656 -22.773438 28.859375 -23.671875 C 29.117188 -24.097656 29.4375 -24.257812 29.8125 -24.15625 C 30.1875 -24.050781 30.375 -23.785156 30.375 -23.359375 C 30.375 -23.203125 30.316406 -22.617188 30.203125 -21.609375 C 30.097656 -20.597656 29.96875 -19.425781 29.8125 -18.09375 C 29.65625 -16.769531 29.492188 -15.492188 29.328125 -14.265625 C 29.171875 -13.046875 29.066406 -12.171875 29.015625 -11.640625 C 28.960938 -10.148438 28.300781 -9.40625 27.03125 -9.40625 L 0 -9.40625 C 0 -12.8125 0.488281 -15.65625 1.46875 -17.9375 C 2.457031 -20.21875 3.734375 -22.171875 5.296875 -23.796875 C 6.867188 -25.421875 8.503906 -26.910156 10.203125 -28.265625 C 11.898438 -29.617188 13.492188 -31.023438 14.984375 -32.484375 C 16.472656 -33.941406 17.640625 -35.664062 18.484375 -37.65625 C 19.335938 -39.65625 19.660156 -42.117188 19.453125 -45.046875 C 19.398438 -45.992188 19.039062 -46.707031 18.375 -47.1875 C 17.707031 -47.664062 16.972656 -47.863281 16.171875 -47.78125 C 15.378906 -47.707031 14.703125 -47.296875 14.140625 -46.546875 C 13.585938 -45.804688 13.363281 -44.691406 13.46875 -43.203125 C 13.570312 -41.296875 13.144531 -39.78125 12.1875 -38.65625 C 11.238281 -37.539062 10.03125 -36.796875 8.5625 -36.421875 C 7.101562 -36.054688 5.707031 -36.070312 4.375 -36.46875 C 3.050781 -36.863281 2.054688 -37.578125 1.390625 -38.609375 C 0.734375 -39.648438 0.75 -41.023438 1.4375 -42.734375 C 2.125 -44.484375 3.289062 -45.898438 4.9375 -46.984375 C 6.582031 -48.078125 8.457031 -48.863281 10.5625 -49.34375 C 12.664062 -49.820312 14.695312 -50.035156 16.65625 -49.984375 L 16.828125 -49.984375 C 21.078125 -49.878906 24.472656 -48.707031 27.015625 -46.46875 C 29.566406 -44.238281 30.660156 -41.078125 30.296875 -36.984375 Z M 30.296875 -36.984375 "/></g></g></g><g fill="#000000" fill-opacity="1"><g transform="translate(152.302795, 238.982976)"><g><path d="M 17.453125 -49.984375 C 20.703125 -49.984375 23.628906 -49.066406 26.234375 -47.234375 C 28.835938 -45.398438 30.921875 -42.953125 32.484375 -39.890625 C 34.054688 -36.835938 34.84375 -33.453125 34.84375 -29.734375 C 34.84375 -26.015625 34.054688 -22.613281 32.484375 -19.53125 C 30.921875 -16.445312 28.835938 -13.988281 26.234375 -12.15625 C 23.628906 -10.320312 20.703125 -9.40625 17.453125 -9.40625 C 14.265625 -9.40625 11.34375 -10.320312 8.6875 -12.15625 C 6.03125 -13.988281 3.914062 -16.445312 2.34375 -19.53125 C 0.78125 -22.613281 0 -26.015625 0 -29.734375 C 0 -33.453125 0.78125 -36.835938 2.34375 -39.890625 C 3.914062 -42.953125 6.03125 -45.398438 8.6875 -47.234375 C 11.34375 -49.066406 14.265625 -49.984375 17.453125 -49.984375 Z M 17.453125 -12.671875 C 18.359375 -12.671875 19.179688 -13.425781 19.921875 -14.9375 C 20.671875 -16.457031 21.257812 -18.519531 21.6875 -21.125 C 22.113281 -23.726562 22.328125 -26.597656 22.328125 -29.734375 C 22.328125 -32.867188 22.113281 -35.722656 21.6875 -38.296875 C 21.257812 -40.878906 20.671875 -42.941406 19.921875 -44.484375 C 19.179688 -46.023438 18.359375 -46.796875 17.453125 -46.796875 C 16.554688 -46.796875 15.734375 -46.023438 14.984375 -44.484375 C 14.242188 -42.941406 13.644531 -40.878906 13.1875 -38.296875 C 12.738281 -35.722656 12.515625 -32.867188 12.515625 -29.734375 C 12.515625 -26.597656 12.738281 -23.726562 13.1875 -21.125 C 13.644531 -18.519531 14.242188 -16.457031 14.984375 -14.9375 C 15.734375 -13.425781 16.554688 -12.671875 17.453125 -12.671875 Z M 17.453125 -12.671875 "/></g></g></g><g fill="#000000" fill-opacity="1"><g transform="translate(188.808471, 238.982976)"><g><path d="M 30.296875 -36.984375 C 30.078125 -34.753906 29.367188 -32.867188 28.171875 -31.328125 C 26.984375 -29.785156 25.472656 -28.457031 23.640625 -27.34375 C 21.804688 -26.226562 19.863281 -25.191406 17.8125 -24.234375 C 15.769531 -23.273438 13.816406 -22.25 11.953125 -21.15625 C 10.097656 -20.070312 8.503906 -18.757812 7.171875 -17.21875 L 16.578125 -17.21875 C 18.171875 -17.21875 19.773438 -17.5625 21.390625 -18.25 C 23.015625 -18.945312 24.503906 -19.800781 25.859375 -20.8125 C 27.222656 -21.820312 28.222656 -22.773438 28.859375 -23.671875 C 29.117188 -24.097656 29.4375 -24.257812 29.8125 -24.15625 C 30.1875 -24.050781 30.375 -23.785156 30.375 -23.359375 C 30.375 -23.203125 30.316406 -22.617188 30.203125 -21.609375 C 30.097656 -20.597656 29.96875 -19.425781 29.8125 -18.09375 C 29.65625 -16.769531 29.492188 -15.492188 29.328125 -14.265625 C 29.171875 -13.046875 29.066406 -12.171875 29.015625 -11.640625 C 28.960938 -10.148438 28.300781 -9.40625 27.03125 -9.40625 L 0 -9.40625 C 0 -12.8125 0.488281 -15.65625 1.46875 -17.9375 C 2.457031 -20.21875 3.734375 -22.171875 5.296875 -23.796875 C 6.867188 -25.421875 8.503906 -26.910156 10.203125 -28.265625 C 11.898438 -29.617188 13.492188 -31.023438 14.984375 -32.484375 C 16.472656 -33.941406 17.640625 -35.664062 18.484375 -37.65625 C 19.335938 -39.65625 19.660156 -42.117188 19.453125 -45.046875 C 19.398438 -45.992188 19.039062 -46.707031 18.375 -47.1875 C 17.707031 -47.664062 16.972656 -47.863281 16.171875 -47.78125 C 15.378906 -47.707031 14.703125 -47.296875 14.140625 -46.546875 C 13.585938 -45.804688 13.363281 -44.691406 13.46875 -43.203125 C 13.570312 -41.296875 13.144531 -39.78125 12.1875 -38.65625 C 11.238281 -37.539062 10.03125 -36.796875 8.5625 -36.421875 C 7.101562 -36.054688 5.707031 -36.070312 4.375 -36.46875 C 3.050781 -36.863281 2.054688 -37.578125 1.390625 -38.609375 C 0.734375 -39.648438 0.75 -41.023438 1.4375 -42.734375 C 2.125 -44.484375 3.289062 -45.898438 4.9375 -46.984375 C 6.582031 -48.078125 8.457031 -48.863281 10.5625 -49.34375 C 12.664062 -49.820312 14.695312 -50.035156 16.65625 -49.984375 L 16.828125 -49.984375 C 21.078125 -49.878906 24.472656 -48.707031 27.015625 -46.46875 C 29.566406 -44.238281 30.660156 -41.078125 30.296875 -36.984375 Z M 30.296875 -36.984375 "/></g></g></g><g fill="#000000" fill-opacity="1"><g transform="translate(220.770872, 238.982976)"><g><path d="M 19.046875 -31.171875 C 26.910156 -31.117188 31.347656 -28.460938 32.359375 -23.203125 C 32.890625 -20.484375 32.582031 -18.15625 31.4375 -16.21875 C 30.300781 -14.28125 28.5625 -12.738281 26.21875 -11.59375 C 23.882812 -10.457031 21.148438 -9.78125 18.015625 -9.5625 L 17.859375 -9.484375 C 15.628906 -9.328125 13.34375 -9.429688 11 -9.796875 C 8.664062 -10.171875 6.566406 -10.863281 4.703125 -11.875 C 2.835938 -12.882812 1.484375 -14.238281 0.640625 -15.9375 C -0.0546875 -17.320312 -0.21875 -18.503906 0.15625 -19.484375 C 0.53125 -20.472656 1.234375 -21.242188 2.265625 -21.796875 C 3.304688 -22.359375 4.503906 -22.675781 5.859375 -22.75 C 7.210938 -22.832031 8.515625 -22.648438 9.765625 -22.203125 C 11.015625 -21.753906 12.035156 -21.035156 12.828125 -20.046875 C 13.628906 -19.066406 14.003906 -17.753906 13.953125 -16.109375 C 13.898438 -14.617188 14.175781 -13.523438 14.78125 -12.828125 C 15.394531 -12.140625 16.113281 -11.78125 16.9375 -11.75 C 17.757812 -11.726562 18.53125 -11.96875 19.25 -12.46875 C 19.96875 -12.976562 20.429688 -13.6875 20.640625 -14.59375 C 21.285156 -17.351562 21.113281 -19.863281 20.125 -22.125 C 19.144531 -24.382812 17.738281 -26.226562 15.90625 -27.65625 C 14.070312 -29.09375 12.144531 -29.863281 10.125 -29.96875 C 9.539062 -30.019531 9.367188 -30.296875 9.609375 -30.796875 C 9.847656 -31.304688 10.179688 -31.585938 10.609375 -31.640625 C 13.523438 -31.910156 15.660156 -32.578125 17.015625 -33.640625 C 18.367188 -34.703125 19.175781 -35.976562 19.4375 -37.46875 C 19.707031 -38.957031 19.695312 -40.40625 19.40625 -41.8125 C 19.113281 -43.21875 18.8125 -44.347656 18.5 -45.203125 C 18.070312 -46.367188 17.457031 -47.148438 16.65625 -47.546875 C 15.863281 -47.953125 15.1875 -47.820312 14.625 -47.15625 C 14.070312 -46.488281 13.925781 -45.144531 14.1875 -43.125 C 14.457031 -41.21875 14.140625 -39.675781 13.234375 -38.5 C 12.328125 -37.332031 11.171875 -36.546875 9.765625 -36.140625 C 8.359375 -35.742188 7.003906 -35.691406 5.703125 -35.984375 C 4.398438 -36.285156 3.425781 -36.953125 2.78125 -37.984375 C 2.144531 -39.023438 2.148438 -40.394531 2.796875 -42.09375 C 3.484375 -43.894531 4.554688 -45.367188 6.015625 -46.515625 C 7.484375 -47.660156 9.09375 -48.507812 10.84375 -49.0625 C 12.59375 -49.625 14.265625 -49.929688 15.859375 -49.984375 L 16.109375 -49.984375 C 20.785156 -50.085938 24.488281 -49.410156 27.21875 -47.953125 C 29.957031 -46.492188 31.378906 -44.40625 31.484375 -41.6875 C 31.585938 -39.988281 31.066406 -38.460938 29.921875 -37.109375 C 28.785156 -35.753906 27.257812 -34.570312 25.34375 -33.5625 C 23.4375 -32.550781 21.335938 -31.753906 19.046875 -31.171875 Z M 19.046875 -31.171875 "/></g></g></g></svg>