<svg xmlns="http://www.w3.org/2000/svg" xmlns:xlink="http://www.w3.org/1999/xlink" width="500" zoomAndPan="magnify" viewBox="0 0 375 374.999991" height="500" preserveAspectRatio="xMidYMid meet" version="1.0"><defs><g/><clipPath id="e249114a80"><path d="M 45 52 L 353 52 L 353 333.3125 L 45 333.3125 Z M 45 52 " clip-rule="nonzero"/></clipPath><clipPath id="0313028082"><path d="M 41 41.5625 L 350 41.5625 L 350 323 L 41 323 Z M 41 41.5625 " clip-rule="nonzero"/></clipPath></defs><g clip-path="url(#e249114a80)"><path fill="#701136" d="M 259.304688 52.851562 C 236.417969 52.851562 215.472656 61.105469 199.234375 74.757812 C 182.996094 61.085938 162.050781 52.851562 139.164062 52.851562 C 87.613281 52.851562 45.832031 94.613281 45.832031 146.140625 L 45.832031 239.976562 C 45.832031 291.507812 87.613281 333.269531 139.164062 333.269531 C 162.050781 333.269531 182.996094 325.011719 199.234375 311.359375 C 215.472656 325.03125 236.417969 333.269531 259.304688 333.269531 C 310.855469 333.269531 352.632812 291.507812 352.632812 239.976562 L 352.632812 146.140625 C 352.632812 94.632812 310.855469 52.851562 259.304688 52.851562 Z M 259.304688 52.851562 " fill-opacity="1" fill-rule="nonzero"/></g><path fill="#fc92a4" d="M 255.699219 42.035156 C 232.808594 42.035156 211.863281 50.292969 195.628906 63.945312 C 179.390625 50.292969 158.445312 42.035156 135.558594 42.035156 C 84.007812 42.035156 42.226562 83.796875 42.226562 135.328125 L 42.226562 229.160156 C 42.226562 280.691406 84.007812 322.453125 135.558594 322.453125 C 158.445312 322.453125 179.390625 314.199219 195.628906 300.546875 C 211.863281 314.21875 232.808594 322.453125 255.699219 322.453125 C 307.25 322.453125 349.027344 280.691406 349.027344 229.160156 L 349.027344 135.328125 C 349.027344 83.796875 307.25 42.035156 255.699219 42.035156 Z M 255.699219 42.035156 " fill-opacity="1" fill-rule="nonzero"/><g clip-path="url(#0313028082)"><path fill="#701136" d="M 255.699219 322.921875 C 233.761719 322.921875 212.445312 315.1875 195.628906 301.144531 C 178.792969 315.1875 157.492188 322.921875 135.558594 322.921875 C 83.835938 322.921875 41.761719 280.859375 41.761719 229.160156 L 41.761719 135.328125 C 41.761719 83.628906 83.835938 41.570312 135.558594 41.570312 C 157.492188 41.570312 178.8125 49.300781 195.628906 63.347656 C 212.445312 49.300781 233.761719 41.570312 255.699219 41.570312 C 307.417969 41.570312 349.496094 83.628906 349.496094 135.328125 L 349.496094 229.160156 C 349.496094 280.859375 307.417969 322.921875 255.699219 322.921875 Z M 195.628906 299.929688 L 195.925781 300.191406 C 212.628906 314.253906 233.855469 321.988281 255.699219 321.988281 C 306.914062 321.988281 348.5625 280.335938 348.5625 229.160156 L 348.5625 135.328125 C 348.5625 84.132812 306.894531 42.503906 255.699219 42.503906 C 233.855469 42.503906 212.628906 50.253906 195.925781 64.300781 L 195.628906 64.5625 L 195.328125 64.300781 C 178.625 50.253906 157.398438 42.503906 135.558594 42.503906 C 84.34375 42.503906 42.695312 84.152344 42.695312 135.328125 L 42.695312 229.160156 C 42.695312 280.355469 84.359375 321.988281 135.558594 321.988281 C 157.398438 321.988281 178.625 314.234375 195.328125 300.191406 Z M 195.628906 299.929688 " fill-opacity="1" fill-rule="nonzero"/></g><path fill="#ffe5e1" d="M 255.699219 60.058594 C 297.214844 60.058594 330.996094 93.828125 330.996094 135.328125 L 330.996094 229.160156 C 330.996094 270.664062 297.214844 304.429688 255.699219 304.429688 C 237.984375 304.429688 220.777344 298.15625 207.25 286.761719 L 195.628906 276.976562 L 184.007812 286.761719 C 170.460938 298.15625 153.25 304.429688 135.558594 304.429688 C 94.039062 304.429688 60.257812 270.664062 60.257812 229.160156 L 60.257812 135.328125 C 60.257812 93.828125 94.039062 60.058594 135.558594 60.058594 C 153.269531 60.058594 170.476562 66.335938 184.007812 77.726562 L 195.628906 87.515625 L 207.25 77.726562 C 220.777344 66.335938 237.984375 60.058594 255.699219 60.058594 " fill-opacity="1" fill-rule="nonzero"/><path fill="#701136" d="M 255.699219 304.898438 C 237.890625 304.898438 220.570312 298.585938 206.949219 287.117188 L 195.628906 277.59375 L 184.304688 287.117188 C 170.683594 298.585938 153.363281 304.898438 135.558594 304.898438 C 93.777344 304.898438 59.789062 270.925781 59.789062 229.160156 L 59.789062 135.328125 C 59.789062 93.566406 93.777344 59.59375 135.558594 59.59375 C 153.382812 59.59375 170.683594 65.90625 184.304688 77.375 L 195.628906 86.898438 L 206.949219 77.375 C 220.570312 65.90625 237.890625 59.59375 255.699219 59.59375 C 297.476562 59.59375 331.464844 93.566406 331.464844 135.328125 L 331.464844 229.160156 C 331.464844 270.925781 297.476562 304.898438 255.699219 304.898438 Z M 195.628906 276.359375 L 207.546875 286.390625 C 221 297.726562 238.097656 303.964844 255.699219 303.964844 C 296.953125 303.964844 330.53125 270.402344 330.53125 229.160156 L 330.53125 135.328125 C 330.53125 94.089844 296.953125 60.527344 255.699219 60.527344 C 238.097656 60.527344 221 66.765625 207.546875 78.082031 L 195.628906 88.113281 L 183.707031 78.082031 C 170.253906 66.765625 153.15625 60.527344 135.558594 60.527344 C 94.300781 60.527344 60.726562 94.089844 60.726562 135.328125 L 60.726562 229.160156 C 60.726562 270.402344 94.300781 303.964844 135.558594 303.964844 C 153.15625 303.964844 170.253906 297.726562 183.707031 286.390625 Z M 195.628906 276.359375 " fill-opacity="1" fill-rule="nonzero"/><path fill="#74cbf7" d="M 83.800781 227.722656 L 73.242188 209.4375 L 52.785156 221.261719 L 52.785156 197.617188 L 31.671875 197.617188 L 31.671875 221.261719 L 11.191406 209.4375 L 0.636719 227.722656 L 21.113281 239.527344 L 0.636719 251.351562 L 11.191406 269.617188 L 31.671875 257.8125 L 31.671875 281.4375 L 52.785156 281.4375 L 52.785156 257.8125 L 73.242188 269.617188 L 83.800781 251.351562 L 63.339844 239.527344 Z M 83.800781 227.722656 " fill-opacity="1" fill-rule="nonzero"/><path fill="#701136" d="M 53.25 281.90625 L 31.203125 281.90625 L 31.203125 258.617188 L 11.023438 270.269531 L 0 251.183594 L 20.179688 239.546875 L 0 227.890625 L 11.023438 208.804688 L 31.203125 220.457031 L 31.203125 197.148438 L 53.25 197.148438 L 53.25 220.441406 L 73.429688 208.785156 L 84.453125 227.875 L 64.273438 239.507812 L 84.453125 251.144531 L 73.429688 270.234375 L 53.25 258.578125 Z M 32.136719 280.972656 L 52.316406 280.972656 L 52.316406 257.007812 L 73.09375 269 L 83.183594 251.539062 L 62.40625 239.546875 L 83.183594 227.554688 L 73.09375 210.09375 L 52.316406 222.066406 L 52.316406 198.082031 L 32.136719 198.082031 L 32.136719 222.046875 L 11.359375 210.074219 L 1.269531 227.539062 L 22.046875 239.527344 L 1.269531 251.519531 L 11.359375 268.980469 L 32.136719 256.992188 Z M 32.136719 280.972656 " fill-opacity="1" fill-rule="nonzero"/><path fill="#f9b928" d="M 345.328125 77.035156 C 337.3125 79.875 333.949219 83.238281 331.109375 91.25 C 330.511719 92.949219 328.121094 92.949219 327.503906 91.25 C 324.664062 83.238281 321.300781 79.875 313.285156 77.035156 C 311.585938 76.4375 311.585938 74.046875 313.285156 73.433594 C 321.300781 70.59375 324.664062 67.230469 327.503906 59.21875 C 328.101562 57.519531 330.492188 57.519531 331.109375 59.21875 C 333.949219 67.230469 337.3125 70.59375 345.328125 73.433594 C 347.046875 74.046875 347.046875 76.4375 345.328125 77.035156 Z M 345.328125 77.035156 " fill-opacity="1" fill-rule="nonzero"/><path fill="#701136" d="M 329.316406 92.988281 C 328.308594 92.988281 327.410156 92.371094 327.074219 91.398438 C 324.269531 83.519531 321.019531 80.269531 313.136719 77.464844 C 312.164062 77.128906 311.546875 76.253906 311.546875 75.226562 C 311.546875 74.199219 312.164062 73.320312 313.136719 72.984375 C 321.019531 70.183594 324.269531 66.933594 327.074219 59.050781 C 327.410156 58.078125 328.289062 57.464844 329.316406 57.464844 C 330.324219 57.464844 331.222656 58.078125 331.558594 59.050781 C 334.359375 66.933594 337.613281 70.183594 345.496094 72.984375 C 346.46875 73.320312 347.085938 74.199219 347.085938 75.226562 C 347.085938 76.234375 346.46875 77.113281 345.496094 77.464844 C 337.613281 80.269531 334.359375 83.519531 331.558594 91.398438 C 331.222656 92.371094 330.34375 92.988281 329.316406 92.988281 Z M 329.316406 58.414062 C 328.832031 58.414062 328.214844 58.675781 327.953125 59.386719 C 325.074219 67.492188 321.542969 71.003906 313.453125 73.878906 C 312.742188 74.140625 312.480469 74.757812 312.480469 75.242188 C 312.480469 75.730469 312.742188 76.347656 313.453125 76.609375 C 321.5625 79.484375 325.074219 83.015625 327.953125 91.101562 C 328.214844 91.8125 328.8125 92.070312 329.316406 92.070312 C 329.800781 92.070312 330.417969 91.8125 330.679688 91.101562 C 333.558594 82.996094 337.089844 79.484375 345.179688 76.609375 C 345.890625 76.347656 346.152344 75.75 346.152344 75.242188 C 346.152344 74.738281 345.890625 74.140625 345.179688 73.878906 C 337.070312 71.003906 333.558594 67.472656 330.679688 59.386719 C 330.417969 58.675781 329.800781 58.414062 329.316406 58.414062 Z M 329.316406 58.414062 " fill-opacity="1" fill-rule="nonzero"/><path fill="#f9b928" d="M 372.535156 128.34375 C 361.25 132.359375 356.519531 137.082031 352.503906 148.363281 C 351.644531 150.753906 348.28125 150.753906 347.441406 148.363281 C 343.421875 137.082031 338.695312 132.359375 327.410156 128.34375 C 325.019531 127.484375 325.019531 124.121094 327.410156 123.28125 C 338.695312 119.265625 343.421875 114.539062 347.441406 103.257812 C 348.300781 100.867188 351.664062 100.867188 352.503906 103.257812 C 356.519531 114.539062 361.25 119.265625 372.535156 123.28125 C 374.925781 124.121094 374.925781 127.484375 372.535156 128.34375 Z M 372.535156 128.34375 " fill-opacity="1" fill-rule="nonzero"/><path fill="#701136" d="M 349.960938 150.625 C 348.617188 150.625 347.441406 149.804688 346.992188 148.515625 C 343.03125 137.34375 338.414062 132.730469 327.242188 128.773438 C 325.953125 128.324219 325.128906 127.148438 325.128906 125.804688 C 325.128906 124.457031 325.953125 123.28125 327.242188 122.832031 C 338.414062 118.875 343.011719 114.261719 346.992188 103.089844 C 347.441406 101.804688 348.617188 100.980469 349.960938 100.980469 C 351.308594 100.980469 352.484375 101.804688 352.933594 103.089844 C 356.894531 114.261719 361.507812 118.855469 372.683594 122.832031 C 373.972656 123.28125 374.792969 124.457031 374.792969 125.804688 C 374.792969 127.148438 373.972656 128.324219 372.683594 128.773438 C 361.507812 132.730469 356.914062 137.34375 352.933594 148.515625 C 352.484375 149.804688 351.328125 150.625 349.960938 150.625 Z M 349.960938 101.914062 C 349.195312 101.914062 348.261719 102.308594 347.871094 103.410156 C 343.796875 114.894531 339.050781 119.640625 327.558594 123.710938 C 326.457031 124.101562 326.066406 125.054688 326.066406 125.804688 C 326.066406 126.550781 326.457031 127.503906 327.558594 127.894531 C 339.050781 131.964844 343.796875 136.710938 347.871094 148.195312 C 348.261719 149.296875 349.214844 149.691406 349.960938 149.691406 C 350.710938 149.691406 351.664062 149.296875 352.054688 148.195312 C 356.128906 136.710938 360.875 131.964844 372.367188 127.894531 C 373.46875 127.503906 373.859375 126.550781 373.859375 125.804688 C 373.859375 125.054688 373.46875 124.101562 372.367188 123.710938 C 360.875 119.640625 356.128906 114.894531 352.054688 103.410156 C 351.664062 102.308594 350.730469 101.914062 349.960938 101.914062 Z M 349.960938 101.914062 " fill-opacity="1" fill-rule="nonzero"/><g fill="#000000" fill-opacity="1"><g transform="translate(79.07066, 182.39456)"><g><path d="M 24.34375 -26.5 C 26.789062 -26.03125 28.796875 -24.953125 30.359375 -23.265625 C 31.929688 -21.585938 32.71875 -19.664062 32.71875 -17.5 C 32.71875 -15.789062 32.234375 -14.234375 31.265625 -12.828125 C 30.296875 -11.421875 28.992188 -10.289062 27.359375 -9.4375 C 25.722656 -8.582031 23.890625 -8.15625 21.859375 -8.15625 L 0.6875 -8.15625 C 0.363281 -8.15625 0.15625 -8.328125 0.0625 -8.671875 C -0.0195312 -9.023438 0.0976562 -9.335938 0.421875 -9.609375 C 1.617188 -10.535156 2.390625 -11.425781 2.734375 -12.28125 C 3.078125 -13.132812 3.25 -14.207031 3.25 -15.5 L 3.25 -36.109375 C 3.25 -37.347656 3.078125 -38.414062 2.734375 -39.3125 C 2.390625 -40.21875 1.617188 -41.109375 0.421875 -41.984375 C 0.0976562 -42.265625 -0.0195312 -42.566406 0.0625 -42.890625 C 0.15625 -43.210938 0.363281 -43.375 0.6875 -43.375 L 18.671875 -43.375 C 20.429688 -43.375 22.09375 -42.957031 23.65625 -42.125 C 25.226562 -41.289062 26.507812 -40.171875 27.5 -38.765625 C 28.488281 -37.359375 28.984375 -35.804688 28.984375 -34.109375 C 28.984375 -32.535156 28.546875 -31.09375 27.671875 -29.78125 C 26.796875 -28.46875 25.6875 -27.375 24.34375 -26.5 Z M 15.15625 -10.09375 C 16.53125 -10.09375 17.804688 -10.425781 18.984375 -11.09375 C 20.160156 -11.769531 21.09375 -12.671875 21.78125 -13.796875 C 22.476562 -14.929688 22.828125 -16.164062 22.828125 -17.5 C 22.828125 -18.832031 22.476562 -20.050781 21.78125 -21.15625 C 21.09375 -22.269531 20.160156 -23.160156 18.984375 -23.828125 C 17.804688 -24.492188 16.53125 -24.828125 15.15625 -24.828125 L 12.9375 -24.828125 C 12.976562 -22.617188 13.054688 -20.28125 13.171875 -17.8125 C 13.285156 -15.34375 13.503906 -12.769531 13.828125 -10.09375 Z M 19.921875 -34.109375 C 19.921875 -36.035156 19.363281 -37.703125 18.25 -39.109375 C 17.144531 -40.515625 15.648438 -41.289062 13.765625 -41.4375 C 13.628906 -40.144531 13.46875 -38.226562 13.28125 -35.6875 C 13.09375 -33.15625 12.976562 -30.179688 12.9375 -26.765625 L 13.21875 -26.765625 C 15.238281 -26.765625 16.859375 -27.488281 18.078125 -28.9375 C 19.304688 -30.394531 19.921875 -32.117188 19.921875 -34.109375 Z M 19.921875 -34.109375 "/></g></g></g><g fill="#000000" fill-opacity="1"><g transform="translate(113.168329, 182.39456)"><g><path d="M 14.1875 -8.15625 L 0.6875 -8.15625 C 0.363281 -8.15625 0.15625 -8.328125 0.0625 -8.671875 C -0.0195312 -9.023438 0.0976562 -9.335938 0.421875 -9.609375 C 1.617188 -10.535156 2.390625 -11.425781 2.734375 -12.28125 C 3.078125 -13.132812 3.25 -14.207031 3.25 -15.5 L 3.25 -21.3125 C 3.25 -22.59375 3.078125 -23.671875 2.734375 -24.546875 C 2.390625 -25.429688 1.617188 -26.332031 0.421875 -27.25 C 0.0976562 -27.53125 -0.0195312 -27.832031 0.0625 -28.15625 C 0.15625 -28.476562 0.363281 -28.640625 0.6875 -28.640625 C 2.351562 -28.640625 3.796875 -28.867188 5.015625 -29.328125 C 6.234375 -29.785156 7.300781 -30.328125 8.21875 -30.953125 C 9.144531 -31.578125 9.96875 -32.15625 10.6875 -32.6875 C 11.40625 -33.21875 12.085938 -33.550781 12.734375 -33.6875 C 13.460938 -33.820312 13.769531 -33.679688 13.65625 -33.265625 C 13.539062 -32.859375 13.4375 -32.421875 13.34375 -31.953125 C 12.425781 -25.816406 12.128906 -20.847656 12.453125 -17.046875 C 12.773438 -13.242188 13.582031 -10.859375 14.875 -9.890625 C 15.238281 -9.609375 15.394531 -9.25 15.34375 -8.8125 C 15.300781 -8.375 14.914062 -8.15625 14.1875 -8.15625 Z M 5.1875 -33.265625 C 3.800781 -33.265625 2.71875 -33.757812 1.9375 -34.75 C 1.15625 -35.75 0.925781 -36.941406 1.25 -38.328125 C 1.570312 -39.753906 2.332031 -40.953125 3.53125 -41.921875 C 4.726562 -42.890625 6.039062 -43.375 7.46875 -43.375 C 8.851562 -43.375 9.9375 -42.890625 10.71875 -41.921875 C 11.5 -40.953125 11.726562 -39.753906 11.40625 -38.328125 C 11.082031 -36.941406 10.320312 -35.75 9.125 -34.75 C 7.925781 -33.757812 6.613281 -33.265625 5.1875 -33.265625 Z M 5.1875 -33.265625 "/></g></g></g><g fill="#000000" fill-opacity="1"><g transform="translate(130.251744, 182.39456)"><g><path d="M 21.03125 -33.75 C 22.363281 -33.75 23.734375 -33.390625 25.140625 -32.671875 C 26.546875 -31.960938 27.390625 -30.867188 27.671875 -29.390625 C 27.941406 -28.054688 27.765625 -26.925781 27.140625 -26 C 26.523438 -25.082031 25.695312 -24.367188 24.65625 -23.859375 C 23.625 -23.359375 22.578125 -23.082031 21.515625 -23.03125 C 20.453125 -22.988281 19.585938 -23.21875 18.921875 -23.71875 C 18.253906 -24.226562 17.988281 -25.015625 18.125 -26.078125 C 18.257812 -26.859375 18.394531 -27.535156 18.53125 -28.109375 C 18.675781 -28.691406 18.425781 -28.984375 17.78125 -28.984375 C 16.945312 -28.984375 16.007812 -28.453125 14.96875 -27.390625 C 13.9375 -26.328125 13.097656 -25.175781 12.453125 -23.9375 C 12.222656 -20.101562 12.328125 -16.988281 12.765625 -14.59375 C 13.203125 -12.195312 13.90625 -10.628906 14.875 -9.890625 C 15.238281 -9.609375 15.394531 -9.25 15.34375 -8.8125 C 15.300781 -8.375 14.914062 -8.15625 14.1875 -8.15625 L 0.6875 -8.15625 C 0.363281 -8.15625 0.15625 -8.328125 0.0625 -8.671875 C -0.0195312 -9.023438 0.0976562 -9.335938 0.421875 -9.609375 C 1.617188 -10.535156 2.390625 -11.425781 2.734375 -12.28125 C 3.078125 -13.132812 3.25 -14.207031 3.25 -15.5 L 3.25 -21.3125 C 3.25 -22.59375 3.078125 -23.671875 2.734375 -24.546875 C 2.390625 -25.429688 1.617188 -26.332031 0.421875 -27.25 C 0.0976562 -27.53125 -0.0195312 -27.832031 0.0625 -28.15625 C 0.15625 -28.476562 0.363281 -28.640625 0.6875 -28.640625 C 2.351562 -28.640625 3.796875 -28.867188 5.015625 -29.328125 C 6.234375 -29.785156 7.300781 -30.328125 8.21875 -30.953125 C 9.144531 -31.578125 9.96875 -32.15625 10.6875 -32.6875 C 11.40625 -33.21875 12.085938 -33.550781 12.734375 -33.6875 C 13.460938 -33.820312 13.769531 -33.679688 13.65625 -33.265625 C 13.539062 -32.859375 13.4375 -32.421875 13.34375 -31.953125 L 12.796875 -27.46875 C 13.347656 -28.25 14.035156 -29.132812 14.859375 -30.125 C 15.691406 -31.113281 16.640625 -31.960938 17.703125 -32.671875 C 18.765625 -33.390625 19.875 -33.75 21.03125 -33.75 Z M 21.03125 -33.75 "/></g></g></g><g fill="#000000" fill-opacity="1"><g transform="translate(159.231294, 182.39456)"><g><path d="M 17.015625 -30.71875 C 17.472656 -30.71875 17.78125 -30.554688 17.9375 -30.234375 C 18.101562 -29.910156 18.1875 -29.515625 18.1875 -29.046875 C 18.1875 -28.585938 18.101562 -28.195312 17.9375 -27.875 C 17.78125 -27.550781 17.472656 -27.390625 17.015625 -27.390625 L 13.625 -27.390625 C 13.488281 -24.441406 13.523438 -21.722656 13.734375 -19.234375 C 13.941406 -16.742188 14.273438 -14.691406 14.734375 -13.078125 C 15.191406 -11.460938 15.722656 -10.398438 16.328125 -9.890625 C 16.691406 -9.609375 16.847656 -9.25 16.796875 -8.8125 C 16.753906 -8.375 16.34375 -8.15625 15.5625 -8.15625 L 1.59375 -8.15625 C 1.132812 -8.15625 0.90625 -8.363281 0.90625 -8.78125 C 0.90625 -9.195312 1.066406 -9.566406 1.390625 -9.890625 C 2.171875 -10.628906 2.707031 -11.617188 3 -12.859375 C 3.300781 -14.109375 3.472656 -15.398438 3.515625 -16.734375 C 3.566406 -18.078125 3.59375 -19.234375 3.59375 -20.203125 C 3.59375 -21.117188 3.566406 -22.253906 3.515625 -23.609375 C 3.472656 -24.972656 3.203125 -26.234375 2.703125 -27.390625 L 1.171875 -27.390625 C 0.710938 -27.390625 0.398438 -27.550781 0.234375 -27.875 C 0.078125 -28.195312 0 -28.585938 0 -29.046875 C 0 -29.515625 0.078125 -29.910156 0.234375 -30.234375 C 0.398438 -30.554688 0.710938 -30.71875 1.171875 -30.71875 L 1.59375 -30.71875 C 3.25 -30.71875 4.628906 -31.097656 5.734375 -31.859375 C 6.847656 -32.617188 7.785156 -33.515625 8.546875 -34.546875 C 9.304688 -35.585938 10.019531 -36.554688 10.6875 -37.453125 C 11.351562 -38.359375 12.101562 -38.945312 12.9375 -39.21875 C 13.625 -39.5 14.128906 -39.441406 14.453125 -39.046875 C 14.773438 -38.648438 14.890625 -38.222656 14.796875 -37.765625 C 14.617188 -36.566406 14.4375 -35.378906 14.25 -34.203125 C 14.0625 -33.023438 13.921875 -31.863281 13.828125 -30.71875 Z M 17.015625 -30.71875 "/></g></g></g><g fill="#000000" fill-opacity="1"><g transform="translate(178.666272, 182.39456)"><g><path d="M 33.828125 -9.609375 C 34.191406 -9.335938 34.335938 -9.023438 34.265625 -8.671875 C 34.203125 -8.328125 33.988281 -8.15625 33.625 -8.15625 L 19.859375 -8.15625 C 19.117188 -8.15625 18.722656 -8.363281 18.671875 -8.78125 C 18.628906 -9.195312 18.769531 -9.566406 19.09375 -9.890625 C 20.007812 -10.671875 20.664062 -11.890625 21.0625 -13.546875 C 21.457031 -15.210938 21.628906 -17.023438 21.578125 -18.984375 C 21.535156 -20.941406 21.316406 -22.820312 20.921875 -24.625 C 20.535156 -26.425781 19.984375 -27.910156 19.265625 -29.078125 C 18.546875 -30.253906 17.703125 -30.84375 16.734375 -30.84375 C 16.140625 -30.84375 15.425781 -30.472656 14.59375 -29.734375 C 13.757812 -29.003906 13.019531 -27.96875 12.375 -26.625 C 12.375 -23.863281 12.488281 -21.28125 12.71875 -18.875 C 12.957031 -16.476562 13.28125 -14.484375 13.6875 -12.890625 C 14.101562 -11.304688 14.59375 -10.304688 15.15625 -9.890625 C 15.519531 -9.609375 15.675781 -9.25 15.625 -8.8125 C 15.582031 -8.375 15.171875 -8.15625 14.390625 -8.15625 L 0.6875 -8.15625 C 0.363281 -8.15625 0.15625 -8.328125 0.0625 -8.671875 C -0.0195312 -9.023438 0.0976562 -9.335938 0.421875 -9.609375 C 1.617188 -10.535156 2.390625 -11.425781 2.734375 -12.28125 C 3.078125 -13.132812 3.25 -14.207031 3.25 -15.5 L 3.25 -31.0625 C 3.25 -32.351562 3.078125 -33.4375 2.734375 -34.3125 C 2.390625 -35.1875 1.617188 -36.0625 0.421875 -36.9375 C 0.0976562 -37.21875 -0.0195312 -37.519531 0.0625 -37.84375 C 0.15625 -38.164062 0.363281 -38.328125 0.6875 -38.328125 C 2.351562 -38.328125 3.804688 -38.554688 5.046875 -39.015625 C 6.296875 -39.472656 7.390625 -40.023438 8.328125 -40.671875 C 9.273438 -41.316406 10.117188 -41.890625 10.859375 -42.390625 C 11.597656 -42.898438 12.289062 -43.226562 12.9375 -43.375 C 13.675781 -43.550781 14 -43.421875 13.90625 -42.984375 C 13.8125 -42.546875 13.71875 -42.097656 13.625 -41.640625 C 13.300781 -39.796875 13.046875 -37.914062 12.859375 -36 C 12.679688 -34.09375 12.546875 -32.191406 12.453125 -30.296875 C 13.234375 -31.265625 14.140625 -32.082031 15.171875 -32.75 C 16.210938 -33.414062 17.40625 -33.75 18.75 -33.75 C 21.28125 -33.75 23.457031 -33.140625 25.28125 -31.921875 C 27.101562 -30.703125 28.507812 -29.050781 29.5 -26.96875 C 30.488281 -24.894531 30.984375 -22.59375 30.984375 -20.0625 L 30.984375 -15.5 C 30.984375 -14.207031 31.164062 -13.132812 31.53125 -12.28125 C 31.90625 -11.425781 32.671875 -10.535156 33.828125 -9.609375 Z M 33.828125 -9.609375 "/></g></g></g><g fill="#000000" fill-opacity="1"><g transform="translate(214.562194, 182.39456)"><g><path d="M 30.640625 -9.609375 C 31.015625 -9.335938 31.164062 -9.023438 31.09375 -8.671875 C 31.019531 -8.328125 30.800781 -8.15625 30.4375 -8.15625 L 13.828125 -8.15625 C 11.296875 -8.15625 8.976562 -8.734375 6.875 -9.890625 C 4.78125 -11.046875 3.109375 -12.59375 1.859375 -14.53125 C 0.617188 -16.46875 0 -18.609375 0 -20.953125 C 0 -23.304688 0.617188 -25.453125 1.859375 -27.390625 C 3.109375 -29.328125 4.78125 -30.867188 6.875 -32.015625 C 8.976562 -33.171875 11.296875 -33.75 13.828125 -33.75 C 15.304688 -33.75 16.691406 -33.546875 17.984375 -33.140625 C 17.566406 -34.929688 16.875 -36.195312 15.90625 -36.9375 C 15.539062 -37.21875 15.40625 -37.519531 15.5 -37.84375 C 15.59375 -38.164062 15.796875 -38.328125 16.109375 -38.328125 C 17.773438 -38.328125 19.226562 -38.554688 20.46875 -39.015625 C 21.71875 -39.472656 22.8125 -40.023438 23.75 -40.671875 C 24.695312 -41.316406 25.550781 -41.890625 26.3125 -42.390625 C 27.082031 -42.898438 27.785156 -43.226562 28.421875 -43.375 C 29.160156 -43.550781 29.484375 -43.421875 29.390625 -42.984375 C 29.304688 -42.546875 29.21875 -42.097656 29.125 -41.640625 C 28.800781 -39.929688 28.546875 -38.46875 28.359375 -37.25 C 28.171875 -36.03125 28.03125 -34.84375 27.9375 -33.6875 C 27.851562 -32.53125 27.8125 -31.191406 27.8125 -29.671875 L 27.8125 -15.5 C 27.8125 -14.207031 27.992188 -13.132812 28.359375 -12.28125 C 28.722656 -11.425781 29.484375 -10.535156 30.640625 -9.609375 Z M 9.828125 -20.953125 C 9.828125 -18.972656 10.007812 -17.164062 10.375 -15.53125 C 10.738281 -13.894531 11.222656 -12.578125 11.828125 -11.578125 C 12.429688 -10.585938 13.097656 -10.09375 13.828125 -10.09375 C 14.566406 -10.09375 15.222656 -10.585938 15.796875 -11.578125 C 16.378906 -12.578125 16.851562 -13.894531 17.21875 -15.53125 C 17.59375 -17.164062 17.78125 -18.972656 17.78125 -20.953125 C 17.78125 -22.984375 17.59375 -24.816406 17.21875 -26.453125 C 16.851562 -28.085938 16.378906 -29.390625 15.796875 -30.359375 C 15.222656 -31.328125 14.566406 -31.8125 13.828125 -31.8125 C 13.097656 -31.8125 12.429688 -31.328125 11.828125 -30.359375 C 11.222656 -29.390625 10.738281 -28.085938 10.375 -26.453125 C 10.007812 -24.816406 9.828125 -22.984375 9.828125 -20.953125 Z M 9.828125 -20.953125 "/></g></g></g><g fill="#000000" fill-opacity="1"><g transform="translate(247.414904, 182.39456)"><g><path d="M 27.734375 -9.609375 C 28.109375 -9.335938 28.25 -9.023438 28.15625 -8.671875 C 28.0625 -8.328125 27.832031 -8.15625 27.46875 -8.15625 L 20.40625 -8.15625 C 19.15625 -8.15625 18.148438 -8.429688 17.390625 -8.984375 C 16.628906 -9.546875 16.078125 -10.101562 15.734375 -10.65625 C 15.390625 -11.207031 15.21875 -11.484375 15.21875 -11.484375 C 14.476562 -10.460938 13.507812 -9.648438 12.3125 -9.046875 C 11.113281 -8.453125 9.820312 -8.15625 8.4375 -8.15625 C 6.914062 -8.15625 5.507812 -8.523438 4.21875 -9.265625 C 2.925781 -10.003906 1.898438 -10.992188 1.140625 -12.234375 C 0.378906 -13.484375 0 -14.847656 0 -16.328125 C 0 -17.847656 0.378906 -19.21875 1.140625 -20.4375 C 1.898438 -21.65625 2.925781 -22.632812 4.21875 -23.375 C 5.507812 -24.113281 6.914062 -24.484375 8.4375 -24.484375 C 9.820312 -24.484375 11.113281 -24.179688 12.3125 -23.578125 C 13.507812 -22.984375 14.476562 -22.179688 15.21875 -21.171875 L 15.21875 -23.234375 C 15.21875 -24.578125 15.054688 -25.90625 14.734375 -27.21875 C 14.410156 -28.53125 13.945312 -29.625 13.34375 -30.5 C 12.75 -31.375 12.035156 -31.8125 11.203125 -31.8125 C 10.691406 -31.8125 10.425781 -31.46875 10.40625 -30.78125 C 10.382812 -30.09375 10.582031 -29.285156 11 -28.359375 C 11.269531 -27.671875 11.148438 -27.082031 10.640625 -26.59375 C 10.140625 -26.113281 9.425781 -25.742188 8.5 -25.484375 C 7.582031 -25.234375 6.628906 -25.128906 5.640625 -25.171875 C 4.648438 -25.222656 3.804688 -25.441406 3.109375 -25.828125 C 2.421875 -26.222656 2.078125 -26.8125 2.078125 -27.59375 C 2.078125 -29.070312 2.914062 -30.46875 4.59375 -31.78125 C 6.28125 -33.09375 8.710938 -33.75 11.890625 -33.75 C 14.390625 -33.75 16.617188 -33.21875 18.578125 -32.15625 C 20.535156 -31.101562 22.078125 -29.628906 23.203125 -27.734375 C 24.335938 -25.847656 24.90625 -23.660156 24.90625 -21.171875 L 24.90625 -15.5 C 24.90625 -14.207031 25.078125 -13.132812 25.421875 -12.28125 C 25.765625 -11.425781 26.535156 -10.535156 27.734375 -9.609375 Z M 11.484375 -11.890625 C 12.453125 -11.890625 13.269531 -12.328125 13.9375 -13.203125 C 14.601562 -14.085938 14.9375 -15.128906 14.9375 -16.328125 C 14.9375 -17.523438 14.601562 -18.5625 13.9375 -19.4375 C 13.269531 -20.3125 12.453125 -20.75 11.484375 -20.75 C 10.554688 -20.75 9.757812 -20.3125 9.09375 -19.4375 C 8.425781 -18.5625 8.09375 -17.523438 8.09375 -16.328125 C 8.09375 -15.128906 8.425781 -14.085938 9.09375 -13.203125 C 9.757812 -12.328125 10.554688 -11.890625 11.484375 -11.890625 Z M 11.484375 -11.890625 "/></g></g></g><g fill="#000000" fill-opacity="1"><g transform="translate(277.086102, 182.39456)"><g><path d="M 29.671875 -33.75 C 30.085938 -33.75 30.269531 -33.578125 30.21875 -33.234375 C 30.175781 -32.890625 29.925781 -32.578125 29.46875 -32.296875 C 28.269531 -31.609375 27.414062 -30.78125 26.90625 -29.8125 C 26.394531 -28.84375 25.9375 -27.710938 25.53125 -26.421875 L 21.375 -12.9375 L 18.40625 -3.390625 C 17.289062 -0.0234375 16.019531 2.566406 14.59375 4.390625 C 13.164062 6.210938 11.710938 7.476562 10.234375 8.1875 C 8.765625 8.90625 7.359375 9.265625 6.015625 9.265625 C 4.128906 9.265625 2.539062 8.859375 1.25 8.046875 C -0.0390625 7.242188 -1.007812 6.21875 -1.65625 4.96875 C -2.300781 3.726562 -2.597656 2.4375 -2.546875 1.09375 C -2.503906 -0.238281 -2.09375 -1.429688 -1.3125 -2.484375 C -0.34375 -3.734375 0.796875 -4.578125 2.109375 -5.015625 C 3.421875 -5.453125 4.675781 -5.554688 5.875 -5.328125 C 7.070312 -5.097656 8.015625 -4.546875 8.703125 -3.671875 C 9.398438 -2.796875 9.585938 -1.664062 9.265625 -0.28125 C 8.941406 1.195312 8.988281 2.234375 9.40625 2.828125 C 9.820312 3.429688 10.46875 3.523438 11.34375 3.109375 C 12.21875 2.691406 13.1875 1.734375 14.25 0.234375 C 15.3125 -1.253906 16.300781 -3.316406 17.21875 -5.953125 L 17.984375 -8.15625 L 13.625 -8.15625 C 12.238281 -8.15625 11.328125 -8.429688 10.890625 -8.984375 C 10.453125 -9.546875 10.050781 -10.425781 9.6875 -11.625 L 6.984375 -20.125 C 6.148438 -22.894531 5.390625 -25.070312 4.703125 -26.65625 C 4.015625 -28.25 3.359375 -29.445312 2.734375 -30.25 C 2.109375 -31.0625 1.472656 -31.65625 0.828125 -32.03125 C 0.367188 -32.300781 0.101562 -32.65625 0.03125 -33.09375 C -0.03125 -33.53125 0.300781 -33.75 1.03125 -33.75 L 16.109375 -33.75 C 16.484375 -33.75 16.738281 -33.597656 16.875 -33.296875 C 17.007812 -33.003906 16.988281 -32.671875 16.8125 -32.296875 C 16.113281 -30.773438 15.726562 -29.160156 15.65625 -27.453125 C 15.59375 -25.753906 15.734375 -24.097656 16.078125 -22.484375 C 16.421875 -20.867188 16.832031 -19.390625 17.3125 -18.046875 C 17.800781 -16.710938 18.253906 -15.628906 18.671875 -14.796875 C 19.085938 -13.972656 19.320312 -13.488281 19.375 -13.34375 L 19.5 -13.140625 L 19.640625 -13.765625 C 19.640625 -13.765625 19.765625 -14.296875 20.015625 -15.359375 C 20.273438 -16.421875 20.566406 -17.757812 20.890625 -19.375 C 21.210938 -20.988281 21.488281 -22.660156 21.71875 -24.390625 C 21.945312 -26.117188 22.015625 -27.707031 21.921875 -29.15625 C 21.835938 -30.601562 21.515625 -31.648438 20.953125 -32.296875 C 20.722656 -32.617188 20.664062 -32.941406 20.78125 -33.265625 C 20.894531 -33.585938 21.1875 -33.75 21.65625 -33.75 Z M 29.671875 -33.75 "/></g></g></g><g fill="#000000" fill-opacity="1"><g transform="translate(116.384683, 232.173182)"><g><path d="M 18.953125 -28.84375 C 20.285156 -27.925781 21.585938 -26.96875 22.859375 -25.96875 C 24.128906 -24.976562 25.210938 -23.914062 26.109375 -22.78125 C 27.015625 -21.65625 27.554688 -20.398438 27.734375 -19.015625 C 28.015625 -17.265625 27.632812 -15.570312 26.59375 -13.9375 C 25.5625 -12.300781 24.078125 -10.960938 22.140625 -9.921875 C 20.203125 -8.890625 17.960938 -8.328125 15.421875 -8.234375 L 15.21875 -8.234375 C 13.238281 -8.179688 11.613281 -8.394531 10.34375 -8.875 C 9.070312 -9.363281 7.816406 -9.796875 6.578125 -10.171875 C 5.835938 -10.398438 5.085938 -10.335938 4.328125 -9.984375 C 3.566406 -9.640625 2.863281 -9.257812 2.21875 -8.84375 C 1.570312 -8.4375 1.039062 -8.207031 0.625 -8.15625 C 0.207031 -8.113281 0 -8.460938 0 -9.203125 L 0 -19.859375 C 0 -20.828125 0.226562 -21.378906 0.6875 -21.515625 C 1.15625 -21.648438 1.6875 -21.234375 2.28125 -20.265625 C 4.820312 -16.535156 7.195312 -13.882812 9.40625 -12.3125 C 11.625 -10.738281 13.476562 -10.019531 14.96875 -10.15625 C 16.46875 -10.300781 17.40625 -11.066406 17.78125 -12.453125 C 18.101562 -13.609375 17.925781 -14.644531 17.25 -15.5625 C 16.582031 -16.488281 15.601562 -17.375 14.3125 -18.21875 C 13.019531 -19.070312 11.601562 -19.945312 10.0625 -20.84375 C 8.519531 -21.75 7.019531 -22.734375 5.5625 -23.796875 C 4.113281 -24.859375 2.894531 -26.066406 1.90625 -27.421875 C 0.914062 -28.785156 0.347656 -30.34375 0.203125 -32.09375 C -0.117188 -35.644531 0.894531 -38.390625 3.25 -40.328125 C 5.601562 -42.265625 8.691406 -43.28125 12.515625 -43.375 L 12.734375 -43.375 C 14.578125 -43.414062 16.441406 -43.226562 18.328125 -42.8125 C 20.222656 -42.394531 21.914062 -41.710938 23.40625 -40.765625 C 24.90625 -39.828125 25.976562 -38.597656 26.625 -37.078125 C 27.226562 -35.597656 27.226562 -34.410156 26.625 -33.515625 C 26.03125 -32.617188 25.117188 -31.992188 23.890625 -31.640625 C 22.671875 -31.296875 21.40625 -31.285156 20.09375 -31.609375 C 18.78125 -31.929688 17.671875 -32.578125 16.765625 -33.546875 C 15.867188 -34.515625 15.492188 -35.828125 15.640625 -37.484375 C 15.722656 -38.773438 15.519531 -39.734375 15.03125 -40.359375 C 14.550781 -40.984375 13.953125 -41.328125 13.234375 -41.390625 C 12.523438 -41.460938 11.867188 -41.289062 11.265625 -40.875 C 10.671875 -40.46875 10.304688 -39.867188 10.171875 -39.078125 C 9.941406 -37.648438 10.265625 -36.347656 11.140625 -35.171875 C 12.015625 -33.992188 13.164062 -32.894531 14.59375 -31.875 C 16.019531 -30.863281 17.472656 -29.851562 18.953125 -28.84375 Z M 18.953125 -28.84375 "/></g></g></g><g fill="#000000" fill-opacity="1"><g transform="translate(145.502571, 232.173182)"><g><path d="M 27.734375 -9.609375 C 28.109375 -9.335938 28.25 -9.023438 28.15625 -8.671875 C 28.0625 -8.328125 27.832031 -8.15625 27.46875 -8.15625 L 20.40625 -8.15625 C 19.15625 -8.15625 18.148438 -8.429688 17.390625 -8.984375 C 16.628906 -9.546875 16.078125 -10.101562 15.734375 -10.65625 C 15.390625 -11.207031 15.21875 -11.484375 15.21875 -11.484375 C 14.476562 -10.460938 13.507812 -9.648438 12.3125 -9.046875 C 11.113281 -8.453125 9.820312 -8.15625 8.4375 -8.15625 C 6.914062 -8.15625 5.507812 -8.523438 4.21875 -9.265625 C 2.925781 -10.003906 1.898438 -10.992188 1.140625 -12.234375 C 0.378906 -13.484375 0 -14.847656 0 -16.328125 C 0 -17.847656 0.378906 -19.21875 1.140625 -20.4375 C 1.898438 -21.65625 2.925781 -22.632812 4.21875 -23.375 C 5.507812 -24.113281 6.914062 -24.484375 8.4375 -24.484375 C 9.820312 -24.484375 11.113281 -24.179688 12.3125 -23.578125 C 13.507812 -22.984375 14.476562 -22.179688 15.21875 -21.171875 L 15.21875 -23.234375 C 15.21875 -24.578125 15.054688 -25.90625 14.734375 -27.21875 C 14.410156 -28.53125 13.945312 -29.625 13.34375 -30.5 C 12.75 -31.375 12.035156 -31.8125 11.203125 -31.8125 C 10.691406 -31.8125 10.425781 -31.46875 10.40625 -30.78125 C 10.382812 -30.09375 10.582031 -29.285156 11 -28.359375 C 11.269531 -27.671875 11.148438 -27.082031 10.640625 -26.59375 C 10.140625 -26.113281 9.425781 -25.742188 8.5 -25.484375 C 7.582031 -25.234375 6.628906 -25.128906 5.640625 -25.171875 C 4.648438 -25.222656 3.804688 -25.441406 3.109375 -25.828125 C 2.421875 -26.222656 2.078125 -26.8125 2.078125 -27.59375 C 2.078125 -29.070312 2.914062 -30.46875 4.59375 -31.78125 C 6.28125 -33.09375 8.710938 -33.75 11.890625 -33.75 C 14.390625 -33.75 16.617188 -33.21875 18.578125 -32.15625 C 20.535156 -31.101562 22.078125 -29.628906 23.203125 -27.734375 C 24.335938 -25.847656 24.90625 -23.660156 24.90625 -21.171875 L 24.90625 -15.5 C 24.90625 -14.207031 25.078125 -13.132812 25.421875 -12.28125 C 25.765625 -11.425781 26.535156 -10.535156 27.734375 -9.609375 Z M 11.484375 -11.890625 C 12.453125 -11.890625 13.269531 -12.328125 13.9375 -13.203125 C 14.601562 -14.085938 14.9375 -15.128906 14.9375 -16.328125 C 14.9375 -17.523438 14.601562 -18.5625 13.9375 -19.4375 C 13.269531 -20.3125 12.453125 -20.75 11.484375 -20.75 C 10.554688 -20.75 9.757812 -20.3125 9.09375 -19.4375 C 8.425781 -18.5625 8.09375 -17.523438 8.09375 -16.328125 C 8.09375 -15.128906 8.425781 -14.085938 9.09375 -13.203125 C 9.757812 -12.328125 10.554688 -11.890625 11.484375 -11.890625 Z M 11.484375 -11.890625 "/></g></g></g><g fill="#000000" fill-opacity="1"><g transform="translate(175.173769, 232.173182)"><g><path d="M 17.703125 -30.71875 C 18.171875 -30.71875 18.484375 -30.554688 18.640625 -30.234375 C 18.804688 -29.910156 18.890625 -29.515625 18.890625 -29.046875 C 18.890625 -28.585938 18.804688 -28.195312 18.640625 -27.875 C 18.484375 -27.550781 18.171875 -27.390625 17.703125 -27.390625 L 12.796875 -27.390625 L 12.796875 -25.796875 C 12.796875 -23.535156 12.875 -21.253906 13.03125 -18.953125 C 13.195312 -16.648438 13.460938 -14.664062 13.828125 -13 C 14.203125 -11.34375 14.644531 -10.304688 15.15625 -9.890625 C 15.519531 -9.609375 15.675781 -9.25 15.625 -8.8125 C 15.582031 -8.375 15.171875 -8.15625 14.390625 -8.15625 L 0.6875 -8.15625 C 0.363281 -8.15625 0.15625 -8.328125 0.0625 -8.671875 C -0.0195312 -9.023438 0.0976562 -9.335938 0.421875 -9.609375 C 1.617188 -10.535156 2.390625 -11.425781 2.734375 -12.28125 C 3.078125 -13.132812 3.25 -14.207031 3.25 -15.5 L 3.25 -27.390625 L 2.140625 -27.390625 C 1.679688 -27.390625 1.359375 -27.550781 1.171875 -27.875 C 0.992188 -28.195312 0.90625 -28.585938 0.90625 -29.046875 C 0.90625 -29.515625 0.992188 -29.910156 1.171875 -30.234375 C 1.359375 -30.554688 1.679688 -30.71875 2.140625 -30.71875 L 3.25 -30.71875 L 3.25 -30.84375 C 3.25 -33.34375 3.8125 -35.535156 4.9375 -37.421875 C 6.070312 -39.316406 7.628906 -40.78125 9.609375 -41.8125 C 11.597656 -42.851562 13.8125 -43.375 16.25 -43.375 C 19.4375 -43.375 21.894531 -42.726562 23.625 -41.4375 C 25.351562 -40.144531 26.191406 -38.757812 26.140625 -37.28125 C 26.097656 -36.269531 25.707031 -35.5 24.96875 -34.96875 C 24.226562 -34.4375 23.351562 -34.113281 22.34375 -34 C 21.332031 -33.882812 20.351562 -33.972656 19.40625 -34.265625 C 18.457031 -34.566406 17.75 -35.03125 17.28125 -35.65625 C 16.820312 -36.28125 16.78125 -37.050781 17.15625 -37.96875 C 17.570312 -38.894531 17.765625 -39.703125 17.734375 -40.390625 C 17.710938 -41.085938 17.453125 -41.4375 16.953125 -41.4375 C 16.304688 -41.4375 15.71875 -40.9375 15.1875 -39.9375 C 14.65625 -38.945312 14.203125 -37.632812 13.828125 -36 C 13.460938 -34.363281 13.1875 -32.601562 13 -30.71875 Z M 17.703125 -30.71875 "/></g></g></g><g fill="#000000" fill-opacity="1"><g transform="translate(195.646191, 232.173182)"><g><path d="M 14.1875 -8.15625 L 0.6875 -8.15625 C 0.363281 -8.15625 0.15625 -8.328125 0.0625 -8.671875 C -0.0195312 -9.023438 0.0976562 -9.335938 0.421875 -9.609375 C 1.617188 -10.535156 2.390625 -11.425781 2.734375 -12.28125 C 3.078125 -13.132812 3.25 -14.207031 3.25 -15.5 L 3.25 -21.3125 C 3.25 -22.59375 3.078125 -23.671875 2.734375 -24.546875 C 2.390625 -25.429688 1.617188 -26.332031 0.421875 -27.25 C 0.0976562 -27.53125 -0.0195312 -27.832031 0.0625 -28.15625 C 0.15625 -28.476562 0.363281 -28.640625 0.6875 -28.640625 C 2.351562 -28.640625 3.796875 -28.867188 5.015625 -29.328125 C 6.234375 -29.785156 7.300781 -30.328125 8.21875 -30.953125 C 9.144531 -31.578125 9.96875 -32.15625 10.6875 -32.6875 C 11.40625 -33.21875 12.085938 -33.550781 12.734375 -33.6875 C 13.460938 -33.820312 13.769531 -33.679688 13.65625 -33.265625 C 13.539062 -32.859375 13.4375 -32.421875 13.34375 -31.953125 C 12.425781 -25.816406 12.128906 -20.847656 12.453125 -17.046875 C 12.773438 -13.242188 13.582031 -10.859375 14.875 -9.890625 C 15.238281 -9.609375 15.394531 -9.25 15.34375 -8.8125 C 15.300781 -8.375 14.914062 -8.15625 14.1875 -8.15625 Z M 5.1875 -33.265625 C 3.800781 -33.265625 2.71875 -33.757812 1.9375 -34.75 C 1.15625 -35.75 0.925781 -36.941406 1.25 -38.328125 C 1.570312 -39.753906 2.332031 -40.953125 3.53125 -41.921875 C 4.726562 -42.890625 6.039062 -43.375 7.46875 -43.375 C 8.851562 -43.375 9.9375 -42.890625 10.71875 -41.921875 C 11.5 -40.953125 11.726562 -39.753906 11.40625 -38.328125 C 11.082031 -36.941406 10.320312 -35.75 9.125 -34.75 C 7.925781 -33.757812 6.613281 -33.265625 5.1875 -33.265625 Z M 5.1875 -33.265625 "/></g></g></g><g fill="#000000" fill-opacity="1"><g transform="translate(212.729606, 232.173182)"><g><path d="M 21.03125 -33.75 C 22.363281 -33.75 23.734375 -33.390625 25.140625 -32.671875 C 26.546875 -31.960938 27.390625 -30.867188 27.671875 -29.390625 C 27.941406 -28.054688 27.765625 -26.925781 27.140625 -26 C 26.523438 -25.082031 25.695312 -24.367188 24.65625 -23.859375 C 23.625 -23.359375 22.578125 -23.082031 21.515625 -23.03125 C 20.453125 -22.988281 19.585938 -23.21875 18.921875 -23.71875 C 18.253906 -24.226562 17.988281 -25.015625 18.125 -26.078125 C 18.257812 -26.859375 18.394531 -27.535156 18.53125 -28.109375 C 18.675781 -28.691406 18.425781 -28.984375 17.78125 -28.984375 C 16.945312 -28.984375 16.007812 -28.453125 14.96875 -27.390625 C 13.9375 -26.328125 13.097656 -25.175781 12.453125 -23.9375 C 12.222656 -20.101562 12.328125 -16.988281 12.765625 -14.59375 C 13.203125 -12.195312 13.90625 -10.628906 14.875 -9.890625 C 15.238281 -9.609375 15.394531 -9.25 15.34375 -8.8125 C 15.300781 -8.375 14.914062 -8.15625 14.1875 -8.15625 L 0.6875 -8.15625 C 0.363281 -8.15625 0.15625 -8.328125 0.0625 -8.671875 C -0.0195312 -9.023438 0.0976562 -9.335938 0.421875 -9.609375 C 1.617188 -10.535156 2.390625 -11.425781 2.734375 -12.28125 C 3.078125 -13.132812 3.25 -14.207031 3.25 -15.5 L 3.25 -21.3125 C 3.25 -22.59375 3.078125 -23.671875 2.734375 -24.546875 C 2.390625 -25.429688 1.617188 -26.332031 0.421875 -27.25 C 0.0976562 -27.53125 -0.0195312 -27.832031 0.0625 -28.15625 C 0.15625 -28.476562 0.363281 -28.640625 0.6875 -28.640625 C 2.351562 -28.640625 3.796875 -28.867188 5.015625 -29.328125 C 6.234375 -29.785156 7.300781 -30.328125 8.21875 -30.953125 C 9.144531 -31.578125 9.96875 -32.15625 10.6875 -32.6875 C 11.40625 -33.21875 12.085938 -33.550781 12.734375 -33.6875 C 13.460938 -33.820312 13.769531 -33.679688 13.65625 -33.265625 C 13.539062 -32.859375 13.4375 -32.421875 13.34375 -31.953125 L 12.796875 -27.46875 C 13.347656 -28.25 14.035156 -29.132812 14.859375 -30.125 C 15.691406 -31.113281 16.640625 -31.960938 17.703125 -32.671875 C 18.765625 -33.390625 19.875 -33.75 21.03125 -33.75 Z M 21.03125 -33.75 "/></g></g></g><g fill="#000000" fill-opacity="1"><g transform="translate(241.709156, 232.173182)"><g><path d="M 27.734375 -9.609375 C 28.109375 -9.335938 28.25 -9.023438 28.15625 -8.671875 C 28.0625 -8.328125 27.832031 -8.15625 27.46875 -8.15625 L 20.40625 -8.15625 C 19.15625 -8.15625 18.148438 -8.429688 17.390625 -8.984375 C 16.628906 -9.546875 16.078125 -10.101562 15.734375 -10.65625 C 15.390625 -11.207031 15.21875 -11.484375 15.21875 -11.484375 C 14.476562 -10.460938 13.507812 -9.648438 12.3125 -9.046875 C 11.113281 -8.453125 9.820312 -8.15625 8.4375 -8.15625 C 6.914062 -8.15625 5.507812 -8.523438 4.21875 -9.265625 C 2.925781 -10.003906 1.898438 -10.992188 1.140625 -12.234375 C 0.378906 -13.484375 0 -14.847656 0 -16.328125 C 0 -17.847656 0.378906 -19.21875 1.140625 -20.4375 C 1.898438 -21.65625 2.925781 -22.632812 4.21875 -23.375 C 5.507812 -24.113281 6.914062 -24.484375 8.4375 -24.484375 C 9.820312 -24.484375 11.113281 -24.179688 12.3125 -23.578125 C 13.507812 -22.984375 14.476562 -22.179688 15.21875 -21.171875 L 15.21875 -23.234375 C 15.21875 -24.578125 15.054688 -25.90625 14.734375 -27.21875 C 14.410156 -28.53125 13.945312 -29.625 13.34375 -30.5 C 12.75 -31.375 12.035156 -31.8125 11.203125 -31.8125 C 10.691406 -31.8125 10.425781 -31.46875 10.40625 -30.78125 C 10.382812 -30.09375 10.582031 -29.285156 11 -28.359375 C 11.269531 -27.671875 11.148438 -27.082031 10.640625 -26.59375 C 10.140625 -26.113281 9.425781 -25.742188 8.5 -25.484375 C 7.582031 -25.234375 6.628906 -25.128906 5.640625 -25.171875 C 4.648438 -25.222656 3.804688 -25.441406 3.109375 -25.828125 C 2.421875 -26.222656 2.078125 -26.8125 2.078125 -27.59375 C 2.078125 -29.070312 2.914062 -30.46875 4.59375 -31.78125 C 6.28125 -33.09375 8.710938 -33.75 11.890625 -33.75 C 14.390625 -33.75 16.617188 -33.21875 18.578125 -32.15625 C 20.535156 -31.101562 22.078125 -29.628906 23.203125 -27.734375 C 24.335938 -25.847656 24.90625 -23.660156 24.90625 -21.171875 L 24.90625 -15.5 C 24.90625 -14.207031 25.078125 -13.132812 25.421875 -12.28125 C 25.765625 -11.425781 26.535156 -10.535156 27.734375 -9.609375 Z M 11.484375 -11.890625 C 12.453125 -11.890625 13.269531 -12.328125 13.9375 -13.203125 C 14.601562 -14.085938 14.9375 -15.128906 14.9375 -16.328125 C 14.9375 -17.523438 14.601562 -18.5625 13.9375 -19.4375 C 13.269531 -20.3125 12.453125 -20.75 11.484375 -20.75 C 10.554688 -20.75 9.757812 -20.3125 9.09375 -19.4375 C 8.425781 -18.5625 8.09375 -17.523438 8.09375 -16.328125 C 8.09375 -15.128906 8.425781 -14.085938 9.09375 -13.203125 C 9.757812 -12.328125 10.554688 -11.890625 11.484375 -11.890625 Z M 11.484375 -11.890625 "/></g></g></g></svg>