<svg xmlns="http://www.w3.org/2000/svg" xmlns:xlink="http://www.w3.org/1999/xlink" width="500" zoomAndPan="magnify" viewBox="0 0 375 374.999991" height="500" preserveAspectRatio="xMidYMid meet" version="1.0"><defs><g/><clipPath id="9fda7ae5c9"><path d="M 9 77 L 369.347656 77 L 369.347656 351.382812 L 9 351.382812 Z M 9 77 " clip-rule="nonzero"/></clipPath><clipPath id="3c9d8cf9c4"><path d="M 5.597656 67 L 367 67 L 367 343 L 5.597656 343 Z M 5.597656 67 " clip-rule="nonzero"/></clipPath><clipPath id="4cdba1215f"><path d="M 131 23.632812 L 241 23.632812 L 241 132 L 131 132 Z M 131 23.632812 " clip-rule="nonzero"/></clipPath></defs><g clip-path="url(#9fda7ae5c9)"><path fill="#110804" d="M 339.355469 351.398438 L 39.355469 351.398438 C 22.851562 351.398438 9.46875 338.015625 9.46875 321.511719 L 9.46875 107.28125 C 9.46875 90.777344 22.851562 77.394531 39.355469 77.394531 L 339.375 77.394531 C 355.878906 77.394531 369.261719 90.777344 369.261719 107.28125 L 369.261719 321.511719 C 369.242188 338.015625 355.859375 351.398438 339.355469 351.398438 Z M 339.355469 351.398438 " fill-opacity="1" fill-rule="nonzero"/></g><path fill="#024762" d="M 335.996094 341.703125 L 35.996094 341.703125 C 19.492188 341.703125 6.109375 328.320312 6.109375 311.816406 L 6.109375 97.585938 C 6.109375 81.082031 19.492188 67.699219 35.996094 67.699219 L 336.015625 67.699219 C 352.519531 67.699219 365.902344 81.082031 365.902344 97.585938 L 365.902344 311.816406 C 365.882812 328.320312 352.5 341.703125 335.996094 341.703125 Z M 335.996094 341.703125 " fill-opacity="1" fill-rule="nonzero"/><g clip-path="url(#3c9d8cf9c4)"><path fill="#110804" d="M 335.996094 342.15625 L 35.996094 342.15625 C 19.253906 342.15625 5.65625 328.539062 5.65625 311.816406 L 5.65625 97.570312 C 5.65625 80.847656 19.253906 67.230469 35.996094 67.230469 L 336.015625 67.230469 C 352.738281 67.230469 366.355469 80.828125 366.355469 97.570312 L 366.355469 311.816406 C 366.335938 328.539062 352.71875 342.15625 335.996094 342.15625 Z M 35.996094 68.15625 C 19.765625 68.15625 6.5625 81.355469 6.5625 97.585938 L 6.5625 311.835938 C 6.5625 328.066406 19.765625 341.265625 35.996094 341.265625 L 336.015625 341.265625 C 352.246094 341.265625 365.445312 328.066406 365.445312 311.835938 L 365.445312 97.585938 C 365.445312 81.355469 352.246094 68.15625 336.015625 68.15625 Z M 35.996094 68.15625 " fill-opacity="1" fill-rule="nonzero"/></g><path fill="#ffe5e1" d="M 330.257812 321.203125 L 41.734375 321.203125 C 33.707031 321.203125 27.191406 314.683594 27.191406 306.660156 L 27.191406 102.742188 C 27.191406 94.71875 33.707031 88.199219 41.734375 88.199219 L 330.257812 88.199219 C 338.285156 88.199219 344.804688 94.71875 344.804688 102.742188 L 344.804688 306.640625 C 344.804688 314.683594 338.304688 321.203125 330.257812 321.203125 Z M 330.257812 321.203125 " fill-opacity="1" fill-rule="nonzero"/><path fill="#110804" d="M 330.257812 321.640625 L 41.734375 321.640625 C 33.472656 321.640625 26.734375 314.902344 26.734375 306.640625 L 26.734375 102.742188 C 26.734375 94.480469 33.472656 87.746094 41.734375 87.746094 L 330.277344 87.746094 C 338.539062 87.746094 345.273438 94.480469 345.273438 102.742188 L 345.273438 306.660156 C 345.257812 314.921875 338.539062 321.640625 330.257812 321.640625 Z M 41.734375 88.652344 C 33.960938 88.652344 27.644531 94.972656 27.644531 102.742188 L 27.644531 306.660156 C 27.644531 314.429688 33.960938 320.75 41.734375 320.75 L 330.277344 320.75 C 338.050781 320.75 344.367188 314.429688 344.367188 306.660156 L 344.367188 102.742188 C 344.367188 94.972656 338.050781 88.652344 330.277344 88.652344 Z M 41.734375 88.652344 " fill-opacity="1" fill-rule="nonzero"/><path fill="#f05b2a" d="M 239.75 76.089844 L 237.878906 63.179688 L 207.050781 67.628906 L 230.597656 47.21875 L 222.046875 37.359375 L 198.515625 57.769531 L 207.285156 27.863281 L 194.773438 24.199219 L 185.988281 54.082031 L 177.21875 24.199219 L 164.707031 27.863281 L 173.476562 57.769531 L 149.945312 37.359375 L 141.394531 47.21875 L 164.945312 67.628906 L 134.097656 63.179688 L 132.242188 76.089844 L 163.09375 80.539062 L 134.75 93.464844 L 140.160156 105.339844 L 168.503906 92.394531 L 151.652344 118.613281 L 162.636719 125.65625 L 179.46875 99.4375 L 179.46875 130.59375 L 192.523438 130.59375 L 192.523438 99.4375 L 209.355469 125.65625 L 220.339844 118.613281 L 203.492188 92.394531 L 231.832031 105.339844 L 237.242188 93.464844 L 208.902344 80.539062 Z M 239.75 76.089844 " fill-opacity="1" fill-rule="nonzero"/><g clip-path="url(#4cdba1215f)"><path fill="#110804" d="M 192.976562 131.050781 L 179.035156 131.050781 L 179.035156 101 L 162.785156 126.292969 L 151.054688 118.757812 L 167.304688 93.464844 L 139.960938 105.957031 L 134.167969 93.265625 L 161.511719 80.773438 L 131.753906 76.488281 L 133.734375 62.691406 L 134.1875 62.761719 L 163.492188 66.972656 L 140.757812 47.273438 L 149.890625 36.726562 L 172.605469 56.40625 L 164.144531 27.554688 L 177.527344 23.632812 L 185.988281 52.484375 L 194.464844 23.632812 L 207.847656 27.554688 L 199.367188 56.40625 L 222.082031 36.726562 L 231.214844 47.273438 L 208.5 66.957031 L 238.261719 62.671875 L 240.238281 76.488281 L 239.785156 76.5625 L 210.480469 80.773438 L 237.824219 93.265625 L 232.03125 105.957031 L 204.6875 93.464844 L 220.9375 118.757812 L 209.210938 126.292969 L 208.972656 125.910156 L 192.960938 101 L 192.960938 131.050781 Z M 179.921875 130.140625 L 192.050781 130.140625 L 192.050781 97.894531 L 209.480469 125.019531 L 219.6875 118.464844 L 202.253906 91.339844 L 231.597656 104.742188 L 236.644531 93.699219 L 207.320312 80.300781 L 239.242188 75.707031 L 237.515625 63.6875 L 205.597656 68.28125 L 229.960938 47.164062 L 222.011719 37.996094 L 197.644531 59.113281 L 206.722656 28.175781 L 195.082031 24.761719 L 186.003906 55.699219 L 176.925781 24.761719 L 165.269531 28.175781 L 174.347656 59.113281 L 149.984375 37.996094 L 142.03125 47.164062 L 166.394531 68.28125 L 134.476562 63.6875 L 132.753906 75.691406 L 164.671875 80.285156 L 135.347656 93.683594 L 140.394531 104.722656 L 169.738281 91.324219 L 152.308594 118.449219 L 162.511719 125.003906 L 179.941406 97.878906 L 179.941406 130.140625 Z M 179.921875 130.140625 " fill-opacity="1" fill-rule="nonzero"/></g><g fill="#000000" fill-opacity="1"><g transform="translate(72.684436, 206.744713)"><g><path d="M 24.34375 -26.5 C 26.789062 -26.03125 28.796875 -24.953125 30.359375 -23.265625 C 31.929688 -21.585938 32.71875 -19.664062 32.71875 -17.5 C 32.71875 -15.789062 32.234375 -14.234375 31.265625 -12.828125 C 30.296875 -11.421875 28.992188 -10.289062 27.359375 -9.4375 C 25.722656 -8.582031 23.890625 -8.15625 21.859375 -8.15625 L 0.6875 -8.15625 C 0.363281 -8.15625 0.15625 -8.328125 0.0625 -8.671875 C -0.0195312 -9.023438 0.0976562 -9.335938 0.421875 -9.609375 C 1.617188 -10.535156 2.390625 -11.425781 2.734375 -12.28125 C 3.078125 -13.132812 3.25 -14.207031 3.25 -15.5 L 3.25 -36.109375 C 3.25 -37.347656 3.078125 -38.414062 2.734375 -39.3125 C 2.390625 -40.21875 1.617188 -41.109375 0.421875 -41.984375 C 0.0976562 -42.265625 -0.0195312 -42.566406 0.0625 -42.890625 C 0.15625 -43.210938 0.363281 -43.375 0.6875 -43.375 L 18.671875 -43.375 C 20.429688 -43.375 22.09375 -42.957031 23.65625 -42.125 C 25.226562 -41.289062 26.507812 -40.171875 27.5 -38.765625 C 28.488281 -37.359375 28.984375 -35.804688 28.984375 -34.109375 C 28.984375 -32.535156 28.546875 -31.09375 27.671875 -29.78125 C 26.796875 -28.46875 25.6875 -27.375 24.34375 -26.5 Z M 15.15625 -10.09375 C 16.53125 -10.09375 17.804688 -10.425781 18.984375 -11.09375 C 20.160156 -11.769531 21.09375 -12.671875 21.78125 -13.796875 C 22.476562 -14.929688 22.828125 -16.164062 22.828125 -17.5 C 22.828125 -18.832031 22.476562 -20.050781 21.78125 -21.15625 C 21.09375 -22.269531 20.160156 -23.160156 18.984375 -23.828125 C 17.804688 -24.492188 16.53125 -24.828125 15.15625 -24.828125 L 12.9375 -24.828125 C 12.976562 -22.617188 13.054688 -20.28125 13.171875 -17.8125 C 13.285156 -15.34375 13.503906 -12.769531 13.828125 -10.09375 Z M 19.921875 -34.109375 C 19.921875 -36.035156 19.363281 -37.703125 18.25 -39.109375 C 17.144531 -40.515625 15.648438 -41.289062 13.765625 -41.4375 C 13.628906 -40.144531 13.46875 -38.226562 13.28125 -35.6875 C 13.09375 -33.15625 12.976562 -30.179688 12.9375 -26.765625 L 13.21875 -26.765625 C 15.238281 -26.765625 16.859375 -27.488281 18.078125 -28.9375 C 19.304688 -30.394531 19.921875 -32.117188 19.921875 -34.109375 Z M 19.921875 -34.109375 "/></g></g></g><g fill="#000000" fill-opacity="1"><g transform="translate(106.782105, 206.744713)"><g><path d="M 14.1875 -8.15625 L 0.6875 -8.15625 C 0.363281 -8.15625 0.15625 -8.328125 0.0625 -8.671875 C -0.0195312 -9.023438 0.0976562 -9.335938 0.421875 -9.609375 C 1.617188 -10.535156 2.390625 -11.425781 2.734375 -12.28125 C 3.078125 -13.132812 3.25 -14.207031 3.25 -15.5 L 3.25 -21.3125 C 3.25 -22.59375 3.078125 -23.671875 2.734375 -24.546875 C 2.390625 -25.429688 1.617188 -26.332031 0.421875 -27.25 C 0.0976562 -27.53125 -0.0195312 -27.832031 0.0625 -28.15625 C 0.15625 -28.476562 0.363281 -28.640625 0.6875 -28.640625 C 2.351562 -28.640625 3.796875 -28.867188 5.015625 -29.328125 C 6.234375 -29.785156 7.300781 -30.328125 8.21875 -30.953125 C 9.144531 -31.578125 9.96875 -32.15625 10.6875 -32.6875 C 11.40625 -33.21875 12.085938 -33.550781 12.734375 -33.6875 C 13.460938 -33.820312 13.769531 -33.679688 13.65625 -33.265625 C 13.539062 -32.859375 13.4375 -32.421875 13.34375 -31.953125 C 12.425781 -25.816406 12.128906 -20.847656 12.453125 -17.046875 C 12.773438 -13.242188 13.582031 -10.859375 14.875 -9.890625 C 15.238281 -9.609375 15.394531 -9.25 15.34375 -8.8125 C 15.300781 -8.375 14.914062 -8.15625 14.1875 -8.15625 Z M 5.1875 -33.265625 C 3.800781 -33.265625 2.71875 -33.757812 1.9375 -34.75 C 1.15625 -35.75 0.925781 -36.941406 1.25 -38.328125 C 1.570312 -39.753906 2.332031 -40.953125 3.53125 -41.921875 C 4.726562 -42.890625 6.039062 -43.375 7.46875 -43.375 C 8.851562 -43.375 9.9375 -42.890625 10.71875 -41.921875 C 11.5 -40.953125 11.726562 -39.753906 11.40625 -38.328125 C 11.082031 -36.941406 10.320312 -35.75 9.125 -34.75 C 7.925781 -33.757812 6.613281 -33.265625 5.1875 -33.265625 Z M 5.1875 -33.265625 "/></g></g></g><g fill="#000000" fill-opacity="1"><g transform="translate(123.865519, 206.744713)"><g><path d="M 21.03125 -33.75 C 22.363281 -33.75 23.734375 -33.390625 25.140625 -32.671875 C 26.546875 -31.960938 27.390625 -30.867188 27.671875 -29.390625 C 27.941406 -28.054688 27.765625 -26.925781 27.140625 -26 C 26.523438 -25.082031 25.695312 -24.367188 24.65625 -23.859375 C 23.625 -23.359375 22.578125 -23.082031 21.515625 -23.03125 C 20.453125 -22.988281 19.585938 -23.21875 18.921875 -23.71875 C 18.253906 -24.226562 17.988281 -25.015625 18.125 -26.078125 C 18.257812 -26.859375 18.394531 -27.535156 18.53125 -28.109375 C 18.675781 -28.691406 18.425781 -28.984375 17.78125 -28.984375 C 16.945312 -28.984375 16.007812 -28.453125 14.96875 -27.390625 C 13.9375 -26.328125 13.097656 -25.175781 12.453125 -23.9375 C 12.222656 -20.101562 12.328125 -16.988281 12.765625 -14.59375 C 13.203125 -12.195312 13.90625 -10.628906 14.875 -9.890625 C 15.238281 -9.609375 15.394531 -9.25 15.34375 -8.8125 C 15.300781 -8.375 14.914062 -8.15625 14.1875 -8.15625 L 0.6875 -8.15625 C 0.363281 -8.15625 0.15625 -8.328125 0.0625 -8.671875 C -0.0195312 -9.023438 0.0976562 -9.335938 0.421875 -9.609375 C 1.617188 -10.535156 2.390625 -11.425781 2.734375 -12.28125 C 3.078125 -13.132812 3.25 -14.207031 3.25 -15.5 L 3.25 -21.3125 C 3.25 -22.59375 3.078125 -23.671875 2.734375 -24.546875 C 2.390625 -25.429688 1.617188 -26.332031 0.421875 -27.25 C 0.0976562 -27.53125 -0.0195312 -27.832031 0.0625 -28.15625 C 0.15625 -28.476562 0.363281 -28.640625 0.6875 -28.640625 C 2.351562 -28.640625 3.796875 -28.867188 5.015625 -29.328125 C 6.234375 -29.785156 7.300781 -30.328125 8.21875 -30.953125 C 9.144531 -31.578125 9.96875 -32.15625 10.6875 -32.6875 C 11.40625 -33.21875 12.085938 -33.550781 12.734375 -33.6875 C 13.460938 -33.820312 13.769531 -33.679688 13.65625 -33.265625 C 13.539062 -32.859375 13.4375 -32.421875 13.34375 -31.953125 L 12.796875 -27.46875 C 13.347656 -28.25 14.035156 -29.132812 14.859375 -30.125 C 15.691406 -31.113281 16.640625 -31.960938 17.703125 -32.671875 C 18.765625 -33.390625 19.875 -33.75 21.03125 -33.75 Z M 21.03125 -33.75 "/></g></g></g><g fill="#000000" fill-opacity="1"><g transform="translate(152.84507, 206.744713)"><g><path d="M 17.015625 -30.71875 C 17.472656 -30.71875 17.78125 -30.554688 17.9375 -30.234375 C 18.101562 -29.910156 18.1875 -29.515625 18.1875 -29.046875 C 18.1875 -28.585938 18.101562 -28.195312 17.9375 -27.875 C 17.78125 -27.550781 17.472656 -27.390625 17.015625 -27.390625 L 13.625 -27.390625 C 13.488281 -24.441406 13.523438 -21.722656 13.734375 -19.234375 C 13.941406 -16.742188 14.273438 -14.691406 14.734375 -13.078125 C 15.191406 -11.460938 15.722656 -10.398438 16.328125 -9.890625 C 16.691406 -9.609375 16.847656 -9.25 16.796875 -8.8125 C 16.753906 -8.375 16.34375 -8.15625 15.5625 -8.15625 L 1.59375 -8.15625 C 1.132812 -8.15625 0.90625 -8.363281 0.90625 -8.78125 C 0.90625 -9.195312 1.066406 -9.566406 1.390625 -9.890625 C 2.171875 -10.628906 2.707031 -11.617188 3 -12.859375 C 3.300781 -14.109375 3.472656 -15.398438 3.515625 -16.734375 C 3.566406 -18.078125 3.59375 -19.234375 3.59375 -20.203125 C 3.59375 -21.117188 3.566406 -22.253906 3.515625 -23.609375 C 3.472656 -24.972656 3.203125 -26.234375 2.703125 -27.390625 L 1.171875 -27.390625 C 0.710938 -27.390625 0.398438 -27.550781 0.234375 -27.875 C 0.078125 -28.195312 0 -28.585938 0 -29.046875 C 0 -29.515625 0.078125 -29.910156 0.234375 -30.234375 C 0.398438 -30.554688 0.710938 -30.71875 1.171875 -30.71875 L 1.59375 -30.71875 C 3.25 -30.71875 4.628906 -31.097656 5.734375 -31.859375 C 6.847656 -32.617188 7.785156 -33.515625 8.546875 -34.546875 C 9.304688 -35.585938 10.019531 -36.554688 10.6875 -37.453125 C 11.351562 -38.359375 12.101562 -38.945312 12.9375 -39.21875 C 13.625 -39.5 14.128906 -39.441406 14.453125 -39.046875 C 14.773438 -38.648438 14.890625 -38.222656 14.796875 -37.765625 C 14.617188 -36.566406 14.4375 -35.378906 14.25 -34.203125 C 14.0625 -33.023438 13.921875 -31.863281 13.828125 -30.71875 Z M 17.015625 -30.71875 "/></g></g></g><g fill="#000000" fill-opacity="1"><g transform="translate(172.280047, 206.744713)"><g><path d="M 33.828125 -9.609375 C 34.191406 -9.335938 34.335938 -9.023438 34.265625 -8.671875 C 34.203125 -8.328125 33.988281 -8.15625 33.625 -8.15625 L 19.859375 -8.15625 C 19.117188 -8.15625 18.722656 -8.363281 18.671875 -8.78125 C 18.628906 -9.195312 18.769531 -9.566406 19.09375 -9.890625 C 20.007812 -10.671875 20.664062 -11.890625 21.0625 -13.546875 C 21.457031 -15.210938 21.628906 -17.023438 21.578125 -18.984375 C 21.535156 -20.941406 21.316406 -22.820312 20.921875 -24.625 C 20.535156 -26.425781 19.984375 -27.910156 19.265625 -29.078125 C 18.546875 -30.253906 17.703125 -30.84375 16.734375 -30.84375 C 16.140625 -30.84375 15.425781 -30.472656 14.59375 -29.734375 C 13.757812 -29.003906 13.019531 -27.96875 12.375 -26.625 C 12.375 -23.863281 12.488281 -21.28125 12.71875 -18.875 C 12.957031 -16.476562 13.28125 -14.484375 13.6875 -12.890625 C 14.101562 -11.304688 14.59375 -10.304688 15.15625 -9.890625 C 15.519531 -9.609375 15.675781 -9.25 15.625 -8.8125 C 15.582031 -8.375 15.171875 -8.15625 14.390625 -8.15625 L 0.6875 -8.15625 C 0.363281 -8.15625 0.15625 -8.328125 0.0625 -8.671875 C -0.0195312 -9.023438 0.0976562 -9.335938 0.421875 -9.609375 C 1.617188 -10.535156 2.390625 -11.425781 2.734375 -12.28125 C 3.078125 -13.132812 3.25 -14.207031 3.25 -15.5 L 3.25 -31.0625 C 3.25 -32.351562 3.078125 -33.4375 2.734375 -34.3125 C 2.390625 -35.1875 1.617188 -36.0625 0.421875 -36.9375 C 0.0976562 -37.21875 -0.0195312 -37.519531 0.0625 -37.84375 C 0.15625 -38.164062 0.363281 -38.328125 0.6875 -38.328125 C 2.351562 -38.328125 3.804688 -38.554688 5.046875 -39.015625 C 6.296875 -39.472656 7.390625 -40.023438 8.328125 -40.671875 C 9.273438 -41.316406 10.117188 -41.890625 10.859375 -42.390625 C 11.597656 -42.898438 12.289062 -43.226562 12.9375 -43.375 C 13.675781 -43.550781 14 -43.421875 13.90625 -42.984375 C 13.8125 -42.546875 13.71875 -42.097656 13.625 -41.640625 C 13.300781 -39.796875 13.046875 -37.914062 12.859375 -36 C 12.679688 -34.09375 12.546875 -32.191406 12.453125 -30.296875 C 13.234375 -31.265625 14.140625 -32.082031 15.171875 -32.75 C 16.210938 -33.414062 17.40625 -33.75 18.75 -33.75 C 21.28125 -33.75 23.457031 -33.140625 25.28125 -31.921875 C 27.101562 -30.703125 28.507812 -29.050781 29.5 -26.96875 C 30.488281 -24.894531 30.984375 -22.59375 30.984375 -20.0625 L 30.984375 -15.5 C 30.984375 -14.207031 31.164062 -13.132812 31.53125 -12.28125 C 31.90625 -11.425781 32.671875 -10.535156 33.828125 -9.609375 Z M 33.828125 -9.609375 "/></g></g></g><g fill="#000000" fill-opacity="1"><g transform="translate(208.17597, 206.744713)"><g><path d="M 30.640625 -9.609375 C 31.015625 -9.335938 31.164062 -9.023438 31.09375 -8.671875 C 31.019531 -8.328125 30.800781 -8.15625 30.4375 -8.15625 L 13.828125 -8.15625 C 11.296875 -8.15625 8.976562 -8.734375 6.875 -9.890625 C 4.78125 -11.046875 3.109375 -12.59375 1.859375 -14.53125 C 0.617188 -16.46875 0 -18.609375 0 -20.953125 C 0 -23.304688 0.617188 -25.453125 1.859375 -27.390625 C 3.109375 -29.328125 4.78125 -30.867188 6.875 -32.015625 C 8.976562 -33.171875 11.296875 -33.75 13.828125 -33.75 C 15.304688 -33.75 16.691406 -33.546875 17.984375 -33.140625 C 17.566406 -34.929688 16.875 -36.195312 15.90625 -36.9375 C 15.539062 -37.21875 15.40625 -37.519531 15.5 -37.84375 C 15.59375 -38.164062 15.796875 -38.328125 16.109375 -38.328125 C 17.773438 -38.328125 19.226562 -38.554688 20.46875 -39.015625 C 21.71875 -39.472656 22.8125 -40.023438 23.75 -40.671875 C 24.695312 -41.316406 25.550781 -41.890625 26.3125 -42.390625 C 27.082031 -42.898438 27.785156 -43.226562 28.421875 -43.375 C 29.160156 -43.550781 29.484375 -43.421875 29.390625 -42.984375 C 29.304688 -42.546875 29.21875 -42.097656 29.125 -41.640625 C 28.800781 -39.929688 28.546875 -38.46875 28.359375 -37.25 C 28.171875 -36.03125 28.03125 -34.84375 27.9375 -33.6875 C 27.851562 -32.53125 27.8125 -31.191406 27.8125 -29.671875 L 27.8125 -15.5 C 27.8125 -14.207031 27.992188 -13.132812 28.359375 -12.28125 C 28.722656 -11.425781 29.484375 -10.535156 30.640625 -9.609375 Z M 9.828125 -20.953125 C 9.828125 -18.972656 10.007812 -17.164062 10.375 -15.53125 C 10.738281 -13.894531 11.222656 -12.578125 11.828125 -11.578125 C 12.429688 -10.585938 13.097656 -10.09375 13.828125 -10.09375 C 14.566406 -10.09375 15.222656 -10.585938 15.796875 -11.578125 C 16.378906 -12.578125 16.851562 -13.894531 17.21875 -15.53125 C 17.59375 -17.164062 17.78125 -18.972656 17.78125 -20.953125 C 17.78125 -22.984375 17.59375 -24.816406 17.21875 -26.453125 C 16.851562 -28.085938 16.378906 -29.390625 15.796875 -30.359375 C 15.222656 -31.328125 14.566406 -31.8125 13.828125 -31.8125 C 13.097656 -31.8125 12.429688 -31.328125 11.828125 -30.359375 C 11.222656 -29.390625 10.738281 -28.085938 10.375 -26.453125 C 10.007812 -24.816406 9.828125 -22.984375 9.828125 -20.953125 Z M 9.828125 -20.953125 "/></g></g></g><g fill="#000000" fill-opacity="1"><g transform="translate(241.028679, 206.744713)"><g><path d="M 27.734375 -9.609375 C 28.109375 -9.335938 28.25 -9.023438 28.15625 -8.671875 C 28.0625 -8.328125 27.832031 -8.15625 27.46875 -8.15625 L 20.40625 -8.15625 C 19.15625 -8.15625 18.148438 -8.429688 17.390625 -8.984375 C 16.628906 -9.546875 16.078125 -10.101562 15.734375 -10.65625 C 15.390625 -11.207031 15.21875 -11.484375 15.21875 -11.484375 C 14.476562 -10.460938 13.507812 -9.648438 12.3125 -9.046875 C 11.113281 -8.453125 9.820312 -8.15625 8.4375 -8.15625 C 6.914062 -8.15625 5.507812 -8.523438 4.21875 -9.265625 C 2.925781 -10.003906 1.898438 -10.992188 1.140625 -12.234375 C 0.378906 -13.484375 0 -14.847656 0 -16.328125 C 0 -17.847656 0.378906 -19.21875 1.140625 -20.4375 C 1.898438 -21.65625 2.925781 -22.632812 4.21875 -23.375 C 5.507812 -24.113281 6.914062 -24.484375 8.4375 -24.484375 C 9.820312 -24.484375 11.113281 -24.179688 12.3125 -23.578125 C 13.507812 -22.984375 14.476562 -22.179688 15.21875 -21.171875 L 15.21875 -23.234375 C 15.21875 -24.578125 15.054688 -25.90625 14.734375 -27.21875 C 14.410156 -28.53125 13.945312 -29.625 13.34375 -30.5 C 12.75 -31.375 12.035156 -31.8125 11.203125 -31.8125 C 10.691406 -31.8125 10.425781 -31.46875 10.40625 -30.78125 C 10.382812 -30.09375 10.582031 -29.285156 11 -28.359375 C 11.269531 -27.671875 11.148438 -27.082031 10.640625 -26.59375 C 10.140625 -26.113281 9.425781 -25.742188 8.5 -25.484375 C 7.582031 -25.234375 6.628906 -25.128906 5.640625 -25.171875 C 4.648438 -25.222656 3.804688 -25.441406 3.109375 -25.828125 C 2.421875 -26.222656 2.078125 -26.8125 2.078125 -27.59375 C 2.078125 -29.070312 2.914062 -30.46875 4.59375 -31.78125 C 6.28125 -33.09375 8.710938 -33.75 11.890625 -33.75 C 14.390625 -33.75 16.617188 -33.21875 18.578125 -32.15625 C 20.535156 -31.101562 22.078125 -29.628906 23.203125 -27.734375 C 24.335938 -25.847656 24.90625 -23.660156 24.90625 -21.171875 L 24.90625 -15.5 C 24.90625 -14.207031 25.078125 -13.132812 25.421875 -12.28125 C 25.765625 -11.425781 26.535156 -10.535156 27.734375 -9.609375 Z M 11.484375 -11.890625 C 12.453125 -11.890625 13.269531 -12.328125 13.9375 -13.203125 C 14.601562 -14.085938 14.9375 -15.128906 14.9375 -16.328125 C 14.9375 -17.523438 14.601562 -18.5625 13.9375 -19.4375 C 13.269531 -20.3125 12.453125 -20.75 11.484375 -20.75 C 10.554688 -20.75 9.757812 -20.3125 9.09375 -19.4375 C 8.425781 -18.5625 8.09375 -17.523438 8.09375 -16.328125 C 8.09375 -15.128906 8.425781 -14.085938 9.09375 -13.203125 C 9.757812 -12.328125 10.554688 -11.890625 11.484375 -11.890625 Z M 11.484375 -11.890625 "/></g></g></g><g fill="#000000" fill-opacity="1"><g transform="translate(270.699878, 206.744713)"><g><path d="M 29.671875 -33.75 C 30.085938 -33.75 30.269531 -33.578125 30.21875 -33.234375 C 30.175781 -32.890625 29.925781 -32.578125 29.46875 -32.296875 C 28.269531 -31.609375 27.414062 -30.78125 26.90625 -29.8125 C 26.394531 -28.84375 25.9375 -27.710938 25.53125 -26.421875 L 21.375 -12.9375 L 18.40625 -3.390625 C 17.289062 -0.0234375 16.019531 2.566406 14.59375 4.390625 C 13.164062 6.210938 11.710938 7.476562 10.234375 8.1875 C 8.765625 8.90625 7.359375 9.265625 6.015625 9.265625 C 4.128906 9.265625 2.539062 8.859375 1.25 8.046875 C -0.0390625 7.242188 -1.007812 6.21875 -1.65625 4.96875 C -2.300781 3.726562 -2.597656 2.4375 -2.546875 1.09375 C -2.503906 -0.238281 -2.09375 -1.429688 -1.3125 -2.484375 C -0.34375 -3.734375 0.796875 -4.578125 2.109375 -5.015625 C 3.421875 -5.453125 4.675781 -5.554688 5.875 -5.328125 C 7.070312 -5.097656 8.015625 -4.546875 8.703125 -3.671875 C 9.398438 -2.796875 9.585938 -1.664062 9.265625 -0.28125 C 8.941406 1.195312 8.988281 2.234375 9.40625 2.828125 C 9.820312 3.429688 10.46875 3.523438 11.34375 3.109375 C 12.21875 2.691406 13.1875 1.734375 14.25 0.234375 C 15.3125 -1.253906 16.300781 -3.316406 17.21875 -5.953125 L 17.984375 -8.15625 L 13.625 -8.15625 C 12.238281 -8.15625 11.328125 -8.429688 10.890625 -8.984375 C 10.453125 -9.546875 10.050781 -10.425781 9.6875 -11.625 L 6.984375 -20.125 C 6.148438 -22.894531 5.390625 -25.070312 4.703125 -26.65625 C 4.015625 -28.25 3.359375 -29.445312 2.734375 -30.25 C 2.109375 -31.0625 1.472656 -31.65625 0.828125 -32.03125 C 0.367188 -32.300781 0.101562 -32.65625 0.03125 -33.09375 C -0.03125 -33.53125 0.300781 -33.75 1.03125 -33.75 L 16.109375 -33.75 C 16.484375 -33.75 16.738281 -33.597656 16.875 -33.296875 C 17.007812 -33.003906 16.988281 -32.671875 16.8125 -32.296875 C 16.113281 -30.773438 15.726562 -29.160156 15.65625 -27.453125 C 15.59375 -25.753906 15.734375 -24.097656 16.078125 -22.484375 C 16.421875 -20.867188 16.832031 -19.390625 17.3125 -18.046875 C 17.800781 -16.710938 18.253906 -15.628906 18.671875 -14.796875 C 19.085938 -13.972656 19.320312 -13.488281 19.375 -13.34375 L 19.5 -13.140625 L 19.640625 -13.765625 C 19.640625 -13.765625 19.765625 -14.296875 20.015625 -15.359375 C 20.273438 -16.421875 20.566406 -17.757812 20.890625 -19.375 C 21.210938 -20.988281 21.488281 -22.660156 21.71875 -24.390625 C 21.945312 -26.117188 22.015625 -27.707031 21.921875 -29.15625 C 21.835938 -30.601562 21.515625 -31.648438 20.953125 -32.296875 C 20.722656 -32.617188 20.664062 -32.941406 20.78125 -33.265625 C 20.894531 -33.585938 21.1875 -33.75 21.65625 -33.75 Z M 29.671875 -33.75 "/></g></g></g><g fill="#000000" fill-opacity="1"><g transform="translate(117.796312, 256.523335)"><g><path d="M 38.25 -36.109375 L 38.25 -15.5 C 38.25 -14.207031 38.429688 -13.132812 38.796875 -12.28125 C 39.171875 -11.425781 39.9375 -10.535156 41.09375 -9.609375 C 41.457031 -9.335938 41.601562 -9.023438 41.53125 -8.671875 C 41.46875 -8.328125 41.25 -8.15625 40.875 -8.15625 L 26.5 -8.15625 C 25.757812 -8.15625 25.363281 -8.375 25.3125 -8.8125 C 25.269531 -9.25 25.410156 -9.609375 25.734375 -9.890625 C 26.378906 -10.398438 26.882812 -11.265625 27.25 -12.484375 C 27.625 -13.703125 27.898438 -15.117188 28.078125 -16.734375 C 28.265625 -18.347656 28.390625 -19.960938 28.453125 -21.578125 C 28.523438 -23.191406 28.5625 -24.597656 28.5625 -25.796875 C 28.5625 -27.316406 28.515625 -29.140625 28.421875 -31.265625 C 28.335938 -33.390625 28.109375 -35.328125 27.734375 -37.078125 L 21.65625 -19.859375 L 18.125 -9.953125 C 17.664062 -8.753906 17.113281 -8.15625 16.46875 -8.15625 C 15.820312 -8.15625 15.289062 -8.78125 14.875 -10.03125 L 5.1875 -37.21875 L 5.1875 -13.828125 C 5.1875 -13.003906 5.253906 -12.394531 5.390625 -12 C 5.535156 -11.601562 5.8125 -11.253906 6.21875 -10.953125 C 6.632812 -10.660156 7.238281 -10.210938 8.03125 -9.609375 C 8.394531 -9.335938 8.539062 -9.023438 8.46875 -8.671875 C 8.40625 -8.328125 8.1875 -8.15625 7.8125 -8.15625 L 0.6875 -8.15625 C 0.363281 -8.15625 0.15625 -8.328125 0.0625 -8.671875 C -0.0195312 -9.023438 0.0976562 -9.335938 0.421875 -9.609375 C 1.242188 -10.210938 1.851562 -10.660156 2.25 -10.953125 C 2.644531 -11.253906 2.910156 -11.601562 3.046875 -12 C 3.179688 -12.394531 3.25 -13.003906 3.25 -13.828125 L 3.25 -37.765625 C 3.25 -38.640625 3.179688 -39.257812 3.046875 -39.625 C 2.910156 -40 2.644531 -40.335938 2.25 -40.640625 C 1.851562 -40.941406 1.242188 -41.390625 0.421875 -41.984375 C 0.0976562 -42.265625 -0.0195312 -42.566406 0.0625 -42.890625 C 0.15625 -43.210938 0.363281 -43.375 0.6875 -43.375 L 9.203125 -43.375 C 10.671875 -43.375 11.804688 -43.109375 12.609375 -42.578125 C 13.421875 -42.046875 14.0625 -41.113281 14.53125 -39.78125 L 20.609375 -22.75 L 26.625 -39.703125 C 27.132812 -41.085938 27.742188 -42.046875 28.453125 -42.578125 C 29.171875 -43.109375 30.128906 -43.375 31.328125 -43.375 L 40.875 -43.375 C 41.25 -43.375 41.46875 -43.210938 41.53125 -42.890625 C 41.601562 -42.566406 41.457031 -42.265625 41.09375 -41.984375 C 39.9375 -41.109375 39.171875 -40.21875 38.796875 -39.3125 C 38.429688 -38.414062 38.25 -37.347656 38.25 -36.109375 Z M 38.25 -36.109375 "/></g></g></g><g fill="#000000" fill-opacity="1"><g transform="translate(160.746924, 256.523335)"><g><path d="M 14.1875 -8.15625 L 0.6875 -8.15625 C 0.363281 -8.15625 0.15625 -8.328125 0.0625 -8.671875 C -0.0195312 -9.023438 0.0976562 -9.335938 0.421875 -9.609375 C 1.617188 -10.535156 2.390625 -11.425781 2.734375 -12.28125 C 3.078125 -13.132812 3.25 -14.207031 3.25 -15.5 L 3.25 -21.3125 C 3.25 -22.59375 3.078125 -23.671875 2.734375 -24.546875 C 2.390625 -25.429688 1.617188 -26.332031 0.421875 -27.25 C 0.0976562 -27.53125 -0.0195312 -27.832031 0.0625 -28.15625 C 0.15625 -28.476562 0.363281 -28.640625 0.6875 -28.640625 C 2.351562 -28.640625 3.796875 -28.867188 5.015625 -29.328125 C 6.234375 -29.785156 7.300781 -30.328125 8.21875 -30.953125 C 9.144531 -31.578125 9.96875 -32.15625 10.6875 -32.6875 C 11.40625 -33.21875 12.085938 -33.550781 12.734375 -33.6875 C 13.460938 -33.820312 13.769531 -33.679688 13.65625 -33.265625 C 13.539062 -32.859375 13.4375 -32.421875 13.34375 -31.953125 C 12.425781 -25.816406 12.128906 -20.847656 12.453125 -17.046875 C 12.773438 -13.242188 13.582031 -10.859375 14.875 -9.890625 C 15.238281 -9.609375 15.394531 -9.25 15.34375 -8.8125 C 15.300781 -8.375 14.914062 -8.15625 14.1875 -8.15625 Z M 5.1875 -33.265625 C 3.800781 -33.265625 2.71875 -33.757812 1.9375 -34.75 C 1.15625 -35.75 0.925781 -36.941406 1.25 -38.328125 C 1.570312 -39.753906 2.332031 -40.953125 3.53125 -41.921875 C 4.726562 -42.890625 6.039062 -43.375 7.46875 -43.375 C 8.851562 -43.375 9.9375 -42.890625 10.71875 -41.921875 C 11.5 -40.953125 11.726562 -39.753906 11.40625 -38.328125 C 11.082031 -36.941406 10.320312 -35.75 9.125 -34.75 C 7.925781 -33.757812 6.613281 -33.265625 5.1875 -33.265625 Z M 5.1875 -33.265625 "/></g></g></g><g fill="#000000" fill-opacity="1"><g transform="translate(177.830339, 256.523335)"><g><path d="M 15.15625 -9.890625 C 15.519531 -9.609375 15.675781 -9.25 15.625 -8.8125 C 15.582031 -8.375 15.171875 -8.15625 14.390625 -8.15625 L 0.6875 -8.15625 C 0.363281 -8.15625 0.15625 -8.328125 0.0625 -8.671875 C -0.0195312 -9.023438 0.0976562 -9.335938 0.421875 -9.609375 C 1.617188 -10.535156 2.390625 -11.425781 2.734375 -12.28125 C 3.078125 -13.132812 3.25 -14.207031 3.25 -15.5 L 3.25 -31.0625 C 3.25 -32.351562 3.078125 -33.4375 2.734375 -34.3125 C 2.390625 -35.1875 1.617188 -36.0625 0.421875 -36.9375 C 0.0976562 -37.21875 -0.0195312 -37.519531 0.0625 -37.84375 C 0.15625 -38.164062 0.363281 -38.328125 0.6875 -38.328125 C 2.351562 -38.328125 3.804688 -38.554688 5.046875 -39.015625 C 6.296875 -39.472656 7.390625 -40.023438 8.328125 -40.671875 C 9.273438 -41.316406 10.117188 -41.890625 10.859375 -42.390625 C 11.597656 -42.898438 12.289062 -43.226562 12.9375 -43.375 C 13.675781 -43.550781 14 -43.421875 13.90625 -42.984375 C 13.8125 -42.546875 13.71875 -42.097656 13.625 -41.640625 C 13.03125 -38.316406 12.648438 -34.898438 12.484375 -31.390625 C 12.328125 -27.890625 12.335938 -24.59375 12.515625 -21.5 C 12.703125 -18.414062 13.023438 -15.835938 13.484375 -13.765625 C 13.953125 -11.691406 14.507812 -10.398438 15.15625 -9.890625 Z M 15.15625 -9.890625 "/></g></g></g><g fill="#000000" fill-opacity="1"><g transform="translate(194.637097, 256.523335)"><g><path d="M 30.640625 -9.609375 C 31.015625 -9.335938 31.164062 -9.023438 31.09375 -8.671875 C 31.019531 -8.328125 30.800781 -8.15625 30.4375 -8.15625 L 13.828125 -8.15625 C 11.296875 -8.15625 8.976562 -8.734375 6.875 -9.890625 C 4.78125 -11.046875 3.109375 -12.59375 1.859375 -14.53125 C 0.617188 -16.46875 0 -18.609375 0 -20.953125 C 0 -23.304688 0.617188 -25.453125 1.859375 -27.390625 C 3.109375 -29.328125 4.78125 -30.867188 6.875 -32.015625 C 8.976562 -33.171875 11.296875 -33.75 13.828125 -33.75 C 15.304688 -33.75 16.691406 -33.546875 17.984375 -33.140625 C 17.566406 -34.929688 16.875 -36.195312 15.90625 -36.9375 C 15.539062 -37.21875 15.40625 -37.519531 15.5 -37.84375 C 15.59375 -38.164062 15.796875 -38.328125 16.109375 -38.328125 C 17.773438 -38.328125 19.226562 -38.554688 20.46875 -39.015625 C 21.71875 -39.472656 22.8125 -40.023438 23.75 -40.671875 C 24.695312 -41.316406 25.550781 -41.890625 26.3125 -42.390625 C 27.082031 -42.898438 27.785156 -43.226562 28.421875 -43.375 C 29.160156 -43.550781 29.484375 -43.421875 29.390625 -42.984375 C 29.304688 -42.546875 29.21875 -42.097656 29.125 -41.640625 C 28.800781 -39.929688 28.546875 -38.46875 28.359375 -37.25 C 28.171875 -36.03125 28.03125 -34.84375 27.9375 -33.6875 C 27.851562 -32.53125 27.8125 -31.191406 27.8125 -29.671875 L 27.8125 -15.5 C 27.8125 -14.207031 27.992188 -13.132812 28.359375 -12.28125 C 28.722656 -11.425781 29.484375 -10.535156 30.640625 -9.609375 Z M 9.828125 -20.953125 C 9.828125 -18.972656 10.007812 -17.164062 10.375 -15.53125 C 10.738281 -13.894531 11.222656 -12.578125 11.828125 -11.578125 C 12.429688 -10.585938 13.097656 -10.09375 13.828125 -10.09375 C 14.566406 -10.09375 15.222656 -10.585938 15.796875 -11.578125 C 16.378906 -12.578125 16.851562 -13.894531 17.21875 -15.53125 C 17.59375 -17.164062 17.78125 -18.972656 17.78125 -20.953125 C 17.78125 -22.984375 17.59375 -24.816406 17.21875 -26.453125 C 16.851562 -28.085938 16.378906 -29.390625 15.796875 -30.359375 C 15.222656 -31.328125 14.566406 -31.8125 13.828125 -31.8125 C 13.097656 -31.8125 12.429688 -31.328125 11.828125 -30.359375 C 11.222656 -29.390625 10.738281 -28.085938 10.375 -26.453125 C 10.007812 -24.816406 9.828125 -22.984375 9.828125 -20.953125 Z M 9.828125 -20.953125 "/></g></g></g><g fill="#000000" fill-opacity="1"><g transform="translate(227.489807, 256.523335)"><g><path d="M 27.734375 -9.609375 C 28.109375 -9.335938 28.25 -9.023438 28.15625 -8.671875 C 28.0625 -8.328125 27.832031 -8.15625 27.46875 -8.15625 L 20.40625 -8.15625 C 19.15625 -8.15625 18.148438 -8.429688 17.390625 -8.984375 C 16.628906 -9.546875 16.078125 -10.101562 15.734375 -10.65625 C 15.390625 -11.207031 15.21875 -11.484375 15.21875 -11.484375 C 14.476562 -10.460938 13.507812 -9.648438 12.3125 -9.046875 C 11.113281 -8.453125 9.820312 -8.15625 8.4375 -8.15625 C 6.914062 -8.15625 5.507812 -8.523438 4.21875 -9.265625 C 2.925781 -10.003906 1.898438 -10.992188 1.140625 -12.234375 C 0.378906 -13.484375 0 -14.847656 0 -16.328125 C 0 -17.847656 0.378906 -19.21875 1.140625 -20.4375 C 1.898438 -21.65625 2.925781 -22.632812 4.21875 -23.375 C 5.507812 -24.113281 6.914062 -24.484375 8.4375 -24.484375 C 9.820312 -24.484375 11.113281 -24.179688 12.3125 -23.578125 C 13.507812 -22.984375 14.476562 -22.179688 15.21875 -21.171875 L 15.21875 -23.234375 C 15.21875 -24.578125 15.054688 -25.90625 14.734375 -27.21875 C 14.410156 -28.53125 13.945312 -29.625 13.34375 -30.5 C 12.75 -31.375 12.035156 -31.8125 11.203125 -31.8125 C 10.691406 -31.8125 10.425781 -31.46875 10.40625 -30.78125 C 10.382812 -30.09375 10.582031 -29.285156 11 -28.359375 C 11.269531 -27.671875 11.148438 -27.082031 10.640625 -26.59375 C 10.140625 -26.113281 9.425781 -25.742188 8.5 -25.484375 C 7.582031 -25.234375 6.628906 -25.128906 5.640625 -25.171875 C 4.648438 -25.222656 3.804688 -25.441406 3.109375 -25.828125 C 2.421875 -26.222656 2.078125 -26.8125 2.078125 -27.59375 C 2.078125 -29.070312 2.914062 -30.46875 4.59375 -31.78125 C 6.28125 -33.09375 8.710938 -33.75 11.890625 -33.75 C 14.390625 -33.75 16.617188 -33.21875 18.578125 -32.15625 C 20.535156 -31.101562 22.078125 -29.628906 23.203125 -27.734375 C 24.335938 -25.847656 24.90625 -23.660156 24.90625 -21.171875 L 24.90625 -15.5 C 24.90625 -14.207031 25.078125 -13.132812 25.421875 -12.28125 C 25.765625 -11.425781 26.535156 -10.535156 27.734375 -9.609375 Z M 11.484375 -11.890625 C 12.453125 -11.890625 13.269531 -12.328125 13.9375 -13.203125 C 14.601562 -14.085938 14.9375 -15.128906 14.9375 -16.328125 C 14.9375 -17.523438 14.601562 -18.5625 13.9375 -19.4375 C 13.269531 -20.3125 12.453125 -20.75 11.484375 -20.75 C 10.554688 -20.75 9.757812 -20.3125 9.09375 -19.4375 C 8.425781 -18.5625 8.09375 -17.523438 8.09375 -16.328125 C 8.09375 -15.128906 8.425781 -14.085938 9.09375 -13.203125 C 9.757812 -12.328125 10.554688 -11.890625 11.484375 -11.890625 Z M 11.484375 -11.890625 "/></g></g></g></svg>