<svg xmlns="http://www.w3.org/2000/svg" xmlns:xlink="http://www.w3.org/1999/xlink" width="500" zoomAndPan="magnify" viewBox="0 0 375 374.999991" height="500" preserveAspectRatio="xMidYMid meet" version="1.0"><defs><g/><clipPath id="9327be33e8"><path d="M 140 37.5 L 232 37.5 L 232 129 L 140 129 Z M 140 37.5 " clip-rule="nonzero"/></clipPath><clipPath id="fcc1723c4c"><path d="M 139 37.5 L 232 37.5 L 232 129 L 139 129 Z M 139 37.5 " clip-rule="nonzero"/></clipPath></defs><path fill="#701136" d="M 323.996094 128.8125 L 265.6875 128.8125 C 248.933594 104.835938 221.136719 89.152344 189.671875 89.152344 C 158.207031 89.152344 130.40625 104.855469 113.65625 128.8125 L 55.328125 128.8125 C 27.230469 128.8125 4.449219 175.859375 4.449219 233.878906 C 4.449219 291.914062 27.230469 338.945312 55.328125 338.945312 L 323.976562 338.945312 C 352.074219 338.945312 374.855469 291.894531 374.855469 233.878906 C 374.875 175.859375 352.09375 128.8125 323.996094 128.8125 Z M 323.996094 128.8125 " fill-opacity="1" fill-rule="nonzero"/><path fill="#f9b928" d="M 320.046875 119.339844 L 261.71875 119.339844 C 244.964844 95.367188 217.167969 79.683594 185.703125 79.683594 C 154.238281 79.683594 126.441406 95.367188 109.6875 119.339844 L 51.378906 119.339844 C 23.28125 119.339844 0.5 166.390625 0.5 224.40625 C 0.5 282.441406 23.28125 329.472656 51.378906 329.472656 L 320.027344 329.472656 C 348.125 329.472656 370.90625 282.425781 370.90625 224.40625 C 370.925781 166.390625 348.144531 119.339844 320.046875 119.339844 Z M 320.046875 119.339844 " fill-opacity="1" fill-rule="nonzero"/><path fill="#701136" d="M 320.046875 329.960938 L 51.378906 329.960938 C 23.074219 329.960938 0.03125 282.613281 0.03125 224.40625 C 0.03125 166.203125 23.074219 118.875 51.378906 118.875 L 109.441406 118.875 C 126.90625 94.039062 155.398438 79.214844 185.703125 79.214844 C 216.007812 79.214844 244.5 94.039062 261.964844 118.875 L 320.027344 118.875 C 348.351562 118.875 371.375 166.222656 371.375 224.40625 C 371.394531 282.613281 348.367188 329.960938 320.046875 329.960938 Z M 51.378906 119.808594 C 23.582031 119.808594 0.96875 166.726562 0.96875 224.40625 C 0.96875 282.085938 23.582031 329.007812 51.378906 329.007812 L 320.027344 329.007812 C 347.824219 329.007812 370.4375 282.085938 370.4375 224.40625 C 370.4375 166.726562 347.824219 119.808594 320.027344 119.808594 L 261.476562 119.808594 L 261.328125 119.601562 C 244.050781 94.898438 215.785156 80.152344 185.703125 80.152344 C 155.621094 80.152344 127.355469 94.898438 110.078125 119.601562 L 109.929688 119.808594 Z M 51.378906 119.808594 " fill-opacity="1" fill-rule="nonzero"/><path fill="#ffe5e1" d="M 316.921875 298.78125 L 54.503906 298.78125 C 48.308594 298.78125 43.273438 293.765625 43.273438 287.550781 L 43.273438 163.695312 C 43.273438 157.5 48.289062 152.464844 54.503906 152.464844 L 316.921875 152.464844 C 323.117188 152.464844 328.152344 157.480469 328.152344 163.695312 L 328.152344 287.550781 C 328.152344 293.765625 323.117188 298.78125 316.921875 298.78125 Z M 316.921875 298.78125 " fill-opacity="1" fill-rule="nonzero"/><path fill="#701136" d="M 316.921875 299.25 L 54.503906 299.25 C 48.0625 299.25 42.804688 294.007812 42.804688 287.550781 L 42.804688 163.695312 C 42.804688 157.257812 48.046875 152 54.503906 152 L 316.921875 152 C 323.359375 152 328.621094 157.238281 328.621094 163.695312 L 328.621094 287.550781 C 328.621094 294.007812 323.359375 299.25 316.921875 299.25 Z M 54.503906 152.953125 C 48.570312 152.953125 43.738281 157.78125 43.738281 163.714844 L 43.738281 287.570312 C 43.738281 293.503906 48.570312 298.332031 54.503906 298.332031 L 316.921875 298.332031 C 322.855469 298.332031 327.683594 293.503906 327.683594 287.570312 L 327.683594 163.695312 C 327.683594 157.761719 322.855469 152.933594 316.921875 152.933594 L 54.503906 152.933594 Z M 54.503906 152.953125 " fill-opacity="1" fill-rule="nonzero"/><g clip-path="url(#9327be33e8)"><path fill="#74cbf7" d="M 228.941406 69.089844 L 224.300781 59.097656 L 200.414062 70.214844 L 214.492188 47.941406 L 205.171875 42.046875 L 191.09375 64.320312 L 190.886719 37.96875 L 179.863281 38.0625 L 180.050781 64.394531 L 165.65625 42.347656 L 156.40625 48.375 L 170.820312 70.417969 L 146.769531 59.660156 L 142.257812 69.726562 L 166.308594 80.488281 L 140.253906 84.4375 L 141.902344 95.328125 L 167.957031 91.398438 L 148.171875 108.785156 L 155.453125 117.078125 L 175.238281 99.671875 L 168.015625 125.011719 L 178.609375 128.042969 L 185.851562 102.703125 L 193.453125 127.929688 L 204.027344 124.75 L 196.410156 99.523438 L 216.457031 116.628906 L 223.609375 108.242188 L 203.578125 91.136719 L 229.691406 94.691406 L 231.171875 83.765625 L 205.058594 80.207031 Z M 228.941406 69.089844 " fill-opacity="1" fill-rule="nonzero"/></g><g clip-path="url(#fcc1723c4c)"><path fill="#701136" d="M 178.945312 128.625 L 167.433594 125.328125 L 174.359375 101.074219 L 155.417969 117.730469 L 147.515625 108.75 L 166.460938 92.09375 L 141.527344 95.871094 L 139.730469 84.042969 L 164.664062 80.265625 L 141.640625 69.953125 L 146.523438 59.042969 L 169.546875 69.351562 L 155.773438 48.242188 L 165.785156 41.691406 L 179.582031 62.804688 L 179.394531 37.59375 L 191.355469 37.5 L 191.542969 62.710938 L 205.019531 41.394531 L 215.128906 47.792969 L 201.652344 69.109375 L 224.527344 58.460938 L 229.578125 69.316406 L 206.707031 79.964844 L 231.695312 83.371094 L 230.085938 95.21875 L 205.09375 91.8125 L 224.28125 108.1875 L 216.515625 117.28125 L 216.160156 116.984375 L 197.328125 100.90625 L 204.609375 125.050781 L 193.152344 128.511719 L 185.871094 104.367188 Z M 168.59375 124.695312 L 178.308594 127.464844 L 185.851562 101.054688 L 193.789062 127.351562 L 203.449219 124.429688 L 195.511719 98.136719 L 216.402344 115.972656 L 222.953125 108.300781 L 202.0625 90.464844 L 229.28125 94.167969 L 230.648438 84.175781 L 203.429688 80.46875 L 228.34375 68.867188 L 224.078125 59.714844 L 199.160156 71.316406 L 213.835938 48.09375 L 205.300781 42.703125 L 190.625 65.929688 L 190.421875 38.4375 L 180.332031 38.511719 L 180.535156 65.984375 L 165.503906 42.984375 L 157.042969 48.503906 L 172.074219 71.503906 L 146.992188 60.277344 L 142.875 69.484375 L 167.957031 80.714844 L 140.796875 84.832031 L 142.292969 94.804688 L 169.457031 90.6875 L 148.828125 108.824219 L 155.492188 116.402344 L 176.117188 98.269531 Z M 168.59375 124.695312 " fill-opacity="1" fill-rule="nonzero"/></g><g fill="#000000" fill-opacity="1"><g transform="translate(72.684436, 218.744787)"><g><path d="M 24.34375 -26.5 C 26.789062 -26.03125 28.796875 -24.953125 30.359375 -23.265625 C 31.929688 -21.585938 32.71875 -19.664062 32.71875 -17.5 C 32.71875 -15.789062 32.234375 -14.234375 31.265625 -12.828125 C 30.296875 -11.421875 28.992188 -10.289062 27.359375 -9.4375 C 25.722656 -8.582031 23.890625 -8.15625 21.859375 -8.15625 L 0.6875 -8.15625 C 0.363281 -8.15625 0.15625 -8.328125 0.0625 -8.671875 C -0.0195312 -9.023438 0.0976562 -9.335938 0.421875 -9.609375 C 1.617188 -10.535156 2.390625 -11.425781 2.734375 -12.28125 C 3.078125 -13.132812 3.25 -14.207031 3.25 -15.5 L 3.25 -36.109375 C 3.25 -37.347656 3.078125 -38.414062 2.734375 -39.3125 C 2.390625 -40.21875 1.617188 -41.109375 0.421875 -41.984375 C 0.0976562 -42.265625 -0.0195312 -42.566406 0.0625 -42.890625 C 0.15625 -43.210938 0.363281 -43.375 0.6875 -43.375 L 18.671875 -43.375 C 20.429688 -43.375 22.09375 -42.957031 23.65625 -42.125 C 25.226562 -41.289062 26.507812 -40.171875 27.5 -38.765625 C 28.488281 -37.359375 28.984375 -35.804688 28.984375 -34.109375 C 28.984375 -32.535156 28.546875 -31.09375 27.671875 -29.78125 C 26.796875 -28.46875 25.6875 -27.375 24.34375 -26.5 Z M 15.15625 -10.09375 C 16.53125 -10.09375 17.804688 -10.425781 18.984375 -11.09375 C 20.160156 -11.769531 21.09375 -12.671875 21.78125 -13.796875 C 22.476562 -14.929688 22.828125 -16.164062 22.828125 -17.5 C 22.828125 -18.832031 22.476562 -20.050781 21.78125 -21.15625 C 21.09375 -22.269531 20.160156 -23.160156 18.984375 -23.828125 C 17.804688 -24.492188 16.53125 -24.828125 15.15625 -24.828125 L 12.9375 -24.828125 C 12.976562 -22.617188 13.054688 -20.28125 13.171875 -17.8125 C 13.285156 -15.34375 13.503906 -12.769531 13.828125 -10.09375 Z M 19.921875 -34.109375 C 19.921875 -36.035156 19.363281 -37.703125 18.25 -39.109375 C 17.144531 -40.515625 15.648438 -41.289062 13.765625 -41.4375 C 13.628906 -40.144531 13.46875 -38.226562 13.28125 -35.6875 C 13.09375 -33.15625 12.976562 -30.179688 12.9375 -26.765625 L 13.21875 -26.765625 C 15.238281 -26.765625 16.859375 -27.488281 18.078125 -28.9375 C 19.304688 -30.394531 19.921875 -32.117188 19.921875 -34.109375 Z M 19.921875 -34.109375 "/></g></g></g><g fill="#000000" fill-opacity="1"><g transform="translate(106.782105, 218.744787)"><g><path d="M 14.1875 -8.15625 L 0.6875 -8.15625 C 0.363281 -8.15625 0.15625 -8.328125 0.0625 -8.671875 C -0.0195312 -9.023438 0.0976562 -9.335938 0.421875 -9.609375 C 1.617188 -10.535156 2.390625 -11.425781 2.734375 -12.28125 C 3.078125 -13.132812 3.25 -14.207031 3.25 -15.5 L 3.25 -21.3125 C 3.25 -22.59375 3.078125 -23.671875 2.734375 -24.546875 C 2.390625 -25.429688 1.617188 -26.332031 0.421875 -27.25 C 0.0976562 -27.53125 -0.0195312 -27.832031 0.0625 -28.15625 C 0.15625 -28.476562 0.363281 -28.640625 0.6875 -28.640625 C 2.351562 -28.640625 3.796875 -28.867188 5.015625 -29.328125 C 6.234375 -29.785156 7.300781 -30.328125 8.21875 -30.953125 C 9.144531 -31.578125 9.96875 -32.15625 10.6875 -32.6875 C 11.40625 -33.21875 12.085938 -33.550781 12.734375 -33.6875 C 13.460938 -33.820312 13.769531 -33.679688 13.65625 -33.265625 C 13.539062 -32.859375 13.4375 -32.421875 13.34375 -31.953125 C 12.425781 -25.816406 12.128906 -20.847656 12.453125 -17.046875 C 12.773438 -13.242188 13.582031 -10.859375 14.875 -9.890625 C 15.238281 -9.609375 15.394531 -9.25 15.34375 -8.8125 C 15.300781 -8.375 14.914062 -8.15625 14.1875 -8.15625 Z M 5.1875 -33.265625 C 3.800781 -33.265625 2.71875 -33.757812 1.9375 -34.75 C 1.15625 -35.75 0.925781 -36.941406 1.25 -38.328125 C 1.570312 -39.753906 2.332031 -40.953125 3.53125 -41.921875 C 4.726562 -42.890625 6.039062 -43.375 7.46875 -43.375 C 8.851562 -43.375 9.9375 -42.890625 10.71875 -41.921875 C 11.5 -40.953125 11.726562 -39.753906 11.40625 -38.328125 C 11.082031 -36.941406 10.320312 -35.75 9.125 -34.75 C 7.925781 -33.757812 6.613281 -33.265625 5.1875 -33.265625 Z M 5.1875 -33.265625 "/></g></g></g><g fill="#000000" fill-opacity="1"><g transform="translate(123.865519, 218.744787)"><g><path d="M 21.03125 -33.75 C 22.363281 -33.75 23.734375 -33.390625 25.140625 -32.671875 C 26.546875 -31.960938 27.390625 -30.867188 27.671875 -29.390625 C 27.941406 -28.054688 27.765625 -26.925781 27.140625 -26 C 26.523438 -25.082031 25.695312 -24.367188 24.65625 -23.859375 C 23.625 -23.359375 22.578125 -23.082031 21.515625 -23.03125 C 20.453125 -22.988281 19.585938 -23.21875 18.921875 -23.71875 C 18.253906 -24.226562 17.988281 -25.015625 18.125 -26.078125 C 18.257812 -26.859375 18.394531 -27.535156 18.53125 -28.109375 C 18.675781 -28.691406 18.425781 -28.984375 17.78125 -28.984375 C 16.945312 -28.984375 16.007812 -28.453125 14.96875 -27.390625 C 13.9375 -26.328125 13.097656 -25.175781 12.453125 -23.9375 C 12.222656 -20.101562 12.328125 -16.988281 12.765625 -14.59375 C 13.203125 -12.195312 13.90625 -10.628906 14.875 -9.890625 C 15.238281 -9.609375 15.394531 -9.25 15.34375 -8.8125 C 15.300781 -8.375 14.914062 -8.15625 14.1875 -8.15625 L 0.6875 -8.15625 C 0.363281 -8.15625 0.15625 -8.328125 0.0625 -8.671875 C -0.0195312 -9.023438 0.0976562 -9.335938 0.421875 -9.609375 C 1.617188 -10.535156 2.390625 -11.425781 2.734375 -12.28125 C 3.078125 -13.132812 3.25 -14.207031 3.25 -15.5 L 3.25 -21.3125 C 3.25 -22.59375 3.078125 -23.671875 2.734375 -24.546875 C 2.390625 -25.429688 1.617188 -26.332031 0.421875 -27.25 C 0.0976562 -27.53125 -0.0195312 -27.832031 0.0625 -28.15625 C 0.15625 -28.476562 0.363281 -28.640625 0.6875 -28.640625 C 2.351562 -28.640625 3.796875 -28.867188 5.015625 -29.328125 C 6.234375 -29.785156 7.300781 -30.328125 8.21875 -30.953125 C 9.144531 -31.578125 9.96875 -32.15625 10.6875 -32.6875 C 11.40625 -33.21875 12.085938 -33.550781 12.734375 -33.6875 C 13.460938 -33.820312 13.769531 -33.679688 13.65625 -33.265625 C 13.539062 -32.859375 13.4375 -32.421875 13.34375 -31.953125 L 12.796875 -27.46875 C 13.347656 -28.25 14.035156 -29.132812 14.859375 -30.125 C 15.691406 -31.113281 16.640625 -31.960938 17.703125 -32.671875 C 18.765625 -33.390625 19.875 -33.75 21.03125 -33.75 Z M 21.03125 -33.75 "/></g></g></g><g fill="#000000" fill-opacity="1"><g transform="translate(152.84507, 218.744787)"><g><path d="M 17.015625 -30.71875 C 17.472656 -30.71875 17.78125 -30.554688 17.9375 -30.234375 C 18.101562 -29.910156 18.1875 -29.515625 18.1875 -29.046875 C 18.1875 -28.585938 18.101562 -28.195312 17.9375 -27.875 C 17.78125 -27.550781 17.472656 -27.390625 17.015625 -27.390625 L 13.625 -27.390625 C 13.488281 -24.441406 13.523438 -21.722656 13.734375 -19.234375 C 13.941406 -16.742188 14.273438 -14.691406 14.734375 -13.078125 C 15.191406 -11.460938 15.722656 -10.398438 16.328125 -9.890625 C 16.691406 -9.609375 16.847656 -9.25 16.796875 -8.8125 C 16.753906 -8.375 16.34375 -8.15625 15.5625 -8.15625 L 1.59375 -8.15625 C 1.132812 -8.15625 0.90625 -8.363281 0.90625 -8.78125 C 0.90625 -9.195312 1.066406 -9.566406 1.390625 -9.890625 C 2.171875 -10.628906 2.707031 -11.617188 3 -12.859375 C 3.300781 -14.109375 3.472656 -15.398438 3.515625 -16.734375 C 3.566406 -18.078125 3.59375 -19.234375 3.59375 -20.203125 C 3.59375 -21.117188 3.566406 -22.253906 3.515625 -23.609375 C 3.472656 -24.972656 3.203125 -26.234375 2.703125 -27.390625 L 1.171875 -27.390625 C 0.710938 -27.390625 0.398438 -27.550781 0.234375 -27.875 C 0.078125 -28.195312 0 -28.585938 0 -29.046875 C 0 -29.515625 0.078125 -29.910156 0.234375 -30.234375 C 0.398438 -30.554688 0.710938 -30.71875 1.171875 -30.71875 L 1.59375 -30.71875 C 3.25 -30.71875 4.628906 -31.097656 5.734375 -31.859375 C 6.847656 -32.617188 7.785156 -33.515625 8.546875 -34.546875 C 9.304688 -35.585938 10.019531 -36.554688 10.6875 -37.453125 C 11.351562 -38.359375 12.101562 -38.945312 12.9375 -39.21875 C 13.625 -39.5 14.128906 -39.441406 14.453125 -39.046875 C 14.773438 -38.648438 14.890625 -38.222656 14.796875 -37.765625 C 14.617188 -36.566406 14.4375 -35.378906 14.25 -34.203125 C 14.0625 -33.023438 13.921875 -31.863281 13.828125 -30.71875 Z M 17.015625 -30.71875 "/></g></g></g><g fill="#000000" fill-opacity="1"><g transform="translate(172.280047, 218.744787)"><g><path d="M 33.828125 -9.609375 C 34.191406 -9.335938 34.335938 -9.023438 34.265625 -8.671875 C 34.203125 -8.328125 33.988281 -8.15625 33.625 -8.15625 L 19.859375 -8.15625 C 19.117188 -8.15625 18.722656 -8.363281 18.671875 -8.78125 C 18.628906 -9.195312 18.769531 -9.566406 19.09375 -9.890625 C 20.007812 -10.671875 20.664062 -11.890625 21.0625 -13.546875 C 21.457031 -15.210938 21.628906 -17.023438 21.578125 -18.984375 C 21.535156 -20.941406 21.316406 -22.820312 20.921875 -24.625 C 20.535156 -26.425781 19.984375 -27.910156 19.265625 -29.078125 C 18.546875 -30.253906 17.703125 -30.84375 16.734375 -30.84375 C 16.140625 -30.84375 15.425781 -30.472656 14.59375 -29.734375 C 13.757812 -29.003906 13.019531 -27.96875 12.375 -26.625 C 12.375 -23.863281 12.488281 -21.28125 12.71875 -18.875 C 12.957031 -16.476562 13.28125 -14.484375 13.6875 -12.890625 C 14.101562 -11.304688 14.59375 -10.304688 15.15625 -9.890625 C 15.519531 -9.609375 15.675781 -9.25 15.625 -8.8125 C 15.582031 -8.375 15.171875 -8.15625 14.390625 -8.15625 L 0.6875 -8.15625 C 0.363281 -8.15625 0.15625 -8.328125 0.0625 -8.671875 C -0.0195312 -9.023438 0.0976562 -9.335938 0.421875 -9.609375 C 1.617188 -10.535156 2.390625 -11.425781 2.734375 -12.28125 C 3.078125 -13.132812 3.25 -14.207031 3.25 -15.5 L 3.25 -31.0625 C 3.25 -32.351562 3.078125 -33.4375 2.734375 -34.3125 C 2.390625 -35.1875 1.617188 -36.0625 0.421875 -36.9375 C 0.0976562 -37.21875 -0.0195312 -37.519531 0.0625 -37.84375 C 0.15625 -38.164062 0.363281 -38.328125 0.6875 -38.328125 C 2.351562 -38.328125 3.804688 -38.554688 5.046875 -39.015625 C 6.296875 -39.472656 7.390625 -40.023438 8.328125 -40.671875 C 9.273438 -41.316406 10.117188 -41.890625 10.859375 -42.390625 C 11.597656 -42.898438 12.289062 -43.226562 12.9375 -43.375 C 13.675781 -43.550781 14 -43.421875 13.90625 -42.984375 C 13.8125 -42.546875 13.71875 -42.097656 13.625 -41.640625 C 13.300781 -39.796875 13.046875 -37.914062 12.859375 -36 C 12.679688 -34.09375 12.546875 -32.191406 12.453125 -30.296875 C 13.234375 -31.265625 14.140625 -32.082031 15.171875 -32.75 C 16.210938 -33.414062 17.40625 -33.75 18.75 -33.75 C 21.28125 -33.75 23.457031 -33.140625 25.28125 -31.921875 C 27.101562 -30.703125 28.507812 -29.050781 29.5 -26.96875 C 30.488281 -24.894531 30.984375 -22.59375 30.984375 -20.0625 L 30.984375 -15.5 C 30.984375 -14.207031 31.164062 -13.132812 31.53125 -12.28125 C 31.90625 -11.425781 32.671875 -10.535156 33.828125 -9.609375 Z M 33.828125 -9.609375 "/></g></g></g><g fill="#000000" fill-opacity="1"><g transform="translate(208.17597, 218.744787)"><g><path d="M 30.640625 -9.609375 C 31.015625 -9.335938 31.164062 -9.023438 31.09375 -8.671875 C 31.019531 -8.328125 30.800781 -8.15625 30.4375 -8.15625 L 13.828125 -8.15625 C 11.296875 -8.15625 8.976562 -8.734375 6.875 -9.890625 C 4.78125 -11.046875 3.109375 -12.59375 1.859375 -14.53125 C 0.617188 -16.46875 0 -18.609375 0 -20.953125 C 0 -23.304688 0.617188 -25.453125 1.859375 -27.390625 C 3.109375 -29.328125 4.78125 -30.867188 6.875 -32.015625 C 8.976562 -33.171875 11.296875 -33.75 13.828125 -33.75 C 15.304688 -33.75 16.691406 -33.546875 17.984375 -33.140625 C 17.566406 -34.929688 16.875 -36.195312 15.90625 -36.9375 C 15.539062 -37.21875 15.40625 -37.519531 15.5 -37.84375 C 15.59375 -38.164062 15.796875 -38.328125 16.109375 -38.328125 C 17.773438 -38.328125 19.226562 -38.554688 20.46875 -39.015625 C 21.71875 -39.472656 22.8125 -40.023438 23.75 -40.671875 C 24.695312 -41.316406 25.550781 -41.890625 26.3125 -42.390625 C 27.082031 -42.898438 27.785156 -43.226562 28.421875 -43.375 C 29.160156 -43.550781 29.484375 -43.421875 29.390625 -42.984375 C 29.304688 -42.546875 29.21875 -42.097656 29.125 -41.640625 C 28.800781 -39.929688 28.546875 -38.46875 28.359375 -37.25 C 28.171875 -36.03125 28.03125 -34.84375 27.9375 -33.6875 C 27.851562 -32.53125 27.8125 -31.191406 27.8125 -29.671875 L 27.8125 -15.5 C 27.8125 -14.207031 27.992188 -13.132812 28.359375 -12.28125 C 28.722656 -11.425781 29.484375 -10.535156 30.640625 -9.609375 Z M 9.828125 -20.953125 C 9.828125 -18.972656 10.007812 -17.164062 10.375 -15.53125 C 10.738281 -13.894531 11.222656 -12.578125 11.828125 -11.578125 C 12.429688 -10.585938 13.097656 -10.09375 13.828125 -10.09375 C 14.566406 -10.09375 15.222656 -10.585938 15.796875 -11.578125 C 16.378906 -12.578125 16.851562 -13.894531 17.21875 -15.53125 C 17.59375 -17.164062 17.78125 -18.972656 17.78125 -20.953125 C 17.78125 -22.984375 17.59375 -24.816406 17.21875 -26.453125 C 16.851562 -28.085938 16.378906 -29.390625 15.796875 -30.359375 C 15.222656 -31.328125 14.566406 -31.8125 13.828125 -31.8125 C 13.097656 -31.8125 12.429688 -31.328125 11.828125 -30.359375 C 11.222656 -29.390625 10.738281 -28.085938 10.375 -26.453125 C 10.007812 -24.816406 9.828125 -22.984375 9.828125 -20.953125 Z M 9.828125 -20.953125 "/></g></g></g><g fill="#000000" fill-opacity="1"><g transform="translate(241.028679, 218.744787)"><g><path d="M 27.734375 -9.609375 C 28.109375 -9.335938 28.25 -9.023438 28.15625 -8.671875 C 28.0625 -8.328125 27.832031 -8.15625 27.46875 -8.15625 L 20.40625 -8.15625 C 19.15625 -8.15625 18.148438 -8.429688 17.390625 -8.984375 C 16.628906 -9.546875 16.078125 -10.101562 15.734375 -10.65625 C 15.390625 -11.207031 15.21875 -11.484375 15.21875 -11.484375 C 14.476562 -10.460938 13.507812 -9.648438 12.3125 -9.046875 C 11.113281 -8.453125 9.820312 -8.15625 8.4375 -8.15625 C 6.914062 -8.15625 5.507812 -8.523438 4.21875 -9.265625 C 2.925781 -10.003906 1.898438 -10.992188 1.140625 -12.234375 C 0.378906 -13.484375 0 -14.847656 0 -16.328125 C 0 -17.847656 0.378906 -19.21875 1.140625 -20.4375 C 1.898438 -21.65625 2.925781 -22.632812 4.21875 -23.375 C 5.507812 -24.113281 6.914062 -24.484375 8.4375 -24.484375 C 9.820312 -24.484375 11.113281 -24.179688 12.3125 -23.578125 C 13.507812 -22.984375 14.476562 -22.179688 15.21875 -21.171875 L 15.21875 -23.234375 C 15.21875 -24.578125 15.054688 -25.90625 14.734375 -27.21875 C 14.410156 -28.53125 13.945312 -29.625 13.34375 -30.5 C 12.75 -31.375 12.035156 -31.8125 11.203125 -31.8125 C 10.691406 -31.8125 10.425781 -31.46875 10.40625 -30.78125 C 10.382812 -30.09375 10.582031 -29.285156 11 -28.359375 C 11.269531 -27.671875 11.148438 -27.082031 10.640625 -26.59375 C 10.140625 -26.113281 9.425781 -25.742188 8.5 -25.484375 C 7.582031 -25.234375 6.628906 -25.128906 5.640625 -25.171875 C 4.648438 -25.222656 3.804688 -25.441406 3.109375 -25.828125 C 2.421875 -26.222656 2.078125 -26.8125 2.078125 -27.59375 C 2.078125 -29.070312 2.914062 -30.46875 4.59375 -31.78125 C 6.28125 -33.09375 8.710938 -33.75 11.890625 -33.75 C 14.390625 -33.75 16.617188 -33.21875 18.578125 -32.15625 C 20.535156 -31.101562 22.078125 -29.628906 23.203125 -27.734375 C 24.335938 -25.847656 24.90625 -23.660156 24.90625 -21.171875 L 24.90625 -15.5 C 24.90625 -14.207031 25.078125 -13.132812 25.421875 -12.28125 C 25.765625 -11.425781 26.535156 -10.535156 27.734375 -9.609375 Z M 11.484375 -11.890625 C 12.453125 -11.890625 13.269531 -12.328125 13.9375 -13.203125 C 14.601562 -14.085938 14.9375 -15.128906 14.9375 -16.328125 C 14.9375 -17.523438 14.601562 -18.5625 13.9375 -19.4375 C 13.269531 -20.3125 12.453125 -20.75 11.484375 -20.75 C 10.554688 -20.75 9.757812 -20.3125 9.09375 -19.4375 C 8.425781 -18.5625 8.09375 -17.523438 8.09375 -16.328125 C 8.09375 -15.128906 8.425781 -14.085938 9.09375 -13.203125 C 9.757812 -12.328125 10.554688 -11.890625 11.484375 -11.890625 Z M 11.484375 -11.890625 "/></g></g></g><g fill="#000000" fill-opacity="1"><g transform="translate(270.699878, 218.744787)"><g><path d="M 29.671875 -33.75 C 30.085938 -33.75 30.269531 -33.578125 30.21875 -33.234375 C 30.175781 -32.890625 29.925781 -32.578125 29.46875 -32.296875 C 28.269531 -31.609375 27.414062 -30.78125 26.90625 -29.8125 C 26.394531 -28.84375 25.9375 -27.710938 25.53125 -26.421875 L 21.375 -12.9375 L 18.40625 -3.390625 C 17.289062 -0.0234375 16.019531 2.566406 14.59375 4.390625 C 13.164062 6.210938 11.710938 7.476562 10.234375 8.1875 C 8.765625 8.90625 7.359375 9.265625 6.015625 9.265625 C 4.128906 9.265625 2.539062 8.859375 1.25 8.046875 C -0.0390625 7.242188 -1.007812 6.21875 -1.65625 4.96875 C -2.300781 3.726562 -2.597656 2.4375 -2.546875 1.09375 C -2.503906 -0.238281 -2.09375 -1.429688 -1.3125 -2.484375 C -0.34375 -3.734375 0.796875 -4.578125 2.109375 -5.015625 C 3.421875 -5.453125 4.675781 -5.554688 5.875 -5.328125 C 7.070312 -5.097656 8.015625 -4.546875 8.703125 -3.671875 C 9.398438 -2.796875 9.585938 -1.664062 9.265625 -0.28125 C 8.941406 1.195312 8.988281 2.234375 9.40625 2.828125 C 9.820312 3.429688 10.46875 3.523438 11.34375 3.109375 C 12.21875 2.691406 13.1875 1.734375 14.25 0.234375 C 15.3125 -1.253906 16.300781 -3.316406 17.21875 -5.953125 L 17.984375 -8.15625 L 13.625 -8.15625 C 12.238281 -8.15625 11.328125 -8.429688 10.890625 -8.984375 C 10.453125 -9.546875 10.050781 -10.425781 9.6875 -11.625 L 6.984375 -20.125 C 6.148438 -22.894531 5.390625 -25.070312 4.703125 -26.65625 C 4.015625 -28.25 3.359375 -29.445312 2.734375 -30.25 C 2.109375 -31.0625 1.472656 -31.65625 0.828125 -32.03125 C 0.367188 -32.300781 0.101562 -32.65625 0.03125 -33.09375 C -0.03125 -33.53125 0.300781 -33.75 1.03125 -33.75 L 16.109375 -33.75 C 16.484375 -33.75 16.738281 -33.597656 16.875 -33.296875 C 17.007812 -33.003906 16.988281 -32.671875 16.8125 -32.296875 C 16.113281 -30.773438 15.726562 -29.160156 15.65625 -27.453125 C 15.59375 -25.753906 15.734375 -24.097656 16.078125 -22.484375 C 16.421875 -20.867188 16.832031 -19.390625 17.3125 -18.046875 C 17.800781 -16.710938 18.253906 -15.628906 18.671875 -14.796875 C 19.085938 -13.972656 19.320312 -13.488281 19.375 -13.34375 L 19.5 -13.140625 L 19.640625 -13.765625 C 19.640625 -13.765625 19.765625 -14.296875 20.015625 -15.359375 C 20.273438 -16.421875 20.566406 -17.757812 20.890625 -19.375 C 21.210938 -20.988281 21.488281 -22.660156 21.71875 -24.390625 C 21.945312 -26.117188 22.015625 -27.707031 21.921875 -29.15625 C 21.835938 -30.601562 21.515625 -31.648438 20.953125 -32.296875 C 20.722656 -32.617188 20.664062 -32.941406 20.78125 -33.265625 C 20.894531 -33.585938 21.1875 -33.75 21.65625 -33.75 Z M 29.671875 -33.75 "/></g></g></g><g fill="#000000" fill-opacity="1"><g transform="translate(127.249464, 268.523409)"><g><path d="M 36.390625 -43.375 C 36.753906 -43.375 37.003906 -43.210938 37.140625 -42.890625 C 37.285156 -42.566406 37.101562 -42.265625 36.59375 -41.984375 C 35.570312 -41.390625 34.796875 -40.941406 34.265625 -40.640625 C 33.742188 -40.335938 33.34375 -40 33.0625 -39.625 C 32.789062 -39.257812 32.46875 -38.640625 32.09375 -37.765625 L 21.09375 -10.375 C 20.769531 -9.457031 20.257812 -8.820312 19.5625 -8.46875 C 18.875 -8.125 18.160156 -8.101562 17.421875 -8.40625 C 16.691406 -8.707031 16.097656 -9.363281 15.640625 -10.375 C 15.078125 -11.664062 14.359375 -13.367188 13.484375 -15.484375 C 12.609375 -17.609375 11.695312 -19.832031 10.75 -22.15625 C 9.8125 -24.488281 8.925781 -26.703125 8.09375 -28.796875 C 7.257812 -30.898438 6.578125 -32.628906 6.046875 -33.984375 C 5.515625 -35.347656 5.25 -36.054688 5.25 -36.109375 C 4.75 -37.347656 4.234375 -38.414062 3.703125 -39.3125 C 3.171875 -40.21875 2.117188 -41.109375 0.546875 -41.984375 C 0.0859375 -42.265625 -0.0820312 -42.566406 0.03125 -42.890625 C 0.144531 -43.210938 0.363281 -43.375 0.6875 -43.375 L 16.328125 -43.375 C 16.691406 -43.375 16.894531 -43.210938 16.9375 -42.890625 C 16.988281 -42.566406 16.898438 -42.265625 16.671875 -41.984375 C 15.796875 -41.109375 15.367188 -40.21875 15.390625 -39.3125 C 15.410156 -38.414062 15.648438 -37.347656 16.109375 -36.109375 C 16.109375 -36.054688 16.335938 -35.429688 16.796875 -34.234375 C 17.265625 -33.035156 17.851562 -31.546875 18.5625 -29.765625 C 19.28125 -27.992188 20.007812 -26.160156 20.75 -24.265625 C 21.488281 -22.378906 22.15625 -20.703125 22.75 -19.234375 L 30.015625 -37.765625 C 30.390625 -38.640625 30.578125 -39.257812 30.578125 -39.625 C 30.578125 -40 30.425781 -40.335938 30.125 -40.640625 C 29.820312 -40.941406 29.394531 -41.390625 28.84375 -41.984375 C 28.613281 -42.265625 28.519531 -42.566406 28.5625 -42.890625 C 28.613281 -43.210938 28.820312 -43.375 29.1875 -43.375 Z M 36.390625 -43.375 "/></g></g></g><g fill="#000000" fill-opacity="1"><g transform="translate(158.649735, 268.523409)"><g><path d="M 24.625 -16.109375 C 24.988281 -16.578125 25.378906 -16.613281 25.796875 -16.21875 C 26.210938 -15.832031 26.304688 -15.453125 26.078125 -15.078125 C 24.921875 -13.046875 23.257812 -11.382812 21.09375 -10.09375 C 18.925781 -8.800781 16.503906 -8.15625 13.828125 -8.15625 C 11.296875 -8.15625 8.976562 -8.734375 6.875 -9.890625 C 4.78125 -11.046875 3.109375 -12.59375 1.859375 -14.53125 C 0.617188 -16.46875 0 -18.609375 0 -20.953125 C 0 -23.304688 0.617188 -25.453125 1.859375 -27.390625 C 3.109375 -29.328125 4.816406 -30.867188 6.984375 -32.015625 C 9.148438 -33.171875 11.617188 -33.75 14.390625 -33.75 C 16.179688 -33.75 17.941406 -33.378906 19.671875 -32.640625 C 21.398438 -31.910156 22.816406 -30.921875 23.921875 -29.671875 C 25.035156 -28.429688 25.59375 -27.050781 25.59375 -25.53125 C 25.59375 -24.050781 25.140625 -22.6875 24.234375 -21.4375 C 23.335938 -20.195312 22.148438 -19.207031 20.671875 -18.46875 C 19.203125 -17.726562 17.566406 -17.359375 15.765625 -17.359375 C 14.890625 -17.359375 14.046875 -17.453125 13.234375 -17.640625 C 12.429688 -17.828125 11.660156 -18.082031 10.921875 -18.40625 C 11.296875 -17.25 11.875 -16.21875 12.65625 -15.3125 C 13.4375 -14.414062 14.519531 -13.757812 15.90625 -13.34375 C 16.78125 -13.113281 17.769531 -13.054688 18.875 -13.171875 C 19.988281 -13.285156 21.0625 -13.597656 22.09375 -14.109375 C 23.132812 -14.617188 23.976562 -15.285156 24.625 -16.109375 Z M 14.046875 -31.8125 C 13.492188 -31.8125 12.789062 -31.269531 11.9375 -30.1875 C 11.082031 -29.101562 10.65625 -27.457031 10.65625 -25.25 C 10.65625 -23.40625 11.007812 -21.953125 11.71875 -20.890625 C 12.4375 -19.828125 13.210938 -19.296875 14.046875 -19.296875 C 14.960938 -19.296875 15.71875 -19.90625 16.3125 -21.125 C 16.914062 -22.351562 17.21875 -23.820312 17.21875 -25.53125 C 17.21875 -27.28125 16.914062 -28.765625 16.3125 -29.984375 C 15.71875 -31.203125 14.960938 -31.8125 14.046875 -31.8125 Z M 14.046875 -31.8125 "/></g></g></g><g fill="#000000" fill-opacity="1"><g transform="translate(186.246026, 268.523409)"><g><path d="M 25.59375 -11.890625 C 27.757812 -10.742188 29.1875 -9.28125 29.875 -7.5 C 30.570312 -5.726562 30.664062 -3.875 30.15625 -1.9375 C 29.644531 0 28.664062 1.820312 27.21875 3.53125 C 25.769531 5.238281 23.972656 6.632812 21.828125 7.71875 C 19.679688 8.800781 17.363281 9.34375 14.875 9.34375 C 11.96875 9.34375 9.3125 8.878906 6.90625 7.953125 C 4.507812 7.035156 2.515625 5.828125 0.921875 4.328125 C -0.660156 2.828125 -1.773438 1.222656 -2.421875 -0.484375 C -2.929688 -1.816406 -2.847656 -2.941406 -2.171875 -3.859375 C -1.503906 -4.785156 -0.539062 -5.46875 0.71875 -5.90625 C 1.988281 -6.351562 3.28125 -6.539062 4.59375 -6.46875 C 5.914062 -6.394531 6.976562 -6.070312 7.78125 -5.5 C 8.59375 -4.925781 8.878906 -4.082031 8.640625 -2.96875 C 8.273438 -1.3125 8.460938 0.21875 9.203125 1.625 C 9.941406 3.03125 10.988281 4.207031 12.34375 5.15625 C 13.707031 6.101562 15.171875 6.722656 16.734375 7.015625 C 18.304688 7.316406 19.757812 7.210938 21.09375 6.703125 C 22.25 6.242188 23.054688 5.472656 23.515625 4.390625 C 23.972656 3.304688 24.0625 2.070312 23.78125 0.6875 C 23.507812 -0.695312 22.890625 -2.054688 21.921875 -3.390625 C 20.953125 -4.722656 19.671875 -5.882812 18.078125 -6.875 C 16.492188 -7.875 14.570312 -8.507812 12.3125 -8.78125 C 11.019531 -8.96875 9.785156 -9.050781 8.609375 -9.03125 C 7.429688 -9.007812 6.4375 -9.132812 5.625 -9.40625 C 4.820312 -9.6875 4.257812 -10.285156 3.9375 -11.203125 C 3.757812 -11.753906 3.929688 -12.398438 4.453125 -13.140625 C 4.984375 -13.878906 5.617188 -14.550781 6.359375 -15.15625 C 4.421875 -16.070312 2.875 -17.265625 1.71875 -18.734375 C 0.570312 -20.210938 0 -21.804688 0 -23.515625 C 0 -25.410156 0.675781 -27.128906 2.03125 -28.671875 C 3.394531 -30.210938 5.226562 -31.441406 7.53125 -32.359375 C 9.84375 -33.285156 12.382812 -33.75 15.15625 -33.75 C 15.789062 -33.75 16.441406 -33.710938 17.109375 -33.640625 C 17.785156 -33.578125 18.421875 -33.5 19.015625 -33.40625 C 19.390625 -34.925781 20.3125 -36.25 21.78125 -37.375 C 23.257812 -38.507812 24.96875 -39.03125 26.90625 -38.9375 C 28.0625 -38.894531 28.90625 -38.539062 29.4375 -37.875 C 29.96875 -37.207031 30.242188 -36.457031 30.265625 -35.625 C 30.285156 -34.789062 30.039062 -34.085938 29.53125 -33.515625 C 29.03125 -32.941406 28.316406 -32.722656 27.390625 -32.859375 C 26.097656 -33.085938 24.84375 -33.269531 23.625 -33.40625 C 22.40625 -33.550781 21.472656 -33.414062 20.828125 -33 C 23.585938 -32.257812 25.851562 -31.035156 27.625 -29.328125 C 29.40625 -27.617188 30.296875 -25.679688 30.296875 -23.515625 C 30.296875 -21.628906 29.613281 -19.898438 28.25 -18.328125 C 26.894531 -16.765625 25.078125 -15.519531 22.796875 -14.59375 C 20.515625 -13.675781 17.96875 -13.21875 15.15625 -13.21875 C 14 -13.21875 12.863281 -13.304688 11.75 -13.484375 C 10.644531 -13.671875 9.609375 -13.925781 8.640625 -14.25 C 8.179688 -13.882812 7.800781 -13.503906 7.5 -13.109375 C 7.207031 -12.710938 7.222656 -12.304688 7.546875 -11.890625 C 7.910156 -11.429688 8.578125 -11.210938 9.546875 -11.234375 C 10.515625 -11.265625 11.675781 -11.425781 13.03125 -11.71875 C 14.394531 -12.019531 15.828125 -12.296875 17.328125 -12.546875 C 18.828125 -12.804688 20.289062 -12.910156 21.71875 -12.859375 C 23.144531 -12.816406 24.4375 -12.492188 25.59375 -11.890625 Z M 15.15625 -31.8125 C 14.039062 -31.8125 13.09375 -31.003906 12.3125 -29.390625 C 11.53125 -27.785156 11.140625 -25.828125 11.140625 -23.515625 C 11.140625 -21.210938 11.53125 -19.242188 12.3125 -17.609375 C 13.09375 -15.972656 14.039062 -15.15625 15.15625 -15.15625 C 16.257812 -15.15625 17.203125 -15.972656 17.984375 -17.609375 C 18.765625 -19.242188 19.15625 -21.210938 19.15625 -23.515625 C 19.15625 -25.828125 18.765625 -27.785156 17.984375 -29.390625 C 17.203125 -31.003906 16.257812 -31.8125 15.15625 -31.8125 Z M 15.15625 -31.8125 "/></g></g></g><g fill="#000000" fill-opacity="1"><g transform="translate(218.061292, 268.523409)"><g><path d="M 27.734375 -9.609375 C 28.109375 -9.335938 28.25 -9.023438 28.15625 -8.671875 C 28.0625 -8.328125 27.832031 -8.15625 27.46875 -8.15625 L 20.40625 -8.15625 C 19.15625 -8.15625 18.148438 -8.429688 17.390625 -8.984375 C 16.628906 -9.546875 16.078125 -10.101562 15.734375 -10.65625 C 15.390625 -11.207031 15.21875 -11.484375 15.21875 -11.484375 C 14.476562 -10.460938 13.507812 -9.648438 12.3125 -9.046875 C 11.113281 -8.453125 9.820312 -8.15625 8.4375 -8.15625 C 6.914062 -8.15625 5.507812 -8.523438 4.21875 -9.265625 C 2.925781 -10.003906 1.898438 -10.992188 1.140625 -12.234375 C 0.378906 -13.484375 0 -14.847656 0 -16.328125 C 0 -17.847656 0.378906 -19.21875 1.140625 -20.4375 C 1.898438 -21.65625 2.925781 -22.632812 4.21875 -23.375 C 5.507812 -24.113281 6.914062 -24.484375 8.4375 -24.484375 C 9.820312 -24.484375 11.113281 -24.179688 12.3125 -23.578125 C 13.507812 -22.984375 14.476562 -22.179688 15.21875 -21.171875 L 15.21875 -23.234375 C 15.21875 -24.578125 15.054688 -25.90625 14.734375 -27.21875 C 14.410156 -28.53125 13.945312 -29.625 13.34375 -30.5 C 12.75 -31.375 12.035156 -31.8125 11.203125 -31.8125 C 10.691406 -31.8125 10.425781 -31.46875 10.40625 -30.78125 C 10.382812 -30.09375 10.582031 -29.285156 11 -28.359375 C 11.269531 -27.671875 11.148438 -27.082031 10.640625 -26.59375 C 10.140625 -26.113281 9.425781 -25.742188 8.5 -25.484375 C 7.582031 -25.234375 6.628906 -25.128906 5.640625 -25.171875 C 4.648438 -25.222656 3.804688 -25.441406 3.109375 -25.828125 C 2.421875 -26.222656 2.078125 -26.8125 2.078125 -27.59375 C 2.078125 -29.070312 2.914062 -30.46875 4.59375 -31.78125 C 6.28125 -33.09375 8.710938 -33.75 11.890625 -33.75 C 14.390625 -33.75 16.617188 -33.21875 18.578125 -32.15625 C 20.535156 -31.101562 22.078125 -29.628906 23.203125 -27.734375 C 24.335938 -25.847656 24.90625 -23.660156 24.90625 -21.171875 L 24.90625 -15.5 C 24.90625 -14.207031 25.078125 -13.132812 25.421875 -12.28125 C 25.765625 -11.425781 26.535156 -10.535156 27.734375 -9.609375 Z M 11.484375 -11.890625 C 12.453125 -11.890625 13.269531 -12.328125 13.9375 -13.203125 C 14.601562 -14.085938 14.9375 -15.128906 14.9375 -16.328125 C 14.9375 -17.523438 14.601562 -18.5625 13.9375 -19.4375 C 13.269531 -20.3125 12.453125 -20.75 11.484375 -20.75 C 10.554688 -20.75 9.757812 -20.3125 9.09375 -19.4375 C 8.425781 -18.5625 8.09375 -17.523438 8.09375 -16.328125 C 8.09375 -15.128906 8.425781 -14.085938 9.09375 -13.203125 C 9.757812 -12.328125 10.554688 -11.890625 11.484375 -11.890625 Z M 11.484375 -11.890625 "/></g></g></g></svg>