<svg xmlns="http://www.w3.org/2000/svg" xmlns:xlink="http://www.w3.org/1999/xlink" width="500" zoomAndPan="magnify" viewBox="0 0 375 374.999991" height="500" preserveAspectRatio="xMidYMid meet" version="1.0"><defs><g/><clipPath id="6c3f9257e0"><path d="M 60 27 L 345 27 L 345 360.777344 L 60 360.777344 Z M 60 27 " clip-rule="nonzero"/></clipPath><clipPath id="35079e2017"><path d="M 320 248 L 363.765625 248 L 363.765625 291 L 320 291 Z M 320 248 " clip-rule="nonzero"/></clipPath><clipPath id="f171829985"><path d="M 320 247 L 363.765625 247 L 363.765625 292 L 320 292 Z M 320 247 " clip-rule="nonzero"/></clipPath></defs><g clip-path="url(#6c3f9257e0)"><path fill="#701136" d="M 194.011719 27.726562 C 275.859375 23.171875 344.019531 90.195312 344.019531 172.191406 L 344.019531 340.941406 C 344.019531 351.847656 335.175781 360.707031 324.253906 360.707031 L 79.792969 360.707031 C 68.886719 360.707031 60.027344 351.867188 60.027344 340.941406 L 60.027344 169.511719 C 60.027344 93.769531 119.324219 31.890625 194.011719 27.726562 Z M 194.011719 27.726562 " fill-opacity="1" fill-rule="nonzero"/></g><path fill="#74cbf7" d="M 191.808594 18.796875 C 273.65625 14.242188 341.8125 81.265625 341.8125 163.261719 L 341.8125 332.011719 C 341.8125 342.917969 332.972656 351.777344 322.046875 351.777344 L 77.585938 351.777344 C 66.679688 351.777344 57.820312 342.9375 57.820312 332.011719 L 57.820312 160.566406 C 57.820312 84.839844 117.121094 22.945312 191.808594 18.796875 Z M 191.808594 18.796875 " fill-opacity="1" fill-rule="nonzero"/><path fill="#701136" d="M 322.0625 352.199219 L 77.585938 352.199219 C 66.453125 352.199219 57.382812 343.128906 57.382812 331.992188 L 57.382812 160.566406 C 57.382812 85.015625 116.417969 22.542969 191.789062 18.339844 C 230.671875 16.1875 267.878906 29.914062 296.539062 57.015625 C 325.601562 84.507812 342.265625 123.21875 342.265625 163.242188 L 342.265625 331.992188 C 342.265625 343.128906 333.199219 352.199219 322.0625 352.199219 Z M 191.808594 18.777344 L 191.824219 19.214844 C 116.945312 23.382812 58.257812 85.46875 58.257812 160.566406 L 58.257812 331.992188 C 58.257812 342.65625 66.925781 351.324219 77.585938 351.324219 L 322.0625 351.324219 C 332.726562 351.324219 341.390625 342.65625 341.390625 331.992188 L 341.390625 163.242188 C 341.390625 123.464844 324.828125 84.980469 295.941406 57.664062 C 267.457031 30.71875 230.5 17.078125 191.84375 19.214844 Z M 191.808594 18.777344 " fill-opacity="1" fill-rule="nonzero"/><path fill="#ffe5e1" d="M 207.144531 42.871094 C 270.382812 46.652344 320.523438 99.144531 320.523438 163.367188 L 320.523438 239.984375 C 320.523438 245.535156 316.023438 250.015625 310.492188 250.015625 L 89.160156 250.015625 C 83.609375 250.015625 79.128906 245.515625 79.128906 239.984375 L 79.128906 165.90625 C 79.128906 95.972656 137.359375 38.683594 207.144531 42.871094 Z M 207.144531 42.871094 " fill-opacity="1" fill-rule="nonzero"/><path fill="#701136" d="M 310.492188 250.453125 L 89.160156 250.453125 C 83.382812 250.453125 78.691406 245.761719 78.691406 239.984375 L 78.691406 165.90625 C 78.691406 131.675781 92.976562 98.582031 117.890625 75.105469 C 142.367188 52.042969 174.054688 40.453125 207.160156 42.414062 C 270.976562 46.230469 320.960938 99.355469 320.960938 163.347656 L 320.960938 239.96875 C 320.960938 245.746094 316.269531 250.453125 310.492188 250.453125 Z M 199.914062 43.082031 C 169.675781 43.082031 141 54.53125 118.484375 75.734375 C 93.765625 99.039062 79.566406 131.902344 79.566406 165.90625 L 79.566406 239.984375 C 79.566406 245.273438 83.871094 249.578125 89.160156 249.578125 L 310.472656 249.578125 C 315.761719 249.578125 320.066406 245.273438 320.066406 239.984375 L 320.066406 163.347656 C 320.066406 99.828125 270.449219 47.089844 207.089844 43.289062 C 204.710938 43.148438 202.3125 43.082031 199.914062 43.082031 Z M 199.914062 43.082031 " fill-opacity="1" fill-rule="nonzero"/><path fill="#f9b928" d="M 28.269531 188.402344 C 42.710938 193.535156 48.769531 199.589844 53.898438 214.035156 C 54.984375 217.101562 59.292969 217.101562 60.394531 214.035156 C 65.523438 199.589844 71.582031 193.535156 86.027344 188.402344 C 89.089844 187.316406 89.089844 183.011719 86.027344 181.90625 C 71.582031 176.777344 65.523438 170.71875 60.394531 156.273438 C 59.308594 153.210938 55.003906 153.210938 53.898438 156.273438 C 48.769531 170.71875 42.710938 176.777344 28.269531 181.90625 C 25.1875 183.011719 25.1875 187.316406 28.269531 188.402344 Z M 28.269531 188.402344 " fill-opacity="1" fill-rule="nonzero"/><path fill="#701136" d="M 57.136719 216.785156 C 55.476562 216.785156 54.039062 215.769531 53.480469 214.195312 C 48.382812 199.855469 42.449219 193.917969 28.109375 188.824219 C 26.535156 188.261719 25.519531 186.828125 25.519531 185.164062 C 25.519531 183.5 26.535156 182.066406 28.109375 181.503906 C 42.449219 176.410156 48.382812 170.472656 53.480469 156.132812 C 54.039062 154.558594 55.476562 153.542969 57.136719 153.542969 C 58.800781 153.542969 60.238281 154.558594 60.796875 156.132812 C 65.890625 170.472656 71.808594 176.410156 86.164062 181.503906 C 87.742188 182.066406 88.757812 183.5 88.757812 185.164062 C 88.757812 186.828125 87.742188 188.261719 86.164062 188.824219 C 71.828125 193.917969 65.890625 199.855469 60.796875 214.195312 C 60.238281 215.769531 58.800781 216.785156 57.136719 216.785156 Z M 57.136719 154.417969 C 56.121094 154.417969 54.828125 154.945312 54.300781 156.433594 C 49.101562 171.085938 43.042969 177.128906 28.40625 182.328125 C 26.921875 182.851562 26.394531 184.132812 26.394531 185.164062 C 26.394531 186.199219 26.921875 187.476562 28.40625 188 C 43.042969 193.199219 49.101562 199.257812 54.300781 213.894531 C 54.828125 215.382812 56.105469 215.910156 57.136719 215.910156 C 58.152344 215.910156 59.449219 215.382812 59.972656 213.894531 C 65.175781 199.257812 71.230469 193.199219 85.867188 188 C 87.355469 187.476562 87.882812 186.199219 87.882812 185.164062 C 87.882812 184.132812 87.355469 182.851562 85.867188 182.328125 C 71.214844 177.128906 65.175781 171.070312 59.972656 156.433594 C 59.433594 154.945312 58.152344 154.417969 57.136719 154.417969 Z M 57.136719 154.417969 " fill-opacity="1" fill-rule="nonzero"/><g clip-path="url(#35079e2017)"><path fill="#f9b928" d="M 322.097656 271.867188 C 331.972656 275.371094 336.105469 279.503906 339.605469 289.378906 C 340.359375 291.476562 343.300781 291.476562 344.035156 289.378906 C 347.539062 279.503906 351.667969 275.371094 361.542969 271.867188 C 363.644531 271.117188 363.644531 268.171875 361.542969 267.4375 C 351.667969 263.9375 347.539062 259.804688 344.035156 249.929688 C 343.28125 247.828125 340.339844 247.828125 339.605469 249.929688 C 336.105469 259.804688 331.972656 263.9375 322.097656 267.4375 C 319.996094 268.191406 319.996094 271.132812 322.097656 271.867188 Z M 322.097656 271.867188 " fill-opacity="1" fill-rule="nonzero"/></g><g clip-path="url(#f171829985)"><path fill="#701136" d="M 341.828125 291.390625 C 340.640625 291.390625 339.605469 290.65625 339.203125 289.535156 C 335.738281 279.78125 331.710938 275.753906 321.957031 272.289062 C 320.820312 271.886719 320.085938 270.851562 320.085938 269.660156 C 320.085938 268.472656 320.820312 267.4375 321.957031 267.035156 C 331.710938 263.570312 335.738281 259.542969 339.203125 249.789062 C 339.605469 248.652344 340.640625 247.933594 341.828125 247.933594 C 343.019531 247.933594 344.054688 248.667969 344.457031 249.789062 C 347.921875 259.542969 351.949219 263.570312 361.699219 267.035156 C 362.839844 267.4375 363.574219 268.472656 363.574219 269.660156 C 363.574219 270.851562 362.839844 271.886719 361.699219 272.289062 C 351.949219 275.753906 347.921875 279.78125 344.457031 289.535156 C 344.054688 290.65625 343.019531 291.390625 341.828125 291.390625 Z M 322.238281 271.464844 C 332.289062 275.039062 336.4375 279.1875 340.007812 289.238281 C 340.339844 290.183594 341.164062 290.515625 341.8125 290.515625 C 342.460938 290.515625 343.28125 290.183594 343.617188 289.238281 C 347.1875 279.1875 351.335938 275.039062 361.386719 271.464844 C 362.332031 271.132812 362.664062 270.308594 362.664062 269.660156 C 362.664062 269.015625 362.332031 268.191406 361.386719 267.859375 C 351.335938 264.285156 347.1875 260.136719 343.617188 250.085938 C 343.28125 249.140625 342.460938 248.808594 341.8125 248.808594 C 341.164062 248.808594 340.339844 249.140625 340.007812 250.085938 C 336.4375 260.136719 332.289062 264.285156 322.238281 267.859375 C 321.292969 268.191406 320.960938 269.015625 320.960938 269.660156 C 320.960938 270.308594 321.292969 271.132812 322.238281 271.464844 Z M 322.238281 271.464844 " fill-opacity="1" fill-rule="nonzero"/></g><path fill="#fc92a4" d="M 13.457031 271.625 C 15.226562 263.847656 21.492188 258.246094 28.898438 256.949219 C 28.511719 249.457031 32.574219 242.101562 39.753906 238.636719 C 46.949219 235.167969 55.210938 236.585938 60.851562 241.558594 C 66.46875 236.585938 74.75 235.167969 81.945312 238.636719 C 89.140625 242.101562 93.1875 249.457031 92.800781 256.949219 C 100.207031 258.246094 106.457031 263.832031 108.242188 271.625 C 110.011719 279.398438 106.808594 287.152344 100.695312 291.53125 C 104.304688 298.113281 103.832031 306.5 98.859375 312.75 C 93.886719 318.984375 85.816406 321.3125 78.585938 319.265625 C 75.679688 326.199219 68.832031 331.046875 60.851562 331.046875 C 52.867188 331.046875 46.019531 326.179688 43.113281 319.265625 C 35.882812 321.3125 27.8125 318.984375 22.839844 312.75 C 17.867188 306.519531 17.394531 298.132812 21.003906 291.53125 C 14.890625 287.171875 11.671875 279.414062 13.457031 271.625 Z M 13.457031 271.625 " fill-opacity="1" fill-rule="nonzero"/><path fill="#701136" d="M 60.851562 331.503906 C 53.042969 331.503906 46.019531 326.914062 42.871094 319.808594 C 35.339844 321.785156 27.375 319.160156 22.507812 313.050781 C 17.640625 306.9375 16.835938 298.605469 20.441406 291.6875 C 14.191406 287.03125 11.285156 279.167969 13.035156 271.554688 C 14.769531 263.9375 20.808594 258.105469 28.441406 256.617188 C 28.199219 248.828125 32.523438 241.664062 39.558594 238.269531 C 46.597656 234.871094 54.914062 235.957031 60.851562 241.019531 C 66.785156 235.976562 75.101562 234.890625 82.140625 238.269531 C 89.175781 241.664062 93.519531 248.828125 93.257812 256.617188 C 100.90625 258.105469 106.929688 263.9375 108.664062 271.554688 C 110.394531 279.167969 107.488281 287.03125 101.257812 291.6875 C 104.863281 298.605469 104.058594 306.9375 99.191406 313.050781 C 94.324219 319.160156 86.359375 321.785156 78.832031 319.808594 C 75.679688 326.914062 68.65625 331.503906 60.851562 331.503906 Z M 43.359375 318.738281 L 43.515625 319.089844 C 46.457031 326.09375 53.25 330.609375 60.851562 330.609375 C 68.449219 330.609375 75.242188 326.09375 78.183594 319.089844 L 78.339844 318.738281 L 78.707031 318.84375 C 86.007812 320.910156 93.78125 318.40625 98.527344 312.472656 C 103.253906 306.535156 103.972656 298.394531 100.328125 291.742188 L 100.136719 291.40625 L 100.453125 291.179688 C 106.613281 286.75 109.519531 279.117188 107.824219 271.726562 C 106.140625 264.320312 100.207031 258.703125 92.730469 257.386719 L 92.347656 257.316406 L 92.363281 256.933594 C 92.75 249.351562 88.582031 242.332031 81.753906 239.039062 C 74.925781 235.746094 66.820312 236.867188 61.148438 241.894531 L 60.851562 242.15625 L 60.550781 241.894531 C 54.863281 236.867188 46.773438 235.730469 39.945312 239.039062 C 33.117188 242.332031 28.949219 249.351562 29.335938 256.933594 L 29.355469 257.316406 L 28.96875 257.386719 C 21.492188 258.703125 15.574219 264.320312 13.875 271.726562 C 12.195312 279.132812 15.085938 286.769531 21.246094 291.179688 L 21.5625 291.40625 L 21.371094 291.742188 C 17.726562 298.394531 18.429688 306.535156 23.171875 312.472656 C 27.902344 318.40625 35.671875 320.910156 42.992188 318.84375 Z M 43.359375 318.738281 " fill-opacity="1" fill-rule="nonzero"/><path fill="#ffe5e1" d="M 83.171875 281.65625 C 83.171875 282.386719 83.136719 283.117188 83.066406 283.84375 C 82.992188 284.570312 82.886719 285.292969 82.742188 286.011719 C 82.601562 286.726562 82.421875 287.4375 82.210938 288.136719 C 82 288.835938 81.753906 289.523438 81.472656 290.199219 C 81.191406 290.875 80.878906 291.535156 80.535156 292.179688 C 80.191406 292.824219 79.816406 293.449219 79.410156 294.058594 C 79.003906 294.664062 78.570312 295.253906 78.105469 295.816406 C 77.640625 296.382812 77.152344 296.925781 76.632812 297.441406 C 76.117188 297.957031 75.574219 298.449219 75.011719 298.914062 C 74.445312 299.375 73.859375 299.8125 73.25 300.21875 C 72.644531 300.625 72.015625 301 71.371094 301.34375 C 70.726562 301.6875 70.066406 302 69.390625 302.28125 C 68.714844 302.558594 68.027344 302.804688 67.328125 303.019531 C 66.628906 303.230469 65.921875 303.40625 65.203125 303.550781 C 64.488281 303.691406 63.765625 303.800781 63.039062 303.871094 C 62.308594 303.945312 61.582031 303.980469 60.851562 303.980469 C 60.117188 303.980469 59.390625 303.945312 58.660156 303.871094 C 57.933594 303.800781 57.210938 303.691406 56.496094 303.550781 C 55.777344 303.40625 55.070312 303.230469 54.371094 303.019531 C 53.671875 302.804688 52.984375 302.558594 52.308594 302.28125 C 51.632812 302 50.972656 301.6875 50.328125 301.34375 C 49.683594 301 49.054688 300.625 48.449219 300.21875 C 47.839844 299.8125 47.253906 299.375 46.6875 298.914062 C 46.125 298.449219 45.582031 297.957031 45.066406 297.441406 C 44.546875 296.925781 44.058594 296.382812 43.59375 295.816406 C 43.128906 295.253906 42.695312 294.664062 42.289062 294.058594 C 41.882812 293.449219 41.507812 292.824219 41.164062 292.179688 C 40.820312 291.535156 40.507812 290.875 40.226562 290.199219 C 39.945312 289.523438 39.699219 288.835938 39.488281 288.136719 C 39.277344 287.4375 39.097656 286.726562 38.957031 286.011719 C 38.8125 285.292969 38.707031 284.570312 38.636719 283.84375 C 38.5625 283.117188 38.527344 282.386719 38.527344 281.65625 C 38.527344 280.925781 38.5625 280.195312 38.636719 279.46875 C 38.707031 278.738281 38.8125 278.015625 38.957031 277.300781 C 39.097656 276.582031 39.277344 275.875 39.488281 275.175781 C 39.699219 274.476562 39.945312 273.789062 40.226562 273.113281 C 40.507812 272.4375 40.820312 271.777344 41.164062 271.132812 C 41.507812 270.488281 41.882812 269.859375 42.289062 269.253906 C 42.695312 268.644531 43.128906 268.058594 43.59375 267.492188 C 44.058594 266.929688 44.546875 266.386719 45.066406 265.871094 C 45.582031 265.351562 46.125 264.863281 46.6875 264.398438 C 47.253906 263.933594 47.839844 263.5 48.449219 263.09375 C 49.054688 262.6875 49.683594 262.3125 50.328125 261.96875 C 50.972656 261.625 51.632812 261.3125 52.308594 261.03125 C 52.984375 260.75 53.671875 260.503906 54.371094 260.292969 C 55.070312 260.082031 55.777344 259.902344 56.496094 259.761719 C 57.210938 259.617188 57.933594 259.511719 58.660156 259.4375 C 59.390625 259.367188 60.117188 259.332031 60.851562 259.332031 C 61.582031 259.332031 62.308594 259.367188 63.039062 259.4375 C 63.765625 259.511719 64.488281 259.617188 65.203125 259.761719 C 65.921875 259.902344 66.628906 260.082031 67.328125 260.292969 C 68.027344 260.503906 68.714844 260.75 69.390625 261.03125 C 70.066406 261.3125 70.726562 261.625 71.371094 261.96875 C 72.015625 262.3125 72.644531 262.6875 73.25 263.09375 C 73.859375 263.5 74.445312 263.933594 75.011719 264.398438 C 75.574219 264.863281 76.117188 265.351562 76.632812 265.871094 C 77.152344 266.386719 77.640625 266.929688 78.105469 267.492188 C 78.570312 268.058594 79.003906 268.644531 79.410156 269.253906 C 79.816406 269.859375 80.191406 270.488281 80.535156 271.132812 C 80.878906 271.777344 81.191406 272.4375 81.472656 273.113281 C 81.753906 273.789062 82 274.476562 82.210938 275.175781 C 82.421875 275.875 82.601562 276.582031 82.742188 277.300781 C 82.886719 278.015625 82.992188 278.738281 83.066406 279.46875 C 83.136719 280.195312 83.171875 280.925781 83.171875 281.65625 Z M 83.171875 281.65625 " fill-opacity="1" fill-rule="nonzero"/><path fill="#701136" d="M 60.851562 304.417969 C 48.296875 304.417969 38.089844 294.210938 38.089844 281.65625 C 38.089844 269.101562 48.296875 258.894531 60.851562 258.894531 C 73.402344 258.894531 83.609375 269.101562 83.609375 281.65625 C 83.609375 294.210938 73.402344 304.417969 60.851562 304.417969 Z M 60.851562 259.769531 C 48.785156 259.769531 38.964844 269.59375 38.964844 281.65625 C 38.964844 293.71875 48.785156 303.542969 60.851562 303.542969 C 72.914062 303.542969 82.734375 293.71875 82.734375 281.65625 C 82.734375 269.59375 72.914062 259.769531 60.851562 259.769531 Z M 60.851562 259.769531 " fill-opacity="1" fill-rule="nonzero"/><g fill="#000000" fill-opacity="1"><g transform="translate(95.950096, 173.179748)"><g><path d="M 29.046875 -31.609375 C 31.960938 -31.054688 34.351562 -29.773438 36.21875 -27.765625 C 38.09375 -25.753906 39.03125 -23.457031 39.03125 -20.875 C 39.03125 -18.84375 38.453125 -16.988281 37.296875 -15.3125 C 36.140625 -13.632812 34.582031 -12.285156 32.625 -11.265625 C 30.675781 -10.242188 28.492188 -9.734375 26.078125 -9.734375 L 0.828125 -9.734375 C 0.441406 -9.734375 0.191406 -9.9375 0.078125 -10.34375 C -0.0234375 -10.757812 0.113281 -11.132812 0.5 -11.46875 C 1.925781 -12.570312 2.84375 -13.628906 3.25 -14.640625 C 3.664062 -15.660156 3.875 -16.941406 3.875 -18.484375 L 3.875 -43.078125 C 3.875 -44.554688 3.664062 -45.832031 3.25 -46.90625 C 2.84375 -47.976562 1.925781 -49.039062 0.5 -50.09375 C 0.113281 -50.414062 -0.0234375 -50.769531 0.078125 -51.15625 C 0.191406 -51.539062 0.441406 -51.734375 0.828125 -51.734375 L 22.28125 -51.734375 C 24.375 -51.734375 26.351562 -51.238281 28.21875 -50.25 C 30.09375 -49.257812 31.617188 -47.925781 32.796875 -46.25 C 33.984375 -44.570312 34.578125 -42.71875 34.578125 -40.6875 C 34.578125 -38.8125 34.050781 -37.085938 33 -35.515625 C 31.957031 -33.953125 30.640625 -32.648438 29.046875 -31.609375 Z M 18.078125 -12.046875 C 19.722656 -12.046875 21.242188 -12.441406 22.640625 -13.234375 C 24.046875 -14.035156 25.160156 -15.109375 25.984375 -16.453125 C 26.816406 -17.804688 27.234375 -19.28125 27.234375 -20.875 C 27.234375 -22.46875 26.816406 -23.925781 25.984375 -25.25 C 25.160156 -26.570312 24.046875 -27.628906 22.640625 -28.421875 C 21.242188 -29.222656 19.722656 -29.625 18.078125 -29.625 L 15.4375 -29.625 C 15.488281 -26.976562 15.582031 -24.179688 15.71875 -21.234375 C 15.851562 -18.296875 16.113281 -15.234375 16.5 -12.046875 Z M 23.765625 -40.6875 C 23.765625 -42.988281 23.101562 -44.976562 21.78125 -46.65625 C 20.457031 -48.332031 18.671875 -49.253906 16.421875 -49.421875 C 16.253906 -47.878906 16.0625 -45.597656 15.84375 -42.578125 C 15.625 -39.554688 15.488281 -36.007812 15.4375 -31.9375 L 15.765625 -31.9375 C 18.179688 -31.9375 20.117188 -32.800781 21.578125 -34.53125 C 23.035156 -36.257812 23.765625 -38.3125 23.765625 -40.6875 Z M 23.765625 -40.6875 "/></g></g></g><g fill="#000000" fill-opacity="1"><g transform="translate(136.619294, 173.179748)"><g><path d="M 36.890625 -38.125 C 36.609375 -36.46875 36.367188 -34.441406 36.171875 -32.046875 C 35.984375 -29.660156 35.914062 -27.175781 35.96875 -24.59375 C 36.03125 -22.007812 36.347656 -19.5625 36.921875 -17.25 C 37.503906 -14.9375 38.425781 -13.007812 39.6875 -11.46875 C 40.070312 -11.082031 40.238281 -10.695312 40.1875 -10.3125 C 40.132812 -9.925781 39.882812 -9.734375 39.4375 -9.734375 L 31.84375 -9.734375 C 30.03125 -9.734375 28.5625 -10.226562 27.4375 -11.21875 C 26.3125 -12.207031 25.523438 -13.304688 25.078125 -14.515625 C 24.203125 -13.203125 23.101562 -12.078125 21.78125 -11.140625 C 20.457031 -10.203125 18.863281 -9.734375 17 -9.734375 C 14.519531 -9.734375 12.289062 -10.1875 10.3125 -11.09375 C 8.332031 -12 6.765625 -13.59375 5.609375 -15.875 C 4.453125 -18.164062 3.875 -21.347656 3.875 -25.421875 C 3.875 -26.953125 3.664062 -28.238281 3.25 -29.28125 C 2.84375 -30.332031 1.925781 -31.410156 0.5 -32.515625 C 0.113281 -32.835938 -0.0234375 -33.191406 0.078125 -33.578125 C 0.191406 -33.960938 0.441406 -34.15625 0.828125 -34.15625 C 2.804688 -34.15625 4.523438 -34.429688 5.984375 -34.984375 C 7.441406 -35.535156 8.71875 -36.179688 9.8125 -36.921875 C 10.914062 -37.671875 11.894531 -38.359375 12.75 -38.984375 C 13.601562 -39.617188 14.414062 -40.019531 15.1875 -40.1875 C 16.0625 -40.351562 16.429688 -40.1875 16.296875 -39.6875 C 16.160156 -39.195312 16.035156 -38.675781 15.921875 -38.125 C 15.429688 -35.644531 15.085938 -32.988281 14.890625 -30.15625 C 14.703125 -27.320312 14.757812 -24.640625 15.0625 -22.109375 C 15.363281 -19.578125 15.941406 -17.515625 16.796875 -15.921875 C 17.648438 -14.328125 18.84375 -13.53125 20.375 -13.53125 C 21.257812 -13.53125 22.070312 -14.050781 22.8125 -15.09375 C 23.550781 -16.144531 24.195312 -17.273438 24.75 -18.484375 L 24.75 -25.421875 C 24.75 -26.953125 24.539062 -28.238281 24.125 -29.28125 C 23.71875 -30.332031 22.800781 -31.410156 21.375 -32.515625 C 20.988281 -32.835938 20.847656 -33.191406 20.953125 -33.578125 C 21.066406 -33.960938 21.316406 -34.15625 21.703125 -34.15625 C 23.679688 -34.15625 25.398438 -34.429688 26.859375 -34.984375 C 28.316406 -35.535156 29.59375 -36.179688 30.6875 -36.921875 C 31.789062 -37.671875 32.769531 -38.359375 33.625 -38.984375 C 34.476562 -39.617188 35.289062 -40.019531 36.0625 -40.1875 C 36.9375 -40.351562 37.316406 -40.1875 37.203125 -39.6875 C 37.097656 -39.195312 36.992188 -38.675781 36.890625 -38.125 Z M 36.890625 -38.125 "/></g></g></g><g fill="#000000" fill-opacity="1"><g transform="translate(177.948418, 173.179748)"><g/></g></g><g fill="#000000" fill-opacity="1"><g transform="translate(191.807281, 173.179748)"><g><path d="M 40.015625 -51.734375 C 40.785156 -51.734375 41.335938 -51.554688 41.671875 -51.203125 C 42.003906 -50.847656 42.195312 -50.285156 42.25 -49.515625 C 42.351562 -48.796875 42.488281 -47.910156 42.65625 -46.859375 C 42.820312 -45.816406 42.988281 -44.867188 43.15625 -44.015625 C 43.320312 -43.171875 43.40625 -42.632812 43.40625 -42.40625 C 43.40625 -41.96875 43.171875 -41.707031 42.703125 -41.625 C 42.234375 -41.539062 41.78125 -41.691406 41.34375 -42.078125 C 40.457031 -42.960938 39.300781 -43.984375 37.875 -45.140625 C 36.445312 -46.296875 35.003906 -47.296875 33.546875 -48.140625 C 32.085938 -48.992188 30.804688 -49.421875 29.703125 -49.421875 L 27.8125 -49.421875 L 27.8125 -30.78125 C 27.8125 -29.351562 27.863281 -27.675781 27.96875 -25.75 C 28.082031 -23.820312 28.273438 -21.894531 28.546875 -19.96875 C 28.828125 -18.039062 29.210938 -16.347656 29.703125 -14.890625 C 30.203125 -13.429688 30.835938 -12.398438 31.609375 -11.796875 C 32.046875 -11.460938 32.234375 -11.035156 32.171875 -10.515625 C 32.117188 -9.992188 31.628906 -9.734375 30.703125 -9.734375 L 13.375 -9.734375 C 12.488281 -9.734375 12.015625 -9.992188 11.953125 -10.515625 C 11.898438 -11.035156 12.066406 -11.460938 12.453125 -11.796875 C 13.222656 -12.398438 13.851562 -13.429688 14.34375 -14.890625 C 14.84375 -16.347656 15.226562 -18.039062 15.5 -19.96875 C 15.78125 -21.894531 15.972656 -23.820312 16.078125 -25.75 C 16.191406 -27.675781 16.25 -29.351562 16.25 -30.78125 L 16.25 -49.421875 L 14.359375 -49.421875 C 13.253906 -49.421875 11.972656 -48.992188 10.515625 -48.140625 C 9.054688 -47.296875 7.625 -46.296875 6.21875 -45.140625 C 4.820312 -43.984375 3.65625 -42.960938 2.71875 -42.078125 C 2.332031 -41.691406 1.890625 -41.539062 1.390625 -41.625 C 0.898438 -41.707031 0.65625 -41.96875 0.65625 -42.40625 C 0.65625 -42.632812 0.738281 -43.171875 0.90625 -44.015625 C 1.070312 -44.867188 1.25 -45.816406 1.4375 -46.859375 C 1.632812 -47.910156 1.757812 -48.796875 1.8125 -49.515625 C 1.925781 -50.285156 2.132812 -50.847656 2.4375 -51.203125 C 2.738281 -51.554688 3.273438 -51.734375 4.046875 -51.734375 Z M 40.015625 -51.734375 "/></g></g></g><g fill="#000000" fill-opacity="1"><g transform="translate(227.114398, 173.179748)"><g><path d="M 33.09375 -11.46875 C 33.53125 -11.132812 33.691406 -10.757812 33.578125 -10.34375 C 33.472656 -9.9375 33.203125 -9.734375 32.765625 -9.734375 L 24.34375 -9.734375 C 22.851562 -9.734375 21.65625 -10.0625 20.75 -10.71875 C 19.84375 -11.382812 19.179688 -12.046875 18.765625 -12.703125 C 18.359375 -13.367188 18.15625 -13.703125 18.15625 -13.703125 C 17.269531 -12.484375 16.113281 -11.515625 14.6875 -10.796875 C 13.257812 -10.085938 11.71875 -9.734375 10.0625 -9.734375 C 8.25 -9.734375 6.570312 -10.171875 5.03125 -11.046875 C 3.488281 -11.929688 2.265625 -13.113281 1.359375 -14.59375 C 0.453125 -16.082031 0 -17.707031 0 -19.46875 C 0 -21.289062 0.453125 -22.925781 1.359375 -24.375 C 2.265625 -25.832031 3.488281 -27 5.03125 -27.875 C 6.570312 -28.757812 8.25 -29.203125 10.0625 -29.203125 C 11.71875 -29.203125 13.257812 -28.84375 14.6875 -28.125 C 16.113281 -27.414062 17.269531 -26.457031 18.15625 -25.25 L 18.15625 -27.71875 C 18.15625 -29.320312 17.960938 -30.90625 17.578125 -32.46875 C 17.191406 -34.039062 16.640625 -35.347656 15.921875 -36.390625 C 15.210938 -37.429688 14.363281 -37.953125 13.375 -37.953125 C 12.757812 -37.953125 12.4375 -37.539062 12.40625 -36.71875 C 12.382812 -35.894531 12.625 -34.929688 13.125 -33.828125 C 13.445312 -33.003906 13.304688 -32.300781 12.703125 -31.71875 C 12.097656 -31.144531 11.242188 -30.707031 10.140625 -30.40625 C 9.046875 -30.101562 7.90625 -29.976562 6.71875 -30.03125 C 5.539062 -30.09375 4.535156 -30.351562 3.703125 -30.8125 C 2.878906 -31.28125 2.46875 -31.984375 2.46875 -32.921875 C 2.46875 -34.679688 3.472656 -36.34375 5.484375 -37.90625 C 7.492188 -39.476562 10.394531 -40.265625 14.1875 -40.265625 C 17.164062 -40.265625 19.820312 -39.628906 22.15625 -38.359375 C 24.488281 -37.097656 26.328125 -35.335938 27.671875 -33.078125 C 29.023438 -30.828125 29.703125 -28.21875 29.703125 -25.25 L 29.703125 -18.484375 C 29.703125 -16.941406 29.90625 -15.660156 30.3125 -14.640625 C 30.726562 -13.628906 31.65625 -12.570312 33.09375 -11.46875 Z M 13.703125 -14.1875 C 14.859375 -14.1875 15.832031 -14.707031 16.625 -15.75 C 17.425781 -16.800781 17.828125 -18.039062 17.828125 -19.46875 C 17.828125 -20.90625 17.425781 -22.144531 16.625 -23.1875 C 15.832031 -24.226562 14.859375 -24.75 13.703125 -24.75 C 12.597656 -24.75 11.644531 -24.226562 10.84375 -23.1875 C 10.050781 -22.144531 9.65625 -20.90625 9.65625 -19.46875 C 9.65625 -18.039062 10.050781 -16.800781 10.84375 -15.75 C 11.644531 -14.707031 12.597656 -14.1875 13.703125 -14.1875 Z M 13.703125 -14.1875 "/></g></g></g><g fill="#000000" fill-opacity="1"><g transform="translate(262.504026, 173.179748)"><g><path d="M 20.296875 -36.640625 C 20.847656 -36.640625 21.21875 -36.445312 21.40625 -36.0625 C 21.601562 -35.675781 21.703125 -35.207031 21.703125 -34.65625 C 21.703125 -34.101562 21.601562 -33.632812 21.40625 -33.25 C 21.21875 -32.863281 20.847656 -32.671875 20.296875 -32.671875 L 16.25 -32.671875 C 16.09375 -29.148438 16.132812 -25.90625 16.375 -22.9375 C 16.625 -19.96875 17.023438 -17.519531 17.578125 -15.59375 C 18.128906 -13.664062 18.757812 -12.398438 19.46875 -11.796875 C 19.914062 -11.460938 20.109375 -11.035156 20.046875 -10.515625 C 19.992188 -9.992188 19.5 -9.734375 18.5625 -9.734375 L 1.890625 -9.734375 C 1.347656 -9.734375 1.078125 -9.976562 1.078125 -10.46875 C 1.078125 -10.96875 1.269531 -11.410156 1.65625 -11.796875 C 2.582031 -12.679688 3.222656 -13.863281 3.578125 -15.34375 C 3.941406 -16.832031 4.148438 -18.375 4.203125 -19.96875 C 4.265625 -21.5625 4.296875 -22.9375 4.296875 -24.09375 C 4.296875 -25.195312 4.265625 -26.554688 4.203125 -28.171875 C 4.148438 -29.796875 3.820312 -31.296875 3.21875 -32.671875 L 1.40625 -32.671875 C 0.851562 -32.671875 0.476562 -32.863281 0.28125 -33.25 C 0.09375 -33.632812 0 -34.101562 0 -34.65625 C 0 -35.207031 0.09375 -35.675781 0.28125 -36.0625 C 0.476562 -36.445312 0.851562 -36.640625 1.40625 -36.640625 L 1.890625 -36.640625 C 3.878906 -36.640625 5.53125 -37.09375 6.84375 -38 C 8.164062 -38.90625 9.28125 -39.976562 10.1875 -41.21875 C 11.09375 -42.457031 11.941406 -43.613281 12.734375 -44.6875 C 13.535156 -45.757812 14.4375 -46.457031 15.4375 -46.78125 C 16.257812 -47.113281 16.863281 -47.046875 17.25 -46.578125 C 17.632812 -46.109375 17.769531 -45.597656 17.65625 -45.046875 C 17.4375 -43.617188 17.21875 -42.203125 17 -40.796875 C 16.78125 -39.398438 16.613281 -38.015625 16.5 -36.640625 Z M 20.296875 -36.640625 "/></g></g></g><g fill="#000000" fill-opacity="1"><g transform="translate(285.684641, 173.179748)"><g><path d="M 16.921875 -9.734375 L 0.828125 -9.734375 C 0.441406 -9.734375 0.191406 -9.9375 0.078125 -10.34375 C -0.0234375 -10.757812 0.113281 -11.132812 0.5 -11.46875 C 1.925781 -12.570312 2.84375 -13.628906 3.25 -14.640625 C 3.664062 -15.660156 3.875 -16.941406 3.875 -18.484375 L 3.875 -25.421875 C 3.875 -26.953125 3.664062 -28.238281 3.25 -29.28125 C 2.84375 -30.332031 1.925781 -31.410156 0.5 -32.515625 C 0.113281 -32.835938 -0.0234375 -33.191406 0.078125 -33.578125 C 0.191406 -33.960938 0.441406 -34.15625 0.828125 -34.15625 C 2.804688 -34.15625 4.523438 -34.429688 5.984375 -34.984375 C 7.441406 -35.535156 8.71875 -36.179688 9.8125 -36.921875 C 10.914062 -37.671875 11.894531 -38.359375 12.75 -38.984375 C 13.601562 -39.617188 14.414062 -40.019531 15.1875 -40.1875 C 16.0625 -40.351562 16.429688 -40.1875 16.296875 -39.6875 C 16.160156 -39.195312 16.035156 -38.675781 15.921875 -38.125 C 14.828125 -30.800781 14.472656 -24.867188 14.859375 -20.328125 C 15.242188 -15.796875 16.203125 -12.953125 17.734375 -11.796875 C 18.179688 -11.460938 18.375 -11.035156 18.3125 -10.515625 C 18.257812 -9.992188 17.796875 -9.734375 16.921875 -9.734375 Z M 6.1875 -39.6875 C 4.539062 -39.6875 3.25 -40.273438 2.3125 -41.453125 C 1.375 -42.640625 1.097656 -44.0625 1.484375 -45.71875 C 1.867188 -47.414062 2.773438 -48.84375 4.203125 -50 C 5.640625 -51.15625 7.207031 -51.734375 8.90625 -51.734375 C 10.5625 -51.734375 11.851562 -51.15625 12.78125 -50 C 13.71875 -48.84375 13.992188 -47.414062 13.609375 -45.71875 C 13.222656 -44.0625 12.316406 -42.640625 10.890625 -41.453125 C 9.460938 -40.273438 7.894531 -39.6875 6.1875 -39.6875 Z M 6.1875 -39.6875 "/></g></g></g><g fill="#000000" fill-opacity="1"><g transform="translate(121.283224, 232.552036)"><g><path d="M 35.234375 -51.734375 C 36.109375 -51.734375 36.585938 -51.484375 36.671875 -50.984375 C 36.753906 -50.492188 36.578125 -50.082031 36.140625 -49.75 C 35.367188 -49.144531 34.773438 -47.976562 34.359375 -46.25 C 33.953125 -44.519531 33.664062 -42.523438 33.5 -40.265625 C 33.332031 -38.015625 33.25 -35.800781 33.25 -33.625 C 33.25 -31.445312 33.25 -29.644531 33.25 -28.21875 C 33.25 -22.550781 31.75 -18.050781 28.75 -14.71875 C 25.757812 -11.394531 21.429688 -9.734375 15.765625 -9.734375 C 12.679688 -9.734375 9.957031 -10.226562 7.59375 -11.21875 C 5.226562 -12.207031 3.367188 -13.566406 2.015625 -15.296875 C 0.671875 -17.035156 0 -19.003906 0 -21.203125 C 0 -23.242188 0.519531 -24.742188 1.5625 -25.703125 C 2.613281 -26.660156 3.878906 -27.207031 5.359375 -27.34375 C 6.847656 -27.488281 8.265625 -27.3125 9.609375 -26.8125 C 10.960938 -26.320312 11.984375 -25.582031 12.671875 -24.59375 C 13.359375 -23.601562 13.398438 -22.472656 12.796875 -21.203125 C 12.179688 -19.878906 11.957031 -18.625 12.125 -17.4375 C 12.289062 -16.257812 12.691406 -15.242188 13.328125 -14.390625 C 13.960938 -13.546875 14.703125 -12.972656 15.546875 -12.671875 C 16.398438 -12.367188 17.210938 -12.460938 17.984375 -12.953125 C 19.421875 -13.890625 20.359375 -15.507812 20.796875 -17.8125 C 21.234375 -20.125 21.453125 -22.851562 21.453125 -26 C 21.453125 -28.414062 21.351562 -30.898438 21.15625 -33.453125 C 20.96875 -36.015625 20.691406 -38.4375 20.328125 -40.71875 C 19.972656 -43 19.5625 -44.9375 19.09375 -46.53125 C 18.632812 -48.132812 18.101562 -49.207031 17.5 -49.75 C 17.113281 -50.132812 16.929688 -50.5625 16.953125 -51.03125 C 16.984375 -51.5 17.4375 -51.734375 18.3125 -51.734375 Z M 35.234375 -51.734375 "/></g></g></g><g fill="#000000" fill-opacity="1"><g transform="translate(158.98265, 232.552036)"><g><path d="M 33.09375 -11.46875 C 33.53125 -11.132812 33.691406 -10.757812 33.578125 -10.34375 C 33.472656 -9.9375 33.203125 -9.734375 32.765625 -9.734375 L 24.34375 -9.734375 C 22.851562 -9.734375 21.65625 -10.0625 20.75 -10.71875 C 19.84375 -11.382812 19.179688 -12.046875 18.765625 -12.703125 C 18.359375 -13.367188 18.15625 -13.703125 18.15625 -13.703125 C 17.269531 -12.484375 16.113281 -11.515625 14.6875 -10.796875 C 13.257812 -10.085938 11.71875 -9.734375 10.0625 -9.734375 C 8.25 -9.734375 6.570312 -10.171875 5.03125 -11.046875 C 3.488281 -11.929688 2.265625 -13.113281 1.359375 -14.59375 C 0.453125 -16.082031 0 -17.707031 0 -19.46875 C 0 -21.289062 0.453125 -22.925781 1.359375 -24.375 C 2.265625 -25.832031 3.488281 -27 5.03125 -27.875 C 6.570312 -28.757812 8.25 -29.203125 10.0625 -29.203125 C 11.71875 -29.203125 13.257812 -28.84375 14.6875 -28.125 C 16.113281 -27.414062 17.269531 -26.457031 18.15625 -25.25 L 18.15625 -27.71875 C 18.15625 -29.320312 17.960938 -30.90625 17.578125 -32.46875 C 17.191406 -34.039062 16.640625 -35.347656 15.921875 -36.390625 C 15.210938 -37.429688 14.363281 -37.953125 13.375 -37.953125 C 12.757812 -37.953125 12.4375 -37.539062 12.40625 -36.71875 C 12.382812 -35.894531 12.625 -34.929688 13.125 -33.828125 C 13.445312 -33.003906 13.304688 -32.300781 12.703125 -31.71875 C 12.097656 -31.144531 11.242188 -30.707031 10.140625 -30.40625 C 9.046875 -30.101562 7.90625 -29.976562 6.71875 -30.03125 C 5.539062 -30.09375 4.535156 -30.351562 3.703125 -30.8125 C 2.878906 -31.28125 2.46875 -31.984375 2.46875 -32.921875 C 2.46875 -34.679688 3.472656 -36.34375 5.484375 -37.90625 C 7.492188 -39.476562 10.394531 -40.265625 14.1875 -40.265625 C 17.164062 -40.265625 19.820312 -39.628906 22.15625 -38.359375 C 24.488281 -37.097656 26.328125 -35.335938 27.671875 -33.078125 C 29.023438 -30.828125 29.703125 -28.21875 29.703125 -25.25 L 29.703125 -18.484375 C 29.703125 -16.941406 29.90625 -15.660156 30.3125 -14.640625 C 30.726562 -13.628906 31.65625 -12.570312 33.09375 -11.46875 Z M 13.703125 -14.1875 C 14.859375 -14.1875 15.832031 -14.707031 16.625 -15.75 C 17.425781 -16.800781 17.828125 -18.039062 17.828125 -19.46875 C 17.828125 -20.90625 17.425781 -22.144531 16.625 -23.1875 C 15.832031 -24.226562 14.859375 -24.75 13.703125 -24.75 C 12.597656 -24.75 11.644531 -24.226562 10.84375 -23.1875 C 10.050781 -22.144531 9.65625 -20.90625 9.65625 -19.46875 C 9.65625 -18.039062 10.050781 -16.800781 10.84375 -15.75 C 11.644531 -14.707031 12.597656 -14.1875 13.703125 -14.1875 Z M 13.703125 -14.1875 "/></g></g></g><g fill="#000000" fill-opacity="1"><g transform="translate(194.372278, 232.552036)"><g><path d="M 40.34375 -11.46875 C 40.789062 -11.132812 40.972656 -10.757812 40.890625 -10.34375 C 40.804688 -9.9375 40.546875 -9.734375 40.109375 -9.734375 L 23.6875 -9.734375 C 22.800781 -9.734375 22.332031 -9.976562 22.28125 -10.46875 C 22.226562 -10.96875 22.394531 -11.410156 22.78125 -11.796875 C 23.875 -12.734375 24.65625 -14.191406 25.125 -16.171875 C 25.59375 -18.148438 25.796875 -20.304688 25.734375 -22.640625 C 25.679688 -24.984375 25.421875 -27.226562 24.953125 -29.375 C 24.492188 -31.519531 23.835938 -33.289062 22.984375 -34.6875 C 22.128906 -36.09375 21.125 -36.796875 19.96875 -36.796875 C 19.25 -36.796875 18.394531 -36.351562 17.40625 -35.46875 C 16.414062 -34.59375 15.535156 -33.359375 14.765625 -31.765625 C 14.765625 -28.460938 14.898438 -25.378906 15.171875 -22.515625 C 15.453125 -19.660156 15.835938 -17.285156 16.328125 -15.390625 C 16.828125 -13.492188 17.410156 -12.296875 18.078125 -11.796875 C 18.515625 -11.460938 18.703125 -11.035156 18.640625 -10.515625 C 18.585938 -9.992188 18.09375 -9.734375 17.15625 -9.734375 L 0.828125 -9.734375 C 0.441406 -9.734375 0.191406 -9.9375 0.078125 -10.34375 C -0.0234375 -10.757812 0.113281 -11.132812 0.5 -11.46875 C 1.925781 -12.570312 2.84375 -13.628906 3.25 -14.640625 C 3.664062 -15.660156 3.875 -16.941406 3.875 -18.484375 L 3.875 -37.046875 C 3.875 -38.585938 3.664062 -39.878906 3.25 -40.921875 C 2.84375 -41.972656 1.925781 -43.019531 0.5 -44.0625 C 0.113281 -44.394531 -0.0234375 -44.753906 0.078125 -45.140625 C 0.191406 -45.523438 0.441406 -45.71875 0.828125 -45.71875 C 2.804688 -45.71875 4.535156 -45.988281 6.015625 -46.53125 C 7.503906 -47.082031 8.8125 -47.742188 9.9375 -48.515625 C 11.070312 -49.285156 12.078125 -49.972656 12.953125 -50.578125 C 13.835938 -51.179688 14.664062 -51.566406 15.4375 -51.734375 C 16.3125 -51.953125 16.691406 -51.800781 16.578125 -51.28125 C 16.472656 -50.757812 16.363281 -50.222656 16.25 -49.671875 C 15.863281 -47.472656 15.5625 -45.234375 15.34375 -42.953125 C 15.125 -40.671875 14.960938 -38.398438 14.859375 -36.140625 C 15.785156 -37.296875 16.867188 -38.269531 18.109375 -39.0625 C 19.347656 -39.863281 20.765625 -40.265625 22.359375 -40.265625 C 25.390625 -40.265625 27.988281 -39.535156 30.15625 -38.078125 C 32.332031 -36.617188 34.007812 -34.648438 35.1875 -32.171875 C 36.375 -29.703125 36.96875 -26.953125 36.96875 -23.921875 L 36.96875 -18.484375 C 36.96875 -16.941406 37.1875 -15.660156 37.625 -14.640625 C 38.0625 -13.628906 38.96875 -12.570312 40.34375 -11.46875 Z M 40.34375 -11.46875 "/></g></g></g><g fill="#000000" fill-opacity="1"><g transform="translate(237.1863, 232.552036)"><g><path d="M 16.921875 -9.734375 L 0.828125 -9.734375 C 0.441406 -9.734375 0.191406 -9.9375 0.078125 -10.34375 C -0.0234375 -10.757812 0.113281 -11.132812 0.5 -11.46875 C 1.925781 -12.570312 2.84375 -13.628906 3.25 -14.640625 C 3.664062 -15.660156 3.875 -16.941406 3.875 -18.484375 L 3.875 -25.421875 C 3.875 -26.953125 3.664062 -28.238281 3.25 -29.28125 C 2.84375 -30.332031 1.925781 -31.410156 0.5 -32.515625 C 0.113281 -32.835938 -0.0234375 -33.191406 0.078125 -33.578125 C 0.191406 -33.960938 0.441406 -34.15625 0.828125 -34.15625 C 2.804688 -34.15625 4.523438 -34.429688 5.984375 -34.984375 C 7.441406 -35.535156 8.71875 -36.179688 9.8125 -36.921875 C 10.914062 -37.671875 11.894531 -38.359375 12.75 -38.984375 C 13.601562 -39.617188 14.414062 -40.019531 15.1875 -40.1875 C 16.0625 -40.351562 16.429688 -40.1875 16.296875 -39.6875 C 16.160156 -39.195312 16.035156 -38.675781 15.921875 -38.125 C 14.828125 -30.800781 14.472656 -24.867188 14.859375 -20.328125 C 15.242188 -15.796875 16.203125 -12.953125 17.734375 -11.796875 C 18.179688 -11.460938 18.375 -11.035156 18.3125 -10.515625 C 18.257812 -9.992188 17.796875 -9.734375 16.921875 -9.734375 Z M 6.1875 -39.6875 C 4.539062 -39.6875 3.25 -40.273438 2.3125 -41.453125 C 1.375 -42.640625 1.097656 -44.0625 1.484375 -45.71875 C 1.867188 -47.414062 2.773438 -48.84375 4.203125 -50 C 5.640625 -51.15625 7.207031 -51.734375 8.90625 -51.734375 C 10.5625 -51.734375 11.851562 -51.15625 12.78125 -50 C 13.71875 -48.84375 13.992188 -47.414062 13.609375 -45.71875 C 13.222656 -44.0625 12.316406 -42.640625 10.890625 -41.453125 C 9.460938 -40.273438 7.894531 -39.6875 6.1875 -39.6875 Z M 6.1875 -39.6875 "/></g></g></g><g fill="#000000" fill-opacity="1"><g transform="translate(257.562143, 232.552036)"><g><path d="M 20.296875 -36.640625 C 20.847656 -36.640625 21.21875 -36.445312 21.40625 -36.0625 C 21.601562 -35.675781 21.703125 -35.207031 21.703125 -34.65625 C 21.703125 -34.101562 21.601562 -33.632812 21.40625 -33.25 C 21.21875 -32.863281 20.847656 -32.671875 20.296875 -32.671875 L 16.25 -32.671875 C 16.09375 -29.148438 16.132812 -25.90625 16.375 -22.9375 C 16.625 -19.96875 17.023438 -17.519531 17.578125 -15.59375 C 18.128906 -13.664062 18.757812 -12.398438 19.46875 -11.796875 C 19.914062 -11.460938 20.109375 -11.035156 20.046875 -10.515625 C 19.992188 -9.992188 19.5 -9.734375 18.5625 -9.734375 L 1.890625 -9.734375 C 1.347656 -9.734375 1.078125 -9.976562 1.078125 -10.46875 C 1.078125 -10.96875 1.269531 -11.410156 1.65625 -11.796875 C 2.582031 -12.679688 3.222656 -13.863281 3.578125 -15.34375 C 3.941406 -16.832031 4.148438 -18.375 4.203125 -19.96875 C 4.265625 -21.5625 4.296875 -22.9375 4.296875 -24.09375 C 4.296875 -25.195312 4.265625 -26.554688 4.203125 -28.171875 C 4.148438 -29.796875 3.820312 -31.296875 3.21875 -32.671875 L 1.40625 -32.671875 C 0.851562 -32.671875 0.476562 -32.863281 0.28125 -33.25 C 0.09375 -33.632812 0 -34.101562 0 -34.65625 C 0 -35.207031 0.09375 -35.675781 0.28125 -36.0625 C 0.476562 -36.445312 0.851562 -36.640625 1.40625 -36.640625 L 1.890625 -36.640625 C 3.878906 -36.640625 5.53125 -37.09375 6.84375 -38 C 8.164062 -38.90625 9.28125 -39.976562 10.1875 -41.21875 C 11.09375 -42.457031 11.941406 -43.613281 12.734375 -44.6875 C 13.535156 -45.757812 14.4375 -46.457031 15.4375 -46.78125 C 16.257812 -47.113281 16.863281 -47.046875 17.25 -46.578125 C 17.632812 -46.109375 17.769531 -45.597656 17.65625 -45.046875 C 17.4375 -43.617188 17.21875 -42.203125 17 -40.796875 C 16.78125 -39.398438 16.613281 -38.015625 16.5 -36.640625 Z M 20.296875 -36.640625 "/></g></g></g></svg>