<svg xmlns="http://www.w3.org/2000/svg" xmlns:xlink="http://www.w3.org/1999/xlink" width="500" zoomAndPan="magnify" viewBox="0 0 375 374.999991" height="500" preserveAspectRatio="xMidYMid meet" version="1.0"><defs><clipPath id="538682eb1b"><path d="M 25.148438 7 L 348 7 L 348 368 L 25.148438 368 Z M 25.148438 7 " clip-rule="nonzero"/></clipPath><clipPath id="c07f15f2b2"><path d="M 25.148438 6.523438 L 349 6.523438 L 349 368.773438 L 25.148438 368.773438 Z M 25.148438 6.523438 " clip-rule="nonzero"/></clipPath></defs><g clip-path="url(#538682eb1b)"><path fill="#ffffff" d="M 331.933594 348.070312 C 343.367188 335.578125 349.050781 318.6875 347.5625 301.792969 C 344.554688 267.910156 335.488281 217.402344 309.507812 169.265625 L 309.335938 168.960938 L 309.640625 168.757812 C 311.300781 167.503906 312.890625 166.117188 314.410156 164.628906 C 323.003906 156.03125 327.773438 144.519531 327.773438 132.265625 L 327.773438 132.097656 L 327.910156 131.960938 C 336.570312 123.292969 341.304688 111.820312 341.304688 99.632812 C 341.304688 87.445312 336.535156 75.96875 327.910156 67.304688 L 327.773438 67.167969 L 327.773438 67 C 327.773438 54.746094 323.003906 43.269531 314.410156 34.636719 C 305.785156 26.003906 294.316406 21.265625 282.070312 21.265625 L 281.902344 21.265625 L 281.769531 21.128906 C 273.109375 12.464844 261.640625 7.726562 249.460938 7.726562 C 237.285156 7.726562 225.816406 12.5 217.15625 21.128906 L 217.019531 21.265625 L 216.851562 21.265625 C 204.605469 21.265625 193.136719 26.003906 184.511719 34.636719 C 179.945312 39.207031 176.324219 44.859375 174.058594 50.988281 L 173.921875 51.394531 L 173.519531 51.257812 C 148.722656 42.085938 121.355469 35.921875 92.195312 32.910156 C 90.199219 32.707031 88.203125 32.605469 86.207031 32.605469 C 71.492188 32.605469 57.113281 38.089844 46.054688 48.078125 C 33.300781 59.550781 25.992188 76.003906 25.992188 93.167969 L 25.992188 307.175781 C 25.992188 340.554688 53.125 367.738281 86.476562 367.738281 L 287.28125 367.738281 C 304.230469 367.738281 320.5 360.5625 331.933594 348.070312 Z M 33.164062 307.210938 L 33.164062 93.167969 C 33.164062 78.035156 39.59375 63.546875 50.824219 53.390625 C 61.886719 43.40625 76.667969 38.5625 91.417969 40.054688 C 123.113281 43.304688 152.476562 50.34375 178.761719 61.007812 C 180.046875 52.949219 183.835938 45.4375 189.550781 39.75 C 197.570312 31.726562 208.632812 27.699219 219.996094 28.613281 C 227.40625 19.910156 238.09375 14.933594 249.394531 14.933594 C 260.691406 14.933594 271.382812 19.910156 278.789062 28.613281 C 290.191406 27.699219 301.253906 31.726562 309.234375 39.75 C 317.21875 47.773438 321.277344 58.839844 320.367188 70.214844 C 329.058594 77.628906 334.03125 88.324219 334.03125 99.632812 C 334.03125 110.9375 329.058594 121.636719 320.367188 129.050781 C 321.277344 140.421875 317.21875 151.527344 309.234375 159.515625 C 306.429688 162.324219 303.214844 164.660156 299.664062 166.488281 C 327.605469 215.101562 337.210938 267.199219 340.359375 302.4375 C 341.675781 317.332031 336.671875 332.195312 326.589844 343.230469 C 316.507812 354.230469 302.167969 360.5625 287.246094 360.5625 L 86.476562 360.5625 C 57.082031 360.5625 33.164062 336.628906 33.164062 307.210938 Z M 33.164062 307.210938 " fill-opacity="1" fill-rule="nonzero"/></g><g clip-path="url(#c07f15f2b2)"><path fill="#1d1d1b" d="M 348.410156 301.726562 C 345.398438 267.839844 336.367188 217.335938 310.421875 169.199219 C 312.011719 167.980469 313.53125 166.625 314.988281 165.203125 C 323.714844 156.46875 328.550781 144.824219 328.621094 132.433594 C 337.347656 123.632812 342.152344 111.988281 342.152344 99.632812 C 342.152344 87.277344 337.347656 75.632812 328.621094 66.832031 C 328.550781 54.40625 323.714844 42.796875 315.019531 34.0625 C 306.292969 25.328125 294.65625 20.488281 282.273438 20.453125 C 273.414062 11.6875 261.773438 6.878906 249.429688 6.878906 C 237.082031 6.878906 225.445312 11.6875 216.648438 20.417969 C 204.265625 20.453125 192.628906 25.292969 183.902344 34.027344 C 179.371094 38.5625 175.714844 44.183594 173.382812 50.277344 C 148.621094 41.171875 121.320312 35.042969 92.261719 32.03125 C 75.246094 30.304688 58.199219 35.921875 45.476562 47.398438 C 32.554688 59.113281 25.148438 75.765625 25.148438 93.167969 L 25.148438 307.175781 C 25.148438 341.0625 52.648438 368.585938 86.476562 368.585938 L 287.28125 368.585938 C 304.464844 368.585938 320.941406 361.304688 332.542969 348.644531 C 344.148438 335.984375 349.898438 318.855469 348.375 301.726562 Z M 25.992188 307.210938 L 25.992188 93.167969 C 25.992188 76.003906 33.300781 59.550781 46.054688 48.078125 C 57.113281 38.089844 71.492188 32.605469 86.207031 32.605469 C 88.203125 32.605469 90.199219 32.707031 92.195312 32.910156 C 121.355469 35.921875 148.6875 42.085938 173.519531 51.257812 L 173.921875 51.394531 L 174.058594 50.988281 C 176.359375 44.859375 179.980469 39.207031 184.511719 34.636719 C 193.136719 26.003906 204.605469 21.265625 216.851562 21.265625 L 217.019531 21.265625 L 217.15625 21.128906 C 225.816406 12.464844 237.285156 7.726562 249.460938 7.726562 C 261.640625 7.726562 273.109375 12.5 281.769531 21.128906 L 281.902344 21.265625 L 282.070312 21.265625 C 294.316406 21.265625 305.785156 26.039062 314.410156 34.636719 C 323.003906 43.234375 327.773438 54.746094 327.773438 67 L 327.773438 67.167969 L 327.910156 67.304688 C 336.570312 75.96875 341.304688 87.445312 341.304688 99.632812 C 341.304688 111.820312 336.535156 123.292969 327.910156 131.960938 L 327.773438 132.097656 L 327.773438 132.265625 C 327.773438 144.519531 323.003906 155.996094 314.410156 164.628906 C 312.921875 166.117188 311.300781 167.503906 309.640625 168.757812 L 309.335938 168.960938 L 309.507812 169.265625 C 335.519531 217.367188 344.554688 267.875 347.5625 301.796875 C 349.050781 318.6875 343.367188 335.578125 331.933594 348.070312 C 320.5 360.5625 304.230469 367.738281 287.28125 367.738281 L 86.476562 367.738281 C 53.125 367.738281 25.992188 340.589844 25.992188 307.210938 Z M 25.992188 307.210938 " fill-opacity="1" fill-rule="nonzero"/></g><path fill="#9ab5a3" d="M 325.371094 342.078125 C 335.113281 331.414062 339.984375 317.027344 338.699219 302.605469 C 335.554688 267.367188 325.914062 215.167969 297.769531 166.589844 C 297.632812 166.386719 297.632812 166.152344 297.699219 165.914062 C 297.769531 165.675781 297.9375 165.507812 298.140625 165.40625 C 301.828125 163.613281 305.175781 161.242188 308.085938 158.332031 C 315.832031 150.578125 319.6875 139.8125 318.707031 128.777344 C 318.707031 128.507812 318.808594 128.238281 319.011719 128.066406 C 327.539062 120.992188 332.410156 110.632812 332.410156 99.667969 C 332.410156 88.699219 327.539062 78.339844 319.011719 71.265625 C 318.808594 71.09375 318.675781 70.824219 318.707031 70.554688 C 319.722656 59.519531 315.832031 48.753906 308.085938 41 C 300.339844 33.25 289.546875 29.390625 278.554688 30.371094 C 278.316406 30.371094 278.011719 30.269531 277.84375 30.066406 C 270.773438 21.535156 260.421875 16.660156 249.460938 16.660156 C 238.5 16.660156 228.148438 21.535156 221.082031 30.066406 C 220.910156 30.269531 220.640625 30.40625 220.335938 30.371094 C 209.339844 29.355469 198.550781 33.214844 190.804688 41 C 185.121094 46.6875 181.398438 54.269531 180.351562 62.394531 C 180.351562 62.667969 180.148438 62.871094 179.945312 63.003906 C 179.707031 63.140625 179.4375 63.175781 179.199219 63.074219 C 152.816406 52.273438 123.25 45.132812 91.316406 41.847656 C 89.625 41.679688 87.898438 41.578125 86.207031 41.578125 C 73.691406 41.578125 61.445312 46.25 52.007812 54.746094 C 41.148438 64.5625 34.890625 78.609375 34.890625 93.269531 L 34.890625 307.277344 C 34.890625 335.78125 58.0625 358.9375 86.511719 358.9375 L 287.316406 358.9375 C 301.761719 358.9375 315.664062 352.808594 325.40625 342.144531 Z M 86.476562 347.019531 C 64.523438 347.019531 46.695312 329.148438 46.695312 307.210938 L 46.695312 93.167969 C 46.695312 81.859375 51.5 71.027344 59.921875 63.445312 C 68.144531 55.996094 79.136719 52.410156 90.0625 53.527344 C 126.699219 57.285156 159.378906 66.085938 187.996094 79.828125 C 189.722656 78.507812 191.582031 77.359375 193.613281 76.511719 C 192.394531 73.53125 191.785156 70.351562 191.785156 67.066406 C 191.785156 60.363281 194.390625 54.066406 199.125 49.328125 C 203.863281 44.589844 210.152344 41.984375 216.851562 41.984375 C 220.132812 41.984375 223.347656 42.625 226.289062 43.8125 C 230.113281 34.804688 239.007812 28.476562 249.394531 28.476562 C 259.78125 28.476562 268.675781 34.804688 272.5 43.8125 C 281.566406 40.121094 292.355469 41.984375 299.695312 49.296875 C 304.433594 54.035156 307.039062 60.332031 307.039062 67.035156 C 307.039062 70.316406 306.394531 73.53125 305.210938 76.476562 C 314.207031 80.304688 320.535156 89.207031 320.535156 99.597656 C 320.535156 109.992188 314.207031 118.894531 305.210938 122.71875 C 308.898438 131.792969 307.039062 142.589844 299.730469 149.9375 C 294.824219 154.84375 288.433594 157.28125 282.003906 157.28125 C 280.582031 157.28125 279.164062 157.148438 277.742188 156.910156 C 277.878906 157.078125 277.980469 157.25 278.113281 157.417969 C 312.179688 207.550781 323.476562 264.625 326.929688 303.621094 C 327.910156 314.726562 324.15625 325.828125 316.644531 334.054688 C 309.132812 342.28125 298.445312 346.988281 287.28125 346.988281 L 86.476562 346.988281 Z M 86.476562 347.019531 " fill-opacity="1" fill-rule="nonzero"/><path fill="#000000" d="M 326.625 343.230469 C 336.703125 332.195312 341.710938 317.332031 340.390625 302.4375 C 337.246094 267.199219 327.640625 215.101562 299.695312 166.488281 C 303.25 164.660156 306.460938 162.324219 309.269531 159.515625 C 317.289062 151.527344 321.3125 140.421875 320.398438 129.050781 C 329.09375 121.636719 334.066406 110.9375 334.066406 99.632812 C 334.066406 88.324219 329.09375 77.628906 320.398438 70.214844 C 321.3125 58.839844 317.253906 47.738281 309.269531 39.75 C 301.285156 31.761719 290.226562 27.699219 278.824219 28.613281 C 271.417969 19.910156 260.726562 14.933594 249.429688 14.933594 C 238.128906 14.933594 227.441406 19.910156 220.03125 28.613281 C 208.664062 27.699219 197.601562 31.726562 189.585938 39.75 C 183.871094 45.4375 180.082031 52.984375 178.796875 61.007812 C 152.511719 50.378906 123.148438 43.304688 91.449219 40.054688 C 76.703125 38.5625 61.917969 43.40625 50.855469 53.390625 C 39.625 63.546875 33.199219 78.035156 33.199219 93.167969 L 33.199219 307.175781 C 33.199219 336.59375 57.113281 360.527344 86.511719 360.527344 L 287.316406 360.527344 C 302.234375 360.527344 316.578125 354.199219 326.65625 343.195312 Z M 34.855469 307.210938 L 34.855469 93.167969 C 34.855469 78.507812 41.082031 64.460938 51.972656 54.644531 C 61.410156 46.148438 73.625 41.476562 86.171875 41.476562 C 87.863281 41.476562 89.554688 41.578125 91.28125 41.746094 C 123.214844 45.03125 152.78125 52.171875 179.167969 62.972656 C 179.402344 63.074219 179.675781 63.039062 179.910156 62.902344 C 180.148438 62.769531 180.285156 62.53125 180.316406 62.292969 C 181.367188 54.203125 185.085938 46.621094 190.769531 40.898438 C 198.515625 33.113281 209.308594 29.253906 220.300781 30.269531 C 220.574219 30.269531 220.84375 30.167969 221.046875 29.964844 C 228.117188 21.433594 238.46875 16.558594 249.429688 16.558594 C 260.386719 16.558594 270.738281 21.433594 277.808594 29.964844 C 277.980469 30.167969 278.285156 30.304688 278.519531 30.269531 C 289.546875 29.289062 300.304688 33.113281 308.050781 40.898438 C 315.800781 48.6875 319.65625 59.417969 318.675781 70.453125 C 318.675781 70.722656 318.777344 70.992188 318.980469 71.164062 C 327.503906 78.238281 332.375 88.597656 332.375 99.566406 C 332.375 110.53125 327.503906 120.890625 318.980469 127.964844 C 318.777344 128.136719 318.640625 128.40625 318.675781 128.675781 C 319.6875 139.710938 315.800781 150.476562 308.050781 158.230469 C 305.175781 161.105469 301.828125 163.511719 298.105469 165.304688 C 297.902344 165.40625 297.734375 165.574219 297.667969 165.8125 C 297.597656 166.050781 297.632812 166.285156 297.734375 166.488281 C 325.878906 215.066406 335.519531 267.265625 338.667969 302.503906 C 339.953125 316.925781 335.082031 331.3125 325.339844 341.976562 C 315.597656 352.640625 301.691406 358.765625 287.246094 358.765625 L 86.476562 358.765625 C 58.027344 358.765625 34.855469 335.578125 34.855469 307.109375 Z M 34.855469 307.210938 " fill-opacity="1" fill-rule="nonzero"/><path fill="#ffbfb1" d="M 239.484375 213.304688 C 239.484375 214.523438 239.652344 215.640625 239.988281 216.65625 C 240.800781 217.199219 241.714844 217.503906 242.730469 217.503906 C 245.910156 217.503906 248.582031 213.847656 248.582031 209.550781 C 248.582031 207.890625 248.210938 206.097656 247.398438 204.640625 C 246.992188 204.574219 246.585938 204.503906 246.148438 204.503906 C 242.5625 204.503906 239.449219 207.789062 239.449219 213.304688 Z M 239.484375 213.304688 " fill-opacity="1" fill-rule="nonzero"/><path fill="#ffbfb1" d="M 144.390625 202.269531 C 147.0625 202.269531 147.671875 201.289062 147.773438 200.238281 C 146.082031 200.375 144.898438 201.222656 144.390625 202.269531 Z M 144.390625 202.269531 " fill-opacity="1" fill-rule="nonzero"/><path fill="#ffbfb1" d="M 260.015625 270.855469 C 262.6875 270.855469 263.296875 269.871094 263.398438 268.824219 C 261.707031 268.957031 260.523438 269.804688 260.015625 270.855469 Z M 260.015625 270.855469 " fill-opacity="1" fill-rule="nonzero"/><path fill="#ffbfb1" d="M 179.03125 270.855469 C 181.703125 270.855469 182.3125 269.871094 182.414062 268.824219 C 180.722656 268.957031 179.539062 269.839844 179.03125 270.855469 Z M 179.03125 270.855469 " fill-opacity="1" fill-rule="nonzero"/><path fill="#ffbfb1" d="M 249.429688 170.789062 C 239.042969 170.789062 230.144531 164.457031 226.324219 155.453125 C 223.347656 156.671875 220.167969 157.28125 216.886719 157.28125 C 210.1875 157.28125 203.894531 154.675781 199.160156 149.9375 C 191.820312 142.589844 189.992188 131.792969 193.679688 122.71875 C 184.679688 118.894531 178.355469 109.992188 178.355469 99.597656 C 178.355469 92.152344 181.636719 85.484375 186.8125 80.878906 C 159.953125 68.183594 127.984375 59.113281 89.960938 55.183594 C 88.644531 55.050781 87.359375 54.980469 86.070312 54.980469 C 76.871094 54.980469 68.144531 58.367188 61.140625 64.699219 C 53.089844 71.976562 48.488281 82.335938 48.488281 93.167969 L 48.488281 307.210938 C 48.488281 328.234375 65.570312 345.328125 86.578125 345.328125 L 287.382812 345.328125 C 298.039062 345.328125 308.289062 340.824219 315.496094 332.9375 C 322.699219 325.050781 326.285156 314.457031 325.339844 303.792969 C 321.617188 261.953125 309.777344 205.351562 276.117188 156.539062 C 274.933594 156.265625 273.785156 155.894531 272.632812 155.453125 C 268.8125 164.457031 259.914062 170.789062 249.53125 170.789062 Z M 179.640625 169.773438 C 184.679688 169.773438 187.960938 171.871094 189.550781 176.035156 C 191.074219 177.1875 192.191406 178.878906 192.832031 181.316406 C 192.96875 174.175781 196.925781 169.738281 203.285156 169.738281 C 208.328125 169.738281 211.609375 171.839844 213.199219 176 C 215.703125 177.898438 217.15625 181.382812 217.15625 187.070312 L 217.15625 200.613281 C 220.539062 189.949219 230.042969 183.042969 242.59375 183.042969 C 253.082031 183.042969 261.605469 188.054688 266.105469 195.941406 C 269.960938 200.273438 272.296875 206.0625 272.296875 212.933594 C 272.296875 226.984375 262.824219 238.730469 247.195312 238.730469 C 239.042969 238.730469 232.71875 236.359375 228.21875 232.398438 C 222.871094 229.453125 219.050781 224.816406 217.191406 218.757812 L 217.191406 227.523438 C 217.191406 233.71875 213.773438 238.628906 206.90625 238.628906 C 204.234375 238.628906 201.59375 237.613281 199.734375 235.242188 C 197.027344 234.292969 194.660156 232.09375 193.476562 228.234375 C 193.207031 234.089844 189.824219 238.628906 183.261719 238.628906 C 180.585938 238.628906 177.949219 237.613281 176.089844 235.242188 C 172.265625 233.886719 169.050781 230.097656 169.050781 222.617188 L 169.050781 214.152344 C 168.746094 214.863281 168.34375 215.675781 167.765625 216.589844 C 166.617188 218.382812 166.957031 219.195312 166.957031 219.703125 C 166.957031 222.140625 167.765625 222.3125 167.765625 225.085938 C 167.765625 232.433594 157.484375 237.476562 148.519531 237.476562 C 141.382812 237.476562 135.902344 235.207031 131.976562 231.652344 C 125.820312 228.269531 122.199219 222.480469 120.78125 216.117188 L 120.78125 223.023438 C 120.78125 234.429688 118.34375 238.355469 112.152344 238.355469 C 108.636719 238.355469 106.199219 237.207031 104.675781 235.039062 C 100.550781 233.71875 98.417969 230.132812 98.417969 224.171875 L 98.417969 211.785156 C 98.417969 210.292969 98.285156 209.042969 98.082031 208.058594 C 96.152344 208.738281 95.207031 211.445312 95.207031 216.183594 L 95.207031 227.761719 C 95.207031 233.957031 91.789062 238.355469 86.882812 238.355469 C 83.46875 238.355469 80.964844 237.105469 79.339844 234.972656 C 75.214844 233.550781 72.8125 229.757812 72.8125 224.171875 L 72.8125 186.597656 C 72.8125 182.941406 72.8125 177.390625 75.890625 174.242188 C 77.445312 172.683594 79.578125 171.90625 82.285156 171.90625 C 88 171.90625 89.960938 174.378906 91.179688 177.660156 C 93.039062 178.878906 93.820312 180.875 94.496094 183.042969 C 94.765625 183.890625 95.003906 184.601562 95.207031 185.242188 C 96.21875 185.445312 97.675781 185.445312 100.042969 185.445312 C 107.722656 185.445312 112.832031 188.15625 115.570312 193.84375 C 118.140625 196.3125 119.765625 200.003906 120.40625 205.183594 C 122.234375 192.691406 131.402344 184.058594 143.546875 184.058594 C 154.066406 184.058594 161.171875 189.070312 164.6875 195.667969 C 166.71875 197.9375 168.171875 200.542969 169.019531 203.320312 L 169.121094 181.65625 C 169.121094 174.277344 173.144531 169.707031 179.574219 169.707031 Z M 99.570312 117.4375 C 110.054688 117.4375 118.613281 122.449219 123.078125 130.335938 C 125.449219 132.976562 127.207031 136.191406 128.222656 139.882812 L 128.222656 121.027344 C 128.222656 117.371094 128.222656 111.820312 131.300781 108.671875 C 132.855469 107.113281 134.988281 106.335938 137.695312 106.335938 C 143.410156 106.335938 145.371094 108.804688 146.589844 112.089844 C 148.449219 113.308594 149.230469 115.304688 149.90625 117.472656 C 150.175781 118.320312 150.414062 119.03125 150.617188 119.671875 C 151.632812 119.875 153.085938 119.875 155.453125 119.875 C 163.132812 119.875 168.242188 122.582031 170.980469 128.269531 C 174.398438 131.554688 176.15625 137.003906 176.15625 145.195312 L 176.15625 157.453125 C 176.15625 168.859375 173.722656 172.785156 167.53125 172.785156 C 164.011719 172.785156 161.578125 171.636719 160.054688 169.46875 C 155.925781 168.148438 153.796875 164.558594 153.796875 158.601562 L 153.796875 146.210938 C 153.796875 144.722656 153.660156 143.46875 153.457031 142.488281 C 151.53125 143.164062 150.582031 145.875 150.582031 150.613281 L 150.582031 162.191406 C 150.582031 168.386719 147.164062 172.785156 142.261719 172.785156 C 138.84375 172.785156 136.339844 171.535156 134.75 169.402344 C 130.625 167.980469 128.222656 164.1875 128.222656 158.601562 L 128.222656 155.046875 C 125.414062 165.441406 116.789062 173.125 104.136719 173.125 C 95.984375 173.125 89.65625 170.753906 85.160156 166.792969 C 77.3125 162.496094 72.777344 154.507812 72.777344 143.910156 C 72.777344 128.339844 83.773438 117.4375 99.535156 117.4375 Z M 97.304688 307.175781 C 93.75 307.175781 89.386719 305.925781 86.242188 302.707031 C 81.707031 300.507812 78.121094 296.109375 77.714844 289.132812 C 77.714844 288.726562 77.242188 275.253906 77.074219 272.175781 C 77.074219 271.800781 76.9375 271.089844 76.226562 269.667969 C 76.058594 269.464844 75.957031 269.261719 75.789062 268.925781 C 75.484375 268.347656 74.976562 267.367188 73.792969 265.605469 C 73.183594 264.21875 72.8125 263.171875 72.8125 262.054688 C 72.8125 258.058594 74.367188 255.824219 75.585938 254.0625 C 75.992188 253.488281 76.398438 252.914062 76.667969 252.371094 L 76.734375 252.066406 C 77.039062 250.914062 77.816406 248.171875 78.832031 246.582031 C 81.574219 242.25 85.160156 241.605469 87.054688 241.605469 C 93.109375 241.605469 95.375 244.652344 96.898438 247.9375 C 99.300781 249.898438 100.144531 253.015625 101.429688 255.925781 C 101.53125 256.0625 101.667969 256.195312 101.769531 256.332031 L 101.9375 256.570312 C 102.410156 257.210938 102.882812 257.921875 103.1875 258.734375 C 103.730469 259.3125 104.238281 259.785156 104.675781 260.394531 C 105.488281 261.546875 106.300781 262.527344 106.300781 264.320312 C 106.300781 267.433594 104.847656 269.535156 102.714844 272.003906 C 100.921875 273.96875 100.414062 276.40625 100.414062 279.011719 C 100.414062 283.75 100.585938 285.039062 100.753906 286.359375 C 100.820312 287.203125 101.125 287.984375 101.496094 288.726562 C 102.242188 289.675781 102.953125 290.625 103.492188 291.707031 C 105.285156 293.90625 107.25 296.140625 107.25 299.085938 C 107.25 303.65625 104.644531 307.246094 97.304688 307.246094 Z M 229.0625 276.574219 C 227.101562 278.539062 226.457031 281.789062 226.457031 290.757812 C 226.457031 294.179688 226.628906 298.445312 225.003906 301.21875 C 223.378906 303.996094 221.082031 305.621094 217.324219 305.621094 C 214.011719 305.621094 211.710938 304.503906 210.253906 302.335938 C 204.570312 300.542969 203.761719 294.347656 203.761719 289.472656 L 203.761719 282.667969 C 203.421875 283.414062 203.015625 284.257812 202.40625 285.242188 C 201.257812 287.035156 201.59375 287.847656 201.59375 288.355469 C 201.59375 290.792969 202.40625 290.960938 202.40625 293.738281 C 202.40625 301.082031 192.125 306.128906 183.160156 306.128906 C 176.019531 306.128906 170.539062 303.894531 166.652344 300.304688 C 160.492188 296.921875 156.875 291.132812 155.453125 284.765625 L 155.453125 291.671875 C 155.453125 303.082031 153.019531 307.007812 146.828125 307.007812 C 143.308594 307.007812 140.875 305.855469 139.351562 303.691406 C 135.222656 302.371094 133.09375 298.78125 133.09375 292.824219 L 133.09375 280.433594 C 133.09375 278.945312 132.957031 277.691406 132.753906 276.710938 C 130.828125 277.386719 129.878906 280.097656 129.878906 284.835938 L 129.878906 296.414062 C 129.878906 302.605469 126.460938 307.007812 121.558594 307.007812 C 118.140625 307.007812 115.636719 305.753906 114.046875 303.621094 C 109.921875 302.199219 107.519531 298.410156 107.519531 292.824219 L 107.519531 255.25 C 107.519531 251.59375 107.519531 246.042969 110.597656 242.894531 C 112.152344 241.335938 114.285156 240.558594 116.992188 240.558594 C 122.707031 240.558594 124.671875 243.027344 125.886719 246.277344 C 127.75 247.496094 128.527344 249.492188 129.203125 251.660156 C 129.472656 252.507812 129.710938 253.21875 129.914062 253.859375 C 130.929688 254.0625 132.382812 254.0625 134.75 254.0625 C 142.429688 254.0625 147.539062 256.773438 150.277344 262.460938 C 152.847656 264.929688 154.472656 268.621094 155.117188 273.800781 C 156.941406 261.308594 166.109375 252.675781 178.253906 252.675781 C 188.773438 252.675781 195.910156 257.6875 199.394531 264.289062 C 201.425781 266.519531 202.878906 269.160156 203.726562 271.9375 L 203.726562 264.796875 C 203.726562 257.855469 207.617188 253.183594 213.367188 253.183594 C 216.445312 253.183594 217.867188 253.421875 219.253906 253.65625 C 220.132812 253.792969 220.945312 253.929688 222.230469 253.996094 C 223.144531 254.03125 223.957031 254.03125 224.699219 253.996094 C 226.59375 253.996094 228.117188 253.996094 229.910156 254.875 C 232.480469 256.09375 234.070312 257.921875 234.542969 260.089844 C 236.269531 261.273438 237.519531 262.933594 237.519531 265.132812 C 237.519531 267.570312 237.183594 269.871094 235.898438 271.328125 C 233.460938 274.105469 232.648438 273.292969 229.0625 276.542969 Z M 283.359375 285.242188 C 282.207031 287.035156 282.546875 287.847656 282.546875 288.355469 C 282.546875 290.792969 283.359375 290.960938 283.359375 293.738281 C 283.359375 301.082031 273.074219 306.128906 264.109375 306.128906 C 256.972656 306.128906 251.492188 303.894531 247.566406 300.304688 C 239.449219 295.871094 235.695312 287.171875 235.695312 278.539062 C 235.695312 263.578125 245.570312 252.742188 259.203125 252.742188 C 269.726562 252.742188 276.863281 257.753906 280.347656 264.355469 C 283.832031 268.214844 285.625 273.191406 285.625 278.066406 C 285.625 280.027344 285.453125 281.824219 283.324219 285.242188 Z M 283.359375 285.242188 " fill-opacity="1" fill-rule="nonzero"/><path fill="#ffbfb1" d="M 96.457031 147.667969 C 96.457031 148.886719 96.625 150.003906 96.964844 151.019531 C 97.777344 151.5625 98.691406 151.867188 99.703125 151.867188 C 102.882812 151.867188 105.558594 148.210938 105.558594 143.910156 C 105.558594 142.25 105.183594 140.457031 104.375 139.003906 C 103.96875 138.933594 103.5625 138.867188 103.121094 138.867188 C 99.535156 138.867188 96.421875 142.117188 96.421875 147.667969 Z M 96.457031 147.667969 " fill-opacity="1" fill-rule="nonzero"/><path fill="#000000" d="M 326.929688 303.65625 C 323.445312 264.625 312.179688 207.585938 278.113281 157.453125 C 277.980469 157.28125 277.878906 157.113281 277.742188 156.945312 C 277.167969 156.84375 276.59375 156.707031 276.015625 156.570312 C 309.675781 205.386719 321.515625 261.984375 325.238281 303.824219 C 326.183594 314.457031 322.597656 325.085938 315.394531 332.972656 C 308.1875 340.859375 297.9375 345.363281 287.28125 345.363281 L 86.476562 345.363281 C 65.472656 345.363281 48.386719 328.265625 48.386719 307.246094 L 48.386719 93.167969 C 48.386719 82.335938 52.988281 71.976562 61.039062 64.699219 C 68.042969 58.367188 76.769531 54.980469 85.96875 54.980469 C 87.257812 54.980469 88.574219 55.050781 89.859375 55.183594 C 127.882812 59.078125 159.851562 68.183594 186.710938 80.878906 C 187.117188 80.507812 187.554688 80.167969 187.996094 79.828125 C 159.378906 66.085938 126.664062 57.285156 90.0625 53.527344 C 79.136719 52.410156 68.144531 56.03125 59.921875 63.445312 C 51.535156 71.027344 46.695312 81.859375 46.695312 93.167969 L 46.695312 307.210938 C 46.695312 329.148438 64.558594 347.019531 86.476562 347.019531 L 287.28125 347.019531 C 298.410156 347.019531 309.132812 342.316406 316.644531 334.089844 C 324.15625 325.863281 327.910156 314.761719 326.929688 303.65625 Z M 326.929688 303.65625 " fill-opacity="1" fill-rule="nonzero"/><path fill="#000000" d="M 100.550781 170.382812 C 94.5625 170.382812 89.386719 169.128906 85.160156 166.792969 C 89.65625 170.753906 95.984375 173.125 104.136719 173.125 C 116.820312 173.125 125.414062 165.441406 128.222656 155.046875 L 128.222656 139.882812 C 127.207031 136.226562 125.414062 133.011719 123.078125 130.335938 C 125.277344 134.195312 126.496094 138.730469 126.496094 143.707031 C 126.496094 159.144531 115.570312 170.347656 100.550781 170.347656 Z M 100.550781 170.382812 " fill-opacity="1" fill-rule="nonzero"/><path fill="#000000" d="M 96.964844 151.019531 C 96.625 150.003906 96.457031 148.851562 96.457031 147.667969 C 96.457031 142.117188 99.570312 138.867188 103.15625 138.867188 C 103.59375 138.867188 104 138.933594 104.40625 139.003906 C 103.460938 137.34375 101.9375 136.125 99.570312 136.125 C 96.117188 136.125 93.75 139.410156 93.75 144.078125 C 93.75 147.226562 95.035156 149.765625 97 151.019531 Z M 96.964844 151.019531 " fill-opacity="1" fill-rule="nonzero"/><path fill="#000000" d="M 150.921875 139.542969 C 148.890625 139.542969 147.84375 142.046875 147.84375 147.023438 L 147.84375 158.601562 C 147.84375 165.339844 144.085938 170.042969 138.675781 170.042969 C 137.21875 170.042969 135.933594 169.808594 134.75 169.402344 C 136.339844 171.535156 138.84375 172.785156 142.261719 172.785156 C 147.164062 172.785156 150.582031 168.386719 150.582031 162.191406 L 150.582031 150.613281 C 150.582031 145.875 151.5625 143.164062 153.457031 142.488281 C 153.019531 140.558594 152.171875 139.542969 150.886719 139.542969 Z M 150.921875 139.542969 " fill-opacity="1" fill-rule="nonzero"/><path fill="#000000" d="M 173.449219 153.863281 C 173.449219 163.578125 171.828125 170.042969 163.976562 170.042969 C 162.523438 170.042969 161.238281 169.839844 160.089844 169.46875 C 161.578125 171.636719 164.046875 172.785156 167.5625 172.785156 C 173.753906 172.785156 176.191406 168.859375 176.191406 157.453125 L 176.191406 145.195312 C 176.191406 137.003906 174.429688 131.554688 171.015625 128.269531 C 172.636719 131.65625 173.449219 136.058594 173.449219 141.609375 Z M 173.449219 153.863281 " fill-opacity="1" fill-rule="nonzero"/><path fill="#000000" d="M 147.875 115.914062 C 148.621094 118.421875 148.925781 119.335938 150.648438 119.671875 C 150.445312 119.03125 150.242188 118.285156 149.941406 117.472656 C 149.261719 115.304688 148.484375 113.308594 146.625 112.089844 C 146.828125 112.597656 146.996094 113.105469 147.164062 113.648438 C 147.4375 114.527344 147.671875 115.273438 147.875 115.949219 Z M 147.875 115.914062 " fill-opacity="1" fill-rule="nonzero"/><path fill="#000000" d="M 95.476562 205.183594 C 93.445312 205.183594 92.398438 207.6875 92.398438 212.664062 L 92.398438 224.242188 C 92.398438 230.976562 88.644531 235.683594 83.230469 235.683594 C 81.777344 235.683594 80.492188 235.445312 79.304688 235.039062 C 80.894531 237.171875 83.398438 238.425781 86.851562 238.425781 C 91.753906 238.425781 95.171875 234.023438 95.171875 227.828125 L 95.171875 216.25 C 95.171875 211.511719 96.152344 208.804688 98.046875 208.128906 C 97.609375 206.199219 96.761719 205.183594 95.476562 205.183594 Z M 95.476562 205.183594 " fill-opacity="1" fill-rule="nonzero"/><path fill="#000000" d="M 92.464844 181.585938 C 93.210938 184.09375 93.515625 185.007812 95.207031 185.34375 C 95.003906 184.703125 94.800781 183.957031 94.496094 183.144531 C 93.820312 180.976562 93.039062 178.980469 91.179688 177.761719 C 91.382812 178.269531 91.550781 178.777344 91.722656 179.320312 C 92.027344 180.199219 92.230469 180.945312 92.433594 181.621094 Z M 92.464844 181.585938 " fill-opacity="1" fill-rule="nonzero"/><path fill="#000000" d="M 120.441406 205.285156 C 119.796875 200.105469 118.175781 196.414062 115.605469 193.941406 C 117.226562 197.328125 118.039062 201.730469 118.039062 207.28125 L 118.039062 219.535156 C 118.039062 229.25 116.414062 235.714844 108.566406 235.714844 C 107.113281 235.714844 105.828125 235.511719 104.675781 235.140625 C 106.164062 237.308594 108.636719 238.457031 112.152344 238.457031 C 118.34375 238.457031 120.78125 234.53125 120.78125 223.125 L 120.78125 216.21875 C 120.339844 214.1875 120.101562 212.085938 120.101562 209.988281 C 120.101562 208.363281 120.238281 206.808594 120.476562 205.316406 Z M 120.441406 205.285156 " fill-opacity="1" fill-rule="nonzero"/><path fill="#000000" d="M 144.390625 202.269531 C 144.898438 201.253906 146.082031 200.375 147.773438 200.238281 C 147.773438 200.105469 147.773438 199.96875 147.773438 199.832031 C 147.773438 198.074219 145.847656 197.429688 144.527344 197.429688 C 142.429688 197.429688 141.3125 198.851562 141.3125 199.832031 C 141.3125 201.796875 143.511719 202.238281 144.359375 202.238281 Z M 144.390625 202.269531 " fill-opacity="1" fill-rule="nonzero"/><path fill="#000000" d="M 147.640625 216.65625 C 147.640625 216.320312 146.625 215.878906 145.542969 215.878906 C 143.882812 215.878906 143.34375 216.691406 143.277344 216.859375 C 143.277344 217.976562 144.867188 218.078125 145.371094 218.078125 C 145.472656 218.078125 147.640625 218.078125 147.640625 216.625 Z M 147.640625 216.65625 " fill-opacity="1" fill-rule="nonzero"/><path fill="#000000" d="M 164.722656 195.738281 C 166.378906 198.886719 167.257812 202.371094 167.257812 205.859375 C 167.257812 207.890625 167.089844 209.886719 164.859375 213.476562 C 164.046875 214.761719 164.113281 215.335938 164.148438 215.777344 C 164.148438 215.914062 164.148438 216.015625 164.148438 216.117188 C 164.148438 217.164062 164.316406 217.742188 164.484375 218.382812 C 164.6875 219.128906 164.960938 219.941406 164.960938 221.5 C 164.960938 229.320312 154.371094 234.734375 144.867188 234.734375 C 139.691406 234.734375 135.425781 233.582031 131.941406 231.6875 C 135.867188 235.242188 141.347656 237.511719 148.484375 237.511719 C 157.449219 237.511719 167.734375 232.464844 167.734375 225.121094 C 167.734375 222.34375 166.921875 222.175781 166.921875 219.738281 C 166.921875 219.265625 166.582031 218.417969 167.734375 216.625 C 168.308594 215.710938 168.714844 214.898438 169.050781 214.1875 L 169.050781 203.355469 C 168.242188 200.578125 166.785156 197.972656 164.757812 195.703125 Z M 164.722656 195.738281 " fill-opacity="1" fill-rule="nonzero"/><path fill="#000000" d="M 190.769531 224.003906 C 190.769531 231.246094 186.40625 235.953125 179.640625 235.953125 C 178.457031 235.953125 177.238281 235.75 176.054688 235.308594 C 177.914062 237.679688 180.554688 238.695312 183.226562 238.695312 C 189.824219 238.695312 193.207031 234.160156 193.441406 228.304688 C 192.96875 226.710938 192.628906 224.882812 192.628906 222.683594 L 192.800781 181.722656 C 192.800781 181.722656 192.800781 181.484375 192.800781 181.351562 C 192.15625 178.914062 191.039062 177.1875 189.519531 176.070312 C 190.296875 178.066406 190.703125 180.539062 190.703125 183.515625 L 190.703125 224.003906 Z M 190.769531 224.003906 " fill-opacity="1" fill-rule="nonzero"/><path fill="#000000" d="M 214.414062 224.003906 C 214.414062 231.246094 210.050781 235.953125 203.285156 235.953125 C 202.101562 235.953125 200.882812 235.75 199.699219 235.308594 C 201.5625 237.679688 204.199219 238.695312 206.871094 238.695312 C 213.738281 238.695312 217.15625 233.785156 217.15625 227.59375 L 217.15625 218.824219 C 216.277344 216.015625 215.804688 212.933594 215.804688 209.550781 C 215.804688 206.367188 216.277344 203.386719 217.15625 200.644531 L 217.15625 187.105469 C 217.15625 181.417969 215.734375 177.929688 213.199219 176.035156 C 213.976562 178.03125 214.382812 180.503906 214.382812 183.484375 L 214.382812 223.96875 Z M 214.414062 224.003906 " fill-opacity="1" fill-rule="nonzero"/><path fill="#000000" d="M 239.988281 216.65625 C 239.652344 215.640625 239.484375 214.492188 239.484375 213.304688 C 239.484375 207.753906 242.59375 204.503906 246.179688 204.503906 C 246.621094 204.503906 247.027344 204.574219 247.433594 204.640625 C 246.484375 202.980469 244.960938 201.761719 242.59375 201.761719 C 239.144531 201.761719 236.742188 205.046875 236.742188 209.71875 C 236.742188 212.867188 238.027344 215.40625 239.988281 216.65625 Z M 239.988281 216.65625 " fill-opacity="1" fill-rule="nonzero"/><path fill="#000000" d="M 243.542969 236.019531 C 237.554688 236.019531 232.378906 234.769531 228.148438 232.433594 C 232.648438 236.394531 238.976562 238.761719 247.128906 238.761719 C 262.789062 238.761719 272.226562 227.015625 272.226562 212.96875 C 272.226562 206.097656 269.894531 200.308594 266.039062 195.972656 C 268.238281 199.832031 269.453125 204.371094 269.453125 209.378906 C 269.453125 224.816406 258.527344 236.019531 243.507812 236.019531 Z M 243.542969 236.019531 " fill-opacity="1" fill-rule="nonzero"/><path fill="#000000" d="M 99.703125 268.925781 C 98.25 270.515625 97.640625 272.480469 97.640625 275.390625 C 97.640625 280.0625 97.808594 281.347656 97.945312 282.601562 C 98.082031 284.5625 99.433594 286.222656 100.890625 287.984375 C 101.089844 288.21875 101.261719 288.457031 101.464844 288.695312 C 101.089844 287.949219 100.789062 287.171875 100.71875 286.324219 C 100.550781 285.003906 100.382812 283.71875 100.382812 278.980469 C 100.382812 276.371094 100.855469 273.933594 102.683594 271.972656 C 104.8125 269.535156 106.265625 267.402344 106.265625 264.289062 C 106.265625 262.492188 105.457031 261.511719 104.644531 260.359375 C 104.203125 259.75 103.695312 259.277344 103.15625 258.703125 C 103.359375 259.277344 103.527344 259.886719 103.527344 260.699219 C 103.527344 264.253906 101.734375 266.621094 99.738281 268.925781 Z M 99.703125 268.925781 " fill-opacity="1" fill-rule="nonzero"/><path fill="#000000" d="M 98.859375 252.640625 C 99.433594 253.757812 100.042969 254.402344 100.652344 255.046875 C 100.921875 255.316406 101.125 255.585938 101.363281 255.859375 C 100.078125 252.980469 99.230469 249.832031 96.828125 247.867188 C 97.167969 248.578125 97.472656 249.324219 97.742188 250.035156 C 98.082031 250.914062 98.453125 251.796875 98.859375 252.640625 Z M 98.859375 252.640625 " fill-opacity="1" fill-rule="nonzero"/><path fill="#000000" d="M 104.472656 295.429688 C 104.472656 298.78125 103.085938 304.433594 93.683594 304.433594 C 91.113281 304.433594 88.542969 303.824219 86.207031 302.707031 C 89.351562 305.957031 93.71875 307.175781 97.269531 307.175781 C 104.609375 307.175781 107.214844 303.589844 107.214844 299.019531 C 107.214844 296.074219 105.253906 293.839844 103.460938 291.640625 C 104.070312 292.789062 104.472656 294.007812 104.472656 295.429688 Z M 104.472656 295.429688 " fill-opacity="1" fill-rule="nonzero"/><path fill="#000000" d="M 155.082031 273.867188 C 154.4375 268.6875 152.816406 265 150.242188 262.527344 C 151.867188 265.910156 152.679688 270.3125 152.679688 275.863281 L 152.679688 288.117188 C 152.679688 297.835938 151.054688 304.300781 143.207031 304.300781 C 141.753906 304.300781 140.46875 304.097656 139.316406 303.722656 C 140.804688 305.890625 143.277344 307.042969 146.792969 307.042969 C 152.984375 307.042969 155.417969 303.113281 155.417969 291.707031 L 155.417969 284.800781 C 154.980469 282.769531 154.742188 280.671875 154.742188 278.574219 C 154.742188 276.949219 154.878906 275.390625 155.117188 273.902344 Z M 155.082031 273.867188 " fill-opacity="1" fill-rule="nonzero"/><path fill="#000000" d="M 127.105469 250.171875 C 127.851562 252.675781 128.152344 253.589844 129.878906 253.929688 C 129.675781 253.285156 129.472656 252.539062 129.167969 251.726562 C 128.492188 249.5625 127.714844 247.5625 125.855469 246.347656 C 126.058594 246.855469 126.226562 247.363281 126.394531 247.902344 C 126.664062 248.75 126.902344 249.527344 127.105469 250.203125 Z M 127.105469 250.171875 " fill-opacity="1" fill-rule="nonzero"/><path fill="#000000" d="M 130.148438 273.765625 C 128.121094 273.765625 127.070312 276.269531 127.070312 281.246094 L 127.070312 292.824219 C 127.070312 299.5625 123.316406 304.265625 117.90625 304.265625 C 116.449219 304.265625 115.164062 304.027344 113.980469 303.621094 C 115.570312 305.753906 118.074219 307.007812 121.488281 307.007812 C 126.394531 307.007812 129.8125 302.605469 129.8125 296.414062 L 129.8125 284.835938 C 129.8125 280.097656 130.792969 277.386719 132.6875 276.710938 C 132.246094 274.78125 131.402344 273.765625 130.117188 273.765625 Z M 130.148438 273.765625 " fill-opacity="1" fill-rule="nonzero"/><path fill="#000000" d="M 180.046875 286.695312 C 180.046875 286.695312 182.3125 286.695312 182.3125 285.273438 C 182.3125 284.9375 181.296875 284.496094 180.214844 284.496094 C 178.558594 284.496094 178.015625 285.308594 177.949219 285.476562 C 177.949219 286.59375 179.539062 286.695312 180.046875 286.695312 Z M 180.046875 286.695312 " fill-opacity="1" fill-rule="nonzero"/><path fill="#000000" d="M 199.394531 264.355469 C 201.054688 267.503906 201.933594 270.988281 201.933594 274.476562 C 201.933594 276.507812 201.765625 278.503906 199.53125 282.09375 C 198.71875 283.378906 198.789062 283.953125 198.820312 284.394531 C 198.820312 284.53125 198.820312 284.632812 198.820312 284.734375 C 198.820312 285.78125 198.992188 286.359375 199.160156 287 C 199.363281 287.746094 199.632812 288.558594 199.632812 290.117188 C 199.632812 297.9375 189.042969 303.351562 179.539062 303.351562 C 174.398438 303.351562 170.101562 302.199219 166.617188 300.304688 C 170.507812 303.859375 175.988281 306.128906 183.125 306.128906 C 192.089844 306.128906 202.375 301.085938 202.375 293.738281 C 202.375 290.960938 201.5625 290.792969 201.5625 288.355469 C 201.5625 287.882812 201.222656 287.035156 202.375 285.242188 C 202.980469 284.257812 203.386719 283.445312 203.726562 282.667969 L 203.726562 271.972656 C 202.878906 269.195312 201.425781 266.589844 199.394531 264.320312 Z M 199.394531 264.355469 " fill-opacity="1" fill-rule="nonzero"/><path fill="#000000" d="M 175.988281 268.417969 C 175.988281 270.378906 178.1875 270.820312 179.03125 270.820312 C 179.539062 269.804688 180.722656 268.925781 182.414062 268.789062 C 182.414062 268.652344 182.414062 268.519531 182.414062 268.382812 C 182.414062 266.621094 180.488281 265.980469 179.167969 265.980469 C 177.070312 265.980469 175.953125 267.402344 175.953125 268.382812 Z M 175.988281 268.417969 " fill-opacity="1" fill-rule="nonzero"/><path fill="#000000" d="M 237.519531 265.167969 C 237.519531 262.96875 236.269531 261.308594 234.542969 260.125 C 234.644531 260.597656 234.78125 261.070312 234.78125 261.578125 C 234.78125 263.578125 234.578125 266.488281 232.917969 268.347656 C 231.566406 269.871094 230.652344 270.414062 229.605469 270.988281 C 228.691406 271.496094 227.675781 272.105469 225.984375 273.628906 C 224.226562 275.390625 223.652344 278.707031 223.652344 287.203125 L 223.652344 288.085938 C 223.652344 291.503906 223.652344 295.363281 222.0625 298.105469 C 220.132812 301.390625 217.460938 302.910156 213.671875 302.910156 C 212.320312 302.910156 211.203125 302.675781 210.1875 302.371094 C 211.640625 304.535156 213.941406 305.652344 217.257812 305.652344 C 221.011719 305.652344 223.277344 304.027344 224.9375 301.253906 C 226.558594 298.476562 226.390625 294.246094 226.390625 290.792969 C 226.390625 281.824219 227.035156 278.539062 228.996094 276.609375 C 232.582031 273.359375 233.394531 274.171875 235.828125 271.394531 C 237.148438 269.941406 237.453125 267.636719 237.453125 265.203125 Z M 237.519531 265.167969 " fill-opacity="1" fill-rule="nonzero"/><path fill="#000000" d="M 282.882812 274.476562 C 282.882812 276.507812 282.714844 278.503906 280.480469 282.09375 C 279.671875 283.378906 279.738281 283.953125 279.773438 284.394531 C 279.773438 284.53125 279.773438 284.632812 279.773438 284.734375 C 279.773438 285.78125 279.941406 286.359375 280.109375 287 C 280.3125 287.746094 280.582031 288.558594 280.582031 290.117188 C 280.582031 297.9375 269.996094 303.351562 260.488281 303.351562 C 255.347656 303.351562 251.050781 302.199219 247.566406 300.304688 C 251.492188 303.859375 256.972656 306.128906 264.109375 306.128906 C 273.074219 306.128906 283.359375 301.085938 283.359375 293.738281 C 283.359375 290.960938 282.546875 290.792969 282.546875 288.355469 C 282.546875 287.882812 282.207031 287.035156 283.359375 285.242188 C 285.488281 281.824219 285.65625 280.027344 285.65625 278.066406 C 285.65625 273.15625 283.863281 268.214844 280.378906 264.355469 C 282.039062 267.503906 282.917969 270.988281 282.917969 274.476562 Z M 282.882812 274.476562 " fill-opacity="1" fill-rule="nonzero"/><path fill="#000000" d="M 256.972656 268.417969 C 256.972656 270.378906 259.171875 270.820312 260.015625 270.820312 C 260.523438 269.804688 261.707031 268.925781 263.398438 268.789062 C 263.398438 268.652344 263.398438 268.519531 263.398438 268.382812 C 263.398438 266.621094 261.472656 265.980469 260.152344 265.980469 C 258.054688 265.980469 256.9375 267.402344 256.9375 268.382812 Z M 256.972656 268.417969 " fill-opacity="1" fill-rule="nonzero"/><path fill="#000000" d="M 260.996094 286.695312 C 260.996094 286.695312 263.265625 286.695312 263.265625 285.273438 C 263.265625 284.9375 262.25 284.496094 261.167969 284.496094 C 259.507812 284.496094 258.96875 285.308594 258.898438 285.476562 C 258.898438 286.59375 260.488281 286.695312 260.996094 286.695312 Z M 260.996094 286.695312 " fill-opacity="1" fill-rule="nonzero"/><path fill="#ec7964" d="M 100.550781 168.691406 C 114.824219 168.691406 124.804688 158.433594 124.804688 143.742188 C 124.804688 129.050781 114.183594 119.132812 99.570312 119.132812 C 84.957031 119.132812 74.503906 129.320312 74.503906 143.910156 C 74.503906 158.5 84.480469 168.691406 100.550781 168.691406 Z M 92.058594 144.078125 C 92.058594 137.75 95.847656 134.433594 99.570312 134.433594 C 104.878906 134.433594 107.28125 139.207031 107.28125 143.910156 C 107.28125 149.226562 103.898438 153.558594 99.738281 153.558594 C 95.339844 153.558594 92.058594 149.460938 92.058594 144.078125 Z M 92.058594 144.078125 " fill-opacity="1" fill-rule="nonzero"/><path fill="#000000" d="M 85.160156 166.792969 C 89.386719 169.097656 94.5625 170.382812 100.550781 170.382812 C 115.605469 170.382812 126.496094 159.175781 126.496094 143.742188 C 126.496094 138.730469 125.246094 134.195312 123.078125 130.371094 C 118.582031 122.480469 110.054688 117.472656 99.570312 117.472656 C 83.804688 117.472656 72.8125 128.339844 72.8125 143.945312 C 72.8125 154.574219 77.34375 162.527344 85.191406 166.828125 Z M 99.570312 119.132812 C 114.21875 119.132812 124.804688 129.488281 124.804688 143.742188 C 124.804688 157.992188 114.824219 168.691406 100.550781 168.691406 C 84.480469 168.691406 74.503906 159.210938 74.503906 143.910156 C 74.503906 128.609375 84.820312 119.132812 99.570312 119.132812 Z M 99.570312 119.132812 " fill-opacity="1" fill-rule="nonzero"/><path fill="#000000" d="M 99.738281 153.558594 C 103.898438 153.558594 107.28125 149.226562 107.28125 143.910156 C 107.28125 139.171875 104.914062 134.433594 99.570312 134.433594 C 95.816406 134.433594 92.058594 137.75 92.058594 144.078125 C 92.058594 149.496094 95.375 153.558594 99.738281 153.558594 Z M 99.570312 136.089844 C 101.9375 136.089844 103.492188 137.308594 104.40625 138.96875 C 105.21875 140.421875 105.589844 142.21875 105.589844 143.875 C 105.589844 148.210938 102.917969 151.832031 99.738281 151.832031 C 98.722656 151.832031 97.808594 151.527344 97 150.984375 C 95.035156 149.734375 93.75 147.160156 93.75 144.046875 C 93.75 139.375 96.152344 136.089844 99.570312 136.089844 Z M 99.570312 136.089844 " fill-opacity="1" fill-rule="nonzero"/><path fill="#ec7964" d="M 129.914062 121.027344 L 129.914062 158.601562 C 129.914062 164.796875 133.128906 168.351562 138.675781 168.351562 C 143.074219 168.351562 146.152344 164.324219 146.152344 158.601562 L 146.152344 147.023438 C 146.152344 140.929688 147.742188 137.851562 150.921875 137.851562 C 154.101562 137.851562 155.519531 140.660156 155.519531 146.210938 L 155.519531 158.601562 C 155.519531 165.269531 158.195312 168.351562 163.976562 168.351562 C 168.917969 168.351562 171.757812 165.980469 171.757812 153.863281 L 171.757812 141.609375 C 171.757812 127.761719 166.753906 121.570312 155.488281 121.570312 C 148.382812 121.570312 147.707031 121.195312 146.253906 116.390625 C 146.050781 115.746094 145.847656 114.96875 145.542969 114.121094 C 144.359375 110.429688 143.175781 107.992188 137.695312 107.992188 C 135.425781 107.992188 133.734375 108.601562 132.484375 109.820312 C 129.878906 112.429688 129.878906 117.371094 129.878906 120.960938 Z M 129.914062 121.027344 " fill-opacity="1" fill-rule="nonzero"/><path fill="#000000" d="M 128.222656 158.601562 C 128.222656 164.1875 130.625 167.980469 134.75 169.402344 C 135.933594 169.808594 137.21875 170.042969 138.675781 170.042969 C 144.054688 170.042969 147.84375 165.339844 147.84375 158.601562 L 147.84375 147.023438 C 147.84375 142.046875 148.890625 139.542969 150.921875 139.542969 C 152.207031 139.542969 153.050781 140.558594 153.492188 142.488281 C 153.726562 143.46875 153.828125 144.722656 153.828125 146.210938 L 153.828125 158.601562 C 153.828125 164.558594 155.960938 168.183594 160.089844 169.46875 C 161.238281 169.839844 162.488281 170.042969 163.976562 170.042969 C 171.859375 170.042969 173.449219 163.578125 173.449219 153.863281 L 173.449219 141.609375 C 173.449219 136.089844 172.636719 131.65625 171.015625 128.269531 C 168.273438 122.582031 163.167969 119.875 155.488281 119.875 C 153.121094 119.875 151.632812 119.875 150.648438 119.671875 C 148.925781 119.335938 148.652344 118.421875 147.875 115.914062 C 147.671875 115.238281 147.4375 114.492188 147.164062 113.613281 C 146.996094 113.070312 146.828125 112.5625 146.625 112.054688 C 145.371094 108.804688 143.445312 106.300781 137.726562 106.300781 C 135.019531 106.300781 132.890625 107.078125 131.335938 108.636719 C 128.222656 111.75 128.222656 117.304688 128.253906 120.992188 L 128.253906 158.566406 Z M 145.542969 114.15625 C 145.8125 115 146.050781 115.746094 146.253906 116.421875 C 147.671875 121.195312 148.382812 121.601562 155.488281 121.601562 C 166.753906 121.601562 171.757812 127.796875 171.757812 141.640625 L 171.757812 153.898438 C 171.757812 166.015625 168.917969 168.386719 163.976562 168.386719 C 158.226562 168.386719 155.519531 165.269531 155.519531 158.636719 L 155.519531 146.246094 C 155.519531 140.695312 153.964844 137.886719 150.921875 137.886719 C 147.875 137.886719 146.152344 140.964844 146.152344 147.058594 L 146.152344 158.636719 C 146.152344 164.390625 143.074219 168.386719 138.675781 168.386719 C 133.09375 168.386719 129.914062 164.832031 129.914062 158.636719 L 129.914062 121.0625 C 129.914062 117.472656 129.914062 112.53125 132.519531 109.921875 C 133.769531 108.671875 135.460938 108.09375 137.726562 108.09375 C 143.207031 108.09375 144.390625 110.5 145.574219 114.222656 Z M 145.542969 114.15625 " fill-opacity="1" fill-rule="nonzero"/><path fill="#ec7964" d="M 108.535156 233.988281 C 113.472656 233.988281 116.3125 231.621094 116.3125 219.5 L 116.3125 207.246094 C 116.3125 193.402344 111.308594 187.207031 100.042969 187.207031 C 92.9375 187.207031 92.261719 186.835938 90.808594 182.0625 C 90.605469 181.417969 90.367188 180.640625 90.097656 179.792969 C 88.914062 176.101562 87.761719 173.667969 82.25 173.667969 C 79.984375 173.667969 78.292969 174.277344 77.039062 175.496094 C 74.433594 178.101562 74.433594 183.042969 74.433594 186.632812 L 74.433594 224.207031 C 74.433594 230.402344 77.648438 233.957031 83.195312 233.957031 C 87.59375 233.957031 90.671875 229.925781 90.671875 224.207031 L 90.671875 212.628906 C 90.671875 206.535156 92.261719 203.457031 95.441406 203.457031 C 98.621094 203.457031 100.042969 206.265625 100.042969 211.816406 L 100.042969 224.207031 C 100.042969 230.875 102.714844 233.957031 108.5 233.957031 Z M 108.535156 233.988281 " fill-opacity="1" fill-rule="nonzero"/><path fill="#000000" d="M 118.039062 219.5 L 118.039062 207.246094 C 118.039062 201.730469 117.226562 197.292969 115.605469 193.910156 C 112.863281 188.222656 107.757812 185.515625 100.078125 185.515625 C 97.707031 185.515625 96.21875 185.515625 95.238281 185.3125 C 93.515625 184.972656 93.242188 184.058594 92.5 181.554688 C 92.296875 180.875 92.058594 180.132812 91.789062 179.25 C 91.621094 178.710938 91.449219 178.203125 91.246094 177.695312 C 89.996094 174.445312 88.066406 171.941406 82.351562 171.941406 C 79.644531 171.941406 77.511719 172.71875 75.957031 174.277344 C 72.84375 177.390625 72.84375 182.941406 72.878906 186.632812 L 72.878906 224.207031 C 72.878906 229.792969 75.28125 233.582031 79.40625 235.003906 C 80.59375 235.410156 81.878906 235.648438 83.332031 235.648438 C 88.710938 235.648438 92.5 230.941406 92.5 224.207031 L 92.5 212.628906 C 92.5 207.6875 93.546875 205.148438 95.578125 205.148438 C 96.863281 205.148438 97.707031 206.128906 98.148438 208.09375 C 98.386719 209.074219 98.488281 210.328125 98.488281 211.816406 L 98.488281 224.207031 C 98.488281 230.164062 100.617188 233.785156 104.746094 235.074219 C 105.894531 235.445312 107.179688 235.648438 108.636719 235.648438 C 116.515625 235.648438 118.105469 229.183594 118.105469 219.46875 Z M 95.511719 203.488281 C 92.363281 203.488281 90.742188 206.570312 90.742188 212.664062 L 90.742188 224.242188 C 90.742188 229.996094 87.660156 233.988281 83.265625 233.988281 C 77.683594 233.988281 74.503906 230.433594 74.503906 224.242188 L 74.503906 186.664062 C 74.503906 183.078125 74.503906 178.132812 77.109375 175.527344 C 78.359375 174.277344 80.050781 173.699219 82.316406 173.699219 C 87.796875 173.699219 88.980469 176.101562 90.164062 179.828125 C 90.4375 180.671875 90.671875 181.453125 90.875 182.09375 C 92.332031 186.867188 93.007812 187.242188 100.109375 187.242188 C 111.375 187.242188 116.382812 193.4375 116.382812 207.28125 L 116.382812 219.535156 C 116.382812 231.652344 113.539062 234.023438 108.601562 234.023438 C 102.851562 234.023438 100.144531 230.910156 100.144531 224.273438 L 100.144531 211.882812 C 100.144531 206.332031 98.589844 203.523438 95.542969 203.523438 Z M 95.511719 203.488281 " fill-opacity="1" fill-rule="nonzero"/><path fill="#ec7964" d="M 163.300781 221.53125 C 163.300781 220.210938 163.097656 219.570312 162.894531 218.890625 C 162.691406 218.179688 162.488281 217.46875 162.488281 216.148438 C 162.421875 215.40625 162.320312 214.355469 163.4375 212.59375 C 165.433594 209.347656 165.601562 207.753906 165.601562 205.859375 C 165.601562 195.90625 158.058594 185.820312 143.613281 185.820312 C 130.960938 185.820312 121.792969 195.972656 121.792969 209.957031 C 121.792969 221.464844 128.933594 233.109375 144.933594 233.109375 C 153.625 233.109375 163.335938 228.167969 163.335938 221.566406 Z M 139.65625 199.832031 C 139.65625 197.871094 141.550781 195.738281 144.5625 195.738281 C 146.960938 195.738281 149.5 197.191406 149.5 199.832031 C 149.5 201.695312 148.621094 203.929688 144.425781 203.929688 C 142.597656 203.929688 139.65625 202.8125 139.65625 199.832031 Z M 141.617188 216.792969 C 141.617188 215.878906 142.769531 214.152344 145.574219 214.152344 C 147.03125 214.152344 149.363281 214.828125 149.363281 216.625 C 149.363281 218.789062 147.335938 219.773438 145.40625 219.773438 C 143.648438 219.773438 141.617188 218.992188 141.617188 216.792969 Z M 141.617188 216.792969 " fill-opacity="1" fill-rule="nonzero"/><path fill="#000000" d="M 164.992188 221.53125 C 164.992188 219.976562 164.757812 219.128906 164.519531 218.417969 C 164.316406 217.773438 164.179688 217.199219 164.179688 216.148438 C 164.179688 216.046875 164.179688 215.945312 164.179688 215.8125 C 164.148438 215.371094 164.078125 214.761719 164.890625 213.507812 C 167.125 209.886719 167.292969 207.925781 167.292969 205.894531 C 167.292969 202.40625 166.449219 198.917969 164.757812 195.769531 C 161.238281 189.171875 154.132812 184.160156 143.613281 184.160156 C 131.46875 184.160156 122.300781 192.828125 120.476562 205.285156 C 120.238281 206.808594 120.101562 208.363281 120.101562 209.957031 C 120.101562 212.054688 120.339844 214.152344 120.78125 216.183594 C 122.199219 222.546875 125.820312 228.371094 131.976562 231.722656 C 135.460938 233.652344 139.757812 234.769531 144.898438 234.769531 C 154.40625 234.769531 164.992188 229.320312 164.992188 221.53125 Z M 121.792969 209.957031 C 121.792969 195.972656 130.960938 185.820312 143.613281 185.820312 C 158.058594 185.820312 165.601562 195.90625 165.601562 205.859375 C 165.601562 207.753906 165.433594 209.347656 163.4375 212.59375 C 162.320312 214.355469 162.421875 215.40625 162.488281 216.148438 C 162.488281 217.46875 162.691406 218.179688 162.894531 218.890625 C 163.097656 219.570312 163.300781 220.210938 163.300781 221.53125 C 163.300781 228.132812 153.59375 233.074219 144.898438 233.074219 C 128.933594 233.074219 121.761719 221.464844 121.761719 209.921875 Z M 121.792969 209.957031 " fill-opacity="1" fill-rule="nonzero"/><path fill="#000000" d="M 144.425781 203.964844 C 148.621094 203.964844 149.5 201.730469 149.5 199.867188 C 149.5 197.191406 146.960938 195.769531 144.5625 195.769531 C 141.515625 195.769531 139.65625 197.902344 139.65625 199.867188 C 139.65625 202.847656 142.566406 203.964844 144.425781 203.964844 Z M 144.59375 197.429688 C 145.878906 197.429688 147.84375 198.074219 147.84375 199.832031 C 147.84375 199.96875 147.84375 200.105469 147.84375 200.238281 C 147.742188 201.289062 147.132812 202.269531 144.460938 202.269531 C 143.613281 202.269531 141.414062 201.832031 141.414062 199.867188 C 141.414062 198.851562 142.53125 197.464844 144.628906 197.464844 Z M 144.59375 197.429688 " fill-opacity="1" fill-rule="nonzero"/><path fill="#000000" d="M 149.332031 216.65625 C 149.332031 214.863281 146.996094 214.1875 145.542969 214.1875 C 142.769531 214.1875 141.585938 215.914062 141.585938 216.828125 C 141.585938 219.027344 143.613281 219.804688 145.371094 219.804688 C 147.265625 219.804688 149.332031 218.824219 149.332031 216.65625 Z M 143.308594 216.859375 C 143.34375 216.65625 143.917969 215.878906 145.574219 215.878906 C 146.625 215.878906 147.671875 216.320312 147.671875 216.65625 C 147.671875 218.078125 145.507812 218.113281 145.40625 218.113281 C 144.933594 218.113281 143.308594 218.011719 143.308594 216.894531 Z M 143.308594 216.859375 " fill-opacity="1" fill-rule="nonzero"/><path fill="#ec7964" d="M 170.84375 181.722656 L 170.675781 222.683594 C 170.675781 229.925781 174.023438 234.226562 179.605469 234.226562 C 186.574219 234.226562 189.042969 228.945312 189.042969 223.96875 L 189.042969 183.484375 C 189.042969 172.683594 183.667969 171.433594 179.605469 171.433594 C 171.453125 171.433594 170.84375 179.285156 170.84375 181.6875 Z M 170.84375 181.722656 " fill-opacity="1" fill-rule="nonzero"/><path fill="#000000" d="M 169.152344 181.722656 L 169.050781 203.386719 L 169.050781 214.21875 L 168.984375 222.683594 C 168.984375 230.164062 172.199219 233.957031 176.019531 235.308594 C 177.171875 235.714844 178.390625 235.953125 179.605469 235.953125 C 186.371094 235.953125 190.734375 231.28125 190.734375 224.003906 L 190.734375 183.515625 C 190.734375 180.503906 190.296875 178.066406 189.550781 176.070312 C 187.929688 171.90625 184.679688 169.808594 179.640625 169.808594 C 173.179688 169.808594 169.1875 174.378906 169.1875 181.757812 Z M 189.042969 183.515625 L 189.042969 224.003906 C 189.042969 228.945312 186.574219 234.261719 179.605469 234.261719 C 174.023438 234.261719 170.675781 229.925781 170.675781 222.71875 L 170.84375 181.757812 C 170.84375 179.351562 171.488281 171.5 179.605469 171.5 C 183.667969 171.5 189.042969 172.753906 189.042969 183.550781 Z M 189.042969 183.515625 " fill-opacity="1" fill-rule="nonzero"/><path fill="#ec7964" d="M 203.285156 234.226562 C 210.253906 234.226562 212.722656 228.945312 212.722656 223.96875 L 212.722656 183.484375 C 212.722656 172.683594 207.347656 171.433594 203.285156 171.433594 C 195.132812 171.433594 194.523438 179.285156 194.523438 181.6875 L 194.355469 222.648438 C 194.355469 229.894531 197.703125 234.191406 203.285156 234.191406 Z M 203.285156 234.226562 " fill-opacity="1" fill-rule="nonzero"/><path fill="#000000" d="M 192.664062 222.683594 C 192.664062 224.882812 192.96875 226.710938 193.476562 228.304688 C 194.660156 232.128906 197.027344 234.328125 199.734375 235.308594 C 200.882812 235.714844 202.101562 235.953125 203.320312 235.953125 C 210.085938 235.953125 214.449219 231.28125 214.449219 224.003906 L 214.449219 183.515625 C 214.449219 180.503906 214.011719 178.066406 213.265625 176.070312 C 211.640625 171.90625 208.394531 169.808594 203.355469 169.808594 C 196.996094 169.808594 193.035156 174.242188 192.902344 181.382812 C 192.902344 181.519531 192.902344 181.621094 192.902344 181.757812 L 192.730469 222.71875 Z M 194.523438 181.722656 C 194.523438 179.320312 195.167969 171.464844 203.285156 171.464844 C 207.347656 171.464844 212.722656 172.71875 212.722656 183.515625 L 212.722656 224.003906 C 212.722656 228.945312 210.253906 234.261719 203.285156 234.261719 C 197.703125 234.261719 194.355469 229.929688 194.355469 222.71875 L 194.523438 181.757812 Z M 194.523438 181.722656 " fill-opacity="1" fill-rule="nonzero"/><path fill="#ec7964" d="M 243.542969 234.328125 C 257.816406 234.328125 267.796875 224.070312 267.796875 209.378906 C 267.796875 194.6875 257.175781 184.769531 242.5625 184.769531 C 227.945312 184.769531 217.496094 194.957031 217.496094 209.550781 C 217.496094 224.140625 227.472656 234.328125 243.542969 234.328125 Z M 235.015625 209.71875 C 235.015625 203.386719 238.804688 200.070312 242.5625 200.070312 C 247.871094 200.070312 250.273438 204.84375 250.273438 209.582031 C 250.273438 214.898438 246.890625 219.230469 242.730469 219.230469 C 238.332031 219.230469 235.050781 215.132812 235.050781 209.753906 Z M 235.015625 209.71875 " fill-opacity="1" fill-rule="nonzero"/><path fill="#000000" d="M 217.15625 218.824219 C 219.015625 224.851562 222.804688 229.523438 228.183594 232.464844 C 232.414062 234.769531 237.589844 236.054688 243.574219 236.054688 C 258.628906 236.054688 269.523438 224.851562 269.523438 209.414062 C 269.523438 204.402344 268.269531 199.867188 266.105469 196.007812 C 261.605469 188.121094 253.082031 183.109375 242.59375 183.109375 C 230.042969 183.109375 220.539062 190.015625 217.15625 200.679688 C 216.277344 203.421875 215.804688 206.402344 215.804688 209.582031 C 215.804688 212.933594 216.277344 216.046875 217.15625 218.859375 Z M 242.59375 184.804688 C 257.207031 184.804688 267.832031 195.160156 267.832031 209.414062 C 267.832031 223.664062 257.851562 234.363281 243.574219 234.363281 C 227.507812 234.363281 217.527344 224.882812 217.527344 209.582031 C 217.527344 194.28125 227.84375 184.804688 242.59375 184.804688 Z M 242.59375 184.804688 " fill-opacity="1" fill-rule="nonzero"/><path fill="#000000" d="M 242.730469 219.195312 C 246.890625 219.195312 250.273438 214.863281 250.273438 209.550781 C 250.273438 204.808594 247.90625 200.035156 242.5625 200.035156 C 238.804688 200.035156 235.015625 203.355469 235.015625 209.683594 C 235.015625 215.101562 238.332031 219.164062 242.695312 219.164062 Z M 242.5625 201.730469 C 244.929688 201.730469 246.484375 202.949219 247.398438 204.605469 C 248.210938 206.0625 248.582031 207.855469 248.582031 209.515625 C 248.582031 213.847656 245.910156 217.46875 242.730469 217.46875 C 241.714844 217.46875 240.800781 217.164062 239.988281 216.625 C 238.027344 215.371094 236.742188 212.796875 236.742188 209.683594 C 236.742188 204.980469 239.144531 201.730469 242.59375 201.730469 Z M 242.5625 201.730469 " fill-opacity="1" fill-rule="nonzero"/><path fill="#ec7964" d="M 93.683594 302.742188 C 99.738281 302.742188 102.78125 300.273438 102.78125 295.429688 C 102.78125 292.960938 101.226562 291.0625 99.570312 289.03125 C 98.046875 287.136719 96.457031 285.207031 96.253906 282.769531 C 96.085938 281.484375 95.917969 280.128906 95.917969 275.355469 C 95.917969 272.039062 96.726562 269.636719 98.417969 267.773438 C 100.585938 265.269531 101.800781 263.375 101.800781 260.664062 C 101.800781 259.277344 101.226562 258.5 100.515625 257.484375 L 100.347656 257.246094 C 100.078125 256.875 99.773438 256.535156 99.433594 256.195312 C 98.757812 255.519531 98.011719 254.742188 97.335938 253.386719 C 96.898438 252.507812 96.558594 251.59375 96.1875 250.679688 C 94.597656 246.683594 93.242188 243.265625 87.019531 243.265625 C 85.125 243.265625 82.417969 243.976562 80.21875 247.429688 C 79.339844 248.816406 78.597656 251.457031 78.324219 252.472656 C 78.257812 252.710938 78.222656 252.878906 78.191406 252.945312 C 77.816406 253.726562 77.378906 254.335938 76.9375 254.945312 C 75.789062 256.601562 74.46875 258.5 74.46875 261.984375 C 74.46875 262.832031 74.773438 263.679688 75.214844 264.761719 C 76.398438 266.488281 76.90625 267.503906 77.210938 268.113281 C 77.3125 268.316406 77.410156 268.519531 77.480469 268.585938 L 77.648438 268.789062 C 78.359375 270.246094 78.730469 271.328125 78.730469 272.105469 C 78.867188 274.882812 79.375 288.523438 79.375 289.066406 C 79.984375 299.15625 87.460938 302.742188 93.683594 302.742188 Z M 93.683594 302.742188 " fill-opacity="1" fill-rule="nonzero"/><path fill="#000000" d="M 104.472656 295.429688 C 104.472656 294.007812 104.070312 292.789062 103.460938 291.640625 C 102.917969 290.589844 102.207031 289.609375 101.464844 288.660156 C 101.261719 288.421875 101.089844 288.1875 100.890625 287.949219 C 99.46875 286.1875 98.113281 284.53125 97.945312 282.566406 C 97.777344 281.316406 97.640625 279.996094 97.640625 275.355469 C 97.640625 272.445312 98.285156 270.480469 99.703125 268.890625 C 101.699219 266.589844 103.492188 264.21875 103.492188 260.664062 C 103.492188 259.886719 103.324219 259.242188 103.121094 258.667969 C 102.816406 257.820312 102.34375 257.144531 101.871094 256.5 L 101.699219 256.265625 C 101.699219 256.265625 101.464844 255.992188 101.363281 255.859375 C 101.125 255.585938 100.921875 255.316406 100.652344 255.046875 C 100.042969 254.402344 99.433594 253.757812 98.859375 252.640625 C 98.453125 251.796875 98.113281 250.914062 97.742188 250.035156 C 97.472656 249.324219 97.167969 248.578125 96.828125 247.871094 C 95.339844 244.585938 93.039062 241.539062 86.984375 241.539062 C 85.089844 241.539062 81.503906 242.183594 78.765625 246.515625 C 77.75 248.140625 77.007812 250.847656 76.667969 252 L 76.601562 252.304688 C 76.328125 252.84375 75.957031 253.386719 75.519531 253.996094 C 74.265625 255.789062 72.742188 257.992188 72.742188 261.984375 C 72.742188 263.101562 73.117188 264.152344 73.726562 265.539062 C 74.910156 267.332031 75.417969 268.28125 75.71875 268.855469 C 75.890625 269.195312 76.023438 269.433594 76.160156 269.601562 C 76.835938 271.023438 77.007812 271.734375 77.007812 272.105469 C 77.175781 275.1875 77.648438 288.660156 77.648438 289.066406 C 78.054688 296.039062 81.640625 300.441406 86.171875 302.640625 C 88.507812 303.792969 91.078125 304.367188 93.648438 304.367188 C 103.054688 304.367188 104.441406 298.714844 104.441406 295.363281 Z M 78.699219 272.105469 C 78.699219 271.328125 78.359375 270.246094 77.613281 268.789062 L 77.445312 268.585938 C 77.445312 268.585938 77.3125 268.316406 77.175781 268.113281 C 76.871094 267.503906 76.328125 266.488281 75.179688 264.761719 C 74.738281 263.710938 74.433594 262.832031 74.433594 261.984375 C 74.433594 258.5 75.753906 256.636719 76.90625 254.945312 C 77.34375 254.300781 77.75 253.691406 78.15625 252.945312 C 78.15625 252.84375 78.222656 252.710938 78.292969 252.472656 C 78.5625 251.492188 79.304688 248.816406 80.1875 247.429688 C 82.386719 243.976562 85.089844 243.265625 86.984375 243.265625 C 93.210938 243.265625 94.597656 246.71875 96.152344 250.679688 C 96.523438 251.59375 96.863281 252.507812 97.304688 253.386719 C 97.980469 254.742188 98.722656 255.519531 99.398438 256.195312 C 99.738281 256.535156 100.042969 256.839844 100.3125 257.246094 L 100.484375 257.484375 C 101.191406 258.464844 101.769531 259.277344 101.769531 260.664062 C 101.769531 263.375 100.585938 265.234375 98.386719 267.773438 C 96.660156 269.636719 95.882812 272.039062 95.882812 275.355469 C 95.882812 280.128906 96.050781 281.484375 96.21875 282.769531 C 96.390625 285.207031 97.980469 287.136719 99.535156 289.03125 C 101.191406 291.0625 102.75 292.992188 102.75 295.429688 C 102.75 300.273438 99.671875 302.742188 93.648438 302.742188 C 87.628906 302.742188 79.914062 299.15625 79.339844 289.066406 C 79.339844 288.523438 78.832031 274.847656 78.699219 272.105469 Z M 78.699219 272.105469 " fill-opacity="1" fill-rule="nonzero"/><path fill="#ec7964" d="M 143.207031 302.605469 C 148.148438 302.605469 150.988281 300.238281 150.988281 288.117188 L 150.988281 275.863281 C 150.988281 262.019531 145.980469 255.824219 134.71875 255.824219 C 127.613281 255.824219 126.9375 255.453125 125.480469 250.644531 C 125.277344 250 125.074219 249.222656 124.769531 248.375 C 123.585938 244.6875 122.4375 242.25 116.921875 242.25 C 114.65625 242.25 112.964844 242.859375 111.714844 244.078125 C 109.109375 246.683594 109.109375 251.625 109.109375 255.214844 L 109.109375 292.789062 C 109.109375 298.984375 112.324219 302.539062 117.871094 302.539062 C 122.269531 302.539062 125.347656 298.511719 125.347656 292.789062 L 125.347656 281.214844 C 125.347656 275.121094 126.9375 272.039062 130.117188 272.039062 C 133.296875 272.039062 134.71875 274.847656 134.71875 280.402344 L 134.71875 292.789062 C 134.71875 299.460938 137.390625 302.539062 143.175781 302.539062 Z M 143.207031 302.605469 " fill-opacity="1" fill-rule="nonzero"/><path fill="#000000" d="M 152.679688 288.085938 L 152.679688 275.832031 C 152.679688 270.3125 151.867188 265.878906 150.242188 262.492188 C 147.503906 256.804688 142.394531 254.097656 134.71875 254.097656 C 132.347656 254.097656 130.859375 254.097656 129.878906 253.894531 C 128.152344 253.554688 127.882812 252.640625 127.105469 250.136719 C 126.902344 249.460938 126.664062 248.714844 126.394531 247.835938 C 126.226562 247.292969 126.058594 246.785156 125.855469 246.277344 C 124.601562 243.027344 122.675781 240.558594 116.957031 240.558594 C 114.25 240.558594 112.121094 241.335938 110.5625 242.894531 C 107.453125 246.007812 107.453125 251.558594 107.484375 255.25 L 107.484375 292.824219 C 107.484375 298.410156 109.886719 302.199219 114.015625 303.621094 C 115.199219 304.027344 116.484375 304.265625 117.9375 304.265625 C 123.316406 304.265625 127.105469 299.5625 127.105469 292.824219 L 127.105469 281.246094 C 127.105469 276.269531 128.152344 273.765625 130.183594 273.765625 C 131.46875 273.765625 132.316406 274.78125 132.753906 276.710938 C 132.992188 277.691406 133.09375 278.945312 133.09375 280.433594 L 133.09375 292.824219 C 133.09375 298.78125 135.222656 302.402344 139.351562 303.691406 C 140.5 304.0625 141.785156 304.265625 143.242188 304.265625 C 151.125 304.265625 152.714844 297.800781 152.714844 288.085938 Z M 130.148438 272.074219 C 127.003906 272.074219 125.378906 275.152344 125.378906 281.246094 L 125.378906 292.824219 C 125.378906 298.578125 122.300781 302.574219 117.90625 302.574219 C 112.324219 302.574219 109.144531 299.019531 109.144531 292.824219 L 109.144531 255.25 C 109.144531 251.660156 109.144531 246.71875 111.746094 244.113281 C 113 242.859375 114.691406 242.285156 116.957031 242.285156 C 122.4375 242.285156 123.621094 244.6875 124.804688 248.410156 C 125.074219 249.257812 125.3125 250.035156 125.515625 250.679688 C 126.96875 255.453125 127.648438 255.859375 134.75 255.859375 C 146.015625 255.859375 151.023438 262.054688 151.023438 275.898438 L 151.023438 288.152344 C 151.023438 300.273438 148.179688 302.640625 143.242188 302.640625 C 137.457031 302.640625 134.785156 299.527344 134.785156 292.890625 L 134.785156 280.503906 C 134.785156 274.949219 133.226562 272.140625 130.183594 272.140625 Z M 130.148438 272.074219 " fill-opacity="1" fill-rule="nonzero"/><path fill="#ec7964" d="M 197.941406 290.148438 C 197.941406 288.828125 197.738281 288.1875 197.535156 287.507812 C 197.332031 286.796875 197.128906 286.085938 197.128906 284.765625 C 197.0625 284.023438 196.960938 282.972656 198.078125 281.214844 C 200.074219 277.964844 200.242188 276.371094 200.242188 274.476562 C 200.242188 264.523438 192.699219 254.4375 178.253906 254.4375 C 165.601562 254.4375 156.433594 264.59375 156.433594 278.539062 C 156.433594 290.046875 163.574219 301.695312 179.539062 301.695312 C 188.234375 301.695312 197.941406 296.75 197.941406 290.148438 Z M 174.296875 268.449219 C 174.296875 266.488281 176.191406 264.355469 179.199219 264.355469 C 181.601562 264.355469 184.140625 265.808594 184.140625 268.449219 C 184.140625 270.3125 183.261719 272.546875 179.066406 272.546875 C 177.238281 272.546875 174.296875 271.429688 174.296875 268.449219 Z M 176.257812 285.410156 C 176.257812 284.496094 177.40625 282.769531 180.214844 282.769531 C 181.671875 282.769531 184.003906 283.449219 184.003906 285.242188 C 184.003906 287.40625 181.976562 288.355469 180.046875 288.355469 C 178.289062 288.355469 176.257812 287.578125 176.257812 285.375 Z M 176.257812 285.410156 " fill-opacity="1" fill-rule="nonzero"/><path fill="#000000" d="M 199.632812 290.148438 C 199.632812 288.59375 199.394531 287.746094 199.160156 287.035156 C 198.957031 286.390625 198.820312 285.816406 198.820312 284.765625 C 198.820312 284.664062 198.820312 284.5625 198.820312 284.429688 C 198.789062 283.988281 198.71875 283.378906 199.53125 282.128906 C 201.765625 278.503906 201.933594 276.542969 201.933594 274.511719 C 201.933594 271.023438 201.085938 267.535156 199.394531 264.390625 C 195.878906 257.789062 188.773438 252.777344 178.253906 252.777344 C 166.109375 252.777344 156.941406 261.445312 155.117188 273.902344 C 154.878906 275.425781 154.742188 276.980469 154.742188 278.574219 C 154.742188 280.671875 154.980469 282.769531 155.417969 284.800781 C 156.839844 291.164062 160.460938 296.988281 166.617188 300.339844 C 170.101562 302.269531 174.398438 303.386719 179.539062 303.386719 C 189.042969 303.386719 199.632812 297.9375 199.632812 290.148438 Z M 156.433594 278.574219 C 156.433594 264.59375 165.601562 254.46875 178.253906 254.46875 C 192.699219 254.46875 200.242188 264.558594 200.242188 274.511719 C 200.242188 276.40625 200.074219 277.996094 198.078125 281.246094 C 196.960938 283.007812 197.0625 284.054688 197.128906 284.800781 C 197.128906 286.121094 197.332031 286.832031 197.535156 287.542969 C 197.738281 288.21875 197.941406 288.863281 197.941406 290.183594 C 197.941406 296.785156 188.234375 301.726562 179.539062 301.726562 C 163.574219 301.726562 156.433594 290.117188 156.433594 278.574219 Z M 156.433594 278.574219 " fill-opacity="1" fill-rule="nonzero"/><path fill="#000000" d="M 179.066406 272.546875 C 183.261719 272.546875 184.140625 270.3125 184.140625 268.449219 C 184.140625 265.777344 181.601562 264.355469 179.199219 264.355469 C 176.15625 264.355469 174.296875 266.488281 174.296875 268.449219 C 174.296875 271.429688 177.203125 272.546875 179.066406 272.546875 Z M 182.449219 268.449219 C 182.449219 268.449219 182.449219 268.722656 182.449219 268.855469 C 182.347656 269.90625 181.738281 270.886719 179.066406 270.886719 C 178.21875 270.886719 176.019531 270.449219 176.019531 268.484375 C 176.019531 267.46875 177.136719 266.082031 179.234375 266.082031 C 180.519531 266.082031 182.480469 266.722656 182.480469 268.484375 Z M 182.449219 268.449219 " fill-opacity="1" fill-rule="nonzero"/><path fill="#000000" d="M 183.96875 285.242188 C 183.96875 283.449219 181.636719 282.769531 180.183594 282.769531 C 177.40625 282.769531 176.222656 284.496094 176.222656 285.410156 C 176.222656 287.609375 178.253906 288.390625 180.011719 288.390625 C 181.90625 288.390625 183.96875 287.40625 183.96875 285.273438 Z M 180.183594 284.460938 C 181.230469 284.460938 182.277344 284.902344 182.277344 285.242188 C 182.277344 286.664062 180.113281 286.664062 180.011719 286.664062 C 179.539062 286.664062 177.914062 286.5625 177.914062 285.445312 C 177.949219 285.242188 178.523438 284.460938 180.183594 284.460938 Z M 180.183594 284.460938 " fill-opacity="1" fill-rule="nonzero"/><path fill="#ec7964" d="M 213.707031 301.21875 C 216.886719 301.21875 219.015625 300 220.640625 297.226562 C 222.027344 294.890625 221.992188 291.265625 221.992188 288.085938 L 221.992188 287.203125 C 221.992188 278.066406 222.671875 274.613281 224.835938 272.410156 C 226.660156 270.753906 227.847656 270.074219 228.757812 269.535156 C 229.707031 268.992188 230.449219 268.550781 231.632812 267.230469 C 232.617188 266.148438 233.054688 264.355469 233.054688 261.578125 C 233.054688 258.804688 230.585938 257.144531 229.132812 256.46875 C 227.675781 255.757812 226.492188 255.757812 224.699219 255.757812 C 223.957031 255.757812 223.109375 255.757812 222.128906 255.757812 C 220.777344 255.6875 219.863281 255.519531 218.949219 255.382812 C 217.664062 255.179688 216.308594 254.945312 213.332031 254.945312 C 208.5625 254.945312 205.382812 258.9375 205.382812 264.863281 L 205.382812 289.507812 C 205.382812 297.734375 207.851562 301.21875 213.671875 301.21875 Z M 213.707031 301.21875 " fill-opacity="1" fill-rule="nonzero"/><path fill="#000000" d="M 222.09375 298.070312 C 223.71875 295.328125 223.683594 291.46875 223.683594 288.050781 L 223.683594 287.171875 C 223.683594 278.675781 224.261719 275.355469 226.019531 273.597656 C 227.675781 272.074219 228.726562 271.496094 229.636719 270.957031 C 230.6875 270.347656 231.601562 269.839844 232.953125 268.316406 C 234.613281 266.453125 234.8125 263.578125 234.8125 261.546875 C 234.8125 261.039062 234.679688 260.5625 234.578125 260.089844 C 234.070312 257.921875 232.515625 256.09375 229.941406 254.875 C 228.148438 253.960938 226.628906 253.996094 224.734375 253.996094 C 223.988281 253.996094 223.210938 253.996094 222.265625 253.996094 C 221.011719 253.929688 220.167969 253.792969 219.289062 253.65625 C 217.898438 253.421875 216.511719 253.183594 213.402344 253.183594 C 207.617188 253.183594 203.761719 257.855469 203.761719 264.796875 L 203.761719 289.4375 C 203.761719 294.3125 204.570312 300.542969 210.253906 302.300781 C 211.269531 302.605469 212.386719 302.84375 213.738281 302.84375 C 217.527344 302.84375 220.199219 301.320312 222.128906 298.039062 Z M 205.417969 264.828125 C 205.417969 258.90625 208.632812 254.910156 213.367188 254.910156 C 216.308594 254.910156 217.664062 255.148438 218.984375 255.351562 C 219.863281 255.484375 220.777344 255.65625 222.164062 255.722656 C 223.144531 255.757812 223.957031 255.757812 224.734375 255.722656 C 226.558594 255.722656 227.746094 255.722656 229.164062 256.398438 C 230.621094 257.109375 233.089844 258.667969 233.089844 261.511719 C 233.089844 264.355469 232.648438 266.046875 231.667969 267.164062 C 230.484375 268.484375 229.738281 268.925781 228.792969 269.464844 C 227.847656 270.007812 226.695312 270.683594 224.867188 272.34375 C 222.671875 274.542969 222.027344 277.996094 222.027344 287.136719 L 222.027344 288.015625 C 222.027344 291.199219 222.027344 294.820312 220.675781 297.15625 C 219.050781 299.933594 216.917969 301.152344 213.738281 301.152344 C 207.921875 301.152344 205.453125 297.632812 205.453125 289.4375 L 205.453125 264.796875 Z M 205.417969 264.828125 " fill-opacity="1" fill-rule="nonzero"/><path fill="#ec7964" d="M 278.890625 290.148438 C 278.890625 288.828125 278.6875 288.1875 278.488281 287.507812 C 278.285156 286.796875 278.082031 286.085938 278.082031 284.765625 C 278.011719 284.023438 277.910156 282.972656 279.027344 281.214844 C 281.023438 277.964844 281.191406 276.371094 281.191406 274.476562 C 281.191406 264.523438 273.648438 254.4375 259.203125 254.4375 C 246.550781 254.4375 237.386719 264.59375 237.386719 278.539062 C 237.386719 290.046875 244.523438 301.695312 260.523438 301.695312 C 269.21875 301.695312 278.925781 296.75 278.925781 290.148438 Z M 255.246094 268.449219 C 255.246094 266.488281 257.140625 264.355469 260.152344 264.355469 C 262.554688 264.355469 265.089844 265.808594 265.089844 268.449219 C 265.089844 270.3125 264.210938 272.546875 260.015625 272.546875 C 258.191406 272.546875 255.246094 271.429688 255.246094 268.449219 Z M 257.207031 285.410156 C 257.207031 284.496094 258.359375 282.769531 261.167969 282.769531 C 262.621094 282.769531 264.957031 283.449219 264.957031 285.242188 C 264.957031 287.40625 262.925781 288.355469 260.996094 288.355469 C 259.238281 288.355469 257.207031 287.578125 257.207031 285.375 Z M 257.207031 285.410156 " fill-opacity="1" fill-rule="nonzero"/><path fill="#000000" d="M 280.582031 290.148438 C 280.582031 288.59375 280.347656 287.746094 280.109375 287.035156 C 279.90625 286.390625 279.773438 285.816406 279.773438 284.765625 C 279.773438 284.664062 279.773438 284.5625 279.773438 284.429688 C 279.738281 283.988281 279.671875 283.378906 280.480469 282.128906 C 282.714844 278.503906 282.882812 276.542969 282.882812 274.511719 C 282.882812 271.023438 282.039062 267.535156 280.347656 264.390625 C 276.828125 257.789062 269.726562 252.777344 259.203125 252.777344 C 245.570312 252.777344 235.695312 263.644531 235.695312 278.574219 C 235.695312 287.203125 239.449219 295.90625 247.566406 300.339844 C 251.050781 302.269531 255.347656 303.386719 260.488281 303.386719 C 269.996094 303.386719 280.582031 297.9375 280.582031 290.148438 Z M 237.386719 278.574219 C 237.386719 264.59375 246.550781 254.46875 259.203125 254.46875 C 273.648438 254.46875 281.191406 264.558594 281.191406 274.511719 C 281.191406 276.40625 281.023438 277.996094 279.027344 281.246094 C 277.910156 283.007812 278.011719 284.054688 278.082031 284.800781 C 278.082031 286.121094 278.285156 286.832031 278.488281 287.542969 C 278.6875 288.21875 278.890625 288.863281 278.890625 290.183594 C 278.890625 296.785156 269.183594 301.726562 260.488281 301.726562 C 244.523438 301.726562 237.351562 290.117188 237.351562 278.574219 Z M 237.386719 278.574219 " fill-opacity="1" fill-rule="nonzero"/><path fill="#000000" d="M 260.015625 272.546875 C 264.210938 272.546875 265.089844 270.3125 265.089844 268.449219 C 265.089844 265.777344 262.554688 264.355469 260.152344 264.355469 C 257.105469 264.355469 255.246094 266.488281 255.246094 268.449219 C 255.246094 271.429688 258.15625 272.546875 260.015625 272.546875 Z M 263.398438 268.449219 C 263.398438 268.449219 263.398438 268.722656 263.398438 268.855469 C 263.296875 269.90625 262.6875 270.886719 260.015625 270.886719 C 259.136719 270.886719 256.972656 270.449219 256.972656 268.484375 C 256.972656 267.46875 258.089844 266.082031 260.183594 266.082031 C 261.472656 266.082031 263.433594 266.722656 263.433594 268.484375 Z M 263.398438 268.449219 " fill-opacity="1" fill-rule="nonzero"/><path fill="#000000" d="M 264.957031 285.242188 C 264.957031 283.449219 262.621094 282.769531 261.167969 282.769531 C 258.390625 282.769531 257.207031 284.496094 257.207031 285.410156 C 257.207031 287.609375 259.238281 288.390625 260.996094 288.390625 C 262.890625 288.390625 264.957031 287.40625 264.957031 285.273438 Z M 261.167969 284.460938 C 262.214844 284.460938 263.265625 284.902344 263.265625 285.242188 C 263.265625 286.664062 261.097656 286.664062 260.996094 286.664062 C 260.523438 286.664062 258.898438 286.5625 258.898438 285.445312 C 258.933594 285.242188 259.507812 284.460938 261.167969 284.460938 Z M 261.167969 284.460938 " fill-opacity="1" fill-rule="nonzero"/><path fill="#ffd19f" d="M 200.34375 148.75 C 204.773438 153.1875 210.628906 155.625 216.886719 155.625 C 219.964844 155.625 222.972656 155.015625 225.75 153.898438 C 224.867188 151.324219 224.363281 148.582031 224.363281 145.738281 C 224.363281 145.230469 224.363281 144.65625 224.460938 143.976562 C 224.5625 142.65625 224.734375 141.4375 224.96875 140.289062 C 226.121094 134.09375 228.65625 126.542969 232.820312 118.996094 C 232.378906 118.625 231.9375 118.25 231.5 117.8125 C 230.992188 117.304688 230.550781 116.796875 230.113281 116.289062 C 222.570312 120.417969 215.023438 122.988281 208.800781 124.140625 C 207.648438 124.378906 206.433594 124.546875 205.148438 124.648438 C 204.503906 124.714844 203.894531 124.75 203.386719 124.75 C 200.546875 124.75 197.804688 124.242188 195.234375 123.363281 C 191.785156 131.824219 193.476562 141.914062 200.34375 148.785156 Z M 200.34375 148.75 " fill-opacity="1" fill-rule="nonzero"/><path fill="#1d1d1b" d="M 199.125 149.96875 C 203.863281 154.710938 210.152344 157.316406 216.851562 157.316406 C 220.132812 157.316406 223.347656 156.671875 226.289062 155.488281 C 226.085938 154.980469 225.882812 154.4375 225.714844 153.898438 C 222.941406 155.046875 219.929688 155.625 216.851562 155.625 C 210.59375 155.625 204.742188 153.1875 200.308594 148.75 C 193.441406 141.878906 191.75 131.792969 195.203125 123.328125 C 194.660156 123.160156 194.117188 122.957031 193.613281 122.753906 C 189.925781 131.824219 191.785156 142.625 199.09375 149.96875 Z M 199.125 149.96875 " fill-opacity="1" fill-rule="nonzero"/><path fill="#ffd19f" d="M 249.664062 125.324219 C 244.183594 125.324219 238.703125 123.566406 234.136719 120.078125 C 230.179688 127.355469 227.746094 134.636719 226.628906 140.625 C 226.390625 141.710938 226.222656 142.859375 226.121094 144.078125 C 226.054688 144.6875 226.054688 145.230469 226.054688 145.703125 C 226.054688 158.601562 236.539062 169.097656 249.429688 169.097656 C 259.136719 169.097656 267.457031 163.171875 271.011719 154.742188 C 268.574219 153.558594 266.273438 151.96875 264.277344 149.96875 C 263.941406 149.632812 263.535156 149.15625 263.09375 148.648438 C 262.25 147.667969 261.503906 146.652344 260.863281 145.671875 C 257.308594 140.523438 253.792969 133.417969 251.390625 125.222656 C 250.816406 125.257812 250.238281 125.292969 249.664062 125.292969 Z M 249.664062 125.324219 " fill-opacity="1" fill-rule="nonzero"/><path fill="#1d1d1b" d="M 249.429688 169.097656 C 236.539062 169.097656 226.054688 158.601562 226.054688 145.703125 C 226.054688 145.230469 226.054688 144.6875 226.121094 144.078125 C 226.222656 142.828125 226.355469 141.675781 226.628906 140.59375 C 227.746094 134.601562 230.179688 127.324219 234.136719 120.046875 C 233.699219 119.707031 233.257812 119.335938 232.820312 118.960938 C 228.691406 126.476562 226.121094 134.058594 224.96875 140.253906 C 224.699219 141.40625 224.53125 142.589844 224.464844 143.945312 C 224.394531 144.585938 224.363281 145.195312 224.363281 145.703125 C 224.363281 148.582031 224.867188 151.324219 225.75 153.863281 C 225.917969 154.40625 226.121094 154.945312 226.324219 155.453125 C 230.144531 164.457031 239.042969 170.789062 249.429688 170.789062 C 259.8125 170.789062 268.710938 164.457031 272.53125 155.453125 C 272.023438 155.25 271.519531 154.980469 271.011719 154.742188 C 267.457031 163.171875 259.136719 169.097656 249.429688 169.097656 Z M 249.429688 169.097656 " fill-opacity="1" fill-rule="nonzero"/><path fill="#ffd19f" d="M 253.082031 125.054688 C 255.414062 132.910156 258.796875 139.746094 262.25 144.722656 C 262.859375 145.671875 263.535156 146.585938 264.347656 147.53125 C 264.753906 148.007812 265.089844 148.414062 265.429688 148.75 C 274.5625 157.890625 289.378906 157.890625 298.511719 148.75 C 305.378906 141.878906 307.070312 131.792969 303.621094 123.328125 C 301.050781 124.207031 298.308594 124.714844 295.46875 124.714844 C 294.960938 124.714844 294.386719 124.714844 293.710938 124.613281 C 292.421875 124.511719 291.207031 124.34375 290.023438 124.105469 C 283.898438 122.988281 276.457031 120.484375 269.046875 116.421875 C 268.640625 116.898438 268.269531 117.335938 267.832031 117.777344 C 263.703125 121.90625 258.492188 124.308594 253.117188 125.019531 Z M 253.082031 125.054688 " fill-opacity="1" fill-rule="nonzero"/><path fill="#1d1d1b" d="M 303.621094 123.328125 C 307.070312 131.792969 305.378906 141.878906 298.511719 148.75 C 289.378906 157.890625 274.5625 157.890625 265.429688 148.75 C 265.089844 148.414062 264.753906 148.007812 264.347656 147.566406 C 263.535156 146.617188 262.824219 145.703125 262.25 144.757812 C 258.832031 139.78125 255.414062 132.941406 253.082031 125.089844 C 252.507812 125.15625 251.929688 125.222656 251.355469 125.257812 C 253.757812 133.449219 257.277344 140.523438 260.828125 145.703125 C 261.4375 146.6875 262.214844 147.667969 263.0625 148.683594 C 263.5 149.191406 263.871094 149.632812 264.246094 150.003906 C 266.273438 152.035156 268.539062 153.59375 270.976562 154.777344 C 271.484375 155.015625 271.992188 155.285156 272.5 155.488281 C 273.613281 155.960938 274.800781 156.300781 275.984375 156.570312 C 276.558594 156.707031 277.132812 156.84375 277.707031 156.945312 C 279.128906 157.179688 280.550781 157.316406 281.96875 157.316406 C 288.398438 157.316406 294.824219 154.878906 299.695312 149.96875 C 307.039062 142.625 308.863281 131.824219 305.175781 122.753906 C 304.667969 122.957031 304.128906 123.160156 303.585938 123.328125 Z M 303.621094 123.328125 " fill-opacity="1" fill-rule="nonzero"/><path fill="#ffd19f" d="M 270.128906 115.101562 C 277.300781 118.960938 284.472656 121.367188 290.359375 122.449219 C 291.476562 122.683594 292.625 122.855469 293.808594 122.921875 C 294.417969 122.988281 294.960938 122.988281 295.433594 122.988281 C 308.324219 122.988281 318.808594 112.496094 318.808594 99.597656 C 318.808594 89.882812 312.890625 81.554688 304.464844 78 C 303.25 80.472656 301.660156 82.742188 299.664062 84.738281 C 299.324219 85.078125 298.851562 85.484375 298.378906 85.921875 C 297.394531 86.769531 296.414062 87.511719 295.402344 88.15625 C 290.292969 91.675781 283.257812 95.128906 275.171875 97.535156 C 275.644531 103.660156 273.953125 109.921875 270.0625 115.070312 Z M 270.128906 115.101562 " fill-opacity="1" fill-rule="nonzero"/><path fill="#1d1d1b" d="M 304.5 78.035156 C 312.921875 81.589844 318.84375 89.917969 318.84375 99.632812 C 318.84375 112.53125 308.355469 123.023438 295.46875 123.023438 C 294.996094 123.023438 294.453125 123.023438 293.84375 122.957031 C 292.660156 122.886719 291.476562 122.71875 290.394531 122.480469 C 284.472656 121.398438 277.300781 118.996094 270.164062 115.136719 C 269.828125 115.578125 269.453125 116.050781 269.082031 116.457031 C 276.523438 120.519531 283.964844 122.988281 290.054688 124.140625 C 291.207031 124.410156 292.457031 124.582031 293.742188 124.648438 C 294.417969 124.714844 294.996094 124.75 295.5 124.75 C 298.34375 124.75 301.082031 124.242188 303.65625 123.363281 C 304.195312 123.191406 304.738281 122.988281 305.246094 122.785156 C 314.242188 118.960938 320.570312 110.058594 320.570312 99.667969 C 320.570312 89.273438 314.242188 80.371094 305.246094 76.546875 C 305.042969 77.054688 304.769531 77.5625 304.535156 78.070312 Z M 304.5 78.035156 " fill-opacity="1" fill-rule="nonzero"/><path fill="#ffd19f" d="M 275.035156 95.910156 C 282.816406 93.574219 289.582031 90.1875 294.519531 86.800781 C 295.46875 86.191406 296.414062 85.484375 297.328125 84.703125 C 297.800781 84.296875 298.207031 83.925781 298.546875 83.621094 C 302.976562 79.1875 305.414062 73.328125 305.414062 67.066406 C 305.414062 60.804688 302.976562 54.949219 298.546875 50.511719 C 291.679688 43.640625 281.597656 41.949219 273.140625 45.402344 C 274.019531 47.976562 274.527344 50.714844 274.527344 53.558594 C 274.527344 54.066406 274.527344 54.644531 274.425781 55.320312 C 274.324219 56.605469 274.15625 57.859375 273.917969 59.011719 C 272.804688 65.136719 270.300781 72.585938 266.242188 80.03125 C 266.78125 80.507812 267.324219 80.980469 267.832031 81.488281 C 271.890625 85.550781 274.292969 90.660156 275.035156 95.941406 Z M 275.035156 95.910156 " fill-opacity="1" fill-rule="nonzero"/><path fill="#1d1d1b" d="M 273.109375 45.402344 C 281.566406 41.949219 291.644531 43.640625 298.511719 50.511719 C 302.945312 54.949219 305.378906 60.804688 305.378906 67.066406 C 305.378906 73.328125 302.945312 79.1875 298.511719 83.621094 C 298.175781 83.960938 297.769531 84.296875 297.292969 84.703125 C 296.382812 85.515625 295.46875 86.191406 294.488281 86.800781 C 289.546875 90.222656 282.78125 93.574219 275.003906 95.910156 C 275.070312 96.449219 275.171875 97.027344 275.203125 97.566406 C 283.289062 95.164062 290.328125 91.710938 295.433594 88.191406 C 296.414062 87.546875 297.429688 86.800781 298.410156 85.957031 C 298.917969 85.515625 299.359375 85.144531 299.695312 84.773438 C 301.691406 82.773438 303.28125 80.472656 304.5 78.035156 C 304.738281 77.527344 305.007812 77.019531 305.210938 76.511719 C 306.429688 73.53125 307.039062 70.351562 307.039062 67.066406 C 307.039062 60.363281 304.433594 54.066406 299.695312 49.328125 C 292.355469 41.984375 281.566406 40.15625 272.5 43.84375 C 272.703125 44.351562 272.90625 44.894531 273.074219 45.4375 Z M 273.109375 45.402344 " fill-opacity="1" fill-rule="nonzero"/><path fill="#ffd19f" d="M 264.886719 78.949219 C 268.777344 71.773438 271.179688 64.5625 272.261719 58.636719 C 272.5 57.519531 272.667969 56.371094 272.769531 55.183594 C 272.804688 54.574219 272.835938 54.035156 272.835938 53.558594 C 272.835938 40.664062 262.351562 30.167969 249.460938 30.167969 C 239.753906 30.167969 231.429688 36.09375 227.878906 44.523438 C 230.347656 45.742188 232.617188 47.332031 234.609375 49.328125 C 234.949219 49.667969 235.355469 50.109375 235.796875 50.613281 C 236.675781 51.628906 237.386719 52.578125 238.027344 53.59375 C 241.578125 58.738281 245.097656 65.847656 247.5 74.039062 C 248.210938 73.972656 248.921875 73.9375 249.664062 73.9375 C 255.210938 73.9375 260.488281 75.734375 264.886719 78.984375 Z M 264.886719 78.949219 " fill-opacity="1" fill-rule="nonzero"/><path fill="#1d1d1b" d="M 227.84375 44.523438 C 231.398438 36.09375 239.71875 30.167969 249.429688 30.167969 C 262.316406 30.167969 272.804688 40.664062 272.804688 53.558594 C 272.804688 54.035156 272.804688 54.574219 272.734375 55.183594 C 272.632812 56.402344 272.5 57.554688 272.226562 58.671875 C 271.144531 64.597656 268.742188 71.773438 264.855469 78.984375 C 265.328125 79.320312 265.765625 79.660156 266.207031 80.03125 C 270.265625 72.585938 272.769531 65.136719 273.886719 59.011719 C 274.15625 57.859375 274.324219 56.605469 274.394531 55.320312 C 274.460938 54.644531 274.496094 54.066406 274.496094 53.558594 C 274.496094 50.714844 273.988281 47.976562 273.109375 45.402344 C 272.9375 44.859375 272.734375 44.320312 272.53125 43.8125 C 268.710938 34.804688 259.8125 28.476562 249.429688 28.476562 C 239.042969 28.476562 230.144531 34.804688 226.324219 43.8125 C 226.832031 44.015625 227.339844 44.285156 227.84375 44.523438 Z M 227.84375 44.523438 " fill-opacity="1" fill-rule="nonzero"/><path fill="#ffd19f" d="M 245.773438 74.242188 C 243.441406 66.355469 240.023438 59.519531 236.605469 54.507812 C 236 53.558594 235.320312 52.644531 234.511719 51.699219 C 234.105469 51.222656 233.765625 50.816406 233.425781 50.480469 C 228.996094 46.046875 223.144531 43.609375 216.886719 43.609375 C 210.628906 43.609375 204.773438 46.046875 200.34375 50.480469 C 195.910156 54.914062 193.476562 60.769531 193.476562 67.035156 C 193.476562 70.113281 194.085938 73.125 195.203125 75.902344 C 197.773438 75.023438 200.511719 74.515625 203.355469 74.515625 C 203.863281 74.515625 204.4375 74.515625 205.113281 74.617188 C 206.398438 74.71875 207.617188 74.886719 208.800781 75.125 C 214.992188 76.273438 222.570312 78.847656 230.078125 82.976562 C 230.519531 82.46875 230.992188 81.929688 231.464844 81.453125 C 235.390625 77.527344 240.363281 75.054688 245.742188 74.242188 Z M 245.773438 74.242188 " fill-opacity="1" fill-rule="nonzero"/><path fill="#1d1d1b" d="M 195.234375 75.9375 C 194.085938 73.160156 193.511719 70.148438 193.511719 67.066406 C 193.511719 60.804688 195.945312 54.949219 200.378906 50.511719 C 204.808594 46.078125 210.660156 43.640625 216.917969 43.640625 C 223.175781 43.640625 229.03125 46.078125 233.460938 50.511719 C 233.800781 50.851562 234.136719 51.257812 234.542969 51.699219 C 235.355469 52.644531 236.03125 53.558594 236.640625 54.507812 C 240.089844 59.519531 243.472656 66.355469 245.808594 74.242188 C 246.382812 74.140625 246.957031 74.074219 247.535156 74.039062 C 245.132812 65.847656 241.613281 58.738281 238.0625 53.59375 C 237.417969 52.613281 236.707031 51.628906 235.828125 50.613281 C 235.390625 50.109375 235.015625 49.667969 234.644531 49.328125 C 232.648438 47.332031 230.347656 45.742188 227.914062 44.523438 C 227.40625 44.285156 226.898438 44.015625 226.390625 43.8125 C 223.414062 42.59375 220.234375 41.984375 216.953125 41.984375 C 210.253906 41.984375 203.964844 44.589844 199.226562 49.328125 C 194.492188 54.066406 191.886719 60.363281 191.886719 67.066406 C 191.886719 70.351562 192.527344 73.566406 193.714844 76.511719 C 194.21875 76.308594 194.761719 76.105469 195.304688 75.9375 Z M 195.234375 75.9375 " fill-opacity="1" fill-rule="nonzero"/><path fill="#ffd19f" d="M 223.957031 99.632812 C 223.957031 94.046875 225.75 88.730469 229.03125 84.332031 C 221.757812 80.371094 214.484375 77.898438 208.460938 76.78125 C 207.347656 76.546875 206.195312 76.375 205.011719 76.308594 C 204.402344 76.242188 203.863281 76.242188 203.386719 76.242188 C 190.5 76.242188 180.011719 86.734375 180.011719 99.632812 C 180.011719 112.53125 190.5 123.023438 203.386719 123.023438 C 203.863281 123.023438 204.402344 123.023438 205.011719 122.957031 C 206.230469 122.886719 207.378906 122.71875 208.460938 122.480469 C 214.484375 121.367188 221.757812 118.894531 229.03125 114.933594 C 225.75 110.53125 223.957031 105.21875 223.957031 99.632812 Z M 223.957031 99.632812 " fill-opacity="1" fill-rule="nonzero"/><path fill="#1d1d1b" d="M 186.746094 80.914062 C 181.570312 85.515625 178.289062 92.183594 178.289062 99.632812 C 178.289062 110.023438 184.613281 118.929688 193.613281 122.753906 C 194.117188 122.957031 194.660156 123.160156 195.203125 123.328125 C 197.773438 124.207031 200.511719 124.714844 203.355469 124.714844 C 203.863281 124.714844 204.46875 124.714844 205.113281 124.613281 C 206.398438 124.511719 207.648438 124.34375 208.765625 124.105469 C 214.992188 122.957031 222.535156 120.382812 230.078125 116.253906 C 229.707031 115.8125 229.367188 115.375 229.03125 114.898438 C 221.757812 118.859375 214.449219 121.332031 208.460938 122.449219 C 207.378906 122.683594 206.230469 122.855469 205.011719 122.921875 C 204.402344 122.988281 203.863281 122.988281 203.386719 122.988281 C 190.5 122.988281 180.011719 112.496094 180.011719 99.597656 C 180.011719 86.699219 190.5 76.207031 203.386719 76.207031 C 203.863281 76.207031 204.402344 76.207031 205.011719 76.273438 C 206.195312 76.34375 207.378906 76.511719 208.460938 76.75 C 214.449219 77.867188 221.757812 80.335938 229.03125 84.296875 C 229.367188 83.824219 229.707031 83.382812 230.078125 82.945312 C 222.570312 78.8125 214.992188 76.242188 208.800781 75.089844 C 207.648438 74.820312 206.398438 74.648438 205.113281 74.582031 C 204.4375 74.515625 203.863281 74.480469 203.355469 74.480469 C 200.480469 74.480469 197.738281 74.988281 195.203125 75.867188 C 194.660156 76.039062 194.117188 76.242188 193.613281 76.445312 C 191.582031 77.289062 189.722656 78.441406 187.996094 79.761719 C 187.554688 80.101562 187.152344 80.472656 186.710938 80.8125 Z M 186.746094 80.914062 " fill-opacity="1" fill-rule="nonzero"/><path fill="#e3d4d1" d="M 232.683594 116.625 C 237.214844 121.164062 243.238281 123.667969 249.664062 123.667969 C 256.09375 123.667969 262.113281 121.164062 266.648438 116.625 C 271.179688 112.089844 273.683594 106.0625 273.683594 99.632812 C 273.683594 93.199219 271.179688 87.175781 266.648438 82.640625 C 262.113281 78.101562 256.09375 75.597656 249.664062 75.597656 C 243.238281 75.597656 237.214844 78.101562 232.683594 82.640625 C 228.148438 87.175781 225.648438 93.199219 225.648438 99.632812 C 225.648438 106.0625 228.148438 112.089844 232.683594 116.625 Z M 232.683594 116.625 " fill-opacity="1" fill-rule="nonzero"/><path fill="#1d1d1b" d="M 232.785156 118.996094 C 233.222656 119.367188 233.664062 119.742188 234.105469 120.078125 C 238.671875 123.566406 244.152344 125.324219 249.632812 125.324219 C 250.207031 125.324219 250.78125 125.292969 251.355469 125.257812 C 251.929688 125.222656 252.507812 125.15625 253.082031 125.089844 C 258.460938 124.378906 263.667969 121.972656 267.796875 117.84375 C 268.238281 117.40625 268.640625 116.929688 269.015625 116.492188 C 269.386719 116.050781 269.757812 115.609375 270.097656 115.171875 C 273.988281 110.023438 275.679688 103.761719 275.207031 97.636719 C 275.171875 97.058594 275.070312 96.519531 275.003906 95.976562 C 274.222656 90.695312 271.855469 85.585938 267.796875 81.523438 C 267.289062 81.015625 266.75 80.539062 266.207031 80.066406 C 265.765625 79.695312 265.328125 79.355469 264.855469 79.015625 C 260.457031 75.765625 255.179688 73.972656 249.632812 73.972656 C 248.921875 73.972656 248.175781 74.007812 247.464844 74.074219 C 246.890625 74.109375 246.316406 74.210938 245.742188 74.277344 C 240.363281 75.089844 235.390625 77.5625 231.464844 81.488281 C 230.957031 81.996094 230.519531 82.503906 230.078125 83.011719 C 229.707031 83.453125 229.367188 83.890625 229.03125 84.367188 C 225.75 88.765625 223.957031 94.082031 223.957031 99.667969 C 223.957031 105.25 225.75 110.566406 229.03125 114.96875 C 229.367188 115.441406 229.707031 115.882812 230.078125 116.320312 C 230.519531 116.828125 230.992188 117.371094 231.464844 117.84375 C 231.871094 118.25 232.34375 118.625 232.785156 119.03125 Z M 225.648438 99.632812 C 225.648438 93.199219 228.148438 87.175781 232.683594 82.640625 C 237.214844 78.101562 243.238281 75.597656 249.664062 75.597656 C 256.09375 75.597656 262.113281 78.101562 266.648438 82.640625 C 271.179688 87.175781 273.683594 93.199219 273.683594 99.632812 C 273.683594 106.0625 271.179688 112.089844 266.648438 116.625 C 262.113281 121.164062 256.09375 123.667969 249.664062 123.667969 C 243.238281 123.667969 237.214844 121.164062 232.683594 116.625 C 228.148438 112.089844 225.648438 106.0625 225.648438 99.632812 Z M 225.648438 99.632812 " fill-opacity="1" fill-rule="nonzero"/></svg>