<svg xmlns="http://www.w3.org/2000/svg" xmlns:xlink="http://www.w3.org/1999/xlink" width="500" zoomAndPan="magnify" viewBox="0 0 375 374.999991" height="500" preserveAspectRatio="xMidYMid meet" version="1.0"><defs><clipPath id="5f619bdd15"><path d="M 5.164062 6 L 369.664062 6 L 369.664062 369 L 5.164062 369 Z M 5.164062 6 " clip-rule="nonzero"/></clipPath></defs><path fill="#ffffff" d="M 368.75 122.152344 C 367.1875 58.582031 314.175781 6.863281 250.609375 6.863281 C 228.277344 6.863281 206.523438 13.175781 187.652344 25.15625 L 187.414062 25.289062 L 187.175781 25.15625 C 168.308594 13.175781 146.550781 6.863281 124.222656 6.863281 C 60.621094 6.863281 7.609375 58.480469 6.082031 121.945312 C 6.046875 122.828125 6.011719 123.710938 6.011719 124.628906 L 6.011719 125.070312 C 6.011719 126.054688 6.011719 126.96875 6.082031 127.683594 C 6.148438 129.855469 6.25 131.890625 6.351562 132.941406 C 7.234375 146.246094 10.222656 158.972656 15.277344 170.851562 C 31.5 212.222656 66.390625 248.777344 97.207031 281.015625 C 100.601562 284.546875 103.925781 287.90625 107.929688 291.910156 C 115.703125 299.683594 123.066406 307.015625 128.363281 314.378906 C 131.417969 318.621094 133.417969 322.457031 134.503906 326.085938 C 142.414062 352.355469 162.199219 368.035156 187.449219 368.035156 C 212.699219 368.035156 229.871094 354.054688 241.273438 326.460938 C 243.445312 321.199219 248.671875 314.210938 253.765625 307.421875 L 254.441406 306.503906 C 264.558594 292.996094 276.910156 280.238281 290.042969 266.730469 C 316.484375 239.476562 343.804688 211.308594 359.550781 171.054688 C 364.640625 159.007812 367.664062 146.449219 368.476562 133.757812 C 368.648438 131.722656 368.75 129.652344 368.816406 127.820312 C 368.851562 126.902344 368.882812 125.984375 368.882812 125.035156 L 368.882812 124.59375 C 368.882812 123.78125 368.882812 122.929688 368.816406 122.117188 Z M 360.839844 125.070312 C 360.839844 125.882812 360.839844 126.664062 360.773438 127.480469 C 360.738281 129.3125 360.601562 131.210938 360.46875 133.148438 C 359.6875 145.058594 356.871094 156.769531 352.152344 168 C 336.914062 206.964844 310.136719 234.554688 284.273438 261.230469 C 270.972656 274.941406 258.414062 287.871094 248.027344 301.789062 L 247.351562 302.703125 C 241.988281 309.863281 236.457031 317.261719 233.910156 323.441406 C 230.175781 332.5 218.773438 360.09375 187.449219 360.09375 C 165.59375 360.09375 149.097656 346.859375 142.140625 323.8125 C 140.78125 319.332031 138.40625 314.753906 134.84375 309.761719 C 129.175781 301.855469 121.574219 294.289062 113.5625 286.277344 C 109.761719 282.476562 106.335938 279.082031 103.007812 275.585938 C 72.703125 243.855469 38.355469 207.878906 22.710938 167.96875 C 17.960938 156.800781 15.144531 144.820312 14.328125 132.433594 C 14.261719 131.449219 14.125 129.617188 14.089844 127.480469 C 14.054688 126.699219 14.023438 125.882812 14.023438 125.070312 L 14.023438 124.628906 C 14.023438 123.882812 14.023438 123.101562 14.089844 122.355469 C 15.480469 63.0625 64.898438 14.835938 124.222656 14.835938 C 146.925781 14.835938 168.75 21.761719 187.414062 34.894531 C 206.082031 21.761719 227.902344 14.835938 250.609375 14.835938 C 309.933594 14.835938 359.382812 63.097656 360.808594 122.421875 C 360.808594 123.136719 360.875 123.882812 360.875 124.628906 L 360.875 125.070312 Z M 360.839844 125.070312 " fill-opacity="1" fill-rule="nonzero"/><g clip-path="url(#5f619bdd15)"><path fill="#1d1d1b" d="M 369.597656 122.117188 C 368 58.109375 314.648438 6.011719 250.609375 6.011719 C 228.207031 6.011719 206.386719 12.324219 187.414062 24.304688 C 168.441406 12.324219 146.621094 6.011719 124.222656 6.011719 C 60.144531 6.011719 6.792969 58.007812 5.234375 121.914062 C 5.164062 122.828125 5.164062 123.710938 5.164062 124.628906 L 5.164062 125.070312 C 5.164062 126.054688 5.164062 127.003906 5.234375 127.714844 C 5.300781 129.890625 5.402344 131.960938 5.503906 133.011719 C 6.386719 146.382812 9.40625 159.246094 14.464844 171.191406 C 30.71875 212.699219 65.710938 249.320312 96.59375 281.660156 C 99.953125 285.191406 103.28125 288.519531 107.320312 292.523438 C 115.089844 300.261719 122.421875 307.558594 127.648438 314.886719 C 130.636719 319.0625 132.605469 322.796875 133.65625 326.324219 C 141.664062 352.96875 161.757812 368.882812 187.414062 368.882812 C 213.070312 368.882812 230.484375 354.730469 242.023438 326.765625 C 244.160156 321.609375 249.351562 314.648438 254.410156 307.929688 L 255.089844 307.015625 C 265.167969 293.574219 277.523438 280.8125 290.621094 267.304688 C 317.09375 239.984375 344.480469 211.75 360.296875 171.363281 C 365.421875 159.210938 368.441406 146.585938 369.292969 133.792969 C 369.460938 131.722656 369.5625 129.683594 369.628906 127.851562 C 369.664062 126.9375 369.699219 125.984375 369.699219 125.035156 L 369.699219 124.59375 C 369.699219 123.746094 369.699219 122.929688 369.628906 122.082031 Z M 368.816406 125.070312 C 368.816406 126.019531 368.816406 126.9375 368.75 127.851562 C 368.714844 129.683594 368.578125 131.722656 368.410156 133.792969 C 367.558594 146.484375 364.574219 159.042969 359.484375 171.089844 C 343.734375 211.339844 316.414062 239.511719 289.976562 266.761719 C 276.875 280.269531 264.488281 293.03125 254.375 306.539062 L 253.695312 307.457031 C 248.640625 314.210938 243.414062 321.199219 241.207031 326.496094 C 229.804688 354.085938 211.714844 368.070312 187.378906 368.070312 C 163.046875 368.070312 142.378906 352.390625 134.4375 326.121094 C 133.351562 322.488281 131.3125 318.65625 128.292969 314.414062 C 123 307.046875 115.632812 299.71875 107.863281 291.945312 C 103.859375 287.941406 100.53125 284.613281 97.136719 281.050781 C 66.390625 248.777344 31.46875 212.191406 15.246094 170.851562 C 10.222656 158.972656 7.199219 146.214844 6.320312 132.941406 C 6.214844 131.890625 6.113281 129.855469 6.046875 127.683594 C 6.011719 126.96875 5.980469 126.054688 5.980469 125.070312 L 5.980469 124.628906 C 5.980469 123.746094 5.980469 122.863281 6.046875 121.945312 C 7.609375 58.480469 60.621094 6.863281 124.222656 6.863281 C 146.550781 6.863281 168.308594 13.175781 187.210938 25.15625 L 187.449219 25.289062 L 187.6875 25.15625 C 206.523438 13.175781 228.277344 6.863281 250.609375 6.863281 C 314.175781 6.863281 367.1875 58.582031 368.75 122.152344 C 368.78125 122.964844 368.816406 123.8125 368.816406 124.628906 Z M 368.816406 125.070312 " fill-opacity="1" fill-rule="nonzero"/></g><path fill="#ec7964" d="M 359.109375 122.457031 C 357.71875 64.046875 309.050781 16.5 250.609375 16.5 C 228.074219 16.5 206.386719 23.457031 187.890625 36.589844 L 187.378906 36.929688 L 186.871094 36.589844 C 168.410156 23.457031 146.722656 16.5 124.152344 16.5 C 65.8125 16.535156 17.144531 64.015625 15.71875 122.421875 C 15.6875 123.167969 15.652344 123.882812 15.652344 124.628906 L 15.652344 125.070312 C 15.652344 125.851562 15.652344 126.628906 15.71875 127.410156 C 15.753906 129.140625 15.855469 131.042969 15.957031 132.296875 C 16.773438 144.515625 19.554688 156.292969 24.238281 167.324219 C 39.75 206.929688 73.992188 242.769531 104.199219 274.398438 C 107.523438 277.894531 110.917969 281.289062 114.71875 285.089844 C 122.796875 293.132812 130.433594 300.734375 136.167969 308.777344 C 139.832031 313.902344 142.308594 318.65625 143.703125 323.304688 C 150.421875 345.601562 166.339844 358.398438 187.378906 358.398438 C 217.550781 358.398438 228.648438 331.585938 232.28125 322.796875 C 234.929688 316.414062 240.527344 308.914062 245.925781 301.6875 L 246.601562 300.769531 C 257.089844 286.785156 269.683594 273.789062 283.019531 260.042969 C 308.777344 233.46875 335.421875 206.011719 350.558594 167.355469 C 355.242188 156.292969 357.988281 144.71875 358.769531 133.011719 C 358.941406 131.109375 359.042969 129.242188 359.074219 127.410156 C 359.109375 126.628906 359.144531 125.851562 359.144531 125.070312 L 359.144531 124.628906 C 359.144531 123.914062 359.144531 123.203125 359.109375 122.492188 Z M 345.464844 125.035156 C 345.464844 125.648438 345.464844 126.257812 345.433594 126.867188 C 345.398438 128.496094 345.296875 130.160156 345.160156 131.855469 C 344.480469 142.277344 342.039062 152.457031 337.898438 162.164062 C 323.8125 198.308594 298.089844 224.816406 273.246094 250.472656 C 259.601562 264.558594 246.707031 277.828125 235.710938 292.523438 L 235.03125 293.4375 C 229.125 301.347656 222.980469 309.527344 219.691406 317.5 C 216.332031 325.613281 208.492188 344.652344 187.449219 344.652344 C 176.996094 344.652344 163.183594 340.273438 156.902344 319.300781 C 155.070312 313.15625 151.949219 307.117188 147.367188 300.734375 C 140.953125 291.777344 132.941406 283.800781 124.425781 275.316406 C 121.03125 271.957031 117.535156 268.460938 114.140625 264.894531 C 84.75 234.113281 51.457031 199.257812 36.964844 162.097656 C 32.859375 152.425781 30.414062 142.074219 29.703125 131.347656 C 29.601562 130.160156 29.5 128.496094 29.464844 126.800781 C 29.464844 126.222656 29.429688 125.613281 29.429688 125 L 29.429688 124.558594 C 29.429688 123.984375 29.429688 123.441406 29.464844 122.863281 C 30.585938 71.753906 73.109375 30.175781 124.253906 30.175781 C 147.535156 30.175781 169.9375 38.796875 187.449219 54.476562 C 204.960938 38.796875 227.359375 30.175781 250.640625 30.175781 C 301.789062 30.175781 344.3125 71.785156 345.433594 122.898438 C 345.433594 123.441406 345.464844 124.015625 345.464844 124.558594 Z M 345.464844 125.035156 " fill-opacity="1" fill-rule="nonzero"/><path fill="#1d1d1b" d="M 250.609375 14.835938 C 227.902344 14.835938 206.082031 21.761719 187.414062 34.894531 C 168.75 21.761719 146.925781 14.835938 124.222656 14.835938 C 64.898438 14.835938 15.480469 63.0625 14.023438 122.355469 C 13.988281 123.101562 13.953125 123.882812 13.953125 124.628906 L 13.953125 125.070312 C 13.953125 125.882812 13.953125 126.699219 14.023438 127.480469 C 14.089844 129.582031 14.191406 131.417969 14.261719 132.433594 C 15.074219 144.820312 17.925781 156.800781 22.644531 167.96875 C 38.289062 207.878906 72.632812 243.820312 102.941406 275.585938 C 106.269531 279.082031 109.695312 282.511719 113.496094 286.277344 C 121.507812 294.289062 129.109375 301.820312 134.777344 309.761719 C 138.339844 314.71875 140.714844 319.332031 142.074219 323.8125 C 149.03125 346.890625 165.523438 360.09375 187.378906 360.09375 C 218.707031 360.09375 230.109375 332.503906 233.84375 323.441406 C 236.386719 317.230469 241.953125 309.863281 247.28125 302.703125 L 247.960938 301.789062 C 258.378906 287.871094 270.9375 274.941406 284.207031 261.230469 C 310.070312 234.554688 336.847656 206.964844 352.085938 168 C 356.835938 156.769531 359.617188 145.058594 360.398438 133.148438 C 360.570312 131.246094 360.671875 129.347656 360.703125 127.480469 C 360.738281 126.699219 360.773438 125.882812 360.773438 125.070312 L 360.773438 124.628906 C 360.773438 123.882812 360.773438 123.167969 360.703125 122.421875 C 359.28125 63.097656 309.863281 14.835938 250.507812 14.835938 Z M 359.144531 125.070312 C 359.144531 125.851562 359.144531 126.628906 359.074219 127.410156 C 359.042969 129.242188 358.941406 131.109375 358.769531 133.011719 C 357.988281 144.71875 355.242188 156.292969 350.558594 167.355469 C 335.421875 206.011719 308.777344 233.46875 283.019531 260.042969 C 269.683594 273.789062 257.089844 286.785156 246.605469 300.769531 L 245.925781 301.6875 C 240.496094 308.914062 234.894531 316.382812 232.28125 322.796875 C 228.648438 331.621094 217.585938 358.398438 187.378906 358.398438 C 166.339844 358.398438 150.421875 345.601562 143.703125 323.304688 C 142.308594 318.65625 139.832031 313.902344 136.167969 308.777344 C 130.398438 300.734375 122.796875 293.132812 114.71875 285.089844 C 110.917969 281.324219 107.523438 277.894531 104.199219 274.398438 C 73.992188 242.769531 39.78125 206.929688 24.238281 167.324219 C 19.554688 156.292969 16.773438 144.515625 15.957031 132.296875 C 15.855469 131.042969 15.753906 129.140625 15.71875 127.410156 C 15.6875 126.628906 15.652344 125.851562 15.652344 125.070312 L 15.652344 124.628906 C 15.652344 123.882812 15.652344 123.167969 15.71875 122.421875 C 17.144531 64.015625 65.8125 16.535156 124.222656 16.535156 C 146.757812 16.535156 168.441406 23.492188 186.941406 36.625 L 187.449219 36.964844 L 187.957031 36.625 C 206.421875 23.492188 228.105469 16.535156 250.675781 16.535156 C 309.117188 16.535156 357.785156 64.046875 359.175781 122.492188 C 359.175781 123.203125 359.210938 123.914062 359.210938 124.628906 L 359.210938 125.070312 Z M 359.144531 125.070312 " fill-opacity="1" fill-rule="nonzero"/><path fill="#9ab5a3" d="M 343.703125 123 C 342.582031 72.769531 300.835938 31.910156 250.609375 31.910156 C 227.496094 31.910156 205.265625 40.5625 187.992188 56.277344 L 187.414062 56.785156 L 186.835938 56.277344 C 169.5625 40.5625 147.300781 31.910156 124.222656 31.910156 C 73.992188 31.910156 32.246094 72.769531 31.128906 122.964844 C 31.128906 123.507812 31.09375 124.050781 31.09375 124.59375 L 31.09375 125.035156 C 31.09375 125.613281 31.09375 126.191406 31.128906 126.765625 C 31.160156 128.429688 31.261719 130.058594 31.367188 131.246094 C 32.078125 141.800781 34.488281 151.984375 38.527344 161.484375 C 52.917969 198.34375 86.074219 233.097656 115.363281 263.742188 C 118.757812 267.273438 122.253906 270.769531 125.613281 274.128906 C 134.164062 282.644531 142.242188 290.691406 148.726562 299.75 C 153.410156 306.265625 156.597656 312.511719 158.5 318.824219 C 164.507812 338.78125 177.539062 342.953125 187.449219 342.953125 C 207.335938 342.953125 214.871094 324.664062 218.128906 316.855469 C 221.523438 308.644531 227.699219 300.394531 233.671875 292.421875 L 234.351562 291.503906 C 245.414062 276.707031 258.347656 263.371094 272.023438 249.285156 C 296.765625 223.761719 322.355469 197.394531 336.335938 161.519531 C 340.410156 151.984375 342.785156 141.972656 343.464844 131.722656 C 343.601562 130.058594 343.703125 128.429688 343.734375 126.800781 C 343.734375 126.222656 343.769531 125.648438 343.769531 125.035156 L 343.769531 124.59375 C 343.769531 124.050781 343.769531 123.542969 343.734375 123 Z M 330.058594 125.035156 C 330.058594 125.441406 330.058594 125.851562 330.023438 126.257812 C 330.023438 127.683594 329.921875 129.140625 329.785156 130.601562 C 329.210938 139.527344 327.140625 148.183594 323.609375 156.328125 C 310.679688 189.6875 286.007812 215.140625 262.148438 239.714844 C 248.777344 253.492188 234.929688 267.78125 223.355469 283.257812 L 222.675781 284.171875 C 216.195312 292.863281 209.476562 301.820312 205.402344 311.597656 C 202.515625 318.621094 198.105469 329.210938 187.378906 329.210938 C 177.265625 329.210938 173.703125 321.945312 171.566406 314.820312 C 169.222656 307.046875 165.386719 299.480469 159.824219 291.707031 C 152.660156 281.730469 143.804688 272.90625 135.25 264.351562 C 131.925781 261.0625 128.53125 257.632812 125.238281 254.207031 C 96.765625 224.40625 64.523438 190.605469 51.183594 156.226562 C 47.691406 148.078125 45.621094 139.359375 45.007812 130.261719 C 44.90625 129.039062 44.839844 127.582031 44.804688 126.121094 C 44.804688 125.75 44.769531 125.375 44.769531 124.96875 L 44.769531 124.664062 C 44.769531 124.152344 44.769531 123.78125 44.804688 123.40625 C 45.621094 80.472656 81.222656 45.519531 124.222656 45.519531 C 148.859375 45.519531 172.414062 57.261719 187.414062 77.011719 C 202.449219 57.261719 225.96875 45.519531 250.609375 45.519531 C 293.574219 45.519531 329.210938 80.472656 330.023438 123.441406 C 330.023438 123.78125 330.023438 124.121094 330.023438 124.492188 L 330.023438 124.933594 Z M 330.058594 125.035156 " fill-opacity="1" fill-rule="nonzero"/><path fill="#1d1d1b" d="M 250.609375 30.210938 C 227.328125 30.210938 204.925781 38.832031 187.414062 54.511719 C 169.902344 38.832031 147.46875 30.210938 124.222656 30.210938 C 73.074219 30.210938 30.550781 71.820312 29.429688 122.898438 C 29.429688 123.472656 29.398438 124.015625 29.398438 124.59375 L 29.398438 125.035156 C 29.398438 125.648438 29.398438 126.257812 29.429688 126.835938 C 29.464844 128.53125 29.566406 130.195312 29.667969 131.382812 C 30.382812 142.105469 32.824219 152.457031 36.929688 162.128906 C 51.421875 199.257812 84.714844 234.148438 114.105469 264.929688 C 117.5 268.492188 120.996094 271.988281 124.390625 275.347656 C 132.875 283.835938 140.917969 291.808594 147.332031 300.769531 C 151.882812 307.148438 155.003906 313.226562 156.871094 319.332031 C 163.183594 340.273438 176.960938 344.6875 187.414062 344.6875 C 208.421875 344.6875 216.296875 325.679688 219.65625 317.535156 C 222.949219 309.527344 229.089844 301.378906 234.996094 293.472656 L 235.675781 292.554688 C 246.671875 277.859375 259.566406 264.558594 273.210938 250.507812 C 298.089844 224.882812 323.78125 198.375 337.863281 162.199219 C 342.003906 152.492188 344.414062 142.308594 345.128906 131.890625 C 345.261719 130.226562 345.363281 128.566406 345.398438 126.902344 C 345.398438 126.292969 345.433594 125.679688 345.433594 125.070312 L 345.433594 124.628906 C 345.433594 124.085938 345.433594 123.507812 345.398438 122.964844 C 344.277344 71.820312 301.753906 30.246094 250.609375 30.246094 Z M 343.769531 125.035156 C 343.769531 125.613281 343.769531 126.191406 343.734375 126.800781 C 343.703125 128.429688 343.601562 130.058594 343.464844 131.722656 C 342.785156 141.9375 340.410156 151.984375 336.335938 161.519531 C 322.355469 197.394531 296.765625 223.761719 272.023438 249.285156 C 258.347656 263.402344 245.414062 276.707031 234.351562 291.503906 L 233.671875 292.421875 C 227.699219 300.394531 221.488281 308.675781 218.128906 316.855469 C 214.90625 324.664062 207.335938 342.953125 187.449219 342.953125 C 177.574219 342.953125 164.507812 338.78125 158.5 318.824219 C 156.597656 312.511719 153.410156 306.265625 148.726562 299.75 C 142.242188 290.691406 134.164062 282.644531 125.613281 274.128906 C 122.253906 270.769531 118.757812 267.273438 115.363281 263.742188 C 86.074219 233.097656 52.917969 198.34375 38.527344 161.484375 C 34.488281 151.984375 32.078125 141.800781 31.367188 131.246094 C 31.261719 130.058594 31.160156 128.429688 31.128906 126.765625 C 31.128906 126.191406 31.09375 125.613281 31.09375 125.035156 L 31.09375 124.59375 C 31.09375 124.050781 31.09375 123.507812 31.128906 122.964844 C 32.246094 72.738281 73.992188 31.910156 124.222656 31.910156 C 147.332031 31.910156 169.5625 40.5625 186.835938 56.277344 L 187.414062 56.785156 L 187.992188 56.277344 C 205.265625 40.5625 227.53125 31.910156 250.609375 31.910156 C 300.835938 31.910156 342.617188 72.769531 343.703125 123 C 343.703125 123.542969 343.734375 124.085938 343.734375 124.59375 L 343.734375 125.035156 Z M 343.769531 125.035156 " fill-opacity="1" fill-rule="nonzero"/><path fill="#ffd19f" d="M 250.609375 47.316406 C 226.136719 47.316406 202.753906 59.160156 188.09375 79.015625 L 187.414062 79.929688 L 186.734375 79.015625 C 172.074219 59.160156 148.691406 47.316406 124.222656 47.316406 C 82.171875 47.316406 47.316406 81.527344 46.5 123.578125 C 46.5 123.949219 46.46875 124.289062 46.46875 124.59375 L 46.46875 125.035156 C 46.46875 125.410156 46.46875 125.75 46.5 126.121094 C 46.5 127.582031 46.605469 128.972656 46.707031 130.195312 C 47.28125 139.085938 49.320312 147.640625 52.746094 155.648438 C 65.984375 189.722656 98.089844 223.390625 126.460938 253.085938 C 129.71875 256.511719 133.148438 259.90625 136.4375 263.199219 C 145.058594 271.785156 153.953125 280.679688 161.214844 290.757812 C 166.882812 298.664062 170.820312 306.402344 173.226562 314.34375 C 175.296875 321.199219 178.421875 327.511719 187.414062 327.511719 C 196.410156 327.511719 200.242188 319.671875 203.839844 310.949219 C 207.980469 300.972656 214.734375 291.910156 221.320312 283.15625 L 222 282.238281 C 233.671875 266.660156 247.519531 252.339844 260.960938 238.527344 C 284.683594 214.054688 309.253906 188.738281 322.082031 155.648438 C 325.511719 147.640625 327.546875 139.152344 328.125 130.433594 C 328.226562 128.972656 328.328125 127.546875 328.363281 126.15625 C 328.363281 125.75 328.394531 125.410156 328.394531 125.035156 L 328.394531 124.59375 C 328.394531 124.253906 328.394531 123.914062 328.394531 123.609375 C 327.613281 81.527344 292.726562 47.28125 250.675781 47.28125 Z M 314.648438 124.867188 C 314.648438 125.171875 314.648438 125.308594 314.648438 125.410156 L 314.648438 125.648438 C 314.648438 126.902344 314.546875 128.125 314.445312 129.378906 C 313.9375 136.8125 312.242188 143.9375 309.355469 150.558594 C 297.207031 182.121094 265.984375 214.835938 238.425781 243.683594 C 211.511719 271.886719 188.230469 296.222656 188.230469 313.054688 C 188.230469 313.53125 187.855469 313.902344 187.378906 313.902344 C 186.90625 313.902344 186.53125 313.53125 186.53125 313.054688 C 186.53125 296.222656 163.285156 271.886719 136.335938 243.683594 C 108.777344 214.835938 77.554688 182.121094 65.40625 150.523438 C 62.554688 143.9375 60.824219 136.8125 60.347656 129.378906 C 60.246094 128.15625 60.179688 126.902344 60.179688 125.679688 L 60.179688 125.441406 C 60.179688 125.441406 60.179688 125.207031 60.179688 125.070312 L 61.027344 124.765625 L 60.179688 124.765625 C 60.179688 124.765625 60.179688 124.628906 60.179688 124.558594 C 60.449219 89.503906 89.164062 61.027344 124.1875 61.027344 C 155.785156 61.027344 182.5625 84.378906 187.378906 115.089844 C 192.199219 84.378906 218.976562 61.027344 250.574219 61.027344 C 285.566406 61.027344 314.242188 89.46875 314.582031 124.425781 C 314.582031 124.492188 314.582031 124.558594 314.582031 124.628906 L 313.734375 124.898438 L 314.582031 124.898438 Z M 314.648438 124.867188 " fill-opacity="1" fill-rule="nonzero"/><path fill="#1d1d1b" d="M 250.609375 45.621094 C 225.96875 45.621094 202.414062 57.363281 187.414062 77.113281 C 172.378906 57.363281 148.859375 45.621094 124.222656 45.621094 C 81.253906 45.621094 45.621094 80.574219 44.804688 123.507812 C 44.804688 123.882812 44.769531 124.253906 44.804688 124.765625 L 44.804688 125.070312 C 44.804688 125.476562 44.804688 125.882812 44.839844 126.222656 C 44.839844 127.683594 44.941406 129.140625 45.042969 130.363281 C 45.652344 139.460938 47.722656 148.183594 51.21875 156.328125 C 64.558594 190.707031 96.796875 224.476562 125.273438 254.308594 C 128.566406 257.734375 131.960938 261.164062 135.285156 264.457031 C 143.835938 273.007812 152.730469 281.832031 159.855469 291.808594 C 165.421875 299.582031 169.257812 307.148438 171.597656 314.921875 C 173.738281 322.050781 177.300781 329.3125 187.414062 329.3125 C 198.140625 329.3125 202.515625 318.722656 205.4375 311.699219 C 209.476562 301.890625 216.195312 292.929688 222.710938 284.273438 L 223.390625 283.359375 C 234.996094 267.847656 248.808594 253.59375 262.179688 239.816406 C 286.039062 215.210938 310.714844 189.789062 323.644531 156.429688 C 327.140625 148.25 329.210938 139.59375 329.820312 130.703125 C 329.957031 129.242188 330.023438 127.785156 330.058594 126.359375 C 330.058594 125.953125 330.09375 125.542969 330.09375 125.136719 L 330.09375 124.695312 C 330.09375 124.324219 330.09375 123.949219 330.09375 123.644531 C 329.277344 80.679688 293.640625 45.722656 250.675781 45.722656 Z M 328.363281 125.070312 C 328.363281 125.441406 328.363281 125.816406 328.328125 126.191406 C 328.328125 127.613281 328.226562 129.039062 328.089844 130.464844 C 327.511719 139.1875 325.476562 147.671875 322.050781 155.683594 C 309.21875 188.773438 284.683594 214.054688 260.925781 238.558594 C 247.519531 252.375 233.640625 266.695312 221.964844 282.273438 L 221.285156 283.1875 C 214.734375 291.945312 207.949219 301.007812 203.808594 310.984375 C 200.210938 319.707031 196.238281 327.546875 187.378906 327.546875 C 178.523438 327.546875 175.265625 321.199219 173.195312 314.378906 C 170.785156 306.4375 166.882812 298.699219 161.179688 290.792969 C 153.953125 280.710938 145.027344 271.820312 136.40625 263.234375 C 133.113281 259.941406 129.683594 256.546875 126.425781 253.121094 C 98.089844 223.421875 65.949219 189.789062 52.710938 155.683594 C 49.285156 147.707031 47.25 139.152344 46.671875 130.226562 C 46.570312 129.007812 46.5 127.582031 46.46875 126.15625 C 46.46875 125.78125 46.433594 125.441406 46.433594 125.070312 L 46.433594 124.628906 C 46.433594 124.289062 46.433594 123.949219 46.46875 123.609375 C 47.25 81.558594 82.136719 47.351562 124.1875 47.351562 C 148.65625 47.351562 172.039062 59.195312 186.703125 79.050781 L 187.378906 79.964844 L 188.058594 79.050781 C 202.722656 59.195312 226.105469 47.351562 250.574219 47.351562 C 292.625 47.351562 327.480469 81.558594 328.292969 123.679688 C 328.292969 124.015625 328.292969 124.324219 328.292969 124.664062 L 328.292969 125.101562 Z M 328.363281 125.070312 " fill-opacity="1" fill-rule="nonzero"/><path fill="#ffbfb1" d="M 312.953125 124.628906 C 312.714844 90.484375 284.75 62.722656 250.609375 62.722656 C 216.464844 62.722656 190.742188 88.210938 188.464844 120.726562 C 188.464844 121.167969 188.09375 121.507812 187.585938 121.507812 L 187.175781 121.507812 C 186.734375 121.507812 186.363281 121.167969 186.328125 120.726562 C 184.089844 88.210938 156.769531 62.722656 124.1875 62.722656 C 91.605469 62.722656 62.113281 90.484375 61.875 124.628906 C 61.875 124.695312 61.875 124.730469 61.875 124.796875 L 61.875 125.308594 C 61.875 125.308594 61.875 125.542969 61.875 125.648438 C 61.875 126.835938 61.945312 128.054688 62.046875 129.242188 C 62.519531 136.507812 64.183594 143.429688 67 149.878906 C 79.050781 181.203125 110.136719 213.785156 137.59375 242.496094 C 161.757812 267.78125 182.96875 290.011719 187.414062 306.914062 C 191.859375 290.011719 213.070312 267.78125 237.238281 242.496094 C 264.691406 213.75 295.78125 181.203125 307.828125 149.914062 C 310.644531 143.429688 312.308594 136.507812 312.785156 129.277344 C 312.886719 128.054688 312.953125 126.867188 312.953125 125.648438 L 312.953125 125.070312 C 312.953125 125.070312 312.953125 124.867188 312.953125 124.796875 C 312.953125 124.730469 312.953125 124.695312 312.953125 124.628906 Z M 169.359375 131.042969 C 170.851562 127.003906 173.738281 124.867188 177.605469 124.832031 C 181.882812 124.832031 184.15625 126.628906 185.480469 128.53125 C 187.789062 129.71875 188.875 131.824219 189.621094 133.757812 L 201.398438 164.097656 C 202.550781 166.984375 199.566406 169.734375 196 169.734375 C 194.675781 169.734375 193.386719 169.496094 192.097656 168.714844 C 190.367188 168.648438 188.363281 168.171875 186.226562 165.929688 C 185.140625 164.8125 184.394531 164.066406 183.75 163.589844 C 183.273438 163.589844 182.765625 163.589844 182.152344 163.554688 C 179.507812 163.453125 177.675781 163.792969 176.621094 164.269531 C 175.808594 164.609375 175.367188 164.84375 175.128906 165.082031 C 175.128906 165.082031 174.3125 165.898438 172.71875 167.492188 C 170.988281 168.984375 169.15625 169.800781 167.1875 169.800781 C 165.59375 169.800781 164.371094 169.425781 163.488281 168.75 C 161.792969 168.714844 160.398438 168.273438 159.414062 167.457031 C 158.328125 166.578125 157.785156 165.253906 157.785156 163.691406 C 157.785156 161.6875 158.058594 161.011719 158.296875 160.398438 L 169.292969 131.078125 Z M 120.757812 155.683594 C 120.351562 155.511719 120.011719 155.308594 119.671875 155.140625 C 118.894531 155.140625 118.042969 155.003906 117.058594 154.597656 C 114.277344 153.511719 112.816406 151.8125 112.613281 149.402344 C 112.410156 147.300781 113.15625 144.890625 114.3125 141.871094 L 119.640625 128.734375 L 123.167969 119.605469 C 122.898438 119.503906 122.625 119.503906 122.355469 119.367188 C 121.945312 119.164062 121.539062 119.027344 121.167969 118.894531 C 120.421875 118.824219 119.640625 118.6875 118.789062 118.351562 C 116.925781 118.246094 115.667969 119.128906 114.34375 120.996094 C 111.324219 125.339844 105.960938 133.113281 102.773438 137.761719 C 99.617188 142.34375 96.425781 142.414062 93.878906 140.714844 C 93.777344 140.714844 93.675781 140.714844 93.574219 140.714844 C 92.082031 140.714844 90.792969 140.070312 89.875 139.460938 C 85.90625 136.710938 85.53125 133.113281 88.789062 128.429688 L 100.328125 111.765625 C 101.957031 109.425781 102.023438 108.132812 99.175781 104.84375 C 96.359375 101.480469 97.035156 98.9375 98.121094 97.375 C 99.207031 95.816406 100.53125 95.035156 102.398438 95.066406 C 104.027344 95.066406 105.859375 95.847656 108.03125 97.308594 L 122.320312 107.183594 C 123.441406 107.964844 124.628906 108.882812 125.511719 109.96875 C 127.140625 111.121094 128.226562 112.242188 128.871094 113.292969 C 130.023438 113.054688 131.210938 113.089844 132.46875 113.5625 C 134.300781 114.277344 135.625 115.328125 136.371094 116.617188 C 140.035156 118.453125 140.34375 121.609375 138.847656 125.511719 C 137.898438 127.988281 137.730469 129.785156 138.40625 131.210938 C 138.710938 131.347656 139.019531 131.519531 139.390625 131.652344 C 141.871094 132.605469 143.464844 132.738281 144.652344 132.027344 C 145.738281 131.382812 146.6875 129.921875 147.742188 127.171875 C 149.300781 123.136719 152.527344 121.472656 156.125 122.863281 C 157.617188 123.441406 159.28125 124.324219 160.160156 125.984375 C 163.929688 127.820312 164.300781 130.5 161.6875 137.21875 L 152.933594 159.855469 C 151.066406 164.675781 148.417969 166.371094 144.992188 165.050781 C 144.515625 164.84375 144.074219 164.675781 143.703125 164.472656 C 142.921875 164.472656 142.140625 164.300781 141.292969 163.996094 C 136.304688 162.0625 135.421875 159.3125 137.730469 152.730469 C 139.832031 146.042969 139.359375 145.160156 135.421875 143.601562 C 132.773438 143.363281 131.484375 145.195312 128.871094 150.929688 C 126.765625 155.410156 124.59375 157.175781 120.726562 155.683594 Z M 186.53125 229.261719 C 183.511719 229.363281 180.628906 228.855469 177.980469 227.835938 C 168.171875 225.867188 160.601562 217.347656 160.195312 206.894531 C 159.992188 201.871094 160.941406 197.222656 162.878906 193.421875 C 157.988281 197.121094 149.707031 201.429688 147.265625 205.300781 C 146.113281 207.066406 143.667969 213.886719 142.582031 216.433594 C 140.851562 220.707031 137.320312 221.589844 133.894531 220.265625 C 133.453125 220.097656 133.078125 219.929688 132.707031 219.757812 C 131.890625 219.691406 131.078125 219.519531 130.195312 219.214844 C 127.714844 218.265625 126.121094 216.976562 125.339844 215.210938 C 123.847656 211.851562 125.542969 207.539062 127.714844 202.074219 C 128.125 201.058594 128.53125 200.007812 128.9375 198.886719 C 129.753906 196.714844 128.226562 191.011719 126.902344 186.023438 C 125.410156 180.523438 124.152344 175.738281 125 173.464844 C 125.578125 171.972656 127.546875 168.714844 133.589844 170.988281 C 135.792969 171.804688 137.457031 173.058594 138.679688 174.585938 C 140.613281 175.707031 142.105469 177.300781 142.921875 179.539062 C 143.394531 180.832031 143.734375 182.832031 144.210938 184.460938 C 144.820312 184.222656 145.570312 183.714844 146.789062 182.867188 C 147.367188 182.460938 148.011719 182.019531 148.792969 181.476562 C 151.914062 179.371094 155.105469 179.066406 158.769531 180.421875 C 161.382812 181.40625 162.773438 182.628906 163.488281 183.816406 C 165.695312 184.972656 166.746094 186.429688 166.679688 188.128906 C 170.546875 184.257812 175.570312 182.152344 181.679688 181.917969 C 187.484375 181.746094 193.046875 183.816406 197.324219 187.921875 C 197.5625 188.160156 197.800781 188.398438 198.003906 188.671875 C 203.164062 192.472656 206.691406 198.613281 206.964844 206.011719 C 207.472656 219.351562 198.511719 228.785156 186.464844 229.261719 Z M 238.457031 215.921875 C 233.230469 218.402344 227.597656 218.910156 222.746094 216.804688 C 220.675781 216.433594 218.738281 215.753906 216.976562 214.632812 C 212.734375 212.019531 211.546875 210.1875 205.199219 196.917969 L 202.585938 191.417969 C 200.242188 186.464844 198.546875 181.066406 204.011719 178.453125 C 206.828125 177.132812 208.933594 176.996094 210.832031 178.015625 C 211.75 178.523438 212.632812 179.335938 213.511719 180.523438 C 215.347656 181.375 216.941406 183.476562 218.707031 187.246094 L 225.324219 201.160156 C 225.5625 201.667969 225.832031 202.144531 226.136719 202.585938 C 227.222656 203.09375 228.414062 203.195312 229.601562 202.585938 C 230.789062 202.007812 231.601562 201.160156 232.011719 200.039062 C 232.519531 198.613281 232.28125 196.78125 231.332031 194.78125 L 224.714844 180.832031 C 222.980469 177.164062 222.304688 174.6875 222.507812 172.71875 C 222.746094 170.546875 224.035156 168.984375 226.578125 167.796875 C 229.261719 166.507812 231.261719 166.441406 233.097656 167.527344 C 233.976562 168.035156 234.792969 168.816406 235.605469 169.9375 C 237.441406 170.785156 239.035156 172.921875 240.9375 176.894531 L 247.65625 191.046875 C 254.476562 205.402344 243.652344 213.480469 238.457031 215.921875 Z M 284.988281 125.851562 C 281.015625 128.972656 278.132812 129.210938 274.601562 127.886719 C 274.230469 127.75 273.855469 127.613281 273.515625 127.511719 C 272.703125 127.378906 271.820312 127.171875 270.9375 126.835938 C 268.324219 125.917969 266.421875 125.238281 264.929688 124.765625 C 263.742188 124.527344 263.265625 124.730469 262.757812 125.136719 C 260.960938 126.5625 261.433594 129.414062 263.84375 132.46875 C 267.40625 136.980469 266.492188 140.476562 263.164062 143.125 C 260.316406 145.363281 257.871094 145.195312 255.664062 143.804688 C 255.597656 143.804688 255.53125 143.804688 255.460938 143.804688 C 254.613281 143.804688 253.765625 143.632812 252.917969 143.261719 C 250.609375 142.277344 248.640625 140.003906 247.179688 138.136719 L 234.894531 122.386719 C 235.167969 123 235.4375 123.609375 235.742188 124.324219 L 244.464844 145.601562 C 246.5 150.589844 245.652344 153.953125 241.816406 155.511719 C 238.730469 156.769531 236.457031 156.359375 234.351562 155.476562 C 234.25 155.445312 234.113281 155.34375 233.945312 155.242188 C 232.65625 155.140625 231.535156 154.765625 230.617188 154.390625 C 229.941406 154.121094 228.140625 152.761719 225.222656 150.558594 C 224.136719 149.742188 223.050781 148.894531 222.132812 148.25 C 221.082031 147.46875 220.199219 146.925781 219.519531 146.484375 C 218.433594 147.199219 218.503906 148.929688 219.621094 151.675781 C 222.234375 158.058594 221.964844 158.90625 222.066406 160.367188 C 222.03125 162.367188 220.980469 163.792969 219.078125 164.574219 C 216.773438 165.523438 215.175781 165.21875 213.851562 164.066406 C 213.617188 164.066406 213.378906 164.132812 213.175781 164.132812 C 209.269531 164.132812 207.539062 159.925781 205.742188 155.476562 L 196.917969 133.996094 C 195.324219 130.125 194.269531 125.339844 200.140625 122.929688 C 202.890625 121.8125 204.960938 121.777344 207.4375 122.828125 C 208.863281 123.40625 211.714844 125.410156 214.261719 127.582031 C 219.078125 131.621094 221.828125 132.535156 222.371094 132.332031 C 222.574219 132.195312 222.980469 130.90625 221.929688 128.328125 L 221.726562 127.886719 C 220.503906 125 219.078125 121.4375 219.179688 119.367188 C 219.25 116.753906 220.472656 114.957031 222.777344 114.003906 C 224.40625 113.328125 226.546875 112.785156 228.582031 114.480469 C 229.089844 114.921875 229.632812 115.53125 230.144531 116.28125 C 230.210938 116.28125 230.277344 116.28125 230.3125 116.3125 C 227.15625 111.15625 229.328125 107.726562 231.90625 105.691406 C 235.878906 102.566406 238.695312 103.484375 241.683594 105.828125 C 243.414062 107.25 244.160156 107.589844 244.667969 107.21875 C 245.449219 106.605469 245.621094 103.824219 245.722656 101.789062 C 245.824219 99.953125 245.925781 98.222656 246.367188 97.105469 C 247.382812 94.289062 248.605469 92.421875 250.167969 91.164062 L 250.574219 90.859375 C 252.238281 89.535156 254.988281 87.328125 257.566406 87.601562 C 258.582031 87.703125 259.464844 88.210938 260.144531 89.09375 C 260.484375 89.535156 260.757812 89.941406 260.960938 90.382812 C 261.671875 90.484375 262.316406 90.792969 262.859375 91.503906 C 264.148438 93.132812 264.285156 94.050781 263.808594 100.871094 C 263.539062 104.433594 263.265625 106.300781 264.046875 107.863281 C 266.832031 108.914062 269.207031 109.832031 271.175781 110.578125 C 281.628906 114.546875 282.273438 114.785156 283.664062 116.550781 C 283.800781 116.71875 283.902344 116.925781 284.039062 117.128906 C 285.363281 117.773438 285.835938 118.214844 286.414062 118.960938 C 288.347656 121.402344 287.261719 124.152344 285.023438 125.917969 Z M 284.988281 125.851562 " fill-opacity="1" fill-rule="nonzero"/><path fill="#ffbfb1" d="M 176.214844 206.625 C 176.351562 210.253906 177.265625 213.003906 178.660156 214.9375 C 179.777344 215.480469 181.035156 215.789062 182.425781 215.71875 C 185.003906 215.617188 187.144531 214.53125 188.636719 212.632812 C 190.164062 210.664062 190.945312 207.914062 190.808594 204.757812 C 190.707031 201.90625 189.824219 199.191406 188.363281 197.289062 C 187.6875 196.410156 186.871094 195.730469 186.023438 195.21875 C 185.617188 195.21875 185.242188 195.117188 184.835938 195.117188 C 179.675781 195.324219 175.945312 200.007812 176.179688 206.625 Z M 176.214844 206.625 " fill-opacity="1" fill-rule="nonzero"/><path fill="#1d1d1b" d="M 314.648438 124.425781 C 314.3125 89.433594 285.632812 61.027344 250.640625 61.027344 C 219.046875 61.027344 192.269531 84.378906 187.449219 115.089844 C 182.628906 84.378906 155.851562 61.027344 124.253906 61.027344 C 89.230469 61.027344 60.519531 89.535156 60.246094 124.558594 C 60.246094 124.628906 60.246094 124.730469 60.246094 124.796875 L 61.09375 124.796875 L 60.246094 125.070312 C 60.246094 125.070312 60.246094 125.308594 60.246094 125.441406 L 60.246094 125.679688 C 60.246094 126.902344 60.347656 128.15625 60.449219 129.378906 C 60.960938 136.8125 62.65625 143.9375 65.507812 150.523438 C 77.65625 182.121094 108.878906 214.835938 136.4375 243.683594 C 163.351562 271.886719 186.632812 296.222656 186.632812 313.054688 C 186.632812 313.53125 187.007812 313.902344 187.484375 313.902344 C 187.957031 313.902344 188.332031 313.53125 188.332031 313.054688 C 188.332031 296.222656 211.578125 271.886719 238.527344 243.683594 C 266.085938 214.835938 297.308594 182.121094 309.457031 150.558594 C 312.34375 143.9375 314.039062 136.8125 314.546875 129.378906 C 314.648438 128.125 314.71875 126.902344 314.753906 125.679688 L 314.753906 125.441406 C 314.753906 125.441406 314.753906 125.207031 314.753906 124.898438 L 313.902344 124.898438 L 314.753906 124.628906 C 314.753906 124.628906 314.753906 124.492188 314.753906 124.425781 Z M 312.953125 125.613281 C 312.953125 126.800781 312.886719 128.023438 312.785156 129.242188 C 312.308594 136.472656 310.644531 143.429688 307.828125 149.878906 C 295.8125 181.171875 264.691406 213.75 237.238281 242.464844 C 213.070312 267.746094 191.859375 289.976562 187.414062 306.878906 C 182.96875 289.976562 161.757812 267.746094 137.59375 242.464844 C 110.136719 213.71875 79.050781 181.171875 67 149.84375 C 64.21875 143.394531 62.554688 136.472656 62.046875 129.210938 C 61.945312 128.023438 61.875 126.800781 61.875 125.613281 C 61.875 125.511719 61.875 125.375 61.875 125.273438 L 61.875 124.765625 C 61.875 124.765625 61.875 124.664062 61.875 124.59375 C 62.113281 90.453125 90.078125 62.691406 124.1875 62.691406 C 158.296875 62.691406 184.054688 88.179688 186.328125 120.691406 C 186.328125 121.132812 186.734375 121.472656 187.175781 121.472656 L 187.585938 121.472656 C 188.09375 121.472656 188.433594 121.132812 188.464844 120.691406 C 190.707031 88.179688 218.027344 62.691406 250.609375 62.691406 C 283.1875 62.691406 312.683594 90.453125 312.953125 124.59375 C 312.953125 124.664062 312.953125 124.695312 312.953125 124.765625 C 312.953125 124.832031 312.953125 125.035156 312.953125 125.035156 Z M 312.953125 125.613281 " fill-opacity="1" fill-rule="nonzero"/><path fill="#000000" d="M 121.167969 118.925781 C 121.539062 119.0625 121.945312 119.230469 122.355469 119.402344 C 122.660156 119.539062 122.898438 119.539062 123.167969 119.640625 L 123.609375 118.484375 C 122.863281 118.789062 122.050781 118.960938 121.167969 118.894531 Z M 121.167969 118.925781 " fill-opacity="1" fill-rule="nonzero"/><path fill="#000000" d="M 118.621094 118.316406 C 114.71875 116.550781 113.328125 117.296875 111.699219 119.640625 L 100.089844 136.40625 C 97.886719 139.5625 95.746094 140.613281 93.914062 140.714844 C 96.460938 142.414062 99.648438 142.34375 102.804688 137.761719 C 106.03125 133.113281 111.390625 125.375 114.378906 120.996094 C 115.667969 119.128906 116.925781 118.214844 118.824219 118.351562 C 118.757812 118.351562 118.6875 118.351562 118.65625 118.28125 Z M 118.621094 118.316406 " fill-opacity="1" fill-rule="nonzero"/><path fill="#000000" d="M 126.902344 114.175781 C 127.511719 113.769531 128.191406 113.496094 128.90625 113.328125 C 128.292969 112.242188 127.171875 111.15625 125.542969 110 C 126.527344 111.1875 127.140625 112.613281 126.902344 114.175781 Z M 126.902344 114.175781 " fill-opacity="1" fill-rule="nonzero"/><path fill="#000000" d="M 128.871094 150.929688 C 131.449219 145.195312 132.773438 143.363281 135.421875 143.601562 C 135.320312 143.566406 135.25 143.53125 135.183594 143.5 C 130.464844 141.664062 129.753906 141.734375 126.257812 149.402344 C 124.796875 152.527344 122.964844 155.207031 119.671875 155.105469 C 120.011719 155.308594 120.351562 155.480469 120.757812 155.648438 C 124.628906 157.140625 126.765625 155.375 128.90625 150.898438 Z M 128.871094 150.929688 " fill-opacity="1" fill-rule="nonzero"/><path fill="#000000" d="M 159.074219 135.726562 L 150.320312 158.363281 C 149.300781 160.976562 148.113281 162.707031 146.621094 163.65625 C 145.738281 164.234375 144.789062 164.507812 143.734375 164.507812 L 143.667969 164.507812 C 144.074219 164.710938 144.480469 164.914062 144.957031 165.082031 C 148.386719 166.40625 151.03125 164.710938 152.898438 159.890625 L 161.65625 137.253906 C 164.269531 130.535156 163.894531 127.820312 160.128906 126.019531 C 160.332031 126.425781 160.570312 126.835938 160.671875 127.308594 C 161.078125 129.210938 160.601562 131.6875 159.042969 135.691406 Z M 159.074219 135.726562 " fill-opacity="1" fill-rule="nonzero"/><path fill="#000000" d="M 136.234375 124.015625 C 134.742188 127.886719 135.25 129.785156 138.375 131.28125 C 137.695312 129.855469 137.863281 128.054688 138.816406 125.578125 C 140.34375 121.675781 140.035156 118.519531 136.335938 116.6875 C 136.574219 117.058594 136.746094 117.46875 136.878906 117.910156 C 137.390625 119.570312 137.152344 121.574219 136.203125 124.015625 Z M 136.234375 124.015625 " fill-opacity="1" fill-rule="nonzero"/><path fill="#000000" d="M 198.785156 161.925781 C 199.328125 163.285156 199.15625 164.710938 198.308594 165.929688 C 197.15625 167.628906 194.914062 168.714844 192.574219 168.714844 C 192.574219 168.714844 192.269531 168.714844 192.097656 168.714844 C 193.386719 169.496094 194.644531 169.734375 196 169.734375 C 199.566406 169.734375 202.550781 166.949219 201.398438 164.097656 L 189.621094 133.757812 C 188.839844 131.824219 187.789062 129.71875 185.480469 128.53125 C 186.226562 129.617188 186.703125 130.738281 187.042969 131.585938 L 198.816406 161.960938 Z M 198.785156 161.925781 " fill-opacity="1" fill-rule="nonzero"/><path fill="#000000" d="M 178.761719 162.539062 C 175.671875 162.4375 174.144531 162.945312 173.601562 163.148438 C 173.332031 163.25 172.550781 163.589844 172.378906 163.792969 L 169.96875 166.203125 C 168 167.898438 165.964844 168.75 163.859375 168.75 C 163.859375 168.75 163.691406 168.714844 163.589844 168.714844 C 164.472656 169.394531 165.695312 169.765625 167.289062 169.765625 C 169.257812 169.765625 171.089844 168.953125 172.820312 167.457031 C 174.417969 165.863281 175.230469 165.050781 175.230469 165.050781 C 175.46875 164.8125 175.910156 164.574219 176.722656 164.234375 C 177.742188 163.757812 179.609375 163.421875 182.257812 163.523438 C 182.867188 163.523438 183.375 163.523438 183.851562 163.554688 C 182.59375 162.570312 181.746094 162.539062 179.949219 162.539062 Z M 178.761719 162.539062 " fill-opacity="1" fill-rule="nonzero"/><path fill="#000000" d="M 179.4375 148.828125 C 179.4375 147.503906 178.589844 146.347656 178.082031 146.347656 C 177.910156 146.347656 177.742188 146.484375 177.605469 146.585938 C 177.164062 147.027344 176.859375 147.875 176.859375 148.726562 C 176.859375 149.539062 177.265625 150.421875 177.980469 150.421875 C 178.964844 150.421875 179.4375 149.914062 179.4375 148.859375 Z M 179.4375 148.828125 " fill-opacity="1" fill-rule="nonzero"/><path fill="#000000" d="M 216.09375 146.214844 C 216.09375 146.992188 216.363281 148.078125 216.941406 149.472656 C 219.316406 155.273438 219.386719 156.632812 219.417969 157.957031 L 219.417969 158.429688 C 219.417969 160.839844 218.164062 162.570312 215.921875 163.488281 C 215.140625 163.828125 214.429688 163.964844 213.75 164.03125 C 215.074219 165.21875 216.667969 165.492188 218.976562 164.539062 C 220.878906 163.757812 221.929688 162.335938 221.964844 160.332031 C 221.863281 158.871094 222.132812 158.023438 219.519531 151.644531 C 218.402344 148.894531 218.332031 147.164062 219.417969 146.449219 C 217.246094 145.128906 216.667969 145.160156 216.566406 145.160156 C 216.433594 145.230469 216.09375 145.363281 216.058594 146.179688 Z M 216.09375 146.214844 " fill-opacity="1" fill-rule="nonzero"/><path fill="#000000" d="M 230.277344 116.3125 C 230.277344 116.3125 230.144531 116.3125 230.109375 116.28125 C 231.027344 117.601562 231.976562 119.4375 233.0625 122.117188 L 241.785156 143.394531 C 244.601562 150.285156 241.648438 153.203125 238.660156 154.425781 C 236.828125 155.171875 235.234375 155.34375 233.875 155.242188 C 234.046875 155.34375 234.183594 155.410156 234.285156 155.480469 C 236.386719 156.359375 238.660156 156.800781 241.75 155.511719 C 245.585938 153.953125 246.433594 150.589844 244.398438 145.601562 L 235.675781 124.324219 C 235.371094 123.609375 235.097656 123 234.828125 122.386719 L 231.398438 118.011719 C 230.957031 117.433594 230.617188 116.890625 230.277344 116.347656 Z M 230.277344 116.3125 " fill-opacity="1" fill-rule="nonzero"/><path fill="#000000" d="M 259.804688 123.882812 C 259.363281 124.222656 259.125 124.664062 259.058594 125.238281 C 258.921875 126.496094 259.636719 128.226562 261.027344 130.023438 C 262.859375 132.367188 263.675781 134.605469 263.4375 136.675781 C 263.234375 138.578125 262.113281 140.34375 260.179688 141.871094 C 258.617188 143.089844 257.089844 143.703125 255.53125 143.769531 C 257.734375 145.160156 260.179688 145.332031 263.03125 143.089844 C 266.355469 140.445312 267.273438 136.949219 263.707031 132.433594 C 261.300781 129.378906 260.824219 126.527344 262.621094 125.101562 C 263.132812 124.695312 263.605469 124.527344 264.792969 124.730469 C 261.0625 123.472656 260.316406 123.441406 259.738281 123.882812 Z M 259.804688 123.882812 " fill-opacity="1" fill-rule="nonzero"/><path fill="#000000" d="M 283.96875 117.058594 C 285.496094 119.539062 284.785156 122.492188 282.070312 124.628906 C 278.980469 127.039062 276.402344 127.921875 273.449219 127.480469 C 273.820312 127.613281 274.160156 127.714844 274.535156 127.851562 C 278.066406 129.175781 280.949219 128.9375 284.921875 125.816406 C 287.195312 124.050781 288.246094 121.300781 286.3125 118.859375 C 285.734375 118.144531 285.257812 117.671875 283.9375 117.027344 Z M 283.96875 117.058594 " fill-opacity="1" fill-rule="nonzero"/><path fill="#000000" d="M 261.230469 99.003906 L 261.128906 100.058594 C 260.859375 103.484375 260.722656 104.910156 261.808594 106.300781 C 262.351562 106.980469 262.894531 107.386719 263.640625 107.691406 L 263.980469 107.828125 C 263.199219 106.234375 263.4375 104.367188 263.742188 100.835938 C 264.21875 94.015625 264.082031 93.097656 262.792969 91.46875 C 262.25 90.757812 261.570312 90.453125 260.890625 90.351562 C 261.570312 91.808594 261.570312 93.675781 261.195312 99.003906 Z M 261.230469 99.003906 " fill-opacity="1" fill-rule="nonzero"/><path fill="#000000" d="M 166.710938 188.160156 C 166.746094 186.5 165.695312 185.039062 163.523438 183.851562 C 164.472656 185.414062 164.234375 187.007812 163.859375 188.058594 C 162.945312 190.503906 159.007812 193.046875 154.425781 196.035156 C 150.355469 198.683594 146.179688 201.398438 144.617188 203.839844 C 143.835938 204.996094 142.378906 208.796875 141.292969 211.578125 C 140.78125 212.902344 140.308594 214.089844 140.003906 214.835938 C 138.710938 218.027344 136.304688 219.757812 133.351562 219.757812 C 133.148438 219.757812 132.941406 219.722656 132.707031 219.691406 C 133.078125 219.859375 133.453125 220.0625 133.894531 220.199219 C 137.320312 221.488281 140.851562 220.605469 142.582031 216.363281 C 143.667969 213.820312 146.113281 206.996094 147.265625 205.230469 C 149.707031 201.363281 157.988281 197.085938 162.878906 193.355469 C 163.488281 192.199219 164.132812 191.078125 164.914062 190.097656 C 165.457031 189.382812 166.066406 188.738281 166.679688 188.09375 Z M 166.710938 188.160156 " fill-opacity="1" fill-rule="nonzero"/><path fill="#000000" d="M 141.089844 180.21875 C 141.460938 181.816406 142.003906 184.257812 142.75 184.53125 C 143.261719 184.734375 143.667969 184.734375 144.210938 184.53125 C 143.734375 182.867188 143.394531 180.863281 142.921875 179.609375 C 142.105469 177.367188 140.613281 175.773438 138.679688 174.652344 C 139.359375 175.503906 139.933594 176.417969 140.308594 177.46875 C 140.613281 178.25 140.816406 179.234375 141.054688 180.253906 Z M 141.089844 180.21875 " fill-opacity="1" fill-rule="nonzero"/><path fill="#000000" d="M 178.660156 214.9375 C 177.265625 213.003906 176.351562 210.253906 176.214844 206.625 C 175.945312 200.007812 179.675781 195.324219 184.871094 195.117188 C 185.308594 195.117188 185.648438 195.1875 186.058594 195.21875 C 184.835938 194.507812 183.476562 194.101562 181.917969 194.101562 C 181.78125 194.101562 181.644531 194.101562 181.507812 194.101562 C 179.234375 194.203125 177.199219 195.253906 175.808594 197.121094 C 174.3125 199.054688 173.566406 201.769531 173.703125 204.722656 C 173.839844 208.390625 174.789062 211.339844 176.453125 213.242188 C 177.097656 213.988281 177.84375 214.53125 178.691406 214.9375 Z M 178.660156 214.9375 " fill-opacity="1" fill-rule="nonzero"/><path fill="#000000" d="M 198.039062 188.703125 C 201.941406 192.8125 204.25 198.242188 204.453125 204.144531 C 204.722656 210.730469 202.652344 216.804688 198.714844 221.183594 C 194.8125 225.492188 189.28125 228.003906 183.136719 228.242188 C 182.867188 228.242188 182.5625 228.242188 182.289062 228.242188 C 180.796875 228.242188 179.371094 228.105469 177.980469 227.800781 C 180.628906 228.820312 183.511719 229.363281 186.53125 229.226562 C 198.582031 228.75 207.539062 219.316406 207.03125 205.980469 C 206.757812 198.613281 203.195312 192.4375 198.070312 188.636719 Z M 198.039062 188.703125 " fill-opacity="1" fill-rule="nonzero"/><path fill="#000000" d="M 240.902344 176.894531 C 239.035156 172.921875 237.40625 170.785156 235.574219 169.9375 C 236.421875 171.089844 237.304688 172.652344 238.253906 174.652344 L 244.972656 188.804688 C 248.0625 195.324219 248.027344 201.261719 244.839844 206.523438 C 241.886719 211.375 237.238281 213.953125 235.371094 214.835938 C 232.179688 216.363281 228.921875 217.109375 225.832031 217.109375 C 224.746094 217.109375 223.730469 216.976562 222.675781 216.804688 C 227.53125 218.910156 233.164062 218.402344 238.390625 215.921875 C 243.582031 213.445312 254.410156 205.367188 247.585938 191.046875 L 240.867188 176.894531 Z M 240.902344 176.894531 " fill-opacity="1" fill-rule="nonzero"/><path fill="#000000" d="M 222.644531 198.886719 C 223.421875 200.480469 224.644531 201.871094 226.105469 202.515625 C 225.800781 202.074219 225.527344 201.601562 225.289062 201.09375 L 218.671875 187.175781 C 216.90625 183.445312 215.277344 181.339844 213.480469 180.457031 C 214.328125 181.578125 215.175781 183.070312 216.058594 184.9375 L 222.675781 198.851562 Z M 222.644531 198.886719 " fill-opacity="1" fill-rule="nonzero"/><path fill="#e3d4d1" d="M 121.371094 108.609375 L 107.082031 98.734375 C 105.25 97.445312 103.65625 96.796875 102.398438 96.765625 L 102.332031 96.765625 C 101.210938 96.765625 100.292969 97.273438 99.546875 98.359375 C 98.460938 99.953125 98.765625 101.71875 100.5 103.757812 C 103.65625 107.457031 103.960938 109.558594 101.753906 112.75 L 90.214844 129.414062 C 87.535156 133.316406 87.738281 135.894531 90.894531 138.066406 C 93.574219 139.933594 96.1875 139.019531 98.699219 135.421875 L 110.304688 118.65625 C 112.648438 115.296875 114.988281 114.785156 119.332031 116.753906 C 121.539062 117.738281 123.371094 117.367188 124.492188 115.738281 C 125.714844 113.972656 126.15625 111.902344 121.371094 108.574219 Z M 121.371094 108.609375 " fill-opacity="1" fill-rule="nonzero"/><path fill="#000000" d="M 123.644531 118.382812 C 124.390625 116.449219 125.542969 115.058594 126.867188 114.175781 C 127.105469 112.582031 126.496094 111.1875 125.511719 110 C 124.59375 108.914062 123.40625 107.964844 122.320312 107.21875 L 108.03125 97.339844 C 105.894531 95.847656 104.027344 95.136719 102.398438 95.101562 C 100.566406 95.066406 99.207031 95.847656 98.121094 97.410156 C 97.035156 98.972656 96.359375 101.515625 99.175781 104.875 C 102.023438 108.203125 101.957031 109.457031 100.328125 111.800781 L 88.789062 128.464844 C 85.566406 133.148438 85.90625 136.746094 89.875 139.492188 C 90.757812 140.105469 92.046875 140.75 93.574219 140.75 C 93.675781 140.75 93.777344 140.75 93.878906 140.75 C 95.710938 140.648438 97.886719 139.59375 100.058594 136.4375 L 111.664062 119.671875 C 113.292969 117.296875 114.683594 116.550781 118.585938 118.351562 C 118.585938 118.351562 118.722656 118.351562 118.757812 118.417969 C 119.570312 118.757812 120.351562 118.925781 121.132812 118.960938 C 122.015625 119.027344 122.828125 118.859375 123.578125 118.554688 L 123.578125 118.453125 Z M 124.527344 115.738281 C 123.40625 117.367188 121.574219 117.703125 119.367188 116.753906 C 115.058594 114.785156 112.683594 115.296875 110.339844 118.65625 L 98.734375 135.421875 C 96.222656 139.050781 93.609375 139.933594 90.925781 138.066406 C 87.769531 135.894531 87.566406 133.28125 90.25 129.414062 L 101.789062 112.75 C 103.992188 109.558594 103.6875 107.457031 100.53125 103.757812 C 98.800781 101.6875 98.496094 99.921875 99.582031 98.359375 C 100.328125 97.308594 101.210938 96.765625 102.363281 96.765625 L 102.433594 96.765625 C 103.722656 96.765625 105.285156 97.445312 107.117188 98.734375 L 121.402344 108.609375 C 126.191406 111.933594 125.75 114.003906 124.527344 115.769531 Z M 124.527344 115.738281 " fill-opacity="1" fill-rule="nonzero"/><path fill="#e3d4d1" d="M 124.730469 148.726562 C 127.207031 143.226562 128.632812 140.886719 131.550781 140.886719 C 132.707031 140.886719 134.0625 141.257812 135.792969 141.9375 C 141.359375 144.074219 141.53125 146.28125 139.324219 153.273438 C 137.152344 159.449219 138.035156 160.910156 141.902344 162.4375 C 143.363281 163.011719 144.617188 162.945312 145.671875 162.230469 C 146.824219 161.484375 147.875 159.957031 148.726562 157.71875 L 157.480469 135.082031 C 158.871094 131.484375 159.347656 129.210938 159.042969 127.683594 C 158.738281 126.292969 157.71875 125.339844 155.476562 124.492188 C 152.761719 123.441406 150.523438 124.664062 149.300781 127.851562 C 148.078125 131.042969 146.960938 132.707031 145.5 133.554688 C 143.835938 134.539062 141.765625 134.4375 138.78125 133.28125 C 133.894531 131.382812 132.707031 128.496094 134.675781 123.371094 C 135.488281 121.300781 135.691406 119.671875 135.285156 118.351562 C 134.878906 116.957031 133.757812 115.90625 131.855469 115.160156 C 129.109375 114.109375 126.5625 115.53125 125.238281 118.960938 L 121.199219 129.347656 L 119.4375 133.621094 L 115.871094 142.445312 C 114.957031 144.820312 114.105469 147.300781 114.277344 149.199219 C 114.445312 150.964844 115.5 152.117188 117.671875 152.96875 C 120.859375 154.222656 122.625 153.101562 124.730469 148.65625 Z M 124.730469 148.726562 " fill-opacity="1" fill-rule="nonzero"/><path fill="#000000" d="M 126.257812 149.4375 C 129.71875 141.765625 130.464844 141.699219 135.183594 143.53125 C 135.285156 143.566406 135.351562 143.601562 135.421875 143.632812 C 139.359375 145.195312 139.832031 146.078125 137.730469 152.761719 C 135.421875 159.347656 136.304688 162.097656 141.292969 164.03125 C 142.140625 164.371094 142.921875 164.507812 143.703125 164.507812 L 143.769531 164.507812 C 144.789062 164.507812 145.773438 164.234375 146.65625 163.65625 C 148.148438 162.671875 149.371094 160.941406 150.355469 158.363281 L 159.109375 135.726562 C 160.671875 131.753906 161.144531 129.242188 160.738281 127.34375 C 160.636719 126.835938 160.398438 126.425781 160.195312 126.054688 C 159.28125 124.425781 157.617188 123.542969 156.15625 122.929688 C 152.558594 121.539062 149.335938 123.203125 147.773438 127.242188 C 146.6875 129.992188 145.773438 131.449219 144.6875 132.09375 C 143.5 132.773438 141.902344 132.671875 139.425781 131.722656 C 139.050781 131.585938 138.746094 131.417969 138.441406 131.28125 C 135.320312 129.785156 134.777344 127.886719 136.304688 124.015625 C 137.253906 121.574219 137.457031 119.570312 136.980469 117.910156 C 136.847656 117.46875 136.675781 117.058594 136.4375 116.6875 C 135.691406 115.363281 134.367188 114.34375 132.535156 113.632812 C 131.3125 113.15625 130.09375 113.089844 128.9375 113.359375 C 128.226562 113.53125 127.582031 113.800781 126.9375 114.210938 C 125.578125 115.089844 124.457031 116.484375 123.710938 118.417969 L 123.710938 118.519531 L 123.238281 119.671875 L 119.707031 128.804688 L 114.378906 141.9375 C 113.226562 144.921875 112.476562 147.367188 112.683594 149.472656 C 112.917969 151.882812 114.378906 153.578125 117.128906 154.664062 C 118.113281 155.039062 118.960938 155.171875 119.742188 155.207031 C 123.035156 155.273438 124.867188 152.59375 126.324219 149.503906 Z M 117.671875 153.035156 C 115.5 152.1875 114.445312 151.03125 114.277344 149.269531 C 114.105469 147.402344 114.921875 144.921875 115.871094 142.515625 L 119.4375 133.691406 L 121.199219 129.414062 L 125.238281 119.027344 C 126.5625 115.601562 129.109375 114.175781 131.855469 115.226562 C 133.757812 115.972656 134.878906 116.992188 135.285156 118.417969 C 135.660156 119.707031 135.453125 121.371094 134.675781 123.441406 C 132.671875 128.566406 133.859375 131.449219 138.78125 133.351562 C 141.765625 134.503906 143.835938 134.605469 145.5 133.621094 C 146.960938 132.738281 148.078125 131.109375 149.300781 127.921875 C 150.523438 124.730469 152.796875 123.507812 155.476562 124.558594 C 157.683594 125.410156 158.738281 126.359375 159.042969 127.75 C 159.382812 129.277344 158.90625 131.550781 157.480469 135.148438 L 148.726562 157.785156 C 147.875 160.027344 146.824219 161.519531 145.671875 162.300781 C 144.585938 163.011719 143.363281 163.082031 141.902344 162.503906 C 138.035156 161.011719 137.1875 159.550781 139.324219 153.339844 C 141.53125 146.347656 141.324219 144.144531 135.792969 142.003906 C 134.0625 141.324219 132.671875 140.953125 131.550781 140.953125 C 128.667969 140.953125 127.207031 143.292969 124.730469 148.792969 C 122.625 153.238281 120.859375 154.324219 117.671875 153.101562 Z M 117.671875 153.035156 " fill-opacity="1" fill-rule="nonzero"/><path fill="#e3d4d1" d="M 163.828125 167.085938 C 165.523438 167.085938 167.1875 166.371094 168.78125 164.980469 L 171.15625 162.605469 C 171.496094 162.265625 172.039062 161.996094 172.921875 161.621094 C 174.246094 161.011719 176.351562 160.773438 178.828125 160.839844 L 179.914062 160.839844 C 183.035156 160.910156 183.988281 161.078125 187.484375 164.777344 C 189.347656 166.78125 191.113281 166.949219 192.605469 167.050781 C 194.40625 167.050781 196.101562 166.238281 196.917969 165.015625 C 197.289062 164.472656 197.628906 163.625 197.222656 162.570312 L 185.445312 132.195312 C 184.292969 129.347656 182.730469 126.527344 177.605469 126.527344 C 174.449219 126.527344 172.175781 128.261719 170.921875 131.621094 L 159.925781 160.976562 C 159.722656 161.519531 159.515625 161.996094 159.515625 163.65625 C 159.515625 164.710938 159.855469 165.558594 160.570312 166.136719 C 161.316406 166.746094 162.4375 167.085938 163.859375 167.085938 Z M 177.980469 152.085938 C 176.382812 152.085938 175.164062 150.625 175.164062 148.691406 C 175.164062 147.402344 175.636719 146.144531 176.417969 145.363281 C 176.894531 144.890625 177.46875 144.617188 178.082031 144.617188 C 179.8125 144.617188 181.136719 146.824219 181.136719 148.792969 C 181.136719 150.796875 179.949219 152.050781 177.980469 152.050781 Z M 177.980469 152.085938 " fill-opacity="1" fill-rule="nonzero"/><path fill="#000000" d="M 157.820312 163.691406 C 157.820312 165.253906 158.398438 166.578125 159.449219 167.457031 C 160.433594 168.273438 161.824219 168.714844 163.523438 168.75 C 163.625 168.75 163.691406 168.78125 163.792969 168.78125 C 165.898438 168.78125 167.933594 167.933594 169.902344 166.238281 L 172.3125 163.828125 C 172.480469 163.65625 173.261719 163.316406 173.535156 163.183594 C 174.042969 162.945312 175.605469 162.4375 178.691406 162.570312 L 179.8125 162.570312 C 181.609375 162.605469 182.425781 162.640625 183.714844 163.625 C 184.359375 164.132812 185.105469 164.84375 186.191406 165.964844 C 188.332031 168.207031 190.332031 168.679688 192.0625 168.75 C 192.234375 168.75 192.371094 168.75 192.539062 168.75 C 194.882812 168.75 197.121094 167.664062 198.273438 165.964844 C 199.125 164.710938 199.292969 163.285156 198.75 161.960938 L 186.972656 131.585938 C 186.632812 130.738281 186.191406 129.617188 185.414062 128.53125 C 184.089844 126.628906 181.847656 124.832031 177.539062 124.832031 C 173.636719 124.832031 170.785156 126.96875 169.292969 131.042969 L 158.296875 160.367188 C 158.058594 161.011719 157.785156 161.65625 157.785156 163.65625 Z M 159.925781 161.011719 L 170.921875 131.652344 C 172.175781 128.261719 174.417969 126.5625 177.605469 126.5625 C 182.730469 126.5625 184.292969 129.378906 185.445312 132.230469 L 197.222656 162.605469 C 197.628906 163.65625 197.289062 164.507812 196.917969 165.050781 C 196.070312 166.269531 194.371094 167.085938 192.605469 167.085938 C 191.078125 166.984375 189.347656 166.8125 187.484375 164.8125 C 183.988281 161.113281 183.035156 160.941406 179.914062 160.910156 L 178.828125 160.910156 C 176.351562 160.808594 174.28125 161.042969 172.921875 161.65625 C 172.039062 162.027344 171.496094 162.300781 171.15625 162.640625 L 168.78125 165.015625 C 167.1875 166.40625 165.523438 167.121094 163.828125 167.121094 C 162.402344 167.121094 161.28125 166.8125 160.535156 166.167969 C 159.855469 165.59375 159.515625 164.777344 159.484375 163.691406 C 159.484375 162.027344 159.6875 161.519531 159.890625 161.011719 Z M 159.925781 161.011719 " fill-opacity="1" fill-rule="nonzero"/><path fill="#000000" d="M 181.136719 148.828125 C 181.136719 146.859375 179.847656 144.652344 178.082031 144.652344 C 177.46875 144.652344 176.894531 144.921875 176.417969 145.398438 C 175.636719 146.179688 175.164062 147.433594 175.164062 148.726562 C 175.164062 150.660156 176.382812 152.117188 177.980469 152.117188 C 179.914062 152.117188 181.136719 150.863281 181.136719 148.859375 Z M 176.894531 148.726562 C 176.894531 147.910156 177.199219 147.0625 177.640625 146.585938 C 177.742188 146.484375 177.910156 146.347656 178.117188 146.347656 C 178.625 146.347656 179.472656 147.503906 179.472656 148.828125 C 179.472656 149.914062 178.996094 150.386719 178.015625 150.386719 C 177.335938 150.386719 176.894531 149.539062 176.894531 148.691406 Z M 176.894531 148.726562 " fill-opacity="1" fill-rule="nonzero"/><path fill="#e3d4d1" d="M 238.015625 152.832031 C 241.34375 151.472656 242.054688 148.589844 240.1875 144.042969 L 231.46875 122.761719 C 229.90625 118.925781 228.648438 116.789062 227.429688 115.769531 C 226.34375 114.886719 225.1875 114.820312 223.320312 115.566406 C 221.625 116.246094 220.84375 117.46875 220.777344 119.4375 C 220.675781 121.402344 222.542969 125.78125 223.1875 127.207031 L 223.390625 127.683594 C 223.964844 129.109375 224.273438 130.464844 224.203125 131.550781 C 224.136719 132.738281 223.660156 133.589844 222.914062 133.894531 C 220.503906 134.878906 214.769531 130.296875 213.070312 128.871094 C 210.457031 126.628906 207.742188 124.832031 206.65625 124.390625 C 204.859375 123.644531 203.296875 123.40625 200.652344 124.527344 C 196.953125 126.054688 196.339844 128.429688 198.34375 133.382812 L 207.167969 154.867188 C 209.949219 161.65625 211.410156 163.523438 215.246094 161.960938 C 216.875 161.28125 217.6875 160.160156 217.722656 158.53125 L 217.722656 158.089844 C 217.652344 156.972656 217.585938 155.683594 215.347656 150.183594 C 214.667969 148.554688 214.363281 147.265625 214.394531 146.246094 C 214.394531 144.652344 215.277344 143.972656 215.957031 143.667969 C 216.804688 143.328125 218.265625 143.464844 223.050781 146.925781 C 223.964844 147.605469 225.085938 148.417969 226.171875 149.269531 C 228.074219 150.691406 230.6875 152.660156 231.195312 152.898438 C 232.960938 153.644531 235.03125 154.15625 238.015625 152.933594 Z M 238.015625 152.832031 " fill-opacity="1" fill-rule="nonzero"/><path fill="#000000" d="M 238.660156 154.425781 C 241.648438 153.203125 244.601562 150.285156 241.785156 143.394531 L 233.0625 122.117188 C 231.976562 119.4375 231.027344 117.601562 230.109375 116.28125 C 229.601562 115.53125 229.089844 114.886719 228.546875 114.480469 C 226.511719 112.785156 224.375 113.359375 222.746094 114.003906 C 220.4375 114.957031 219.214844 116.753906 219.148438 119.367188 C 219.046875 121.4375 220.4375 125.035156 221.691406 127.886719 L 221.894531 128.328125 C 222.949219 130.90625 222.542969 132.195312 222.335938 132.332031 C 221.828125 132.503906 219.046875 131.621094 214.226562 127.582031 C 211.679688 125.410156 208.796875 123.40625 207.40625 122.828125 C 204.894531 121.777344 202.855469 121.8125 200.109375 122.929688 C 194.234375 125.339844 195.289062 130.125 196.882812 133.996094 L 205.707031 155.476562 C 207.507812 159.890625 209.238281 164.132812 213.140625 164.132812 C 213.34375 164.132812 213.582031 164.066406 213.820312 164.066406 C 214.496094 163.996094 215.175781 163.828125 215.992188 163.523438 C 218.230469 162.605469 219.453125 160.875 219.519531 158.464844 L 219.519531 157.988281 C 219.453125 156.667969 219.386719 155.273438 217.007812 149.503906 C 216.433594 148.113281 216.160156 147.027344 216.160156 146.246094 C 216.160156 145.433594 216.535156 145.296875 216.667969 145.230469 C 216.773438 145.230469 217.347656 145.160156 219.519531 146.519531 C 220.234375 146.960938 221.082031 147.503906 222.132812 148.285156 C 223.050781 148.960938 224.136719 149.777344 225.222656 150.589844 C 228.140625 152.761719 229.941406 154.121094 230.617188 154.425781 C 231.535156 154.800781 232.65625 155.171875 233.945312 155.273438 C 235.300781 155.375 236.898438 155.207031 238.730469 154.460938 Z M 226.171875 149.199219 C 225.085938 148.386719 223.964844 147.535156 223.050781 146.859375 C 218.265625 143.429688 216.804688 143.261719 215.957031 143.601562 C 215.246094 143.871094 214.394531 144.585938 214.394531 146.179688 C 214.394531 147.199219 214.703125 148.488281 215.347656 150.117188 C 217.621094 155.613281 217.652344 156.902344 217.6875 158.023438 L 217.6875 158.464844 C 217.6875 160.128906 216.875 161.25 215.246094 161.894531 C 211.410156 163.453125 209.949219 161.585938 207.167969 154.800781 L 198.34375 133.316406 C 196.304688 128.394531 196.953125 125.984375 200.652344 124.457031 C 203.296875 123.371094 204.859375 123.578125 206.65625 124.324219 C 207.742188 124.765625 210.425781 126.597656 213.070312 128.804688 C 214.769531 130.226562 220.503906 134.808594 222.914062 133.824219 C 223.660156 133.519531 224.136719 132.671875 224.203125 131.484375 C 224.273438 130.398438 223.964844 129.074219 223.390625 127.613281 L 223.1875 127.140625 C 222.574219 125.714844 220.675781 121.335938 220.777344 119.367188 C 220.84375 117.433594 221.660156 116.210938 223.320312 115.5 C 225.1875 114.753906 226.308594 114.785156 227.429688 115.703125 C 228.648438 116.71875 229.871094 118.859375 231.46875 122.695312 L 240.1875 143.972656 C 242.054688 148.519531 241.34375 151.40625 238.015625 152.761719 C 235.03125 153.984375 232.960938 153.476562 231.195312 152.730469 C 230.6875 152.527344 228.074219 150.558594 226.171875 149.097656 Z M 226.171875 149.199219 " fill-opacity="1" fill-rule="nonzero"/><path fill="#e3d4d1" d="M 282.273438 117.570312 C 281.1875 116.175781 280.371094 115.871094 270.53125 112.140625 C 268.460938 111.359375 265.984375 110.40625 263.03125 109.289062 C 261.976562 108.882812 261.195312 108.269531 260.484375 107.386719 C 258.992188 105.488281 259.125 103.519531 259.433594 99.953125 L 259.535156 98.902344 C 260.007812 91.980469 259.804688 91.46875 258.789062 90.148438 C 258.378906 89.636719 257.90625 89.367188 257.363281 89.296875 C 255.53125 89.09375 252.984375 91.132812 251.625 92.21875 L 251.21875 92.523438 C 249.894531 93.539062 248.878906 95.203125 247.960938 97.714844 C 247.621094 98.632812 247.519531 100.292969 247.417969 101.921875 C 247.25 104.808594 247.078125 107.523438 245.722656 108.574219 C 243.988281 109.933594 242.054688 108.335938 240.628906 107.183594 C 239.203125 106.097656 238.015625 105.417969 236.695312 105.417969 C 235.574219 105.417969 234.386719 105.929688 232.925781 107.046875 C 229.601562 109.660156 229.53125 112.886719 232.722656 116.957031 L 248.4375 137.082031 C 249.792969 138.78125 251.59375 140.851562 253.527344 141.699219 C 255.359375 142.515625 257.160156 142.140625 259.195312 140.546875 C 260.753906 139.324219 261.636719 137.933594 261.808594 136.507812 C 261.976562 134.878906 261.300781 133.078125 259.738281 131.109375 C 258.039062 128.9375 257.191406 126.800781 257.394531 125.070312 C 257.53125 124.050781 258.007812 123.203125 258.789062 122.59375 C 260.382812 121.335938 261.636719 121.777344 271.445312 125.273438 C 274.433594 126.394531 277.082031 126.460938 281.015625 123.371094 C 282.746094 122.015625 284.003906 119.773438 282.273438 117.601562 Z M 282.273438 117.570312 " fill-opacity="1" fill-rule="nonzero"/><path fill="#000000" d="M 282.070312 124.664062 C 284.785156 122.523438 285.496094 119.539062 283.96875 117.09375 C 283.867188 116.890625 283.765625 116.71875 283.597656 116.515625 C 282.203125 114.753906 281.59375 114.515625 271.105469 110.542969 C 269.105469 109.796875 266.761719 108.882812 263.980469 107.828125 L 263.640625 107.691406 C 262.894531 107.386719 262.351562 106.980469 261.808594 106.300781 C 260.722656 104.910156 260.824219 103.484375 261.128906 100.058594 L 261.230469 99.003906 C 261.605469 93.675781 261.605469 91.777344 260.925781 90.351562 C 260.722656 89.910156 260.449219 89.503906 260.109375 89.0625 C 259.433594 88.179688 258.550781 87.667969 257.53125 87.566406 C 254.953125 87.296875 252.203125 89.503906 250.539062 90.824219 L 250.132812 91.132812 C 248.570312 92.351562 247.351562 94.253906 246.332031 97.070312 C 245.890625 98.191406 245.789062 99.921875 245.6875 101.753906 C 245.550781 103.789062 245.382812 106.574219 244.636719 107.183594 C 244.160156 107.558594 243.414062 107.21875 241.648438 105.792969 C 238.628906 103.449219 235.8125 102.535156 231.875 105.65625 C 229.292969 107.691406 227.121094 111.15625 230.277344 116.28125 C 230.617188 116.824219 230.925781 117.367188 231.398438 117.941406 L 234.828125 122.320312 L 247.113281 138.066406 C 248.570312 139.933594 250.574219 142.207031 252.847656 143.191406 C 253.695312 143.566406 254.546875 143.734375 255.394531 143.734375 C 255.460938 143.734375 255.53125 143.734375 255.597656 143.734375 C 257.125 143.667969 258.6875 143.058594 260.246094 141.835938 C 262.179688 140.308594 263.265625 138.578125 263.503906 136.644531 C 263.742188 134.574219 262.929688 132.332031 261.09375 129.992188 C 259.667969 128.191406 258.957031 126.460938 259.125 125.207031 C 259.195312 124.628906 259.433594 124.1875 259.875 123.847656 C 260.417969 123.40625 261.164062 123.441406 264.929688 124.695312 C 266.421875 125.207031 268.324219 125.851562 270.9375 126.765625 C 271.855469 127.105469 272.703125 127.308594 273.515625 127.445312 C 276.46875 127.886719 279.082031 127.003906 282.136719 124.59375 Z M 271.445312 125.238281 C 261.636719 121.777344 260.347656 121.300781 258.789062 122.558594 C 258.007812 123.167969 257.53125 124.050781 257.394531 125.035156 C 257.191406 126.765625 258.007812 128.90625 259.738281 131.078125 C 261.300781 133.046875 261.976562 134.878906 261.808594 136.472656 C 261.636719 137.933594 260.753906 139.289062 259.195312 140.511719 C 257.191406 142.074219 255.394531 142.445312 253.527344 141.664062 C 251.59375 140.816406 249.792969 138.746094 248.4375 137.050781 L 232.722656 116.925781 C 229.53125 112.886719 229.601562 109.628906 232.925781 107.015625 C 234.386719 105.859375 235.574219 105.386719 236.695312 105.386719 C 237.984375 105.386719 239.203125 106.0625 240.628906 107.148438 C 242.054688 108.304688 243.988281 109.898438 245.722656 108.542969 C 247.078125 107.457031 247.25 104.742188 247.417969 101.890625 C 247.519531 100.261719 247.621094 98.597656 247.960938 97.679688 C 248.878906 95.167969 249.894531 93.539062 251.21875 92.488281 L 251.625 92.183594 C 252.984375 91.097656 255.53125 89.0625 257.363281 89.265625 C 257.9375 89.332031 258.414062 89.605469 258.789062 90.113281 C 259.839844 91.4375 260.042969 91.945312 259.535156 98.867188 L 259.433594 99.921875 C 259.125 103.484375 258.992188 105.417969 260.484375 107.355469 C 261.195312 108.269531 261.976562 108.847656 263.03125 109.253906 C 265.984375 110.375 268.460938 111.324219 270.53125 112.105469 C 280.371094 115.839844 281.1875 116.144531 282.273438 117.535156 C 283.96875 119.707031 282.75 121.945312 281.015625 123.304688 C 277.082031 126.394531 274.433594 126.324219 271.445312 125.207031 Z M 271.445312 125.238281 " fill-opacity="1" fill-rule="nonzero"/><path fill="#e3d4d1" d="M 138.40625 214.226562 C 138.746094 213.445312 139.1875 212.292969 139.695312 210.96875 C 140.917969 207.8125 142.308594 204.25 143.160156 202.925781 C 144.890625 200.175781 149.269531 197.359375 153.476562 194.609375 C 157.414062 192.03125 161.519531 189.382812 162.230469 187.449219 C 163.082031 185.175781 161.722656 183.375 158.160156 182.050781 C 155.003906 180.863281 152.390625 181.136719 149.707031 182.933594 C 148.960938 183.445312 148.316406 183.886719 147.742188 184.292969 C 145.398438 185.957031 144.074219 186.835938 142.105469 186.125 C 140.511719 185.515625 139.933594 183.003906 139.390625 180.59375 C 139.152344 179.609375 138.949219 178.691406 138.710938 178.015625 C 137.796875 175.46875 135.894531 173.703125 132.941406 172.582031 C 131.960938 172.210938 130.839844 171.90625 129.785156 171.90625 C 128.394531 171.90625 127.140625 172.449219 126.527344 174.042969 C 125.851562 175.839844 127.242188 181 128.464844 185.582031 C 130.023438 191.351562 131.484375 196.78125 130.464844 199.496094 C 130.058594 200.617188 129.617188 201.667969 129.210938 202.6875 C 127.207031 207.777344 125.613281 211.816406 126.835938 214.496094 C 127.410156 215.820312 128.699219 216.804688 130.738281 217.585938 C 132.367188 218.195312 136.371094 219.113281 138.339844 214.226562 Z M 138.40625 214.226562 " fill-opacity="1" fill-rule="nonzero"/><path fill="#000000" d="M 139.96875 214.871094 C 140.308594 214.089844 140.75 212.902344 141.257812 211.613281 C 142.34375 208.828125 143.804688 205.027344 144.585938 203.875 C 146.144531 201.429688 150.320312 198.714844 154.390625 196.070312 C 158.941406 193.082031 162.910156 190.535156 163.828125 188.09375 C 164.234375 187.042969 164.4375 185.480469 163.488281 183.886719 C 162.773438 182.695312 161.382812 181.476562 158.769531 180.492188 C 155.105469 179.101562 151.914062 179.4375 148.792969 181.542969 C 148.011719 182.050781 147.367188 182.527344 146.789062 182.933594 C 145.570312 183.785156 144.820312 184.292969 144.210938 184.53125 C 143.667969 184.734375 143.261719 184.734375 142.75 184.53125 C 142.003906 184.257812 141.460938 181.816406 141.089844 180.21875 C 140.851562 179.167969 140.613281 178.183594 140.34375 177.4375 C 139.96875 176.382812 139.390625 175.46875 138.710938 174.621094 C 137.492188 173.058594 135.792969 171.835938 133.621094 171.023438 C 127.546875 168.75 125.578125 171.972656 125.035156 173.5 C 124.1875 175.773438 125.441406 180.558594 126.9375 186.058594 C 128.292969 191.078125 129.785156 196.746094 128.972656 198.917969 C 128.566406 200.007812 128.125 201.09375 127.75 202.109375 C 125.613281 207.574219 123.914062 211.882812 125.375 215.246094 C 126.15625 217.007812 127.75 218.296875 130.226562 219.25 C 131.078125 219.589844 131.925781 219.722656 132.738281 219.792969 C 132.941406 219.792969 133.179688 219.859375 133.382812 219.859375 C 136.304688 219.859375 138.746094 218.128906 140.035156 214.9375 Z M 126.902344 214.496094 C 125.714844 211.816406 127.277344 207.777344 129.277344 202.6875 C 129.683594 201.667969 130.09375 200.582031 130.535156 199.496094 C 131.550781 196.816406 130.09375 191.351562 128.53125 185.582031 C 127.308594 181 125.917969 175.839844 126.597656 174.042969 C 127.207031 172.449219 128.464844 171.90625 129.855469 171.90625 C 130.90625 171.90625 132.027344 172.210938 133.011719 172.582031 C 135.964844 173.703125 137.832031 175.46875 138.78125 178.015625 C 139.019531 178.691406 139.257812 179.609375 139.460938 180.59375 C 140.003906 183.003906 140.578125 185.515625 142.175781 186.125 C 144.144531 186.835938 145.433594 185.957031 147.808594 184.292969 C 148.386719 183.886719 149.03125 183.445312 149.777344 182.933594 C 152.457031 181.136719 155.070312 180.863281 158.226562 182.050781 C 161.757812 183.375 163.148438 185.207031 162.300781 187.449219 C 161.585938 189.347656 157.480469 192.03125 153.542969 194.609375 C 149.335938 197.359375 144.957031 200.175781 143.226562 202.925781 C 142.378906 204.214844 140.988281 207.8125 139.765625 210.96875 C 139.257812 212.257812 138.816406 213.410156 138.476562 214.226562 C 136.507812 219.113281 132.503906 218.230469 130.875 217.585938 C 128.835938 216.804688 127.546875 215.820312 126.96875 214.496094 Z M 126.902344 214.496094 " fill-opacity="1" fill-rule="nonzero"/><path fill="#e3d4d1" d="M 197.460938 220.03125 C 201.125 215.957031 203.027344 210.324219 202.789062 204.179688 C 202.550781 198.375 200.210938 193.015625 196.203125 189.179688 C 192.269531 185.414062 187.144531 183.445312 181.78125 183.648438 C 175.230469 183.917969 170.003906 186.429688 166.269531 191.214844 C 163.214844 195.085938 161.65625 200.652344 161.894531 206.828125 C 162.335938 218.128906 171.835938 226.988281 183.105469 226.546875 C 188.773438 226.34375 193.898438 224 197.460938 220.03125 Z M 171.972656 204.824219 C 171.835938 201.464844 172.71875 198.375 174.449219 196.136719 C 176.179688 193.863281 178.660156 192.574219 181.441406 192.472656 C 184.871094 192.335938 187.753906 193.660156 189.757812 196.304688 C 191.417969 198.511719 192.402344 201.5 192.539062 204.722656 C 192.675781 208.285156 191.792969 211.410156 190.027344 213.71875 C 188.195312 216.058594 185.617188 217.347656 182.527344 217.484375 C 182.390625 217.484375 182.222656 217.484375 182.085938 217.484375 C 179.304688 217.484375 176.925781 216.433594 175.164062 214.429688 C 173.226562 212.222656 172.140625 208.933594 171.972656 204.859375 Z M 171.972656 204.824219 " fill-opacity="1" fill-rule="nonzero"/><path fill="#000000" d="M 183.171875 228.242188 C 189.316406 228.003906 194.847656 225.492188 198.75 221.183594 C 202.722656 216.804688 204.757812 210.730469 204.484375 204.144531 C 204.25 198.242188 201.972656 192.8125 198.070312 188.703125 C 197.832031 188.464844 197.628906 188.195312 197.394531 187.957031 C 193.117188 183.851562 187.550781 181.746094 181.746094 181.949219 C 175.636719 182.1875 170.613281 184.292969 166.746094 188.160156 C 166.136719 188.773438 165.523438 189.449219 164.980469 190.164062 C 164.199219 191.148438 163.523438 192.269531 162.945312 193.421875 C 161.011719 197.222656 160.058594 201.839844 160.265625 206.894531 C 160.671875 217.347656 168.238281 225.867188 178.046875 227.835938 C 179.4375 228.105469 180.898438 228.277344 182.359375 228.277344 C 182.628906 228.277344 182.933594 228.277344 183.207031 228.277344 Z M 161.894531 206.828125 C 161.65625 200.652344 163.214844 195.085938 166.269531 191.214844 C 170.003906 186.464844 175.230469 183.917969 181.78125 183.648438 C 187.144531 183.445312 192.234375 185.414062 196.203125 189.179688 C 200.242188 193.046875 202.585938 198.375 202.789062 204.179688 C 203.027344 210.324219 201.125 215.957031 197.460938 220.03125 C 193.863281 224 188.773438 226.308594 183.105469 226.546875 C 171.835938 226.988281 162.335938 218.128906 161.894531 206.828125 Z M 161.894531 206.828125 " fill-opacity="1" fill-rule="nonzero"/><path fill="#000000" d="M 182.085938 217.449219 C 182.085938 217.449219 182.359375 217.449219 182.527344 217.449219 C 185.617188 217.316406 188.195312 216.023438 190.027344 213.683594 C 191.828125 211.375 192.710938 208.285156 192.539062 204.6875 C 192.402344 201.464844 191.417969 198.480469 189.757812 196.273438 C 187.753906 193.625 184.871094 192.269531 181.441406 192.4375 C 178.660156 192.539062 176.179688 193.863281 174.449219 196.101562 C 172.71875 198.34375 171.871094 201.429688 171.972656 204.792969 C 172.140625 208.863281 173.226562 212.15625 175.164062 214.363281 C 176.925781 216.363281 179.304688 217.417969 182.085938 217.417969 Z M 175.773438 197.121094 C 177.199219 195.253906 179.234375 194.203125 181.476562 194.101562 C 181.609375 194.101562 181.746094 194.101562 181.882812 194.101562 C 183.445312 194.101562 184.835938 194.507812 186.023438 195.21875 C 186.90625 195.730469 187.6875 196.410156 188.363281 197.289062 C 189.789062 199.191406 190.707031 201.90625 190.808594 204.757812 C 190.945312 207.914062 190.199219 210.664062 188.636719 212.632812 C 187.144531 214.566406 184.972656 215.617188 182.425781 215.71875 C 181.035156 215.789062 179.777344 215.480469 178.660156 214.9375 C 177.808594 214.53125 177.0625 213.988281 176.417969 213.242188 C 174.753906 211.339844 173.804688 208.390625 173.667969 204.722656 C 173.566406 201.738281 174.3125 199.054688 175.773438 197.121094 Z M 175.773438 197.121094 " fill-opacity="1" fill-rule="nonzero"/><path fill="#e3d4d1" d="M 206.691406 196.171875 C 213.070312 209.578125 214.125 210.898438 217.824219 213.175781 C 222.542969 216.09375 228.683594 216.125 234.65625 213.277344 C 236.015625 212.632812 240.628906 210.1875 243.414062 205.605469 C 246.265625 200.886719 246.296875 195.457031 243.480469 189.519531 L 236.761719 175.367188 C 235.0625 171.804688 233.671875 169.835938 232.214844 168.953125 C 230.925781 168.171875 229.429688 168.273438 227.292969 169.324219 C 225.289062 170.277344 224.339844 171.363281 224.171875 172.921875 C 224 174.550781 224.609375 176.757812 226.207031 180.117188 L 232.824219 194.066406 C 233.976562 196.476562 234.214844 198.75 233.570312 200.617188 C 233.027344 202.144531 231.90625 203.367188 230.3125 204.113281 C 226.988281 205.707031 223.117188 203.808594 221.117188 199.632812 L 214.496094 185.71875 C 212.835938 182.257812 211.441406 180.320312 209.949219 179.507812 C 209.371094 179.203125 208.761719 179.03125 208.082031 179.03125 C 207.132812 179.03125 206.046875 179.335938 204.6875 179.980469 C 201.90625 181.304688 200.753906 183.648438 204.078125 190.671875 Z M 206.691406 196.171875 " fill-opacity="1" fill-rule="nonzero"/><path fill="#000000" d="M 235.402344 214.804688 C 237.269531 213.921875 241.921875 211.339844 244.871094 206.488281 C 248.0625 201.261719 248.097656 195.289062 245.007812 188.773438 L 238.289062 174.621094 C 237.339844 172.617188 236.457031 171.054688 235.605469 169.902344 C 234.792969 168.78125 233.976562 168 233.097656 167.492188 C 231.261719 166.40625 229.261719 166.507812 226.578125 167.765625 C 224.035156 168.984375 222.746094 170.546875 222.507812 172.683594 C 222.304688 174.652344 222.980469 177.132812 224.714844 180.796875 L 231.332031 194.746094 C 232.28125 196.746094 232.519531 198.546875 232.011719 200.007812 C 231.601562 201.09375 230.789062 201.972656 229.601562 202.550781 C 228.414062 203.128906 227.222656 203.027344 226.136719 202.550781 C 224.714844 201.90625 223.457031 200.515625 222.675781 198.917969 L 216.058594 185.003906 C 215.175781 183.136719 214.328125 181.679688 213.480469 180.523438 C 212.597656 179.371094 211.714844 178.558594 210.796875 178.015625 C 208.898438 176.960938 206.792969 177.097656 203.976562 178.453125 C 198.546875 181.035156 200.210938 186.464844 202.550781 191.417969 L 205.164062 196.917969 C 211.476562 210.222656 212.699219 212.019531 216.941406 214.632812 C 218.707031 215.71875 220.675781 216.433594 222.710938 216.804688 C 223.730469 216.976562 224.78125 217.109375 225.867188 217.109375 C 228.957031 217.109375 232.214844 216.363281 235.402344 214.835938 Z M 204.6875 179.949219 C 206.046875 179.304688 207.132812 178.996094 208.082031 178.996094 C 208.761719 178.996094 209.371094 179.167969 209.949219 179.472656 C 211.441406 180.289062 212.835938 182.222656 214.496094 185.683594 L 221.117188 199.597656 C 223.085938 203.773438 226.953125 205.671875 230.3125 204.078125 C 231.90625 203.332031 233.027344 202.109375 233.570312 200.582031 C 234.25 198.714844 233.976562 196.441406 232.824219 194.03125 L 226.207031 180.082031 C 224.609375 176.722656 223.964844 174.519531 224.171875 172.890625 C 224.339844 171.328125 225.257812 170.277344 227.292969 169.292969 C 229.429688 168.273438 230.890625 168.171875 232.214844 168.917969 C 233.640625 169.765625 235.0625 171.734375 236.761719 175.332031 L 243.480469 189.484375 C 246.296875 195.457031 246.296875 200.855469 243.414062 205.570312 C 240.628906 210.152344 236.015625 212.597656 234.65625 213.242188 C 228.648438 216.09375 222.507812 216.058594 217.824219 213.140625 C 214.125 210.867188 213.070312 209.507812 206.691406 196.136719 L 204.078125 190.640625 C 200.71875 183.578125 201.90625 181.273438 204.6875 179.949219 Z M 204.6875 179.949219 " fill-opacity="1" fill-rule="nonzero"/></svg>